<svg width="150" height="150" viewBox="0 0 150 150" fill="none" xmlns="http://www.w3.org/2000/svg">
<path fill-rule="evenodd" clip-rule="evenodd" d="M34 41.392C34 33.9958 39.9958 28 47.392 28H113.608C121.004 28 127 33.9958 127 41.392V107.608C127 115.004 121.004 121 113.608 121H47.392C39.9958 121 34 115.004 34 107.608V41.392ZM74.1948 55.418C74.1948 64.0211 67.1375 70.9953 58.432 70.9953C49.7265 70.9953 42.6693 64.0211 42.6693 55.418C42.6693 46.8149 49.7265 39.8407 58.432 39.8407C67.1375 39.8407 74.1948 46.8149 74.1948 55.418ZM117.543 78.0048H87.5934V107.602H117.543V78.0048Z" fill="#333333"/>
</svg>
