<svg width="443" height="33" viewBox="0 0 443 33" fill="none" xmlns="http://www.w3.org/2000/svg">
<path fill-rule="evenodd" clip-rule="evenodd" d="M128.977 23.0316V0.921387H132.662V23.0316H128.977Z" fill="white"/>
<path d="M55.2364 24.5558H39.6094V21.7388L45.5918 15.6273C46.7494 14.4389 47.7017 13.415 48.4489 12.5556C49.196 11.6855 49.7485 10.8632 50.1063 10.0887C50.4746 9.31413 50.6588 8.47062 50.6588 7.55813C50.6588 6.43344 50.3378 5.58461 49.6959 5.01166C49.054 4.42809 48.2068 4.13631 47.1545 4.13631C46.1548 4.13631 45.2288 4.3379 44.3764 4.7411C43.5345 5.13368 42.6611 5.69602 41.7561 6.42813L39.7199 3.96124C40.3618 3.4095 41.0458 2.90551 41.7719 2.44927C42.5085 1.99303 43.3293 1.63228 44.2343 1.36702C45.1393 1.09115 46.1706 0.953218 47.3282 0.953218C48.7909 0.953218 50.0537 1.21848 51.1165 1.74899C52.1794 2.26889 52.9949 2.9957 53.5632 3.92941C54.1419 4.86311 54.4313 5.95067 54.4313 7.19207C54.4313 8.44409 54.184 9.60061 53.6894 10.6616C53.1948 11.7227 52.4898 12.7731 51.5743 13.8129C50.6588 14.8421 49.5696 15.9615 48.3068 17.1711L44.3133 21.1022V21.2773H55.2364V24.5558Z" fill="white"/>
<path d="M73.7362 12.9057C73.7362 14.7837 73.5888 16.4655 73.2942 17.9509C73.0101 19.4258 72.5576 20.6778 71.9367 21.707C71.3158 22.7362 70.5055 23.5213 69.5058 24.0625C68.5061 24.6036 67.296 24.8741 65.8753 24.8741C64.0969 24.8741 62.6289 24.402 61.4714 23.4577C60.3138 22.5027 59.4562 21.134 58.8984 19.3515C58.3407 17.5583 58.0618 15.4098 58.0618 12.9057C58.0618 10.4017 58.3144 8.25841 58.8195 6.47588C59.3351 4.68274 60.1665 3.3087 61.3135 2.35378C62.4605 1.39885 63.9811 0.921387 65.8753 0.921387C67.6643 0.921387 69.1375 1.39885 70.2951 2.35378C71.4632 3.29809 72.3261 4.66682 72.8838 6.45996C73.452 8.24249 73.7362 10.3911 73.7362 12.9057ZM61.8028 12.9057C61.8028 14.8686 61.9291 16.5079 62.1817 17.8236C62.4448 19.1393 62.8762 20.126 63.476 20.7839C64.0759 21.4311 64.8756 21.7547 65.8753 21.7547C66.875 21.7547 67.6748 21.4311 68.2746 20.7839C68.8744 20.1366 69.3059 19.1552 69.569 17.8395C69.8426 16.5238 69.9794 14.8792 69.9794 12.9057C69.9794 10.9534 69.8478 9.31944 69.5848 8.00376C69.3217 6.68809 68.8902 5.70133 68.2904 5.04349C67.6906 4.37504 66.8856 4.04082 65.8753 4.04082C64.8651 4.04082 64.0601 4.37504 63.4602 5.04349C62.8709 5.70133 62.4448 6.68809 62.1817 8.00376C61.9291 9.31944 61.8028 10.9534 61.8028 12.9057Z" fill="white"/>
<path d="M92.236 24.5558H76.609V21.7388L82.5915 15.6273C83.749 14.4389 84.7014 13.415 85.4485 12.5556C86.1957 11.6855 86.7481 10.8632 87.1059 10.0887C87.4742 9.31413 87.6584 8.47062 87.6584 7.55813C87.6584 6.43344 87.3374 5.58461 86.6955 5.01166C86.0536 4.42809 85.2065 4.13631 84.1542 4.13631C83.1544 4.13631 82.2284 4.3379 81.376 4.7411C80.5342 5.13368 79.6607 5.69602 78.7557 6.42813L76.7195 3.96124C77.3614 3.4095 78.0454 2.90551 78.7715 2.44927C79.5082 1.99303 80.329 1.63228 81.234 1.36702C82.139 1.09115 83.1702 0.953218 84.3278 0.953218C85.7905 0.953218 87.0533 1.21848 88.1161 1.74899C89.179 2.26889 89.9945 2.9957 90.5628 3.92941C91.1416 4.86311 91.431 5.95067 91.431 7.19207C91.431 8.44409 91.1837 9.60061 90.6891 10.6616C90.1945 11.7227 89.4894 12.7731 88.5739 13.8129C87.6584 14.8421 86.5692 15.9615 85.3064 17.1711L81.3129 21.1022V21.2773H92.236V24.5558Z" fill="white"/>
<path d="M109.852 6.6032C109.852 7.65362 109.641 8.56611 109.22 9.34066C108.8 10.1152 108.221 10.7518 107.484 11.2505C106.758 11.7386 105.916 12.0887 104.959 12.3009V12.4123C106.8 12.6458 108.189 13.2293 109.126 14.163C110.073 15.0967 110.546 16.3328 110.546 17.8713C110.546 19.2189 110.225 20.4231 109.584 21.4841C108.942 22.5346 107.958 23.3622 106.632 23.967C105.306 24.5717 103.601 24.8741 101.517 24.8741C100.265 24.8741 99.1024 24.7733 98.029 24.5717C96.9662 24.3702 95.9559 24.0465 94.9983 23.6009V20.2746C95.977 20.7626 97.0188 21.1393 98.1237 21.4046C99.2287 21.6698 100.276 21.8025 101.265 21.8025C103.191 21.8025 104.564 21.4417 105.385 20.7202C106.206 19.9881 106.616 18.9801 106.616 17.6963C106.616 16.8687 106.4 16.1896 105.969 15.6591C105.548 15.1286 104.89 14.7307 103.996 14.4654C103.112 14.2002 101.97 14.0675 100.57 14.0675H98.5341V11.0595H100.586C101.923 11.0595 102.996 10.9004 103.806 10.5821C104.617 10.2531 105.201 9.80221 105.558 9.22925C105.927 8.6563 106.111 7.98785 106.111 7.22391C106.111 6.22654 105.79 5.45199 105.148 4.90025C104.506 4.3379 103.554 4.05673 102.291 4.05673C101.512 4.05673 100.802 4.14692 100.16 4.32729C99.5286 4.50767 98.9445 4.73579 98.4079 5.01166C97.8712 5.28753 97.3608 5.58461 96.8767 5.90292L95.093 3.3087C95.9665 2.65087 97.0083 2.09382 98.2184 1.63758C99.4286 1.18134 100.839 0.953218 102.449 0.953218C104.816 0.953218 106.642 1.46782 107.926 2.49702C109.21 3.51561 109.852 4.88433 109.852 6.6032Z" fill="white"/>
<path d="M166.519 24.498L164.269 18.1058H155.473L153.223 24.498H149.242L157.802 1.38549H161.987L170.531 24.498H166.519ZM163.293 14.8625L161.106 8.56484C161.022 8.29194 160.901 7.90883 160.744 7.41551C160.587 6.9117 160.429 6.40264 160.272 5.88833C160.115 5.36352 159.984 4.92268 159.879 4.56581C159.774 4.99616 159.643 5.47898 159.485 6.01428C159.338 6.53909 159.192 7.0324 159.045 7.49423C158.908 7.95606 158.804 8.31293 158.73 8.56484L156.527 14.8625H163.293Z" fill="white"/>
<path d="M176.903 24.498H173.19V0H176.903V24.498Z" fill="white"/>
<path d="M185.904 24.498H182.19V0H185.904V24.498Z" fill="white"/>
<path d="M206.406 1.47995C208.388 1.47995 210.025 1.72136 211.315 2.20419C212.616 2.68701 213.581 3.42174 214.21 4.40837C214.85 5.39501 215.17 6.6493 215.17 8.17123C215.17 9.30481 214.96 10.2705 214.54 11.0682C214.121 11.8659 213.57 12.5271 212.888 13.0519C212.206 13.5767 211.477 13.9966 210.701 14.3115L217.231 24.498H212.967L207.413 15.2719H203.715V24.498H199.939V1.47995H206.406ZM206.154 4.62879H203.715V12.1545H206.327C208.079 12.1545 209.348 11.8291 210.135 11.1784C210.932 10.5276 211.331 9.56722 211.331 8.29719C211.331 6.96418 210.906 6.01953 210.056 5.46323C209.217 4.90694 207.916 4.62879 206.154 4.62879Z" fill="white"/>
<path d="M223.839 7.06914V24.498H220.142V7.06914H223.839ZM222.014 0.393605C222.581 0.393605 223.068 0.545798 223.478 0.850186C223.897 1.15457 224.107 1.67938 224.107 2.4246C224.107 3.15933 223.897 3.68414 223.478 3.99902C223.068 4.30341 222.581 4.45561 222.014 4.45561C221.427 4.45561 220.929 4.30341 220.519 3.99902C220.121 3.68414 219.922 3.15933 219.922 2.4246C219.922 1.67938 220.121 1.15457 220.519 0.850186C220.929 0.545798 221.427 0.393605 222.014 0.393605Z" fill="white"/>
<path d="M234.114 32.2441C231.754 32.2441 229.944 31.819 228.686 30.9688C227.427 30.1186 226.798 28.9273 226.798 27.3949C226.798 26.3243 227.133 25.4164 227.805 24.6711C228.476 23.9364 229.436 23.4274 230.684 23.144C230.212 22.934 229.803 22.6087 229.457 22.1678C229.121 21.7165 228.953 21.2179 228.953 20.6721C228.953 20.0214 229.137 19.4651 229.504 19.0032C229.871 18.5414 230.422 18.0953 231.156 17.665C230.243 17.2766 229.509 16.6469 228.953 15.7757C228.408 14.894 228.135 13.8601 228.135 12.6741C228.135 11.4145 228.402 10.3439 228.937 9.46226C229.472 8.57009 230.254 7.89309 231.282 7.43126C232.31 6.95893 233.553 6.72277 235.011 6.72277C235.326 6.72277 235.667 6.74376 236.034 6.78574C236.411 6.81723 236.757 6.85922 237.072 6.9117C237.397 6.95368 237.644 7.00092 237.812 7.0534H243.838V9.11588L240.88 9.66693C241.163 10.0658 241.389 10.5224 241.556 11.0367C241.724 11.5405 241.808 12.0915 241.808 12.6898C241.808 14.4951 241.184 15.9174 239.936 16.9565C238.698 17.9851 236.988 18.4994 234.806 18.4994C234.282 18.4784 233.773 18.4364 233.28 18.3735C232.903 18.6044 232.614 18.8615 232.415 19.1449C232.215 19.4178 232.116 19.7275 232.116 20.0738C232.116 20.3572 232.215 20.5881 232.415 20.7666C232.614 20.9345 232.908 21.0605 233.296 21.1444C233.694 21.2284 234.177 21.2704 234.743 21.2704H237.749C239.658 21.2704 241.116 21.6745 242.123 22.4827C243.13 23.2909 243.633 24.477 243.633 26.0409C243.633 28.0247 242.815 29.5518 241.179 30.6224C239.542 31.7035 237.188 32.2441 234.114 32.2441ZM234.256 29.6463C235.546 29.6463 236.632 29.5204 237.513 29.2684C238.394 29.0165 239.06 28.6544 239.511 28.1821C239.962 27.7203 240.188 27.1692 240.188 26.529C240.188 25.9622 240.046 25.5266 239.763 25.2222C239.48 24.9178 239.055 24.7079 238.488 24.5924C237.922 24.477 237.219 24.4192 236.38 24.4192H233.642C232.96 24.4192 232.357 24.5242 231.833 24.7341C231.308 24.9545 230.899 25.2694 230.605 25.6788C230.322 26.0881 230.18 26.5814 230.18 27.1587C230.18 27.9564 230.532 28.5705 231.235 29.0008C231.948 29.4311 232.955 29.6463 234.256 29.6463ZM234.979 16.0748C236.06 16.0748 236.862 15.7809 237.387 15.1931C237.911 14.5949 238.174 13.7552 238.174 12.6741C238.174 11.4985 237.901 10.6168 237.355 10.029C236.82 9.44126 236.023 9.14737 234.964 9.14737C233.925 9.14737 233.133 9.44651 232.588 10.0448C232.053 10.6431 231.785 11.53 231.785 12.7056C231.785 13.7657 232.053 14.5949 232.588 15.1931C233.133 15.7809 233.931 16.0748 234.979 16.0748Z" fill="white"/>
<path d="M250.714 0V6.15598C250.714 6.79624 250.693 7.42076 250.651 8.02954C250.62 8.63831 250.583 9.11064 250.541 9.44651H250.745C251.113 8.83774 251.564 8.33917 252.099 7.95081C252.634 7.55196 253.231 7.25282 253.892 7.0534C254.564 6.85397 255.277 6.75426 256.032 6.75426C257.364 6.75426 258.497 6.97992 259.431 7.43126C260.364 7.87209 261.078 8.55959 261.571 9.49374C262.074 10.4279 262.326 11.6402 262.326 13.1307V24.498H258.628V13.8234C258.628 12.4694 258.35 11.4565 257.794 10.7848C257.239 10.1025 256.378 9.7614 255.214 9.7614C254.092 9.7614 253.2 9.99756 252.539 10.4699C251.889 10.9317 251.422 11.6192 251.139 12.5324C250.856 13.435 250.714 14.5371 250.714 15.8387V24.498H247.016V0H250.714Z" fill="white"/>
<path d="M273.985 21.8214C274.468 21.8214 274.945 21.7795 275.417 21.6955C275.889 21.601 276.319 21.4908 276.707 21.3649V24.1673C276.298 24.3458 275.769 24.498 275.118 24.6239C274.468 24.7499 273.791 24.8128 273.088 24.8128C272.102 24.8128 271.216 24.6502 270.429 24.3248C269.643 23.9889 269.018 23.4169 268.557 22.6087C268.095 21.8005 267.865 20.6826 267.865 19.2551V9.88735H265.489V8.23421L268.038 6.92744L269.249 3.19607H271.578V7.06914H276.566V9.88735H271.578V19.2079C271.578 20.0896 271.798 20.7456 272.239 21.1759C272.679 21.6063 273.262 21.8214 273.985 21.8214Z" fill="white"/>
<path d="M291.954 19.5228C291.954 20.6669 291.676 21.6325 291.12 22.4197C290.564 23.2069 289.751 23.8052 288.681 24.2146C287.622 24.6134 286.321 24.8128 284.779 24.8128C283.562 24.8128 282.513 24.7236 281.632 24.5452C280.762 24.3773 279.938 24.1148 279.162 23.758V20.5619C279.991 20.9503 280.919 21.2861 281.947 21.5695C282.985 21.8529 283.966 21.9946 284.889 21.9946C286.106 21.9946 286.982 21.8057 287.517 21.4278C288.052 21.0395 288.319 20.5252 288.319 19.8849C288.319 19.507 288.209 19.1712 287.989 18.8773C287.779 18.5729 287.381 18.2633 286.793 17.9484C286.216 17.623 285.367 17.2346 284.244 16.7833C283.143 16.3425 282.214 15.9016 281.459 15.4608C280.704 15.02 280.132 14.4899 279.744 13.8706C279.356 13.2409 279.162 12.4379 279.162 11.4618C279.162 9.91884 279.77 8.74852 280.987 7.95081C282.214 7.14261 283.835 6.73851 285.849 6.73851C286.919 6.73851 287.926 6.84872 288.87 7.06914C289.825 7.27906 290.758 7.5887 291.671 7.99805L290.507 10.7848C289.72 10.4384 288.928 10.155 288.131 9.93458C287.344 9.70367 286.541 9.58821 285.723 9.58821C284.769 9.58821 284.04 9.73516 283.536 10.029C283.043 10.3229 282.797 10.7428 282.797 11.2886C282.797 11.6979 282.917 12.0443 283.159 12.3277C283.4 12.6111 283.814 12.8945 284.402 13.1779C284.999 13.4613 285.828 13.8129 286.888 14.2327C287.926 14.6316 288.823 15.0514 289.578 15.4923C290.344 15.9226 290.931 16.4527 291.34 17.0824C291.75 17.7122 291.954 18.5257 291.954 19.5228Z" fill="white"/>
<path d="M311.166 1.47995C313.148 1.47995 314.785 1.72136 316.075 2.20419C317.376 2.68701 318.341 3.42174 318.97 4.40837C319.61 5.39501 319.93 6.6493 319.93 8.17123C319.93 9.30481 319.72 10.2705 319.301 11.0682C318.881 11.8659 318.33 12.5271 317.649 13.0519C316.967 13.5767 316.238 13.9966 315.461 14.3115L321.991 24.498H317.727L312.173 15.2719H308.475V24.498H304.699V1.47995H311.166ZM310.914 4.62879H308.475V12.1545H311.087C312.839 12.1545 314.108 11.8291 314.895 11.1784C315.692 10.5276 316.091 9.56722 316.091 8.29719C316.091 6.96418 315.666 6.01953 314.816 5.46323C313.977 4.90694 312.676 4.62879 310.914 4.62879Z" fill="white"/>
<path d="M331.841 6.73851C333.394 6.73851 334.726 7.05864 335.838 7.69891C336.95 8.33917 337.804 9.24709 338.402 10.4227C339 11.5982 339.299 13.0047 339.299 14.6421V16.6259H327.671C327.713 18.3157 328.164 19.6173 329.025 20.5304C329.895 21.4436 331.112 21.9002 332.675 21.9002C333.787 21.9002 334.783 21.7952 335.665 21.5853C336.556 21.3649 337.474 21.0447 338.418 20.6249V23.632C337.547 24.0414 336.661 24.3405 335.759 24.5294C334.857 24.7184 333.776 24.8128 332.518 24.8128C330.808 24.8128 329.303 24.4822 328.002 23.821C326.712 23.1492 325.699 22.1521 324.965 20.8296C324.241 19.507 323.879 17.8644 323.879 15.9016C323.879 13.9494 324.21 12.291 324.871 10.9265C325.532 9.56197 326.46 8.52285 327.656 7.80912C328.852 7.09538 330.247 6.73851 331.841 6.73851ZM331.841 9.52523C330.677 9.52523 329.733 9.90309 329.009 10.6588C328.296 11.4145 327.876 12.5219 327.75 13.9808H335.68C335.67 13.1097 335.523 12.3382 335.24 11.6664C334.967 10.9947 334.547 10.4699 333.981 10.092C333.425 9.71416 332.712 9.52523 331.841 9.52523Z" fill="white"/>
<path d="M355.175 19.5228C355.175 20.6669 354.897 21.6325 354.341 22.4197C353.785 23.2069 352.972 23.8052 351.903 24.2146C350.843 24.6134 349.542 24.8128 348 24.8128C346.784 24.8128 345.735 24.7236 344.853 24.5452C343.983 24.3773 343.159 24.1148 342.383 23.758V20.5619C343.212 20.9503 344.14 21.2861 345.168 21.5695C346.207 21.8529 347.187 21.9946 348.111 21.9946C349.327 21.9946 350.203 21.8057 350.738 21.4278C351.273 21.0395 351.541 20.5252 351.541 19.8849C351.541 19.507 351.43 19.1712 351.21 18.8773C351 18.5729 350.602 18.2633 350.014 17.9484C349.437 17.623 348.588 17.2346 347.465 16.7833C346.364 16.3425 345.436 15.9016 344.68 15.4608C343.925 15.02 343.353 14.4899 342.965 13.8706C342.577 13.2409 342.383 12.4379 342.383 11.4618C342.383 9.91884 342.992 8.74852 344.208 7.95081C345.436 7.14261 347.056 6.73851 349.07 6.73851C350.14 6.73851 351.147 6.84872 352.091 7.06914C353.046 7.27906 353.979 7.5887 354.892 7.99805L353.728 10.7848C352.941 10.4384 352.149 10.155 351.352 9.93458C350.565 9.70367 349.763 9.58821 348.944 9.58821C347.99 9.58821 347.261 9.73516 346.757 10.029C346.264 10.3229 346.018 10.7428 346.018 11.2886C346.018 11.6979 346.138 12.0443 346.38 12.3277C346.621 12.6111 347.035 12.8945 347.623 13.1779C348.221 13.4613 349.049 13.8129 350.109 14.2327C351.147 14.6316 352.044 15.0514 352.799 15.4923C353.565 15.9226 354.153 16.4527 354.562 17.0824C354.971 17.7122 355.175 18.5257 355.175 19.5228Z" fill="white"/>
<path d="M366.111 6.73851C367.663 6.73851 368.995 7.05864 370.107 7.69891C371.219 8.33917 372.074 9.24709 372.672 10.4227C373.27 11.5982 373.569 13.0047 373.569 14.6421V16.6259H361.941C361.983 18.3157 362.434 19.6173 363.294 20.5304C364.165 21.4436 365.382 21.9002 366.945 21.9002C368.057 21.9002 369.053 21.7952 369.934 21.5853C370.826 21.3649 371.744 21.0447 372.688 20.6249V23.632C371.817 24.0414 370.931 24.3405 370.029 24.5294C369.127 24.7184 368.046 24.8128 366.787 24.8128C365.078 24.8128 363.572 24.4822 362.272 23.821C360.981 23.1492 359.969 22.1521 359.235 20.8296C358.511 19.507 358.149 17.8644 358.149 15.9016C358.149 13.9494 358.48 12.291 359.14 10.9265C359.801 9.56197 360.73 8.52285 361.925 7.80912C363.121 7.09538 364.516 6.73851 366.111 6.73851ZM366.111 9.52523C364.946 9.52523 364.002 9.90309 363.279 10.6588C362.565 11.4145 362.146 12.5219 362.02 13.9808H369.95C369.94 13.1097 369.793 12.3382 369.509 11.6664C369.237 10.9947 368.817 10.4699 368.251 10.092C367.695 9.71416 366.981 9.52523 366.111 9.52523Z" fill="white"/>
<path d="M386.566 6.73851C386.859 6.73851 387.179 6.75426 387.525 6.78574C387.872 6.81723 388.171 6.85922 388.422 6.9117L388.076 10.3754C387.856 10.3124 387.583 10.2652 387.258 10.2337C386.943 10.2022 386.66 10.1865 386.408 10.1865C385.747 10.1865 385.118 10.2967 384.52 10.5171C383.922 10.727 383.393 11.0524 382.931 11.4933C382.469 11.9236 382.108 12.4641 381.845 13.1149C381.583 13.7657 381.452 14.5214 381.452 15.3821V24.498H377.739V7.06914H380.634L381.137 10.1393H381.31C381.656 9.51999 382.087 8.95319 382.601 8.43888C383.115 7.92457 383.702 7.51523 384.363 7.21084C385.034 6.89595 385.768 6.73851 386.566 6.73851Z" fill="white"/>
<path d="M395.629 24.498L389.004 7.06914H392.922L396.51 17.3029C396.741 17.9536 396.95 18.6569 397.139 19.4126C397.328 20.1683 397.459 20.8033 397.533 21.3176H397.658C397.732 20.7823 397.874 20.1421 398.083 19.3968C398.293 18.6411 398.508 17.9431 398.728 17.3029L402.316 7.06914H406.218L399.594 24.498H395.629Z" fill="white"/>
<path d="M415.8 6.73851C417.353 6.73851 418.685 7.05864 419.797 7.69891C420.909 8.33917 421.764 9.24709 422.362 10.4227C422.96 11.5982 423.258 13.0047 423.258 14.6421V16.6259H411.631C411.673 18.3157 412.124 19.6173 412.984 20.5304C413.854 21.4436 415.071 21.9002 416.634 21.9002C417.746 21.9002 418.743 21.7952 419.624 21.5853C420.515 21.3649 421.433 21.0447 422.377 20.6249V23.632C421.507 24.0414 420.62 24.3405 419.718 24.5294C418.816 24.7184 417.736 24.8128 416.477 24.8128C414.767 24.8128 413.262 24.4822 411.961 23.821C410.671 23.1492 409.659 22.1521 408.924 20.8296C408.201 19.507 407.839 17.8644 407.839 15.9016C407.839 13.9494 408.169 12.291 408.83 10.9265C409.491 9.56197 410.419 8.52285 411.615 7.80912C412.811 7.09538 414.206 6.73851 415.8 6.73851ZM415.8 9.52523C414.636 9.52523 413.692 9.90309 412.968 10.6588C412.255 11.4145 411.835 12.5219 411.709 13.9808H419.64C419.629 13.1097 419.482 12.3382 419.199 11.6664C418.926 10.9947 418.507 10.4699 417.94 10.092C417.384 9.71416 416.671 9.52523 415.8 9.52523Z" fill="white"/>
<path d="M433.281 24.8128C431.204 24.8128 429.537 24.0571 428.278 22.5457C427.03 21.0237 426.405 18.7828 426.405 15.8229C426.405 12.8315 427.04 10.5696 428.309 9.03716C429.589 7.50473 431.273 6.73851 433.36 6.73851C434.241 6.73851 435.012 6.85922 435.673 7.10063C436.334 7.33154 436.9 7.64643 437.372 8.04528C437.855 8.44413 438.264 8.89022 438.6 9.38354H438.773C438.72 9.05816 438.657 8.59108 438.584 7.9823C438.521 7.36303 438.49 6.79099 438.49 6.26619V0H442.203V24.498H439.308L438.647 22.1206H438.49C438.175 22.6244 437.776 23.081 437.294 23.4903C436.822 23.8892 436.255 24.2093 435.594 24.4507C434.944 24.6921 434.173 24.8128 433.281 24.8128ZM434.32 21.8057C435.904 21.8057 437.021 21.3491 437.671 20.436C438.322 19.5228 438.657 18.153 438.678 16.3267V15.8387C438.678 13.8864 438.364 12.3907 437.734 11.3516C437.105 10.3019 435.956 9.77714 434.288 9.77714C432.956 9.77714 431.939 10.3177 431.236 11.3988C430.544 12.4694 430.197 13.9651 430.197 15.8859C430.197 17.8067 430.544 19.2761 431.236 20.2943C431.939 21.3019 432.967 21.8057 434.32 21.8057Z" fill="white"/>
<path d="M10.2263 7.93069C9.39452 7.93069 8.75131 8.2482 8.29681 8.88321C7.8423 9.51822 7.61508 10.3978 7.61508 11.5219C7.61508 13.9247 8.48551 15.1261 10.2263 15.1261C10.7152 15.1261 11.2426 15.0617 11.8086 14.933C12.3746 14.8043 12.9019 14.6155 13.3907 14.3666V16.8252C12.3617 17.3143 11.2811 17.5589 10.1492 17.5589C8.39974 17.5589 7.04483 17.0225 6.08437 15.9499C5.1239 14.8772 4.64364 13.3927 4.64364 11.4962C4.64364 9.60832 5.11532 8.14093 6.05864 7.09402C7.01053 6.03852 8.33974 5.51077 10.0463 5.51077C11.324 5.51077 12.6318 5.84544 13.9696 6.51478L13.0177 8.67726C12.0486 8.17955 11.1182 7.93069 10.2263 7.93069ZM0 11.5219C0 9.8057 0.428748 8.19671 1.28631 6.69499C2.14386 5.19327 3.32302 4.00905 4.82375 3.14234C6.32448 2.27564 7.94096 1.84229 9.67323 1.84229C11.3883 1.84229 12.9963 2.27135 14.497 3.12947C15.9977 3.9876 17.1811 5.16752 18.0473 6.66925C18.9134 8.17097 19.3465 9.78853 19.3465 11.5219C19.3465 13.2125 18.9306 14.8 18.0987 16.2845C17.2669 17.7691 16.1006 18.9576 14.5999 19.8501C13.0992 20.7425 11.4569 21.1887 9.67323 21.1887C7.89808 21.1887 6.26013 20.7468 4.7594 19.8629C3.25868 18.9705 2.08814 17.782 1.24773 16.2974C0.415901 14.8129 0 13.221 0 11.5219ZM1.82658 11.5219C1.82658 12.9293 2.17817 14.2422 2.88136 15.4607C3.58456 16.6707 4.54504 17.6275 5.76277 18.3312C6.9805 19.0263 8.28399 19.3738 9.67323 19.3738C11.0796 19.3738 12.3874 19.022 13.5966 18.3183C14.8143 17.6146 15.7705 16.6535 16.4651 15.435C17.1683 14.2165 17.5199 12.9121 17.5199 11.5219C17.5199 10.1146 17.1683 8.80598 16.4651 7.59602C15.7619 6.37748 14.8014 5.42067 13.5837 4.72559C12.366 4.02192 11.0625 3.67009 9.67323 3.67009C8.26683 3.67009 6.95477 4.02192 5.73704 4.72559C4.52788 5.42925 3.57172 6.39035 2.86852 7.60889C2.1739 8.82743 1.82658 10.1318 1.82658 11.5219Z" fill="white"/>
</svg>
