<svg width="150" height="150" viewBox="0 0 150 150" fill="none" xmlns="http://www.w3.org/2000/svg">
<path d="M15.8296 39C15.4609 38.9999 15.0957 39.0727 14.7551 39.2142C14.4144 39.3557 14.1048 39.563 13.8441 39.8245C13.5833 40.086 13.3765 40.3965 13.2355 40.7382C13.0944 41.0799 13.0218 41.446 13.0219 41.8158V80.09C13.0224 80.8364 13.3185 81.5521 13.845 82.0796C14.3715 82.6072 15.0854 82.9034 15.8296 82.9032H21.4204V87.4851H15.8269C15.0775 87.486 14.359 87.78 13.829 88.3028C13.2991 88.8255 13.0009 89.5343 13 90.2736V98.5816C13.0002 99.3213 13.298 100.031 13.828 100.554C14.358 101.078 15.077 101.372 15.8269 101.373H25.6539C26.1043 101.373 26.5483 101.267 26.9489 101.064C27.3494 100.861 27.6951 100.566 27.9571 100.205L34.1263 91.6802H69.113L75.285 100.205C75.5467 100.566 75.8919 100.86 76.292 101.063C76.6921 101.266 77.1355 101.373 77.5854 101.373H100.044C100.51 101.373 100.969 101.26 101.38 101.043C101.791 100.826 102.141 100.513 102.4 100.131L108.012 91.8227C108.296 91.4024 108.458 90.9144 108.482 90.4103C108.507 89.9062 108.392 89.405 108.151 88.96C107.91 88.515 107.551 88.1428 107.112 87.8831C106.673 87.6234 106.171 87.4859 105.66 87.4851H86.0305V82.9032H91.9201C92.6644 82.9034 93.3782 82.6072 93.9047 82.0796C94.4312 81.5521 94.7273 80.8364 94.7278 80.09V41.8158C94.7279 41.446 94.6553 41.0799 94.5143 40.7382C94.3732 40.3965 94.1664 40.086 93.9057 39.8245C93.6449 39.563 93.3354 39.3557 92.9947 39.2142C92.654 39.0727 92.2888 38.9999 91.9201 39H15.8296ZM29.8654 52.9371H30.5975V70.8883H29.8654V52.9371ZM45.3051 52.9371H46.0371V70.8883H45.3051V52.9371ZM62.1458 52.9371H62.8806V70.8883H62.1458V52.9371ZM77.5854 52.9371H78.3203V70.8883H77.5854V52.9371Z" fill="#333333"/>
<path d="M100.044 47.3079C99.3005 47.3084 98.5873 47.6049 98.0614 48.1324C97.5355 48.6599 97.2398 49.3751 97.2393 50.1211V83.3529C97.2398 84.0988 97.5355 84.8141 98.0614 85.3415C98.5873 85.869 99.3005 86.1655 100.044 86.1661H112.386C116.745 86.8002 119.126 88.1911 120.737 90.046C122.364 91.9185 123.304 94.5129 123.962 97.7589C124.091 98.395 124.435 98.9668 124.936 99.3776C125.437 99.7883 126.065 100.013 126.712 100.013H133.731C134.1 100.013 134.465 99.9401 134.806 99.7986C135.147 99.6571 135.456 99.4497 135.717 99.1882C135.978 98.9267 136.184 98.6162 136.325 98.2745C136.467 97.9329 136.539 97.5666 136.539 97.1968V70.8883C136.539 69.8479 136.355 69.7584 136.232 69.4323C136.109 69.1062 135.964 68.7836 135.793 68.4151C135.452 67.6782 134.999 66.7835 134.461 65.7554C133.385 63.6994 131.975 61.1316 130.564 58.61C127.744 53.5669 124.927 48.7091 124.927 48.7091C124.68 48.2829 124.326 47.9292 123.9 47.6833C123.475 47.4374 122.992 47.308 122.5 47.3079H100.044ZM106.293 53.5676H118.925C119.43 53.5679 119.925 53.7012 120.36 53.9539C120.795 54.2065 121.153 54.5692 121.398 55.0045L128.415 67.4664C128.654 67.8913 128.776 68.3702 128.77 68.8559C128.763 69.3417 128.628 69.8175 128.379 70.2361C128.129 70.6548 127.773 71.002 127.345 71.2433C126.918 71.4846 126.434 71.6117 125.942 71.6121H106.293C105.543 71.6119 104.823 71.3178 104.292 70.7944C103.762 70.271 103.464 69.5612 103.463 68.821V56.359C103.464 55.6187 103.762 54.9088 104.292 54.3854C104.823 53.862 105.543 53.5678 106.293 53.5676Z" fill="#333333"/>
<path d="M61.9375 92.7578C56.6961 92.7578 52.3436 97.0269 52.3436 102.272C52.3436 107.517 56.6961 111.784 61.9375 111.784C67.179 111.784 71.5342 107.517 71.5342 102.272C71.5342 97.0269 67.179 92.7578 61.9375 92.7578Z" fill="#333333"/>
<path d="M40.9565 92.9031C35.715 92.9031 31.3626 97.1722 31.3626 102.417C31.3626 107.663 35.715 111.929 40.9565 111.929C46.198 111.929 50.5532 107.663 50.5532 102.417C50.5532 97.1722 46.198 92.9031 40.9565 92.9031Z" fill="#333333"/>
<path d="M113.8 92.9799C108.559 92.9799 104.204 97.2435 104.204 102.489C104.204 107.734 108.559 112 113.8 112C119.042 112 123.394 107.734 123.394 102.489C123.394 97.2435 119.042 92.9799 113.8 92.9799Z" fill="#333333"/>
</svg>
