<svg width="150" height="150" viewBox="0 0 150 150" fill="none" xmlns="http://www.w3.org/2000/svg">
<g id="Lighting">
<g id="Group 255">
<g id="2">
<g id="Group">
<path id="Vector" d="M120.494 22H100.43H98.6062V22.0547C88.465 22.6931 79.71 28.5298 74.9859 36.92C70.1889 27.8549 61.2698 22 53.0073 22H51.1833H29.2958C25.2649 22 22 25.2649 22 29.2958V32.9437C22 38.981 26.9064 43.8875 32.9437 43.8875H40.2396C46.2769 43.8875 51.1833 38.981 51.1833 32.9437V29.2958H53.0073C61.2698 29.2958 71.2468 39.054 71.2468 51.1833V109.55H69.4229C62.3824 109.55 56.6552 115.277 56.6552 122.318V127.789H93.1343V122.318C93.1343 115.277 87.4071 109.55 80.3666 109.55H78.5427V51.1833C78.5427 39.7289 87.3888 30.299 98.6062 29.3688V32.9437C98.6062 38.981 103.513 43.8875 109.55 43.8875H116.846C122.883 43.8875 127.789 38.981 127.789 32.9437V29.2958C127.789 25.2649 124.525 22 120.494 22Z" fill="#333333"/>
</g>
</g>
</g>
</g>
</svg>
