<svg width="499" height="271" viewBox="0 0 499 271" fill="none" xmlns="http://www.w3.org/2000/svg">
<rect y="69" width="499" height="202" rx="10" fill="#161616"/>
<path d="M264.292 168.576C266.157 168.576 267.671 168.366 268.834 167.946C271.041 167.142 272.145 165.647 272.145 163.46C272.145 162.184 271.597 161.196 270.502 160.496C269.407 159.814 267.688 159.211 265.344 158.686L261.341 157.768C257.406 156.859 254.686 155.871 253.18 154.804C250.631 153.02 249.356 150.231 249.356 146.436C249.356 142.973 250.588 140.096 253.052 137.805C255.515 135.514 259.134 134.369 263.907 134.369C267.893 134.369 271.289 135.453 274.095 137.622C275.918 139.011 277.181 140.809 277.884 143.016C278.557 145.129 276.732 147.013 274.558 147.013C272.525 147.013 271.027 145.208 269.779 143.568C269.312 142.954 268.707 142.45 267.962 142.055C266.73 141.408 265.199 141.084 263.368 141.084C261.332 141.084 259.707 141.504 258.492 142.344C257.277 143.183 256.67 144.355 256.67 145.859C256.67 147.24 257.269 148.272 258.466 148.954C259.236 149.409 260.879 149.942 263.394 150.554L269.912 152.154C272.769 152.854 274.925 153.789 276.379 154.961C278.637 156.78 279.766 159.412 279.766 162.857C279.766 166.39 278.44 169.328 275.788 171.671C273.154 173.997 269.424 175.16 264.6 175.16C259.673 175.16 255.798 174.015 252.975 171.724C251.183 170.259 249.96 168.449 249.306 166.294C248.645 164.119 250.546 162.228 252.773 162.228C254.786 162.228 256.283 163.869 257.318 165.635C257.435 165.836 257.562 166.021 257.697 166.189C258.98 167.78 261.178 168.576 264.292 168.576Z" fill="white"/>
<path fill-rule="evenodd" clip-rule="evenodd" d="M305.086 165.731C307.699 165.731 309.602 168.098 307.987 170.165C307.783 170.426 307.564 170.687 307.33 170.949C304.874 173.757 301.435 175.16 297.014 175.16C293.364 175.16 290.145 173.977 287.355 171.611C284.565 169.245 283.171 165.395 283.171 160.062C283.171 155.065 284.425 151.233 286.934 148.567C289.46 145.9 292.733 144.567 296.75 144.567C299.136 144.567 301.286 145.017 303.198 145.918C305.111 146.818 306.69 148.24 307.935 150.182C309.058 151.895 309.786 153.882 310.12 156.142C310.313 157.466 310.392 159.374 310.357 161.863H290.724C290.829 164.759 291.733 166.79 293.434 167.956C294.469 168.68 295.715 169.042 297.171 169.042C298.715 169.042 299.97 168.6 300.935 167.717C302.04 166.716 303.276 165.731 304.762 165.731H305.086ZM302.567 156.884C302.444 154.888 301.838 153.379 300.751 152.354C299.68 151.312 298.347 150.792 296.75 150.792C295.013 150.792 293.662 151.339 292.698 152.434C291.75 153.529 291.154 155.012 290.908 156.884H302.567Z" fill="white"/>
<path d="M323.91 153.841C324.82 151.728 326.497 150.672 328.941 150.672C330.93 150.672 332.278 151.394 332.986 152.836C333.373 153.626 333.567 154.76 333.567 156.237V159.297H340.95V154.408C340.95 150.887 340.039 148.371 338.219 146.86C336.416 145.331 334.09 144.567 331.241 144.567C328.966 144.567 327.087 145.134 325.604 146.267C324.778 146.903 323.901 147.942 322.974 149.384V148.83C322.974 146.874 321.418 145.288 319.498 145.288C317.578 145.288 316.022 146.874 316.022 148.83V159.297H323.202V158.117C323.202 156.383 323.438 154.957 323.91 153.841Z" fill="white"/>
<path d="M322.82 162.697H316.022V170.386C316.022 172.397 317.544 174.027 319.421 174.027C321.298 174.027 322.82 172.397 322.82 170.386V162.697Z" fill="white"/>
<path d="M340.951 162.697H334.152V170.283C334.152 172.351 335.674 174.027 337.552 174.027C339.429 174.027 340.951 172.351 340.951 170.283V162.697Z" fill="white"/>
<path d="M356.058 162.697H372.128C372.494 163.579 372.676 164.549 372.676 165.607C372.676 168.418 371.603 170.718 369.455 172.505C367.325 174.275 364.023 175.16 359.55 175.16C354.988 175.16 351.616 174.223 349.432 172.349C348.182 171.257 347.293 169.994 346.764 168.561C346.097 166.749 347.781 165.138 349.75 165.138H351.458C352.571 165.138 353.446 166.211 354.191 167.123C354.299 167.256 354.405 167.386 354.509 167.509C354.837 167.897 355.149 168.072 355.605 168.304C356.798 168.912 358.005 169.433 360.136 169.433C361.627 169.433 362.807 169.217 363.677 168.783C364.565 168.349 365.008 167.698 365.008 166.83C365.008 165.997 364.653 165.364 363.943 164.93C363.234 164.497 360.606 163.752 356.058 162.697Z" fill="white"/>
<path d="M370.602 159.297H350.154C350.011 159.19 349.877 159.081 349.751 158.97C348.417 157.812 347.75 156.144 347.75 153.965C347.75 151.394 348.786 149.189 350.857 147.35C352.946 145.495 355.877 144.567 359.651 144.567C363.232 144.567 366.154 145.256 368.419 146.635C369.687 147.424 370.651 148.532 371.31 149.961C372.214 151.923 370.373 153.837 368.156 153.837H367.248C365.847 153.837 364.832 152.686 363.969 151.615C363.144 150.628 361.74 150.134 359.756 150.134C358.124 150.134 356.957 150.381 356.255 150.875C355.57 151.368 355.228 151.947 355.228 152.611C355.228 153.446 355.596 154.05 356.334 154.424C357.071 154.816 359.677 155.489 364.153 156.442C366.965 157.084 369.115 158.035 370.602 159.297Z" fill="white"/>
<path d="M381.556 162.697L385.32 173.469C385.677 174.491 385.897 175.961 385.491 176.964C385.133 177.888 384.742 178.496 384.316 178.787C383.874 179.095 383.329 179.292 382.683 179.377C382.399 179.415 382.11 179.441 381.812 179.455C381.036 179.493 380.257 179.537 379.496 179.701L379.281 179.748C379.174 179.771 379.071 179.807 378.975 179.856L378.674 180.007C376.266 181.218 376.993 184.853 379.68 185.034C379.742 185.038 379.804 185.047 379.866 185.06C380.171 185.126 381.155 185.333 381.484 185.333C381.875 185.35 382.394 185.358 383.041 185.358C387.585 185.358 390.844 181.553 392.485 177.289C392.909 176.186 393.359 174.949 393.834 173.576L397.607 162.697H391.017L389.905 166.696L388.727 162.697H381.556Z" fill="white"/>
<path d="M387.41 159.297H380.419L377.417 149.845C376.599 147.267 378.327 144.567 380.796 144.567C382.382 144.567 383.78 145.722 384.23 147.406L387.41 159.297Z" fill="white"/>
<path d="M391.942 159.297H398.726L401.937 149.585C402.748 147.131 401.022 144.567 398.56 144.567C396.957 144.567 395.548 145.694 395.117 147.324L391.942 159.297Z" fill="white"/>
<path d="M406.845 162.539C407.259 165.626 408.417 168.342 410.322 170.688C412.755 173.67 416.448 175.16 421.401 175.16C426.355 175.16 430.049 173.67 432.482 170.688C434.916 167.69 436.132 164.086 436.132 159.877C436.132 155.738 434.916 152.152 432.482 149.118C430.049 146.084 426.355 144.567 421.401 144.567C416.448 144.567 412.755 146.084 410.322 149.118C407.895 152.144 406.678 155.72 406.671 159.845H414.5C414.503 156.985 415.094 154.785 416.271 153.248C417.471 151.687 419.172 150.907 421.376 150.907C423.578 150.907 425.272 151.687 426.453 153.248C427.634 154.791 428.225 157.001 428.225 159.877C428.225 162.753 427.634 164.971 426.453 166.532C425.272 168.093 423.578 168.873 421.376 168.873C419.172 168.873 417.471 168.093 416.271 166.532C415.485 165.493 414.96 164.162 414.698 162.539H406.845Z" fill="white"/>
<path d="M448.908 154.07C449.86 151.906 451.613 150.823 454.168 150.823C456.248 150.823 457.657 151.562 458.397 153.041C458.803 153.85 459.005 155.012 459.005 156.525V170.173C459.005 172.302 460.733 174.027 462.864 174.027C464.995 174.027 466.723 172.302 466.723 170.173V154.651C466.723 151.043 465.772 148.465 463.869 146.916C461.983 145.35 459.551 144.567 456.573 144.567C454.194 144.567 452.23 145.148 450.679 146.309C449.816 146.96 448.899 148.025 447.931 149.503V148.936C447.931 146.931 446.302 145.306 444.296 145.306C442.289 145.306 440.662 146.931 440.662 148.936V170.279C440.662 172.349 442.341 174.027 444.414 174.027C446.488 174.027 448.167 172.349 448.167 170.279V158.452C448.167 156.675 448.414 155.214 448.908 154.07Z" fill="white"/>
<path d="M299.032 188.757H302.431V205.754H299.032V188.757Z" fill="white"/>
<path d="M310.925 205.754C309.938 205.754 309.055 205.601 308.275 205.296C307.511 204.976 306.858 204.542 306.317 203.993C305.791 203.444 305.386 202.788 305.099 202.026C304.828 201.264 304.693 200.425 304.693 199.51C304.693 198.611 304.828 197.78 305.099 197.018C305.386 196.255 305.791 195.6 306.317 195.051C306.858 194.502 307.511 194.075 308.275 193.77C309.055 193.45 309.938 193.29 310.925 193.29C311.912 193.29 312.788 193.45 313.552 193.77C314.332 194.075 314.984 194.502 315.51 195.051C316.051 195.6 316.457 196.255 316.727 197.018C317.014 197.78 317.157 198.611 317.157 199.51C317.157 200.425 317.014 201.264 316.727 202.026C316.457 202.788 316.051 203.444 315.51 203.993C314.984 204.542 314.332 204.976 313.552 205.296C312.788 205.601 311.912 205.754 310.925 205.754ZM310.925 203.695C311.53 203.695 312.055 203.574 312.501 203.33C312.947 203.086 313.313 202.765 313.599 202.369C313.886 201.973 314.093 201.53 314.22 201.043C314.363 200.539 314.435 200.029 314.435 199.51C314.435 199.007 314.363 198.504 314.22 198.001C314.093 197.498 313.886 197.056 313.599 196.675C313.313 196.278 312.947 195.958 312.501 195.714C312.055 195.47 311.53 195.348 310.925 195.348C310.32 195.348 309.795 195.47 309.349 195.714C308.903 195.958 308.537 196.278 308.251 196.675C307.964 197.056 307.749 197.498 307.606 198.001C307.479 198.504 307.415 199.007 307.415 199.51C307.415 200.029 307.479 200.539 307.606 201.043C307.749 201.53 307.964 201.973 308.251 202.369C308.537 202.765 308.903 203.086 309.349 203.33C309.795 203.574 310.32 203.695 310.925 203.695Z" fill="white"/>
<path d="M318.288 188.757H331.885V191.328H326.545V205.754H323.605V191.328H318.288V188.757Z" fill="white"/>
<path d="M343.651 198.731L346.55 190.804H346.598L349.45 198.731H343.651ZM345.352 188.757L338.691 205.754H341.015L342.932 200.636H350.169L352.038 205.754H354.554L347.868 188.757H345.352Z" fill="white"/>
<path d="M363.906 197.398H365.815C365.743 196.69 365.569 196.083 365.294 195.575C365.019 195.052 364.665 194.621 364.231 194.282C363.812 193.944 363.32 193.698 362.756 193.544C362.206 193.374 361.613 193.29 360.976 193.29C360.094 193.29 359.32 193.459 358.655 193.798C357.99 194.121 357.433 194.575 356.984 195.159C356.55 195.729 356.225 196.406 356.008 197.191C355.791 197.96 355.682 198.791 355.682 199.683C355.682 200.576 355.791 201.399 356.008 202.153C356.239 202.892 356.572 203.53 357.006 204.069C357.454 204.607 358.004 205.023 358.655 205.315C359.32 205.608 360.08 205.754 360.933 205.754C362.365 205.754 363.493 205.354 364.318 204.554C365.157 203.753 365.678 202.615 365.88 201.137H363.992C363.877 202.061 363.559 202.776 363.038 203.284C362.532 203.792 361.823 204.046 360.911 204.046C360.333 204.046 359.834 203.923 359.414 203.676C358.995 203.43 358.655 203.107 358.394 202.707C358.134 202.292 357.939 201.822 357.809 201.299C357.693 200.776 357.635 200.237 357.635 199.683C357.635 199.083 357.693 198.506 357.809 197.952C357.924 197.383 358.112 196.883 358.373 196.452C358.648 196.021 359.009 195.675 359.458 195.413C359.906 195.152 360.463 195.021 361.128 195.021C361.909 195.021 362.531 195.229 362.994 195.644C363.457 196.06 363.761 196.644 363.906 197.398Z" fill="white"/>
<path d="M377.285 197.398H379.406C379.326 196.69 379.133 196.083 378.828 195.575C378.522 195.052 378.128 194.621 377.646 194.282C377.18 193.944 376.634 193.698 376.007 193.544C375.396 193.374 374.737 193.29 374.03 193.29C373.05 193.29 372.19 193.459 371.451 193.798C370.711 194.121 370.092 194.575 369.594 195.159C369.112 195.729 368.75 196.406 368.509 197.191C368.268 197.96 368.148 198.791 368.148 199.683C368.148 200.576 368.268 201.399 368.509 202.153C368.766 202.892 369.136 203.53 369.618 204.069C370.117 204.607 370.727 205.023 371.451 205.315C372.19 205.608 373.034 205.754 373.982 205.754C375.573 205.754 376.827 205.354 377.743 204.554C378.675 203.753 379.254 202.615 379.479 201.137H377.381C377.253 202.061 376.899 202.776 376.321 203.284C375.758 203.792 374.97 204.046 373.958 204.046C373.315 204.046 372.761 203.923 372.294 203.676C371.828 203.43 371.451 203.107 371.161 202.707C370.872 202.292 370.655 201.822 370.51 201.299C370.382 200.776 370.317 200.237 370.317 199.683C370.317 199.083 370.382 198.506 370.51 197.952C370.639 197.383 370.848 196.883 371.137 196.452C371.443 196.021 371.844 195.675 372.343 195.413C372.841 195.152 373.46 195.021 374.199 195.021C375.067 195.021 375.758 195.229 376.272 195.644C376.787 196.06 377.124 196.644 377.285 197.398Z" fill="white"/>
<path d="M389.8 198.391H382.75C382.781 197.929 382.884 197.498 383.058 197.098C383.232 196.683 383.47 196.321 383.77 196.013C384.071 195.706 384.427 195.467 384.839 195.298C385.266 195.113 385.741 195.021 386.263 195.021C386.77 195.021 387.228 195.113 387.64 195.298C388.067 195.467 388.431 195.706 388.732 196.013C389.048 196.306 389.294 196.66 389.468 197.075C389.658 197.491 389.769 197.929 389.8 198.391ZM391.747 201.715H389.753C389.579 202.499 389.215 203.084 388.661 203.469C388.123 203.853 387.426 204.046 386.572 204.046C385.907 204.046 385.329 203.938 384.839 203.723C384.348 203.507 383.945 203.222 383.628 202.869C383.312 202.499 383.082 202.084 382.94 201.622C382.797 201.145 382.734 200.645 382.75 200.122H391.937C391.968 199.399 391.897 198.637 391.723 197.837C391.565 197.037 391.264 196.298 390.821 195.621C390.394 194.944 389.816 194.39 389.088 193.959C388.376 193.513 387.474 193.29 386.382 193.29C385.543 193.29 384.767 193.444 384.055 193.751C383.359 194.059 382.75 194.49 382.227 195.044C381.721 195.598 381.325 196.252 381.04 197.006C380.756 197.76 380.613 198.591 380.613 199.499C380.645 200.407 380.779 201.245 381.017 202.015C381.27 202.784 381.642 203.446 382.132 204C382.623 204.554 383.224 204.984 383.937 205.292C384.665 205.6 385.519 205.754 386.5 205.754C387.893 205.754 389.048 205.415 389.966 204.738C390.884 204.061 391.478 203.053 391.747 201.715Z" fill="white"/>
<path d="M394.211 188.757V205.754H396.477V188.757H394.211Z" fill="white"/>
<path d="M408.142 198.391H401.797C401.825 197.929 401.918 197.498 402.074 197.098C402.231 196.683 402.445 196.321 402.715 196.013C402.986 195.706 403.306 195.467 403.677 195.298C404.061 195.113 404.489 195.021 404.959 195.021C405.414 195.021 405.828 195.113 406.198 195.298C406.582 195.467 406.91 195.706 407.181 196.013C407.466 196.306 407.686 196.66 407.843 197.075C408.014 197.491 408.114 197.929 408.142 198.391ZM409.894 201.715H408.099C407.943 202.499 407.615 203.084 407.117 203.469C406.632 203.853 406.006 204.046 405.236 204.046C404.638 204.046 404.118 203.938 403.677 203.723C403.235 203.507 402.872 203.222 402.587 202.869C402.302 202.499 402.096 202.084 401.968 201.622C401.839 201.145 401.782 200.645 401.797 200.122H410.065C410.093 199.399 410.029 198.637 409.873 197.837C409.73 197.037 409.46 196.298 409.061 195.621C408.676 194.944 408.156 194.39 407.501 193.959C406.86 193.513 406.048 193.29 405.066 193.29C404.311 193.29 403.613 193.444 402.972 193.751C402.345 194.059 401.797 194.49 401.327 195.044C400.871 195.598 400.515 196.252 400.258 197.006C400.002 197.76 399.874 198.591 399.874 199.499C399.902 200.407 400.023 201.245 400.237 202.015C400.465 202.784 400.8 203.446 401.241 204C401.683 204.554 402.224 204.984 402.865 205.292C403.52 205.6 404.289 205.754 405.172 205.754C406.426 205.754 407.466 205.415 408.292 204.738C409.118 204.061 409.652 203.053 409.894 201.715Z" fill="white"/>
<path d="M412.339 193.575V205.754H414.464V200.336C414.464 199.551 414.547 198.86 414.714 198.263C414.88 197.651 415.147 197.132 415.514 196.708C415.88 196.284 416.363 195.962 416.963 195.743C417.563 195.523 418.288 195.413 419.138 195.413V193.293C417.988 193.261 417.038 193.481 416.288 193.952C415.539 194.423 414.905 195.154 414.389 196.143H414.339V193.575H412.339Z" fill="white"/>
<path d="M431.6 205.454C431.258 205.654 430.783 205.754 430.176 205.754C429.664 205.754 429.253 205.615 428.942 205.338C428.647 205.046 428.499 204.577 428.499 203.93C427.955 204.577 427.317 205.046 426.586 205.338C425.871 205.615 425.095 205.754 424.256 205.754C423.712 205.754 423.19 205.692 422.692 205.569C422.211 205.446 421.791 205.254 421.433 204.992C421.076 204.73 420.788 204.392 420.571 203.976C420.369 203.546 420.269 203.03 420.269 202.43C420.269 201.753 420.386 201.199 420.619 200.768C420.852 200.337 421.155 199.991 421.528 199.73C421.917 199.453 422.35 199.245 422.832 199.106C423.33 198.968 423.835 198.852 424.348 198.76C424.892 198.652 425.405 198.575 425.887 198.529C426.384 198.468 426.819 198.391 427.192 198.298C427.565 198.191 427.862 198.045 428.079 197.86C428.297 197.66 428.405 197.375 428.405 197.006C428.405 196.575 428.32 196.229 428.149 195.967C427.994 195.706 427.783 195.506 427.519 195.367C427.27 195.229 426.982 195.136 426.656 195.09C426.345 195.044 426.034 195.021 425.723 195.021C424.884 195.021 424.185 195.182 423.625 195.506C423.065 195.813 422.764 196.406 422.717 197.283H420.735C420.766 196.544 420.922 195.921 421.202 195.413C421.481 194.905 421.854 194.498 422.321 194.19C422.787 193.867 423.315 193.636 423.906 193.498C424.512 193.359 425.157 193.29 425.841 193.29C426.385 193.29 426.92 193.328 427.449 193.405C427.993 193.482 428.482 193.644 428.917 193.89C429.353 194.121 429.702 194.452 429.967 194.882C430.231 195.313 430.363 195.875 430.363 196.567V202.707C430.363 203.169 430.386 203.507 430.433 203.723C430.495 203.938 430.683 204.046 430.994 204.046C431.165 204.046 431.367 204.007 431.6 203.93V205.454ZM428.381 199.337C428.133 199.522 427.806 199.66 427.402 199.753C426.998 199.83 426.57 199.899 426.12 199.96C425.684 200.006 425.243 200.068 424.792 200.145C424.341 200.207 423.937 200.314 423.58 200.468C423.222 200.622 422.926 200.845 422.692 201.137C422.475 201.414 422.366 201.799 422.366 202.292C422.366 202.615 422.428 202.892 422.553 203.122C422.692 203.338 422.865 203.515 423.067 203.653C423.284 203.792 423.532 203.892 423.812 203.953C424.091 204.015 424.387 204.046 424.697 204.046C425.35 204.046 425.911 203.961 426.377 203.792C426.844 203.607 427.223 203.384 427.519 203.122C427.814 202.845 428.033 202.553 428.173 202.245C428.313 201.922 428.381 201.622 428.381 201.345V199.337Z" fill="white"/>
<path d="M436.283 193.549V189.89H434.538V193.549H432.732V195.319H434.538V203.086C434.538 203.652 434.586 204.109 434.682 204.455C434.778 204.801 434.921 205.069 435.113 205.257C435.318 205.446 435.578 205.58 435.893 205.659C436.222 205.722 436.612 205.753 437.063 205.753H438.397V203.983H437.597C437.323 203.983 437.097 203.975 436.919 203.959C436.755 203.928 436.625 203.873 436.529 203.794C436.434 203.715 436.365 203.605 436.324 203.463C436.297 203.322 436.283 203.133 436.283 202.897V195.319H438.397V193.549H436.283Z" fill="white"/>
<path d="M449.849 198.391H442.798C442.83 197.929 442.933 197.498 443.107 197.098C443.281 196.683 443.518 196.321 443.819 196.013C444.12 195.706 444.476 195.467 444.887 195.298C445.314 195.113 445.789 195.021 446.312 195.021C446.818 195.021 447.277 195.113 447.688 195.298C448.116 195.467 448.48 195.706 448.78 196.013C449.097 196.306 449.342 196.66 449.516 197.075C449.706 197.491 449.817 197.929 449.849 198.391ZM451.795 201.715H449.801C449.627 202.499 449.263 203.084 448.709 203.469C448.171 203.853 447.475 204.046 446.62 204.046C445.955 204.046 445.378 203.938 444.887 203.723C444.397 203.507 443.993 203.222 443.677 202.869C443.36 202.499 443.13 202.084 442.988 201.622C442.846 201.145 442.782 200.645 442.798 200.122H451.985C452.017 199.399 451.946 198.637 451.772 197.837C451.613 197.037 451.313 196.298 450.869 195.621C450.442 194.944 449.864 194.39 449.136 193.959C448.424 193.513 447.522 193.29 446.43 193.29C445.591 193.29 444.816 193.444 444.104 193.751C443.407 194.059 442.798 194.49 442.276 195.044C441.769 195.598 441.374 196.252 441.089 197.006C440.804 197.76 440.662 198.591 440.662 199.499C440.693 200.407 440.828 201.245 441.065 202.015C441.318 202.784 441.69 203.446 442.181 204C442.672 204.554 443.273 204.984 443.985 205.292C444.713 205.6 445.568 205.754 446.549 205.754C447.942 205.754 449.097 205.415 450.015 204.738C450.933 204.061 451.526 203.053 451.795 201.715Z" fill="white"/>
<path d="M456.132 199.541C456.132 198.947 456.188 198.369 456.299 197.806C456.41 197.244 456.59 196.744 456.84 196.306C457.09 195.868 457.423 195.517 457.839 195.251C458.255 194.985 458.762 194.853 459.358 194.853C459.969 194.853 460.489 194.985 460.919 195.251C461.349 195.501 461.696 195.837 461.96 196.259C462.237 196.681 462.438 197.173 462.563 197.736C462.688 198.283 462.75 198.854 462.75 199.447C462.75 200.01 462.688 200.565 462.563 201.112C462.452 201.659 462.265 202.151 462.001 202.589C461.738 203.011 461.398 203.355 460.981 203.62C460.565 203.886 460.059 204.019 459.462 204.019C458.893 204.019 458.394 203.894 457.964 203.644C457.548 203.394 457.201 203.058 456.923 202.636C456.66 202.214 456.458 201.737 456.32 201.206C456.195 200.659 456.132 200.104 456.132 199.541ZM464.457 205.496V188.757H462.688V194.993H462.646C462.452 194.634 462.209 194.337 461.918 194.102C461.641 193.852 461.342 193.657 461.023 193.516C460.704 193.36 460.385 193.251 460.066 193.188C459.747 193.126 459.448 193.094 459.171 193.094C458.352 193.094 457.631 193.266 457.006 193.61C456.396 193.938 455.883 194.392 455.466 194.97C455.064 195.532 454.759 196.197 454.551 196.962C454.356 197.728 454.259 198.541 454.259 199.401C454.259 200.26 454.363 201.073 454.571 201.839C454.78 202.604 455.085 203.276 455.487 203.855C455.903 204.433 456.417 204.894 457.027 205.238C457.652 205.582 458.38 205.754 459.212 205.754C459.962 205.754 460.648 205.605 461.273 205.308C461.897 205.011 462.355 204.527 462.646 203.855H462.688V205.496H464.457Z" fill="white"/>
<path opacity="0.44" d="M209 106V234" stroke="#F2F2F2" stroke-width="5" stroke-linecap="round"/>
<path d="M157.462 8.16008C159.973 8.16008 161.976 9.03172 163.47 10.775C164.965 12.5183 165.712 15.1394 165.712 18.6384C165.712 20.9504 165.369 22.8915 164.683 24.4617C163.997 26.0319 163.029 27.2188 161.78 28.0224C160.543 28.8261 159.079 29.2279 157.389 29.2279C156.323 29.2279 155.386 29.0857 154.578 28.8014C153.769 28.517 153.077 28.1337 152.501 27.6515C151.926 27.1693 151.448 26.6439 151.068 26.0752H150.848C150.885 26.5573 150.927 27.1384 150.976 27.8184C151.038 28.4985 151.068 29.0919 151.068 29.5988V37.9444H148V8.53099H150.517L150.921 11.5354H151.068C151.46 10.9172 151.938 10.3546 152.501 9.84773C153.065 9.32845 153.751 8.92045 154.559 8.62372C155.38 8.31462 156.348 8.16008 157.462 8.16008ZM156.929 10.7565C155.533 10.7565 154.406 11.0285 153.549 11.5725C152.704 12.1165 152.085 12.9325 151.693 14.0205C151.301 15.0961 151.093 16.45 151.068 18.082V18.6755C151.068 20.394 151.252 21.8468 151.62 23.0337C151.999 24.2206 152.618 25.1231 153.475 25.7413C154.345 26.3595 155.509 26.6686 156.966 26.6686C158.216 26.6686 159.257 26.3286 160.09 25.6486C160.923 24.9686 161.541 24.0228 161.945 22.8111C162.362 21.5871 162.57 20.1838 162.57 18.6013C162.57 16.2027 162.105 14.2987 161.174 12.8892C160.255 11.4674 158.84 10.7565 156.929 10.7565Z" fill="white"/>
<path d="M188.403 18.6569C188.403 20.326 188.189 21.8158 187.76 23.1264C187.331 24.437 186.713 25.5435 185.904 26.4461C185.096 27.3486 184.116 28.041 182.965 28.5232C181.825 28.993 180.533 29.2279 179.088 29.2279C177.74 29.2279 176.503 28.993 175.376 28.5232C174.262 28.041 173.294 27.3486 172.473 26.4461C171.665 25.5435 171.034 24.437 170.581 23.1264C170.14 21.8158 169.919 20.326 169.919 18.6569C169.919 16.4314 170.293 14.5398 171.04 12.9819C171.787 11.4117 172.853 10.2186 174.237 9.40263C175.634 8.57426 177.293 8.16008 179.216 8.16008C181.054 8.16008 182.658 8.57426 184.03 9.40263C185.414 10.231 186.486 11.4303 187.246 13.0005C188.017 14.5583 188.403 16.4438 188.403 18.6569ZM173.08 18.6569C173.08 20.2889 173.294 21.7046 173.723 22.9039C174.151 24.1031 174.813 25.0304 175.707 25.6857C176.601 26.341 177.753 26.6686 179.161 26.6686C180.558 26.6686 181.703 26.341 182.597 25.6857C183.504 25.0304 184.171 24.1031 184.6 22.9039C185.029 21.7046 185.243 20.2889 185.243 18.6569C185.243 17.0373 185.029 15.6401 184.6 14.4656C184.171 13.2787 183.51 12.3638 182.616 11.7208C181.721 11.0779 180.564 10.7565 179.143 10.7565C177.048 10.7565 175.511 11.455 174.531 12.8521C173.564 14.2492 173.08 16.1842 173.08 18.6569Z" fill="white"/>
<path d="M210.065 28.8199L206.483 16.9878C206.323 16.4809 206.17 15.9863 206.023 15.5041C205.889 15.0096 205.76 14.5398 205.637 14.0947C205.527 13.6372 205.423 13.2169 205.325 12.8336C205.239 12.4379 205.166 12.0979 205.105 11.8136H204.976C204.927 12.0979 204.86 12.4379 204.774 12.8336C204.688 13.2169 204.584 13.6372 204.461 14.0947C204.351 14.5521 204.229 15.0343 204.094 15.5412C203.959 16.0358 203.806 16.5365 203.635 17.0434L199.887 28.8199H196.451L190.902 8.4939H194.062L196.965 19.714C197.161 20.4558 197.345 21.1915 197.516 21.9209C197.7 22.638 197.853 23.318 197.976 23.961C198.11 24.5915 198.208 25.1417 198.27 25.6115H198.417C198.49 25.3024 198.57 24.9315 198.655 24.4988C198.753 24.066 198.858 23.6086 198.968 23.1264C199.09 22.6319 199.219 22.1435 199.354 21.6613C199.488 21.1667 199.623 20.7031 199.758 20.2704L203.469 8.4939H206.758L210.341 20.2518C210.525 20.8453 210.702 21.4635 210.874 22.1064C211.058 22.7493 211.223 23.3737 211.37 23.9795C211.517 24.573 211.621 25.1046 211.682 25.5744H211.829C211.878 25.1541 211.97 24.6348 212.105 24.0166C212.24 23.3984 212.393 22.7184 212.564 21.9766C212.748 21.2347 212.938 20.4806 213.134 19.714L216.073 8.4939H219.179L213.611 28.8199H210.065Z" fill="white"/>
<path d="M230.607 8.16008C232.322 8.16008 233.792 8.54335 235.016 9.30991C236.241 10.0765 237.178 11.1521 237.828 12.5368C238.477 13.9092 238.801 15.5165 238.801 17.3587V19.2689H224.893C224.929 21.6551 225.517 23.4726 226.657 24.7213C227.796 25.9701 229.4 26.5944 231.47 26.5944C232.744 26.5944 233.871 26.477 234.851 26.2421C235.831 26.0072 236.848 25.661 237.901 25.2035V27.9112C236.884 28.3686 235.874 28.7025 234.869 28.9126C233.877 29.1228 232.701 29.2279 231.342 29.2279C229.406 29.2279 227.716 28.8323 226.271 28.041C224.838 27.2374 223.723 26.0628 222.927 24.5173C222.131 22.9719 221.733 21.0802 221.733 18.8424C221.733 16.654 222.094 14.7623 222.817 13.1674C223.551 11.5601 224.58 10.3237 225.903 9.45827C227.238 8.59281 228.806 8.16008 230.607 8.16008ZM230.57 10.6823C228.941 10.6823 227.643 11.2201 226.675 12.2958C225.707 13.3714 225.132 14.8736 224.948 16.8023H235.604C235.592 15.5907 235.402 14.5274 235.035 13.6125C234.68 12.6852 234.135 11.9681 233.4 11.4612C232.665 10.9419 231.722 10.6823 230.57 10.6823Z" fill="white"/>
<path d="M253.133 8.16008C253.537 8.16008 253.959 8.1848 254.4 8.23426C254.841 8.27135 255.233 8.32699 255.576 8.40117L255.19 11.2572C254.86 11.1707 254.492 11.1027 254.088 11.0532C253.684 11.0037 253.304 10.979 252.949 10.979C252.141 10.979 251.375 11.1459 250.652 11.4797C249.942 11.8012 249.317 12.271 248.778 12.8892C248.239 13.495 247.817 14.2307 247.51 15.0961C247.204 15.9492 247.051 16.9013 247.051 17.9522V28.857H243.983V8.53099H246.518L246.849 12.2772H246.978C247.394 11.523 247.896 10.8368 248.484 10.2186C249.072 9.58809 249.752 9.08736 250.524 8.71645C251.308 8.34553 252.177 8.16008 253.133 8.16008Z" fill="white"/>
<path d="M267.133 8.16008C268.848 8.16008 270.318 8.54335 271.543 9.30991C272.768 10.0765 273.705 11.1521 274.354 12.5368C275.003 13.9092 275.328 15.5165 275.328 17.3587V19.2689H261.419C261.456 21.6551 262.044 23.4726 263.183 24.7213C264.322 25.9701 265.927 26.5944 267.997 26.5944C269.271 26.5944 270.398 26.477 271.377 26.2421C272.357 26.0072 273.374 25.661 274.427 25.2035V27.9112C273.411 28.3686 272.4 28.7025 271.396 28.9126C270.404 29.1228 269.228 29.2279 267.868 29.2279C265.933 29.2279 264.242 28.8323 262.797 28.041C261.364 27.2374 260.249 26.0628 259.453 24.5173C258.657 22.9719 258.259 21.0802 258.259 18.8424C258.259 16.654 258.62 14.7623 259.343 13.1674C260.078 11.5601 261.107 10.3237 262.43 9.45827C263.765 8.59281 265.333 8.16008 267.133 8.16008ZM267.096 10.6823C265.467 10.6823 264.169 11.2201 263.201 12.2958C262.234 13.3714 261.658 14.8736 261.474 16.8023H272.131C272.119 15.5907 271.929 14.5274 271.561 13.6125C271.206 12.6852 270.661 11.9681 269.926 11.4612C269.191 10.9419 268.248 10.6823 267.096 10.6823Z" fill="white"/>
<path d="M287.675 29.2279C285.127 29.2279 283.106 28.3501 281.611 26.5944C280.129 24.8388 279.388 22.23 279.388 18.7682C279.388 15.2692 280.148 12.6296 281.667 10.8492C283.185 9.05645 285.207 8.16008 287.73 8.16008C288.795 8.16008 289.726 8.30226 290.523 8.58663C291.319 8.87099 292.005 9.25427 292.58 9.73646C293.156 10.2063 293.64 10.7441 294.032 11.3499H294.252C294.203 10.9667 294.154 10.4412 294.105 9.77355C294.056 9.1059 294.032 8.5619 294.032 8.14153V0H297.082V28.857H294.62L294.16 25.9639H294.032C293.652 26.5697 293.168 27.1199 292.58 27.6144C292.005 28.109 291.313 28.5046 290.504 28.8014C289.708 29.0857 288.765 29.2279 287.675 29.2279ZM288.152 26.6686C290.308 26.6686 291.833 26.0504 292.727 24.8141C293.622 23.5777 294.069 21.7417 294.069 19.306V18.7496C294.069 16.1656 293.64 14.1812 292.782 12.7965C291.937 11.4117 290.394 10.7194 288.152 10.7194C286.278 10.7194 284.876 11.4488 283.945 12.9078C283.014 14.3543 282.549 16.3325 282.549 18.8424C282.549 21.3398 283.008 23.2686 283.926 24.6286C284.857 25.9886 286.266 26.6686 288.152 26.6686Z" fill="white"/>
<path d="M316.374 0V7.21425C316.374 8.04262 316.349 8.84627 316.3 9.62518C316.264 10.4041 316.233 11.0099 316.209 11.4427H316.374C316.925 10.5277 317.721 9.755 318.762 9.12445C319.804 8.4939 321.133 8.17862 322.75 8.17862C325.273 8.17862 327.282 9.06263 328.776 10.8306C330.283 12.5863 331.036 15.2012 331.036 18.6755C331.036 20.9627 330.693 22.8915 330.007 24.4617C329.321 26.0319 328.353 27.2188 327.104 28.0224C325.855 28.8261 324.379 29.2279 322.676 29.2279C321.084 29.2279 319.773 28.9312 318.744 28.3377C317.727 27.7319 316.944 26.9963 316.392 26.1308H316.153L315.529 28.857H313.324V0H316.374ZM322.253 10.7565C320.796 10.7565 319.638 11.047 318.781 11.6281C317.923 12.1968 317.305 13.0623 316.925 14.2245C316.558 15.3743 316.374 16.8333 316.374 18.6013V18.7682C316.374 21.3275 316.797 23.2871 317.642 24.6471C318.487 25.9948 320.024 26.6686 322.253 26.6686C324.128 26.6686 325.53 25.9762 326.461 24.5915C327.404 23.2068 327.876 21.2286 327.876 18.6569C327.876 16.0358 327.41 14.0638 326.479 12.7408C325.561 11.4179 324.152 10.7565 322.253 10.7565Z" fill="white"/>
<path d="M333.186 8.53099H336.456L340.902 20.326C341.16 21.0184 341.399 21.686 341.619 22.3289C341.84 22.9595 342.035 23.5653 342.207 24.1464C342.378 24.7275 342.513 25.2901 342.611 25.8341H342.74C342.911 25.2159 343.156 24.4061 343.475 23.4046C343.793 22.3908 344.136 21.3584 344.504 20.3075L348.711 8.53099H352L343.236 31.8428C342.77 33.0916 342.225 34.1796 341.601 35.1069C340.988 36.0342 340.241 36.7451 339.359 37.2396C338.477 37.7465 337.412 38 336.162 38C335.586 38 335.078 37.9629 334.637 37.8887C334.196 37.8269 333.816 37.7527 333.498 37.6662V35.1996C333.767 35.2614 334.092 35.3171 334.472 35.3665C334.864 35.416 335.268 35.4407 335.684 35.4407C336.444 35.4407 337.099 35.2923 337.65 34.9956C338.214 34.7112 338.698 34.2909 339.102 33.7345C339.506 33.1781 339.855 32.5167 340.149 31.7501L341.252 28.8941L333.186 8.53099Z" fill="white"/>
<path d="M57.1814 153.948C54.9601 142.988 56.6153 127.684 63.8366 125.028C63.5147 121.264 63.5348 116.778 63.6354 113.054C63.7417 109.06 64.0004 106.089 62.6642 106.273C61.0636 106.497 55.7705 117.192 54.6297 130.899C54.2188 135.85 54.5837 140.807 55.2877 145.316C55.7647 148.224 56.3998 151.106 57.1814 153.948Z" fill="white"/>
<path d="M120.043 153.948C120.822 151.106 121.46 148.224 121.937 145.316C122.644 140.807 123.003 135.847 122.592 130.899C121.454 117.195 116.164 106.497 114.555 106.273C113.224 106.089 113.483 109.057 113.587 113.054C113.69 116.778 113.707 121.267 113.385 125.028C120.607 127.684 122.262 142.988 120.043 153.948Z" fill="white"/>
<path d="M74.1899 132.5C78.3882 142.586 80.9112 153.532 81.5578 155.991C82.2876 154.974 85.1382 152.365 88.6123 152.365C92.0893 152.365 94.8796 154.974 95.6066 155.991C96.256 153.532 98.779 142.589 102.977 132.5C102.782 130.606 101.77 125.011 101.331 122.986C100.512 119.193 96.6842 102 88.6095 102C80.5348 102 76.6468 119.193 75.8307 122.986C75.3968 125.011 74.3825 130.606 74.1899 132.5Z" fill="white"/>
<path d="M72.3365 129.253C73.71 121.023 75.0778 116.124 76.7818 111.586C73.5663 112.138 69.8738 119.675 68.7129 125.448C70.529 126.641 72.2474 129.115 72.3365 129.253Z" fill="white"/>
<path d="M108.474 125.451C107.319 119.675 103.621 112.135 100.406 111.583C102.11 116.123 103.472 121.02 104.848 129.256C104.943 129.115 106.656 126.641 108.474 125.451Z" fill="white"/>
<path d="M99.6149 188.043C108.445 187.411 114.853 183.589 116.241 182.368C117.646 181.138 118.497 180.089 117.011 179.882C115.635 179.689 110.313 181.735 108.678 182.238C108.678 182.238 108.19 182.388 108.192 182.233C108.195 182.083 108.98 181.816 108.98 181.816C120.379 177.658 127.48 169.342 126.928 167.394C126.175 165.704 121.577 170.434 118.158 172.537C118.158 172.537 117.836 172.735 117.83 172.603C117.825 172.537 118.215 172.212 118.215 172.212C127.014 165.253 130.586 152.029 129.052 150.848C128.233 150.575 126.79 153.779 124.71 157.669C123.115 160.641 121.577 162.572 121.577 162.572C121.577 162.572 121.44 162.756 121.362 162.733C121.302 162.715 121.405 162.514 121.405 162.514C127.724 149.471 128.434 140.276 128.649 136.057C129.135 126.549 127.425 126.086 126.738 129.181C125.94 132.776 124.988 137.396 124.296 141.951C122.373 154.517 116.986 167.029 112.724 173.853C112.089 174.853 111.549 174.781 111.419 174.586C111.304 174.422 111.376 174.201 111.77 173.474C124.037 150.807 118.825 127.985 111.569 127.724C104.606 127.471 97.9539 154.902 97.1752 157.911C101.873 165.931 102.988 177.04 102.652 179.845C102.626 180.077 102.428 180.264 102.187 180.273C101.922 180.279 101.704 180.075 101.695 179.802C101.695 174.692 97.8103 155.221 88.6781 155.221C79.5488 155.221 75.6637 174.695 75.6637 179.802C75.6551 180.075 75.4338 180.279 75.1695 180.273C74.931 180.267 74.7356 180.077 74.7068 179.845C74.3706 177.04 75.4856 165.931 80.181 157.911C79.4051 154.902 72.7499 127.471 65.7902 127.724C58.5316 127.985 53.3189 150.807 65.5861 173.474C65.9798 174.201 66.0517 174.422 65.9338 174.586C65.8074 174.781 65.2701 174.853 64.6321 173.853C60.3706 167.029 54.9827 154.517 53.0632 141.951C52.3649 137.396 51.4166 132.776 50.6149 129.181C49.9281 126.086 48.2212 126.549 48.7068 136.057C48.9166 140.279 49.6321 149.474 55.9482 162.514C55.9482 162.514 56.0545 162.712 55.9913 162.733C55.9137 162.756 55.7787 162.572 55.7787 162.572C55.7787 162.572 54.2385 160.641 52.6436 157.669C50.5603 153.779 49.1178 150.577 48.3046 150.848C46.7672 152.026 50.339 165.25 59.1379 172.212C59.1379 172.212 59.5316 172.534 59.5229 172.603C59.5143 172.738 59.2011 172.537 59.2011 172.537C55.7816 170.434 51.181 165.704 50.431 167.394C49.8793 169.342 56.9741 177.658 68.3764 181.816C68.3764 181.816 69.1637 182.086 69.1666 182.233C69.1666 182.388 68.6781 182.238 68.6781 182.238C67.043 181.738 61.7183 179.689 60.3448 179.882C58.8563 180.089 59.7126 181.138 61.1178 182.368C62.5057 183.589 68.9137 187.411 77.7384 188.043C77.8103 188.839 80.8735 191.623 88.6666 191.623C96.4568 191.623 99.5488 188.839 99.6149 188.043Z" fill="white"/>
<path d="M36.006 202.227H38.8623V220.615H48.5347V223.293H36.0089V202.227H36.006Z" fill="white"/>
<path d="M51.4485 202.227H54.3048V223.293H51.4485V202.227Z" fill="white"/>
<path d="M57.9368 202.227H65.2586C66.1695 202.227 67.0172 202.336 67.8017 202.555C68.5862 202.773 69.2586 203.095 69.8247 203.523C70.3879 203.948 70.8362 204.494 71.1638 205.158C71.4914 205.822 71.6523 206.601 71.6523 207.494C71.6523 208.707 71.3161 209.693 70.6408 210.457C69.9684 211.221 69.0948 211.782 68.023 212.138V212.198C68.658 212.239 69.2528 212.402 69.8103 212.687C70.3649 212.974 70.8448 213.353 71.2528 213.819C71.658 214.285 71.9827 214.825 72.2212 215.44C72.4597 216.058 72.5776 216.721 72.5776 217.434C72.5776 218.388 72.3822 219.227 71.9971 219.951C71.6092 220.675 71.0776 221.285 70.4051 221.782C69.7299 222.279 68.9482 222.655 68.0546 222.911C67.1609 223.17 66.2011 223.299 65.1666 223.299H57.9368V202.227ZM60.7931 210.974H64.6896C65.227 210.974 65.7327 210.92 66.2069 210.81C66.6839 210.701 67.1005 210.517 67.4569 210.262C67.8132 210.003 68.0948 209.675 68.3046 209.279C68.5115 208.882 68.6178 208.394 68.6178 207.819C68.6178 206.986 68.3506 206.262 67.8132 205.647C67.2787 205.032 66.4339 204.724 65.2845 204.724H60.7902V210.974H60.7931ZM60.7931 220.793H64.9885C65.4253 220.793 65.908 220.75 66.431 220.661C66.9569 220.569 67.4482 220.391 67.9051 220.124C68.362 219.853 68.7471 219.491 69.0661 219.037C69.3822 218.58 69.5431 217.977 69.5431 217.221C69.5431 215.971 69.1379 215.032 68.3218 214.408C67.5086 213.785 66.408 213.471 65.0201 213.471H60.796V220.793H60.7931Z" fill="white"/>
<path d="M75.4944 202.227H89.0921V204.905H78.3507V211.184H88.3507V213.862H78.3507V220.615H89.6294V223.293H75.4944V202.227Z" fill="white"/>
<path d="M92.4828 202.227H99.8908C101.241 202.227 102.351 202.411 103.224 202.776C104.098 203.144 104.787 203.609 105.293 204.175C105.799 204.739 106.152 205.376 106.348 206.078C106.549 206.785 106.644 207.46 106.644 208.115C106.644 208.79 106.526 209.44 106.29 210.063C106.052 210.69 105.71 211.253 105.262 211.759C104.816 212.264 104.27 212.693 103.626 213.037C102.98 213.385 102.264 213.601 101.468 213.678L107.451 223.29H103.879L98.5259 214.006H95.3391V223.29H92.4857V202.227H92.4828ZM95.3391 211.512H99.0891C99.6437 211.512 100.198 211.468 100.741 211.376C101.285 211.287 101.773 211.124 102.198 210.888C102.626 210.649 102.968 210.308 103.224 209.859C103.483 209.414 103.612 208.833 103.612 208.118C103.612 207.405 103.483 206.825 103.224 206.376C102.968 205.931 102.626 205.589 102.198 205.351C101.77 205.115 101.285 204.948 100.741 204.862C100.195 204.77 99.6437 204.727 99.0891 204.727H95.3391V211.512Z" fill="white"/>
<path d="M114.534 204.905H107.75V202.227H124.175V204.905H117.391V223.293H114.532V204.905H114.534Z" fill="white"/>
<path d="M133.368 214.308L125.394 202.227H129.055L134.799 211.48L140.718 202.227H144.201L136.227 214.308V223.293H133.371V214.308H133.368Z" fill="white"/>
<path d="M36 226.42H37.3994V235.428H42.1379V236.742H36V226.42Z" fill="white"/>
<path d="M46.8047 226.42H48.0719L52.4915 236.744H50.8564L49.8219 234.193H44.9082L43.888 236.744H42.2559L46.8047 226.42ZM49.3105 232.966L47.3852 228.227H47.3564L45.4024 232.966H49.3105Z" fill="white"/>
<path d="M54.6493 227.73H51.3246V226.42H59.3734V227.73H56.0487V236.742H54.6493V227.73Z" fill="white"/>
<path d="M60.8593 226.42H62.2587V236.744H60.8593V226.42Z" fill="white"/>
<path d="M64.9111 226.42H66.7502L72.437 234.905H72.4657V226.42H73.8651V236.744H72.0835L66.3393 228.256H66.3106V236.744H64.9111V226.42Z" fill="white"/>
<path d="M83.8103 226.42H85.0776L89.4971 236.744H87.862L86.8276 234.193H81.9138L80.8937 236.744H79.2615L83.8103 226.42ZM86.3161 232.966L84.3908 228.227H84.362L82.408 232.966H86.3161Z" fill="white"/>
<path d="M90.7355 226.42H92.8189L96.1005 234.236H96.1608L99.4108 226.42H101.494V236.744H100.095V228.256H100.066L96.5804 236.744H95.6465L92.1608 228.256H92.1321V236.744H90.7327V226.42H90.7355Z" fill="white"/>
<path d="M103.713 226.42H110.377V227.73H105.112V230.808H110.009V232.118H105.112V235.428H110.635V236.742H103.71V226.42H103.713Z" fill="white"/>
<path d="M112.328 226.42H115.96C116.618 226.42 117.164 226.509 117.589 226.69C118.02 226.871 118.356 227.098 118.603 227.374C118.85 227.652 119.023 227.963 119.121 228.31C119.218 228.655 119.267 228.989 119.267 229.308C119.267 229.638 119.207 229.954 119.092 230.262C118.977 230.569 118.807 230.848 118.592 231.092C118.371 231.342 118.103 231.549 117.79 231.721C117.474 231.891 117.121 231.994 116.733 232.035L119.661 236.744H117.911L115.287 232.196H113.727V236.744H112.328V226.42ZM113.73 230.969H115.569C115.839 230.969 116.109 230.948 116.379 230.902C116.646 230.859 116.885 230.776 117.092 230.661C117.302 230.546 117.468 230.379 117.595 230.158C117.721 229.94 117.784 229.658 117.784 229.308C117.784 228.957 117.718 228.673 117.595 228.454C117.468 228.236 117.302 228.069 117.092 227.954C116.882 227.836 116.646 227.756 116.379 227.713C116.109 227.67 115.842 227.647 115.569 227.647H113.73V230.969Z" fill="white"/>
<path d="M121.239 226.42H122.638V236.744H121.239V226.42Z" fill="white"/>
<path d="M132.19 228.65C131.897 228.27 131.529 227.98 131.08 227.776C130.635 227.572 130.172 227.469 129.693 227.469C129.112 227.469 128.583 227.578 128.112 227.799C127.638 228.018 127.236 228.316 126.899 228.696C126.566 229.075 126.305 229.52 126.121 230.029C125.937 230.541 125.845 231.087 125.845 231.67C125.845 232.213 125.934 232.727 126.109 233.213C126.282 233.701 126.537 234.127 126.868 234.497C127.198 234.868 127.601 235.158 128.078 235.371C128.552 235.587 129.095 235.693 129.695 235.693C130.29 235.693 130.81 235.569 131.259 235.328C131.704 235.084 132.086 234.742 132.397 234.308L133.575 235.196C133.497 235.302 133.362 235.454 133.167 235.656C132.971 235.854 132.716 236.055 132.394 236.253C132.075 236.451 131.684 236.627 131.233 236.776C130.779 236.929 130.259 237 129.664 237C128.848 237 128.112 236.845 127.454 236.535C126.799 236.224 126.239 235.816 125.779 235.311C125.319 234.805 124.966 234.233 124.721 233.598C124.48 232.963 124.356 232.316 124.356 231.667C124.356 230.868 124.489 230.133 124.75 229.457C125.011 228.782 125.379 228.196 125.851 227.707C126.322 227.216 126.888 226.834 127.549 226.564C128.21 226.291 128.94 226.156 129.736 226.156C130.414 226.156 131.083 226.285 131.741 226.549C132.397 226.814 132.934 227.216 133.353 227.762L132.19 228.65Z" fill="white"/>
<path d="M138.503 226.42H139.77L144.19 236.744H142.554L141.52 234.193H136.603L135.583 236.744H133.951L138.503 226.42ZM141.009 232.966L139.083 228.227H139.054L137.1 232.966H141.009Z" fill="white"/>
</svg>
