<svg width="499" height="281" viewBox="0 0 499 281" fill="none" xmlns="http://www.w3.org/2000/svg">
<path d="M157.462 8.16008C159.973 8.16008 161.976 9.03172 163.47 10.775C164.965 12.5183 165.712 15.1394 165.712 18.6384C165.712 20.9504 165.369 22.8915 164.683 24.4617C163.997 26.0319 163.029 27.2188 161.78 28.0224C160.543 28.8261 159.079 29.2279 157.389 29.2279C156.323 29.2279 155.386 29.0857 154.578 28.8014C153.769 28.517 153.077 28.1337 152.501 27.6515C151.926 27.1693 151.448 26.6439 151.068 26.0752H150.848C150.885 26.5573 150.927 27.1384 150.976 27.8184C151.038 28.4985 151.068 29.0919 151.068 29.5988V37.9444H148V8.53099H150.517L150.921 11.5354H151.068C151.46 10.9172 151.938 10.3546 152.501 9.84773C153.065 9.32845 153.751 8.92045 154.559 8.62372C155.38 8.31462 156.348 8.16008 157.462 8.16008ZM156.929 10.7565C155.533 10.7565 154.406 11.0285 153.549 11.5725C152.704 12.1165 152.085 12.9325 151.693 14.0205C151.301 15.0961 151.093 16.45 151.068 18.082V18.6755C151.068 20.394 151.252 21.8468 151.62 23.0337C151.999 24.2206 152.618 25.1231 153.475 25.7413C154.345 26.3595 155.509 26.6686 156.966 26.6686C158.216 26.6686 159.257 26.3286 160.09 25.6486C160.923 24.9686 161.541 24.0228 161.945 22.8111C162.362 21.5871 162.57 20.1838 162.57 18.6013C162.57 16.2027 162.105 14.2987 161.174 12.8892C160.255 11.4674 158.84 10.7565 156.929 10.7565Z" fill="white"/>
<path d="M188.403 18.6569C188.403 20.326 188.189 21.8158 187.76 23.1264C187.331 24.437 186.713 25.5435 185.904 26.4461C185.096 27.3486 184.116 28.041 182.965 28.5232C181.825 28.993 180.533 29.2279 179.088 29.2279C177.74 29.2279 176.503 28.993 175.376 28.5232C174.262 28.041 173.294 27.3486 172.473 26.4461C171.665 25.5435 171.034 24.437 170.581 23.1264C170.14 21.8158 169.919 20.326 169.919 18.6569C169.919 16.4314 170.293 14.5398 171.04 12.9819C171.787 11.4117 172.853 10.2186 174.237 9.40263C175.634 8.57426 177.293 8.16008 179.216 8.16008C181.054 8.16008 182.658 8.57426 184.03 9.40263C185.414 10.231 186.486 11.4303 187.246 13.0005C188.017 14.5583 188.403 16.4438 188.403 18.6569ZM173.08 18.6569C173.08 20.2889 173.294 21.7046 173.723 22.9039C174.151 24.1031 174.813 25.0304 175.707 25.6857C176.601 26.341 177.753 26.6686 179.161 26.6686C180.558 26.6686 181.703 26.341 182.597 25.6857C183.504 25.0304 184.171 24.1031 184.6 22.9039C185.029 21.7046 185.243 20.2889 185.243 18.6569C185.243 17.0373 185.029 15.6401 184.6 14.4656C184.171 13.2787 183.51 12.3638 182.616 11.7208C181.721 11.0779 180.564 10.7565 179.143 10.7565C177.048 10.7565 175.511 11.455 174.531 12.8521C173.564 14.2492 173.08 16.1842 173.08 18.6569Z" fill="white"/>
<path d="M210.065 28.8199L206.483 16.9878C206.323 16.4809 206.17 15.9863 206.023 15.5041C205.889 15.0096 205.76 14.5398 205.637 14.0947C205.527 13.6372 205.423 13.2169 205.325 12.8336C205.239 12.4379 205.166 12.0979 205.105 11.8136H204.976C204.927 12.0979 204.86 12.4379 204.774 12.8336C204.688 13.2169 204.584 13.6372 204.461 14.0947C204.351 14.5521 204.229 15.0343 204.094 15.5412C203.959 16.0358 203.806 16.5365 203.635 17.0434L199.887 28.8199H196.451L190.902 8.4939H194.062L196.965 19.714C197.161 20.4558 197.345 21.1915 197.516 21.9209C197.7 22.638 197.853 23.318 197.976 23.961C198.11 24.5915 198.208 25.1417 198.27 25.6115H198.417C198.49 25.3024 198.57 24.9315 198.655 24.4988C198.753 24.066 198.858 23.6086 198.968 23.1264C199.09 22.6319 199.219 22.1435 199.354 21.6613C199.488 21.1667 199.623 20.7031 199.758 20.2704L203.469 8.4939H206.758L210.341 20.2518C210.525 20.8453 210.702 21.4635 210.874 22.1064C211.058 22.7493 211.223 23.3737 211.37 23.9795C211.517 24.573 211.621 25.1046 211.682 25.5744H211.829C211.878 25.1541 211.97 24.6348 212.105 24.0166C212.24 23.3984 212.393 22.7184 212.564 21.9766C212.748 21.2347 212.938 20.4806 213.134 19.714L216.073 8.4939H219.179L213.611 28.8199H210.065Z" fill="white"/>
<path d="M230.607 8.16008C232.322 8.16008 233.792 8.54335 235.016 9.30991C236.241 10.0765 237.178 11.1521 237.828 12.5368C238.477 13.9092 238.801 15.5165 238.801 17.3587V19.2689H224.893C224.929 21.6551 225.517 23.4726 226.657 24.7213C227.796 25.9701 229.4 26.5944 231.47 26.5944C232.744 26.5944 233.871 26.477 234.851 26.2421C235.831 26.0072 236.848 25.661 237.901 25.2035V27.9112C236.884 28.3686 235.874 28.7025 234.869 28.9126C233.877 29.1228 232.701 29.2279 231.342 29.2279C229.406 29.2279 227.716 28.8323 226.271 28.041C224.838 27.2374 223.723 26.0628 222.927 24.5173C222.131 22.9719 221.733 21.0802 221.733 18.8424C221.733 16.654 222.094 14.7623 222.817 13.1674C223.551 11.5601 224.58 10.3237 225.903 9.45827C227.238 8.59281 228.806 8.16008 230.607 8.16008ZM230.57 10.6823C228.941 10.6823 227.643 11.2201 226.675 12.2958C225.707 13.3714 225.132 14.8736 224.948 16.8023H235.604C235.592 15.5907 235.402 14.5274 235.035 13.6125C234.68 12.6852 234.135 11.9681 233.4 11.4612C232.665 10.9419 231.722 10.6823 230.57 10.6823Z" fill="white"/>
<path d="M253.133 8.16008C253.537 8.16008 253.959 8.1848 254.4 8.23426C254.841 8.27135 255.233 8.32699 255.576 8.40117L255.19 11.2572C254.86 11.1707 254.492 11.1027 254.088 11.0532C253.684 11.0037 253.304 10.979 252.949 10.979C252.141 10.979 251.375 11.1459 250.652 11.4797C249.942 11.8012 249.317 12.271 248.778 12.8892C248.239 13.495 247.817 14.2307 247.51 15.0961C247.204 15.9492 247.051 16.9013 247.051 17.9522V28.857H243.983V8.53099H246.518L246.849 12.2772H246.978C247.394 11.523 247.896 10.8368 248.484 10.2186C249.072 9.58809 249.752 9.08736 250.524 8.71645C251.308 8.34553 252.177 8.16008 253.133 8.16008Z" fill="white"/>
<path d="M267.133 8.16008C268.848 8.16008 270.318 8.54335 271.543 9.30991C272.768 10.0765 273.705 11.1521 274.354 12.5368C275.003 13.9092 275.328 15.5165 275.328 17.3587V19.2689H261.419C261.456 21.6551 262.044 23.4726 263.183 24.7213C264.322 25.9701 265.927 26.5944 267.997 26.5944C269.271 26.5944 270.398 26.477 271.377 26.2421C272.357 26.0072 273.374 25.661 274.427 25.2035V27.9112C273.411 28.3686 272.4 28.7025 271.396 28.9126C270.404 29.1228 269.228 29.2279 267.868 29.2279C265.933 29.2279 264.242 28.8323 262.797 28.041C261.364 27.2374 260.249 26.0628 259.453 24.5173C258.657 22.9719 258.259 21.0802 258.259 18.8424C258.259 16.654 258.62 14.7623 259.343 13.1674C260.078 11.5601 261.107 10.3237 262.43 9.45827C263.765 8.59281 265.333 8.16008 267.133 8.16008ZM267.096 10.6823C265.467 10.6823 264.169 11.2201 263.201 12.2958C262.234 13.3714 261.658 14.8736 261.474 16.8023H272.131C272.119 15.5907 271.929 14.5274 271.561 13.6125C271.206 12.6852 270.661 11.9681 269.926 11.4612C269.191 10.9419 268.248 10.6823 267.096 10.6823Z" fill="white"/>
<path d="M287.675 29.2279C285.127 29.2279 283.106 28.3501 281.611 26.5944C280.129 24.8388 279.388 22.23 279.388 18.7682C279.388 15.2692 280.148 12.6296 281.667 10.8492C283.185 9.05645 285.207 8.16008 287.73 8.16008C288.795 8.16008 289.726 8.30226 290.523 8.58663C291.319 8.87099 292.005 9.25427 292.58 9.73646C293.156 10.2063 293.64 10.7441 294.032 11.3499H294.252C294.203 10.9667 294.154 10.4412 294.105 9.77355C294.056 9.1059 294.032 8.5619 294.032 8.14153V0H297.082V28.857H294.62L294.16 25.9639H294.032C293.652 26.5697 293.168 27.1199 292.58 27.6144C292.005 28.109 291.313 28.5046 290.504 28.8014C289.708 29.0857 288.765 29.2279 287.675 29.2279ZM288.152 26.6686C290.308 26.6686 291.833 26.0504 292.727 24.8141C293.622 23.5777 294.069 21.7417 294.069 19.306V18.7496C294.069 16.1656 293.64 14.1812 292.782 12.7965C291.937 11.4117 290.394 10.7194 288.152 10.7194C286.278 10.7194 284.876 11.4488 283.945 12.9078C283.014 14.3543 282.549 16.3325 282.549 18.8424C282.549 21.3398 283.008 23.2686 283.926 24.6286C284.857 25.9886 286.266 26.6686 288.152 26.6686Z" fill="white"/>
<path d="M316.374 0V7.21425C316.374 8.04262 316.349 8.84627 316.3 9.62518C316.264 10.4041 316.233 11.0099 316.209 11.4427H316.374C316.925 10.5277 317.721 9.755 318.762 9.12445C319.804 8.4939 321.133 8.17862 322.75 8.17862C325.273 8.17862 327.282 9.06263 328.776 10.8306C330.283 12.5863 331.036 15.2012 331.036 18.6755C331.036 20.9627 330.693 22.8915 330.007 24.4617C329.321 26.0319 328.353 27.2188 327.104 28.0224C325.855 28.8261 324.379 29.2279 322.676 29.2279C321.084 29.2279 319.773 28.9312 318.744 28.3377C317.727 27.7319 316.944 26.9963 316.392 26.1308H316.153L315.529 28.857H313.324V0H316.374ZM322.253 10.7565C320.796 10.7565 319.638 11.047 318.781 11.6281C317.923 12.1968 317.305 13.0623 316.925 14.2245C316.558 15.3743 316.374 16.8333 316.374 18.6013V18.7682C316.374 21.3275 316.797 23.2871 317.642 24.6471C318.487 25.9948 320.024 26.6686 322.253 26.6686C324.128 26.6686 325.53 25.9762 326.461 24.5915C327.404 23.2068 327.876 21.2286 327.876 18.6569C327.876 16.0358 327.41 14.0638 326.479 12.7408C325.561 11.4179 324.152 10.7565 322.253 10.7565Z" fill="white"/>
<path d="M333.186 8.53099H336.456L340.902 20.326C341.16 21.0184 341.399 21.686 341.619 22.3289C341.84 22.9595 342.035 23.5653 342.207 24.1464C342.378 24.7275 342.513 25.2901 342.611 25.8341H342.74C342.911 25.2159 343.156 24.4061 343.475 23.4046C343.793 22.3908 344.136 21.3584 344.504 20.3075L348.711 8.53099H352L343.236 31.8428C342.77 33.0916 342.225 34.1796 341.601 35.1069C340.988 36.0342 340.241 36.7451 339.359 37.2396C338.477 37.7465 337.412 38 336.162 38C335.586 38 335.078 37.9629 334.637 37.8887C334.196 37.8269 333.816 37.7527 333.498 37.6662V35.1996C333.767 35.2614 334.092 35.3171 334.472 35.3665C334.864 35.416 335.268 35.4407 335.684 35.4407C336.444 35.4407 337.099 35.2923 337.65 34.9956C338.214 34.7112 338.698 34.2909 339.102 33.7345C339.506 33.1781 339.855 32.5167 340.149 31.7501L341.252 28.8941L333.186 8.53099Z" fill="white"/>
<rect y="79" width="499" height="202" rx="10" fill="black" fill-opacity="0.5"/>
<path d="M264.292 178.576C266.157 178.576 267.671 178.366 268.834 177.946C271.041 177.142 272.145 175.647 272.145 173.46C272.145 172.184 271.597 171.196 270.502 170.496C269.407 169.814 267.688 169.211 265.344 168.686L261.341 167.768C257.406 166.859 254.686 165.871 253.18 164.804C250.631 163.02 249.356 160.231 249.356 156.436C249.356 152.973 250.588 150.096 253.052 147.805C255.515 145.514 259.134 144.369 263.907 144.369C267.893 144.369 271.289 145.453 274.095 147.622C275.918 149.011 277.181 150.809 277.884 153.016C278.557 155.129 276.732 157.013 274.558 157.013C272.525 157.013 271.027 155.208 269.779 153.568C269.312 152.954 268.707 152.45 267.962 152.055C266.73 151.408 265.199 151.084 263.368 151.084C261.332 151.084 259.707 151.504 258.492 152.344C257.277 153.183 256.67 154.355 256.67 155.859C256.67 157.24 257.269 158.272 258.466 158.954C259.236 159.409 260.879 159.942 263.394 160.554L269.912 162.154C272.769 162.854 274.925 163.789 276.379 164.961C278.637 166.78 279.766 169.412 279.766 172.857C279.766 176.39 278.44 179.328 275.788 181.671C273.154 183.997 269.424 185.16 264.6 185.16C259.673 185.16 255.798 184.015 252.975 181.724C251.183 180.259 249.96 178.449 249.306 176.294C248.645 174.119 250.546 172.228 252.773 172.228C254.786 172.228 256.283 173.869 257.318 175.635C257.435 175.836 257.562 176.021 257.697 176.189C258.98 177.78 261.178 178.576 264.292 178.576Z" fill="white"/>
<path fill-rule="evenodd" clip-rule="evenodd" d="M305.087 175.731C307.699 175.731 309.602 178.098 307.987 180.165C307.783 180.426 307.565 180.687 307.33 180.949C304.874 183.757 301.435 185.16 297.014 185.16C293.365 185.16 290.145 183.977 287.355 181.611C284.566 179.245 283.171 175.395 283.171 170.062C283.171 165.065 284.425 161.233 286.934 158.567C289.461 155.9 292.733 154.567 296.751 154.567C299.137 154.567 301.286 155.017 303.199 155.918C305.111 156.818 306.69 158.24 307.936 160.182C309.059 161.895 309.787 163.882 310.12 166.142C310.313 167.466 310.392 169.374 310.357 171.864H290.724C290.829 174.76 291.733 176.79 293.435 177.956C294.47 178.68 295.716 179.042 297.172 179.042C298.716 179.042 299.97 178.6 300.935 177.717C302.04 176.717 303.276 175.731 304.762 175.731H305.087ZM302.567 166.884C302.444 164.888 301.839 163.379 300.751 162.354C299.681 161.313 298.347 160.792 296.751 160.792C295.014 160.792 293.663 161.339 292.698 162.434C291.75 163.529 291.154 165.012 290.908 166.884H302.567Z" fill="white"/>
<path d="M323.909 163.841C324.82 161.729 326.497 160.672 328.94 160.672C330.929 160.672 332.278 161.394 332.986 162.836C333.373 163.626 333.567 164.76 333.567 166.237V169.297H340.949V164.408C340.949 160.887 340.039 158.371 338.219 156.86C336.416 155.331 334.09 154.567 331.241 154.567C328.966 154.567 327.086 155.134 325.603 156.267C324.777 156.903 323.901 157.942 322.974 159.384V158.83C322.974 156.874 321.418 155.288 319.498 155.288C317.578 155.288 316.021 156.874 316.021 158.83V169.297H323.202V168.117C323.202 166.383 323.437 164.957 323.909 163.841Z" fill="white"/>
<path d="M322.82 172.697H316.021V180.386C316.021 182.397 317.543 184.027 319.421 184.027C321.298 184.027 322.82 182.397 322.82 180.386V172.697Z" fill="white"/>
<path d="M340.951 172.697H334.152V180.283C334.152 182.351 335.674 184.027 337.552 184.027C339.429 184.027 340.951 182.351 340.951 180.283V172.697Z" fill="white"/>
<path d="M356.058 172.697H372.127C372.493 173.579 372.676 174.549 372.676 175.607C372.676 178.418 371.602 180.718 369.455 182.505C367.324 184.275 364.023 185.16 359.55 185.16C354.988 185.16 351.615 184.223 349.432 182.349C348.182 181.257 347.292 179.994 346.764 178.561C346.096 176.749 347.78 175.138 349.75 175.138H351.458C352.571 175.138 353.446 176.211 354.19 177.123C354.299 177.256 354.405 177.386 354.509 177.509C354.836 177.897 355.148 178.072 355.605 178.304C356.798 178.912 358.004 179.433 360.136 179.433C361.627 179.433 362.807 179.217 363.677 178.783C364.564 178.349 365.008 177.698 365.008 176.83C365.008 175.997 364.653 175.364 363.943 174.93C363.234 174.497 360.606 173.752 356.058 172.697Z" fill="white"/>
<path d="M370.602 169.297H350.154C350.011 169.19 349.877 169.081 349.751 168.97C348.417 167.812 347.75 166.144 347.75 163.965C347.75 161.394 348.786 159.189 350.857 157.351C352.946 155.495 355.877 154.567 359.651 154.567C363.232 154.567 366.154 155.256 368.419 156.636C369.687 157.424 370.651 158.532 371.309 159.961C372.214 161.923 370.373 163.837 368.156 163.837H367.248C365.847 163.837 364.832 162.687 363.969 161.615C363.144 160.628 361.74 160.134 359.756 160.134C358.124 160.134 356.957 160.381 356.254 160.875C355.57 161.368 355.227 161.947 355.227 162.611C355.227 163.446 355.596 164.05 356.333 164.424C357.071 164.816 359.677 165.489 364.153 166.442C366.965 167.084 369.115 168.035 370.602 169.297Z" fill="white"/>
<path d="M381.556 172.697L385.32 183.469C385.677 184.491 385.897 185.961 385.491 186.964C385.133 187.888 384.742 188.496 384.316 188.787C383.874 189.095 383.329 189.292 382.683 189.377C382.399 189.415 382.11 189.441 381.812 189.455C381.036 189.493 380.257 189.537 379.496 189.701L379.281 189.748C379.174 189.771 379.071 189.807 378.975 189.856L378.674 190.007C376.266 191.218 376.993 194.853 379.68 195.034C379.742 195.038 379.804 195.047 379.866 195.06C380.171 195.126 381.155 195.333 381.484 195.333C381.875 195.35 382.394 195.358 383.041 195.358C387.585 195.358 390.844 191.553 392.485 187.289C392.909 186.186 393.359 184.949 393.834 183.576L397.607 172.697H391.017L389.905 176.696L388.727 172.697H381.556Z" fill="white"/>
<path d="M387.41 169.297H380.419L377.417 159.845C376.599 157.267 378.327 154.567 380.796 154.567C382.382 154.567 383.78 155.722 384.23 157.406L387.41 169.297Z" fill="white"/>
<path d="M391.941 169.297H398.726L401.937 159.585C402.748 157.131 401.022 154.567 398.56 154.567C396.956 154.567 395.548 155.694 395.116 157.324L391.941 169.297Z" fill="white"/>
<path d="M406.845 172.539C407.259 175.626 408.417 178.342 410.321 180.688C412.754 183.67 416.447 185.16 421.401 185.16C426.355 185.16 430.049 183.67 432.482 180.688C434.915 177.69 436.131 174.086 436.131 169.877C436.131 165.738 434.915 162.152 432.482 159.118C430.049 156.084 426.355 154.567 421.401 154.567C416.447 154.567 412.754 156.084 410.321 159.118C407.895 162.144 406.677 165.72 406.671 169.845H414.499C414.503 166.985 415.094 164.785 416.271 163.248C417.47 161.687 419.171 160.907 421.375 160.907C423.578 160.907 425.271 161.687 426.453 163.248C427.634 164.791 428.224 167.001 428.224 169.877C428.224 172.753 427.634 174.971 426.453 176.532C425.271 178.093 423.578 178.873 421.375 178.873C419.171 178.873 417.47 178.093 416.271 176.532C415.485 175.493 414.96 174.162 414.697 172.539H406.845Z" fill="white"/>
<path d="M448.908 164.07C449.86 161.906 451.613 160.823 454.168 160.823C456.248 160.823 457.658 161.562 458.397 163.041C458.803 163.85 459.005 165.012 459.005 166.525V180.173C459.005 182.302 460.734 184.027 462.865 184.027C464.996 184.027 466.723 182.302 466.723 180.173V164.651C466.723 161.043 465.773 158.465 463.869 156.916C461.984 155.35 459.552 154.567 456.573 154.567C454.194 154.567 452.23 155.148 450.679 156.309C449.816 156.96 448.899 158.025 447.931 159.503V158.936C447.931 156.931 446.303 155.306 444.297 155.306C442.289 155.306 440.662 156.931 440.662 158.936V180.279C440.662 182.349 442.342 184.027 444.415 184.027C446.488 184.027 448.168 182.349 448.168 180.279V168.452C448.168 166.675 448.415 165.214 448.908 164.07Z" fill="white"/>
<path d="M299.032 198.757H302.431V215.754H299.032V198.757Z" fill="white"/>
<path d="M310.925 215.754C309.938 215.754 309.055 215.601 308.275 215.296C307.511 214.976 306.858 214.542 306.317 213.993C305.792 213.444 305.386 212.788 305.099 212.026C304.829 211.264 304.693 210.425 304.693 209.51C304.693 208.611 304.829 207.78 305.099 207.018C305.386 206.255 305.792 205.6 306.317 205.051C306.858 204.502 307.511 204.075 308.275 203.77C309.055 203.45 309.938 203.29 310.925 203.29C311.912 203.29 312.788 203.45 313.552 203.77C314.332 204.075 314.984 204.502 315.51 205.051C316.051 205.6 316.457 206.255 316.728 207.018C317.014 207.78 317.157 208.611 317.157 209.51C317.157 210.425 317.014 211.264 316.728 212.026C316.457 212.788 316.051 213.444 315.51 213.993C314.984 214.542 314.332 214.976 313.552 215.296C312.788 215.601 311.912 215.754 310.925 215.754ZM310.925 213.696C311.53 213.696 312.056 213.574 312.501 213.33C312.947 213.086 313.313 212.766 313.6 212.369C313.886 211.973 314.093 211.531 314.22 211.043C314.364 210.54 314.435 210.029 314.435 209.51C314.435 209.007 314.364 208.504 314.22 208.001C314.093 207.498 313.886 207.056 313.6 206.675C313.313 206.278 312.947 205.958 312.501 205.714C312.056 205.47 311.53 205.348 310.925 205.348C310.32 205.348 309.795 205.47 309.349 205.714C308.904 205.958 308.538 206.278 308.251 206.675C307.965 207.056 307.75 207.498 307.606 208.001C307.479 208.504 307.415 209.007 307.415 209.51C307.415 210.029 307.479 210.54 307.606 211.043C307.75 211.531 307.965 211.973 308.251 212.369C308.538 212.766 308.904 213.086 309.349 213.33C309.795 213.574 310.32 213.696 310.925 213.696Z" fill="white"/>
<path d="M318.288 198.757H331.885V201.328H326.545V215.754H323.605V201.328H318.288V198.757Z" fill="white"/>
<path d="M343.651 208.731L346.55 200.805H346.598L349.45 208.731H343.651ZM345.352 198.757L338.69 215.754H341.015L342.932 210.636H350.168L352.038 215.754H354.554L347.868 198.757H345.352Z" fill="white"/>
<path d="M363.906 207.398H365.815C365.743 206.691 365.569 206.083 365.295 205.575C365.02 205.052 364.665 204.621 364.232 204.282C363.812 203.944 363.32 203.698 362.756 203.544C362.206 203.374 361.613 203.29 360.977 203.29C360.094 203.29 359.321 203.459 358.655 203.798C357.99 204.121 357.433 204.575 356.984 205.159C356.551 205.729 356.225 206.406 356.008 207.191C355.791 207.96 355.683 208.791 355.683 209.683C355.683 210.576 355.791 211.399 356.008 212.153C356.24 212.892 356.572 213.53 357.006 214.069C357.455 214.607 358.004 215.023 358.655 215.315C359.321 215.608 360.08 215.754 360.934 215.754C362.366 215.754 363.494 215.354 364.318 214.554C365.157 213.753 365.678 212.615 365.88 211.138H363.993C363.877 212.061 363.559 212.776 363.038 213.284C362.532 213.792 361.823 214.046 360.912 214.046C360.333 214.046 359.834 213.923 359.415 213.676C358.995 213.43 358.655 213.107 358.395 212.707C358.134 212.292 357.939 211.822 357.809 211.299C357.693 210.776 357.635 210.237 357.635 209.683C357.635 209.083 357.693 208.506 357.809 207.952C357.925 207.383 358.113 206.883 358.373 206.452C358.648 206.021 359.01 205.675 359.458 205.413C359.906 205.152 360.463 205.021 361.129 205.021C361.91 205.021 362.532 205.229 362.995 205.644C363.458 206.06 363.761 206.644 363.906 207.398Z" fill="white"/>
<path d="M377.284 207.398H379.406C379.326 206.691 379.133 206.083 378.827 205.575C378.522 205.052 378.128 204.621 377.646 204.282C377.18 203.944 376.634 203.698 376.007 203.544C375.396 203.374 374.737 203.29 374.03 203.29C373.05 203.29 372.19 203.459 371.45 203.798C370.711 204.121 370.092 204.575 369.594 205.159C369.112 205.729 368.75 206.406 368.509 207.191C368.268 207.96 368.147 208.791 368.147 209.683C368.147 210.576 368.268 211.399 368.509 212.153C368.766 212.892 369.136 213.53 369.618 214.069C370.116 214.607 370.727 215.023 371.45 215.315C372.19 215.608 373.034 215.754 373.982 215.754C375.573 215.754 376.827 215.354 377.742 214.554C378.675 213.753 379.253 212.615 379.478 211.138H377.381C377.252 212.061 376.899 212.776 376.32 213.284C375.758 213.792 374.97 214.046 373.958 214.046C373.315 214.046 372.76 213.923 372.294 213.676C371.828 213.43 371.45 213.107 371.161 212.707C370.872 212.292 370.655 211.822 370.51 211.299C370.382 210.776 370.317 210.237 370.317 209.683C370.317 209.083 370.382 208.506 370.51 207.952C370.639 207.383 370.848 206.883 371.137 206.452C371.442 206.021 371.844 205.675 372.342 205.413C372.841 205.152 373.459 205.021 374.199 205.021C375.067 205.021 375.758 205.229 376.272 205.644C376.786 206.06 377.124 206.644 377.284 207.398Z" fill="white"/>
<path d="M389.8 208.391H382.75C382.781 207.929 382.884 207.498 383.058 207.098C383.232 206.683 383.47 206.321 383.771 206.013C384.071 205.706 384.427 205.467 384.839 205.298C385.266 205.113 385.741 205.021 386.263 205.021C386.77 205.021 387.229 205.113 387.64 205.298C388.067 205.467 388.431 205.706 388.732 206.013C389.049 206.306 389.294 206.66 389.468 207.075C389.658 207.491 389.769 207.929 389.8 208.391ZM391.747 211.715H389.753C389.579 212.499 389.215 213.084 388.661 213.469C388.123 213.853 387.426 214.046 386.572 214.046C385.907 214.046 385.329 213.938 384.839 213.723C384.348 213.507 383.945 213.223 383.628 212.869C383.312 212.499 383.082 212.084 382.94 211.622C382.797 211.145 382.734 210.645 382.75 210.122H391.937C391.968 209.399 391.897 208.637 391.723 207.837C391.565 207.037 391.264 206.298 390.821 205.621C390.394 204.944 389.816 204.39 389.088 203.959C388.376 203.513 387.474 203.29 386.382 203.29C385.543 203.29 384.768 203.444 384.055 203.751C383.359 204.059 382.75 204.49 382.228 205.044C381.721 205.598 381.325 206.252 381.041 207.006C380.756 207.76 380.613 208.591 380.613 209.499C380.645 210.407 380.779 211.245 381.017 212.015C381.27 212.784 381.642 213.446 382.133 214C382.623 214.554 383.225 214.984 383.937 215.292C384.665 215.6 385.519 215.754 386.501 215.754C387.893 215.754 389.049 215.415 389.966 214.738C390.884 214.061 391.478 213.053 391.747 211.715Z" fill="white"/>
<path d="M394.211 198.757V215.754H396.477V198.757H394.211Z" fill="white"/>
<path d="M408.142 208.391H401.797C401.825 207.929 401.918 207.498 402.075 207.098C402.231 206.683 402.445 206.321 402.716 206.013C402.986 205.706 403.307 205.467 403.677 205.298C404.062 205.113 404.489 205.021 404.959 205.021C405.415 205.021 405.828 205.113 406.198 205.298C406.583 205.467 406.91 205.706 407.181 206.013C407.466 206.306 407.687 206.66 407.843 207.075C408.014 207.491 408.114 207.929 408.142 208.391ZM409.894 211.715H408.1C407.943 212.499 407.615 213.084 407.117 213.469C406.633 213.853 406.006 214.046 405.237 214.046C404.638 214.046 404.119 213.938 403.677 213.723C403.235 213.507 402.872 213.223 402.587 212.869C402.303 212.499 402.096 212.084 401.968 211.622C401.84 211.145 401.783 210.645 401.797 210.122H410.065C410.094 209.399 410.03 208.637 409.873 207.837C409.731 207.037 409.46 206.298 409.061 205.621C408.676 204.944 408.157 204.39 407.501 203.959C406.86 203.513 406.049 203.29 405.066 203.29C404.311 203.29 403.613 203.444 402.972 203.751C402.345 204.059 401.797 204.49 401.327 205.044C400.871 205.598 400.515 206.252 400.259 207.006C400.002 207.76 399.874 208.591 399.874 209.499C399.903 210.407 400.024 211.245 400.237 212.015C400.465 212.784 400.8 213.446 401.241 214C401.683 214.554 402.224 214.984 402.865 215.292C403.52 215.6 404.289 215.754 405.173 215.754C406.426 215.754 407.466 215.415 408.292 214.738C409.118 214.061 409.652 213.053 409.894 211.715Z" fill="white"/>
<path d="M412.339 203.575V215.754H414.463V210.336C414.463 209.551 414.547 208.86 414.713 208.263C414.88 207.651 415.147 207.132 415.513 206.708C415.88 206.284 416.363 205.962 416.963 205.743C417.563 205.523 418.288 205.413 419.137 205.413V203.293C417.988 203.261 417.038 203.481 416.288 203.952C415.538 204.423 414.905 205.154 414.388 206.143H414.338V203.575H412.339Z" fill="white"/>
<path d="M431.599 215.454C431.257 215.654 430.782 215.754 430.176 215.754C429.663 215.754 429.252 215.615 428.942 215.338C428.646 215.046 428.499 214.577 428.499 213.93C427.955 214.577 427.316 215.046 426.585 215.338C425.871 215.615 425.095 215.754 424.255 215.754C423.711 215.754 423.189 215.692 422.692 215.569C422.21 215.446 421.79 215.254 421.433 214.992C421.075 214.731 420.788 214.392 420.57 213.977C420.368 213.546 420.269 213.03 420.269 212.43C420.269 211.753 420.385 211.199 420.618 210.768C420.851 210.337 421.155 209.991 421.528 209.73C421.916 209.453 422.35 209.245 422.832 209.106C423.329 208.968 423.834 208.852 424.347 208.76C424.891 208.652 425.404 208.575 425.886 208.529C426.383 208.468 426.819 208.391 427.192 208.299C427.565 208.191 427.861 208.045 428.079 207.86C428.297 207.66 428.404 207.375 428.404 207.006C428.404 206.575 428.32 206.229 428.149 205.967C427.993 205.706 427.782 205.506 427.518 205.367C427.269 205.229 426.982 205.136 426.655 205.09C426.345 205.044 426.034 205.021 425.723 205.021C424.884 205.021 424.184 205.183 423.625 205.506C423.065 205.813 422.763 206.406 422.717 207.283H420.735C420.766 206.544 420.921 205.921 421.201 205.413C421.481 204.906 421.854 204.498 422.32 204.19C422.787 203.867 423.315 203.636 423.906 203.498C424.512 203.359 425.157 203.29 425.841 203.29C426.385 203.29 426.92 203.328 427.448 203.405C427.992 203.482 428.482 203.644 428.917 203.89C429.352 204.121 429.702 204.452 429.966 204.882C430.23 205.313 430.362 205.875 430.362 206.567V212.707C430.362 213.169 430.386 213.507 430.432 213.723C430.495 213.938 430.682 214.046 430.993 214.046C431.164 214.046 431.366 214.007 431.599 213.93V215.454ZM428.381 209.337C428.132 209.522 427.806 209.66 427.401 209.753C426.997 209.83 426.57 209.899 426.119 209.96C425.684 210.007 425.242 210.068 424.792 210.145C424.341 210.207 423.937 210.314 423.579 210.468C423.222 210.622 422.925 210.845 422.692 211.138C422.474 211.415 422.366 211.799 422.366 212.292C422.366 212.615 422.428 212.892 422.552 213.123C422.692 213.338 422.864 213.515 423.066 213.653C423.284 213.792 423.531 213.892 423.811 213.953C424.091 214.015 424.386 214.046 424.697 214.046C425.35 214.046 425.911 213.961 426.377 213.792C426.843 213.607 427.223 213.384 427.518 213.123C427.813 212.846 428.032 212.553 428.172 212.245C428.312 211.922 428.381 211.622 428.381 211.345V209.337Z" fill="white"/>
<path d="M436.283 203.549V199.89H434.538V203.549H432.731V205.319H434.538V213.086C434.538 213.652 434.586 214.109 434.681 214.455C434.777 214.801 434.921 215.069 435.113 215.257C435.318 215.446 435.578 215.58 435.893 215.659C436.221 215.722 436.611 215.753 437.063 215.753H438.397V213.983H437.596C437.323 213.983 437.097 213.975 436.919 213.959C436.755 213.928 436.625 213.873 436.529 213.794C436.433 213.715 436.365 213.605 436.324 213.463C436.296 213.322 436.283 213.133 436.283 212.897V205.319H438.397V203.549H436.283Z" fill="white"/>
<path d="M449.849 208.391H442.799C442.83 207.929 442.933 207.498 443.107 207.098C443.281 206.683 443.519 206.321 443.819 206.013C444.12 205.706 444.476 205.467 444.888 205.298C445.315 205.113 445.79 205.021 446.312 205.021C446.818 205.021 447.277 205.113 447.689 205.298C448.116 205.467 448.48 205.706 448.781 206.013C449.097 206.306 449.343 206.66 449.517 207.075C449.707 207.491 449.817 207.929 449.849 208.391ZM451.796 211.715H449.802C449.628 212.499 449.264 213.084 448.71 213.469C448.172 213.853 447.475 214.046 446.621 214.046C445.956 214.046 445.378 213.938 444.888 213.723C444.397 213.507 443.994 213.223 443.677 212.869C443.36 212.499 443.131 212.084 442.989 211.622C442.846 211.145 442.783 210.645 442.799 210.122H451.986C452.017 209.399 451.946 208.637 451.772 207.837C451.614 207.037 451.313 206.298 450.87 205.621C450.443 204.944 449.865 204.39 449.137 203.959C448.425 203.513 447.523 203.29 446.431 203.29C445.592 203.29 444.816 203.444 444.104 203.751C443.408 204.059 442.799 204.49 442.276 205.044C441.77 205.598 441.374 206.252 441.089 207.006C440.805 207.76 440.662 208.591 440.662 209.499C440.694 210.407 440.828 211.245 441.066 212.015C441.319 212.784 441.691 213.446 442.181 214C442.672 214.554 443.273 214.984 443.986 215.292C444.714 215.6 445.568 215.754 446.549 215.754C447.942 215.754 449.097 215.415 450.015 214.738C450.933 214.061 451.527 213.053 451.796 211.715Z" fill="white"/>
<path d="M456.132 209.541C456.132 208.947 456.187 208.369 456.298 207.807C456.409 207.244 456.59 206.744 456.839 206.306C457.089 205.869 457.422 205.517 457.838 205.251C458.255 204.986 458.761 204.853 459.358 204.853C459.968 204.853 460.488 204.986 460.919 205.251C461.349 205.501 461.696 205.837 461.959 206.259C462.237 206.681 462.438 207.174 462.563 207.736C462.688 208.283 462.75 208.854 462.75 209.448C462.75 210.01 462.688 210.565 462.563 211.112C462.452 211.659 462.264 212.151 462.001 212.589C461.737 213.011 461.397 213.355 460.981 213.62C460.565 213.886 460.058 214.019 459.462 214.019C458.893 214.019 458.393 213.894 457.963 213.644C457.547 213.394 457.2 213.058 456.923 212.636C456.659 212.214 456.458 211.737 456.319 211.206C456.194 210.659 456.132 210.104 456.132 209.541ZM464.457 215.496V198.757H462.688V204.993H462.646C462.452 204.634 462.209 204.337 461.918 204.102C461.64 203.852 461.342 203.657 461.023 203.516C460.704 203.36 460.384 203.251 460.065 203.188C459.746 203.126 459.448 203.094 459.17 203.094C458.352 203.094 457.63 203.266 457.006 203.61C456.395 203.938 455.882 204.392 455.466 204.97C455.064 205.533 454.758 206.197 454.55 206.963C454.356 207.728 454.259 208.541 454.259 209.401C454.259 210.26 454.363 211.073 454.571 211.839C454.779 212.605 455.084 213.277 455.487 213.855C455.903 214.433 456.416 214.894 457.027 215.238C457.651 215.582 458.38 215.754 459.212 215.754C459.961 215.754 460.648 215.605 461.272 215.308C461.897 215.011 462.355 214.527 462.646 213.855H462.688V215.496H464.457Z" fill="white"/>
<path opacity="0.44" d="M209 116V244" stroke="#F2F2F2" stroke-width="5" stroke-linecap="round"/>
<path d="M59.3263 164.334C57.0886 153.293 58.7561 137.875 66.0308 135.201C65.7066 131.408 65.7268 126.889 65.8282 123.138C65.9353 119.114 66.1958 116.121 64.8497 116.306C63.2373 116.532 57.905 127.306 56.7557 141.115C56.3418 146.103 56.7094 151.096 57.4186 155.638C57.8992 158.568 58.5389 161.471 59.3263 164.334Z" fill="white"/>
<path d="M122.649 164.334C123.433 161.471 124.076 158.568 124.556 155.638C125.269 151.096 125.63 146.1 125.216 141.115C124.07 127.309 118.741 116.532 117.12 116.306C115.779 116.121 116.04 119.111 116.144 123.138C116.248 126.89 116.266 131.411 115.941 135.201C123.216 137.875 124.884 153.293 122.649 164.334Z" fill="white"/>
<path d="M76.4629 142.726C80.6923 152.887 83.2339 163.913 83.8853 166.391C84.6206 165.366 87.4922 162.738 90.9921 162.738C94.4949 162.738 97.3058 165.366 98.0382 166.391C98.6924 163.913 101.234 152.89 105.463 142.726C105.267 140.818 104.248 135.182 103.805 133.141C102.98 129.32 99.1237 112 90.9892 112C82.8547 112 78.938 129.32 78.1158 133.141C77.6787 135.182 76.6568 140.818 76.4629 142.726Z" fill="white"/>
<path d="M74.5938 139.455C75.9775 131.164 77.3554 126.228 79.0721 121.657C75.8327 122.213 72.1129 129.806 70.9434 135.622C72.7729 136.823 74.504 139.316 74.5938 139.455Z" fill="white"/>
<path d="M110.999 135.626C109.835 129.807 106.109 122.211 102.87 121.655C104.587 126.229 105.959 131.162 107.346 139.458C107.441 139.316 109.166 136.824 110.999 135.626Z" fill="white"/>
<path d="M102.072 198.68C110.968 198.044 117.423 194.193 118.821 192.963C120.237 191.724 121.094 190.667 119.597 190.459C118.21 190.265 112.849 192.326 111.202 192.833C111.202 192.833 110.71 192.983 110.713 192.827C110.716 192.677 111.506 192.407 111.506 192.407C122.99 188.218 130.143 179.841 129.587 177.878C128.829 176.176 124.197 180.941 120.752 183.06C120.752 183.06 120.428 183.26 120.422 183.126C120.416 183.06 120.81 182.733 120.81 182.733C129.674 175.721 133.272 162.399 131.726 161.21C130.901 160.935 129.448 164.162 127.352 168.082C125.746 171.075 124.197 173.021 124.197 173.021C124.197 173.021 124.058 173.206 123.98 173.183C123.919 173.165 124.023 172.963 124.023 172.963C130.389 159.823 131.104 150.559 131.321 146.31C131.81 136.731 130.088 136.265 129.396 139.382C128.591 143.004 127.633 147.659 126.935 152.247C124.999 164.906 119.571 177.51 115.278 184.386C114.638 185.393 114.094 185.321 113.964 185.124C113.848 184.959 113.92 184.736 114.317 184.004C126.675 161.169 121.424 138.178 114.114 137.915C107.1 137.66 100.398 165.294 99.6139 168.325C104.347 176.405 105.47 187.596 105.132 190.421C105.105 190.656 104.906 190.844 104.663 190.853C104.396 190.859 104.176 190.653 104.168 190.378C104.168 185.231 100.254 165.616 91.0539 165.616C81.857 165.616 77.9431 185.234 77.9431 190.378C77.9345 190.653 77.7116 190.859 77.4452 190.853C77.205 190.847 77.0081 190.656 76.9792 190.421C76.6405 187.596 77.7637 176.405 82.4938 168.325C81.7122 165.294 75.0078 137.66 67.9965 137.915C60.6841 138.178 55.4328 161.169 67.7909 184.004C68.1875 184.736 68.2599 184.959 68.1412 185.124C68.0138 185.321 67.4725 185.393 66.8298 184.386C62.5368 177.51 57.109 164.906 55.1752 152.247C54.4717 147.659 53.5164 143.004 52.7088 139.382C52.0169 136.265 50.2974 136.731 50.7866 146.31C50.9979 150.562 51.7188 159.826 58.0816 172.963C58.0816 172.963 58.1887 173.162 58.125 173.183C58.0469 173.206 57.9108 173.021 57.9108 173.021C57.9108 173.021 56.3592 171.075 54.7525 168.082C52.6538 164.162 51.2006 160.937 50.3813 161.21C48.8326 162.396 52.4309 175.719 61.2949 182.733C61.2949 182.733 61.6915 183.057 61.6828 183.126C61.6741 183.262 61.3586 183.06 61.3586 183.06C57.9137 180.941 53.2791 176.176 52.5235 177.878C51.9677 179.841 59.1151 188.218 70.6018 192.407C70.6018 192.407 71.395 192.679 71.3979 192.827C71.3979 192.983 70.9058 192.833 70.9058 192.833C69.2586 192.329 63.8945 190.265 62.5107 190.459C61.0112 190.667 61.8739 191.724 63.2894 192.963C64.6877 194.193 71.1432 198.044 80.0332 198.68C80.1056 199.482 83.1915 202.287 91.0423 202.287C98.8902 202.287 102.005 199.482 102.072 198.68Z" fill="white"/>
<path d="M38.0059 212.969H40.8833V231.493H50.6274V234.191H38.0088V212.969H38.0059Z" fill="white"/>
<path d="M53.5596 212.968H56.437V234.19H53.5596V212.968Z" fill="white"/>
<path d="M60.0957 212.968H67.4718C68.3894 212.968 69.2434 213.078 70.0337 213.298C70.824 213.518 71.5014 213.843 72.0717 214.274C72.6391 214.702 73.0907 215.252 73.4207 215.921C73.7507 216.59 73.9128 217.374 73.9128 218.275C73.9128 219.496 73.5741 220.489 72.8938 221.259C72.2164 222.029 71.3364 222.594 70.2566 222.953V223.013C70.8964 223.054 71.4956 223.219 72.0572 223.506C72.6159 223.795 73.0993 224.177 73.5104 224.646C73.9186 225.115 74.2457 225.659 74.486 226.279C74.7262 226.901 74.8449 227.57 74.8449 228.288C74.8449 229.249 74.6481 230.094 74.2602 230.824C73.8694 231.553 73.3338 232.167 72.6564 232.668C71.9761 233.169 71.1887 233.548 70.2884 233.805C69.3881 234.066 68.4213 234.196 67.3791 234.196H60.0957V212.968ZM62.9732 221.78H66.8986C67.4399 221.78 67.9494 221.725 68.4271 221.615C68.9076 221.505 69.3274 221.32 69.6863 221.062C70.0453 220.802 70.329 220.472 70.5403 220.072C70.7487 219.673 70.8558 219.181 70.8558 218.602C70.8558 217.762 70.5866 217.033 70.0453 216.413C69.5068 215.794 68.6558 215.484 67.4978 215.484H62.9703V221.78H62.9732ZM62.9732 231.672H67.1996C67.6397 231.672 68.126 231.629 68.6529 231.539C69.1826 231.446 69.6776 231.267 70.1379 230.997C70.5982 230.725 70.9861 230.361 71.3074 229.903C71.6259 229.443 71.788 228.835 71.788 228.074C71.788 226.814 71.3798 225.868 70.5577 225.24C69.7384 224.611 68.6297 224.296 67.2315 224.296H62.9761V231.672H62.9732Z" fill="white"/>
<path d="M77.79 212.968H91.4884V215.666H80.6675V221.992H90.7416V224.69H80.6675V231.492H92.0298V234.19H77.79V212.968Z" fill="white"/>
<path d="M94.8984 212.968H102.361C103.722 212.968 104.839 213.154 105.719 213.521C106.599 213.892 107.294 214.361 107.804 214.931C108.313 215.498 108.669 216.141 108.866 216.847C109.069 217.56 109.164 218.24 109.164 218.9C109.164 219.58 109.046 220.234 108.808 220.863C108.568 221.494 108.223 222.061 107.772 222.571C107.323 223.08 106.773 223.511 106.125 223.859C105.473 224.209 104.752 224.426 103.951 224.504L109.978 234.188H106.379L100.986 224.834H97.7759V234.188H94.9013V212.968H94.8984ZM97.7759 222.322H101.554C102.112 222.322 102.671 222.278 103.218 222.186C103.765 222.096 104.257 221.931 104.686 221.693C105.117 221.453 105.462 221.109 105.719 220.657C105.98 220.208 106.11 219.624 106.11 218.903C106.11 218.185 105.98 217.6 105.719 217.149C105.462 216.7 105.117 216.355 104.686 216.115C104.255 215.878 103.765 215.71 103.218 215.623C102.668 215.53 102.112 215.487 101.554 215.487H97.7759V222.322Z" fill="white"/>
<path d="M117.116 215.666H110.281V212.968H126.828V215.666H119.993V234.19H117.113V215.666H117.116Z" fill="white"/>
<path d="M136.087 225.138L128.054 212.968H131.742L137.529 222.29L143.492 212.968H147L138.967 225.138V234.19H136.09V225.138H136.087Z" fill="white"/>
<path d="M38 237.343H39.4098V246.418H44.1834V247.741H38V237.343Z" fill="white"/>
<path d="M48.8853 237.343H50.1619L54.6142 247.744H52.967L51.9249 245.173H46.9747L45.947 247.744H44.3027L48.8853 237.343ZM51.4096 243.937L49.47 239.164H49.4411L47.4726 243.937H51.4096Z" fill="white"/>
<path d="M56.7888 238.663H53.4395V237.343H61.5479V238.663H58.1986V247.741H56.7888V238.663Z" fill="white"/>
<path d="M63.0391 237.343H64.4488V247.744H63.0391V237.343Z" fill="white"/>
<path d="M67.123 237.343H68.9757L74.7046 245.891H74.7336V237.343H76.1434V247.744H74.3486L68.5618 239.193H68.5328V247.744H67.123V237.343Z" fill="white"/>
<path d="M86.1607 237.343H87.4373L91.8896 247.744H90.2424L89.2002 245.173H84.2501L83.2224 247.744H81.5781L86.1607 237.343ZM88.685 243.937L86.7454 239.164H86.7165L84.748 243.937H88.685Z" fill="white"/>
<path d="M93.1435 237.343H95.2423L98.5482 245.217H98.609L101.883 237.343H103.982V247.744H102.572V239.193H102.543L99.0316 247.744H98.0908L94.5794 239.193H94.5504V247.744H93.1406V237.343H93.1435Z" fill="white"/>
<path d="M106.215 237.343H112.928V238.663H107.625V241.763H112.557V243.083H107.625V246.418H113.188V247.741H106.212V237.343H106.215Z" fill="white"/>
<path d="M114.889 237.343H118.548C119.211 237.343 119.761 237.433 120.189 237.615C120.623 237.797 120.962 238.026 121.211 238.304C121.46 238.585 121.634 238.897 121.732 239.248C121.831 239.595 121.88 239.931 121.88 240.252C121.88 240.585 121.819 240.903 121.703 241.213C121.587 241.523 121.417 241.804 121.199 242.05C120.977 242.302 120.707 242.51 120.392 242.684C120.073 242.855 119.717 242.959 119.326 242.999L122.276 247.744H120.513L117.87 243.161H116.298V247.744H114.889V237.343ZM116.301 241.925H118.154C118.426 241.925 118.698 241.905 118.97 241.859C119.24 241.815 119.48 241.731 119.688 241.616C119.9 241.5 120.068 241.332 120.195 241.109C120.322 240.889 120.386 240.605 120.386 240.252C120.386 239.899 120.319 239.612 120.195 239.392C120.068 239.172 119.9 239.004 119.688 238.889C119.477 238.77 119.24 238.689 118.97 238.646C118.698 238.602 118.429 238.579 118.154 238.579H116.301V241.925Z" fill="white"/>
<path d="M123.875 237.343H125.285V247.744H123.875V237.343Z" fill="white"/>
<path d="M134.903 239.588C134.608 239.206 134.237 238.914 133.786 238.708C133.337 238.503 132.871 238.398 132.387 238.398C131.803 238.398 131.27 238.508 130.795 238.731C130.318 238.951 129.912 239.252 129.574 239.635C129.238 240.017 128.974 240.465 128.789 240.978C128.604 241.493 128.511 242.043 128.511 242.631C128.511 243.178 128.601 243.696 128.778 244.185C128.951 244.677 129.209 245.106 129.542 245.479C129.875 245.853 130.28 246.145 130.761 246.359C131.238 246.576 131.785 246.683 132.39 246.683C132.99 246.683 133.514 246.559 133.965 246.316C134.414 246.07 134.799 245.725 135.111 245.288L136.298 246.183C136.22 246.29 136.084 246.443 135.887 246.646C135.69 246.846 135.433 247.048 135.109 247.248C134.787 247.448 134.394 247.624 133.939 247.775C133.482 247.928 132.958 248.001 132.358 248.001C131.536 248.001 130.795 247.844 130.132 247.532C129.472 247.219 128.908 246.808 128.445 246.298C127.981 245.789 127.625 245.213 127.379 244.573C127.136 243.933 127.012 243.282 127.012 242.628C127.012 241.823 127.145 241.082 127.408 240.402C127.672 239.721 128.042 239.131 128.517 238.639C128.992 238.144 129.562 237.759 130.228 237.487C130.894 237.212 131.629 237.076 132.431 237.076C133.114 237.076 133.789 237.206 134.451 237.472C135.111 237.738 135.653 238.144 136.075 238.694L134.903 239.588Z" fill="white"/>
<path d="M141.258 237.343H142.535L146.987 247.744H145.34L144.298 245.173H139.345L138.317 247.744H136.673L141.258 237.343ZM143.783 243.937L141.843 239.164H141.814L139.846 243.937H143.783Z" fill="white"/>
</svg>
