<svg width="151" height="110" viewBox="0 0 151 110" fill="none" xmlns="http://www.w3.org/2000/svg">
<path d="M7.79866 9.95516L105.001 23C106.254 23.1646 107.375 23.8621 108.076 24.9135C108.292 25.2375 108.463 25.5888 108.587 25.9582L108.724 26.3704C108.983 27.1479 109.115 27.9622 109.115 28.7818V71.9736C109.115 72.9907 108.785 73.9804 108.175 74.7941C107.407 75.8184 106.254 76.485 104.983 76.6398L7.53883 88.4893C6.43443 88.6239 5.31386 88.4902 4.27212 88.0995L4.11954 88.0423C3.01473 87.628 2.04729 86.9139 1.32582 85.9802C0.467003 84.8688 0.001091 83.5039 0.001091 82.0994V17.3586C0.001091 16.4503 0.16111 15.5491 0.473801 14.6963L0.618301 14.3022C1.22937 12.6356 2.47534 11.2787 4.08388 10.5281C5.24237 9.98746 6.53111 9.7887 7.79866 9.95516Z" fill="#F26522"/>
<path d="M71.4238 93.4079V90.8367L68.2812 91.2652V93.9793L71.4238 93.4079Z" fill="white"/>
<path fill-rule="evenodd" clip-rule="evenodd" d="M84.0228 91.4728C83.7704 91.4066 83.5068 91.3944 83.2493 91.4369L50.9309 96.7765C49.5383 97.0066 48.9014 98.6446 49.7726 99.755L56.6514 108.522C57.084 109.074 57.7904 109.334 58.4776 109.196L103.375 100.189C105.306 99.8019 105.386 97.0713 103.481 96.5721L84.0228 91.4728ZM83.4912 94.5822L97.3038 98.202L58.6353 105.96L53.5852 99.5232L83.4912 94.5822Z" fill="white"/>
<path fill-rule="evenodd" clip-rule="evenodd" d="M21.9529 3.3111C22.8603 3.11384 23.7968 3.08955 24.7132 3.2395L115.775 18.1406C116.505 18.26 117.191 18.5712 117.761 19.0423C118.721 19.8357 119.277 21.0164 119.277 22.2621V72.914C119.277 73.356 119.245 73.7974 119.18 74.2346L118.822 76.6531C118.512 78.746 116.993 80.4543 114.956 81.0098L24.2525 94.9533C23.6275 95.0494 22.9909 95.04 22.369 94.9254C20.3303 94.5499 18.6605 93.0887 18.0178 91.1177L17.6408 89.9617C17.4024 89.2307 17.2749 88.4681 17.2625 87.6993L16.0264 11.0585C16.0115 10.1374 16.1588 9.22086 16.4614 8.35077L16.5488 8.09946C17.3935 5.67118 19.4406 3.85725 21.9529 3.3111ZM25.2207 0.13814C23.9142 -0.075655 22.579 -0.0410261 21.2854 0.24021C17.7035 1.01887 14.7848 3.60501 13.5806 7.06705L13.4932 7.31835C13.0695 8.53648 12.8634 9.81964 12.8842 11.1092L14.1203 87.7499C14.1378 88.8326 14.3173 89.9065 14.653 90.9359L15.03 92.092C16.0299 95.1584 18.6278 97.4317 21.7997 98.016C22.7672 98.1943 23.7577 98.2089 24.73 98.0595L115.594 84.0912L115.67 84.0716C118.966 83.2211 121.432 80.4803 121.93 77.1137L122.289 74.6952C122.376 74.1055 122.42 73.5101 122.42 72.914V22.2621C122.42 20.079 121.445 18.0099 119.762 16.6195C118.763 15.7939 117.562 15.2486 116.283 15.0392L25.2207 0.13814Z" fill="white"/>
<path d="M135.036 94.8995C135.036 93.574 133.992 92.4994 132.704 92.4994H121.333C120.044 92.4994 119 93.574 119 94.8995V106.6C119 107.925 120.044 109 121.333 109H132.704C133.992 109 135.036 107.925 135.036 106.6V94.8995Z" fill="url(#paint0_linear_2_74)"/>
<path d="M151 81.9991C151 80.6736 149.956 79.599 148.667 79.599H140.795C139.507 79.599 138.462 80.6736 138.462 81.9991V90.0994C138.462 91.4249 139.507 92.4994 140.795 92.4994H148.667C149.956 92.4994 151 91.4249 151 90.0994V81.9991Z" fill="url(#paint1_linear_2_74)"/>
<path d="M143.127 65.4001C143.127 64.0746 142.083 63 140.795 63H136.421C135.133 63 134.089 64.0746 134.089 65.4001V69.9002C134.089 71.2258 135.133 72.3003 136.421 72.3003H140.795C142.083 72.3003 143.127 71.2258 143.127 69.9002V65.4001Z" fill="url(#paint2_linear_2_74)"/>
<defs>
<linearGradient id="paint0_linear_2_74" x1="141.815" y1="63" x2="150.661" y2="116.933" gradientUnits="userSpaceOnUse">
<stop stop-color="#FF7A00"/>
<stop offset="1" stop-color="#CC520A"/>
</linearGradient>
<linearGradient id="paint1_linear_2_74" x1="141.815" y1="63" x2="150.661" y2="116.933" gradientUnits="userSpaceOnUse">
<stop stop-color="#FF7A00"/>
<stop offset="1" stop-color="#CC520A"/>
</linearGradient>
<linearGradient id="paint2_linear_2_74" x1="141.815" y1="63" x2="150.661" y2="116.933" gradientUnits="userSpaceOnUse">
<stop stop-color="#FF7A00"/>
<stop offset="1" stop-color="#CC520A"/>
</linearGradient>
</defs>
</svg>
