<svg width="499" height="202" viewBox="0 0 499 202" fill="none" xmlns="http://www.w3.org/2000/svg">
<rect width="499" height="202" rx="10" fill="black"/>
<path d="M264.292 99.5758C266.157 99.5758 267.671 99.3659 268.834 98.9463C271.041 98.1418 272.145 96.6466 272.145 94.4604C272.145 93.1838 271.597 92.1958 270.502 91.4963C269.407 90.8142 267.688 90.2109 265.344 89.6863L261.341 88.7681C257.406 87.8587 254.686 86.8707 253.18 85.8039C250.631 84.0201 249.356 81.2306 249.356 77.4357C249.356 73.9731 250.588 71.0963 253.052 68.8053C255.515 66.5144 259.134 65.3689 263.907 65.3689C267.893 65.3689 271.289 66.4532 274.095 68.6217C275.918 70.0111 277.181 71.8091 277.884 74.0157C278.557 76.1289 276.732 78.0129 274.558 78.0129C272.525 78.0129 271.027 76.2084 269.779 74.5677C269.312 73.954 268.707 73.4498 267.962 73.055C266.73 72.4079 265.199 72.0844 263.368 72.0844C261.332 72.0844 259.707 72.5041 258.492 73.3435C257.277 74.1829 256.67 75.3547 256.67 76.8586C256.67 78.2402 257.269 79.272 258.466 79.954C259.236 80.4087 260.879 80.9422 263.394 81.5542L269.912 83.1543C272.769 83.8539 274.925 84.7895 276.379 85.9613C278.637 87.7801 279.766 90.412 279.766 93.8571C279.766 97.3898 278.44 100.328 275.788 102.671C273.154 104.997 269.424 106.16 264.6 106.16C259.673 106.16 255.798 105.015 252.975 102.724C251.183 101.259 249.96 99.4488 249.306 97.2937C248.645 95.1194 250.546 93.2276 252.773 93.2276C254.786 93.2276 256.283 94.8692 257.318 96.6349C257.435 96.836 257.562 97.0205 257.697 97.1886C258.98 98.7801 261.178 99.5758 264.292 99.5758Z" fill="white"/>
<path fill-rule="evenodd" clip-rule="evenodd" d="M305.087 96.7307C307.699 96.7307 309.602 99.0977 307.987 101.165C307.783 101.426 307.565 101.687 307.33 101.949C304.874 104.757 301.435 106.16 297.014 106.16C293.365 106.16 290.145 104.977 287.355 102.611C284.566 100.245 283.171 96.3951 283.171 91.0623C283.171 86.065 284.425 82.233 286.934 79.5666C289.461 76.9002 292.733 75.567 296.751 75.567C299.137 75.567 301.286 76.0172 303.199 76.9178C305.111 77.8184 306.69 79.24 307.936 81.1823C309.059 82.8952 309.787 84.8819 310.12 87.1421C310.313 88.4665 310.392 90.3736 310.357 92.8635H290.724C290.829 95.7595 291.733 97.7902 293.435 98.9557C294.47 99.6797 295.716 100.042 297.172 100.042C298.716 100.042 299.97 99.6002 300.935 98.7172C302.04 97.7165 303.276 96.7307 304.762 96.7307H305.087ZM302.567 87.8838C302.444 85.8884 301.839 84.3786 300.751 83.3544C299.681 82.3126 298.347 81.7916 296.751 81.7916C295.014 81.7916 293.663 82.339 292.698 83.4338C291.75 84.5286 291.154 86.012 290.908 87.8838H302.567Z" fill="white"/>
<path d="M323.909 84.8409C324.82 82.7285 326.497 81.6723 328.94 81.6723C330.929 81.6723 332.278 82.3936 332.986 83.8363C333.373 84.6262 333.567 85.7598 333.567 87.2366V90.2971H340.949V85.4077C340.949 81.887 340.039 79.371 338.219 77.8597C336.416 76.3312 334.09 75.567 331.241 75.567C328.966 75.567 327.086 76.1337 325.603 77.2672C324.777 77.9026 323.901 78.9416 322.974 80.3843V79.8304C322.974 77.8741 321.418 76.2883 319.498 76.2883C317.578 76.2883 316.021 77.8742 316.021 79.8304V90.2971H323.202V89.1173C323.202 87.3827 323.437 85.9572 323.909 84.8409Z" fill="white"/>
<path d="M322.82 93.6965H316.021V101.386C316.021 103.397 317.543 105.027 319.421 105.027C321.298 105.027 322.82 103.397 322.82 101.386V93.6965Z" fill="white"/>
<path d="M340.951 93.6965H334.152V101.283C334.152 103.351 335.674 105.027 337.552 105.027C339.429 105.027 340.951 103.351 340.951 101.283V93.6965Z" fill="white"/>
<path d="M356.058 93.6965H372.127C372.493 94.5793 372.676 95.5494 372.676 96.6069C372.676 99.4182 371.602 101.718 369.455 103.505C367.324 105.275 364.023 106.16 359.55 106.16C354.988 106.16 351.615 105.223 349.432 103.349C348.182 102.257 347.292 100.994 346.764 99.5606C346.096 97.7492 347.78 96.1383 349.75 96.1383H351.458C352.571 96.1383 353.446 97.2105 354.19 98.1229C354.299 98.2561 354.405 98.3862 354.509 98.5087C354.836 98.897 355.148 99.0717 355.605 99.3045C356.798 99.9123 358.004 100.433 360.136 100.433C361.627 100.433 362.807 100.217 363.677 99.7827C364.564 99.3488 365.008 98.698 365.008 97.8303C365.008 96.9973 364.653 96.3638 363.943 95.93C363.234 95.4969 360.606 94.7524 356.058 93.6965Z" fill="white"/>
<path d="M370.602 90.2971H350.154C350.011 90.1899 349.877 90.0809 349.751 89.9702C348.417 88.8125 347.75 87.144 347.75 84.9648C347.75 82.394 348.786 80.1893 350.857 78.3505C352.946 76.4948 355.877 75.567 359.651 75.567C363.232 75.567 366.154 76.2565 368.419 77.6355C369.687 78.4237 370.651 79.5322 371.309 80.9607C372.214 82.9232 370.373 84.8371 368.156 84.8371H367.248C365.847 84.8371 364.832 83.6865 363.969 82.6153C363.144 81.6279 361.74 81.1342 359.756 81.1342C358.124 81.1342 356.957 81.381 356.254 81.8748C355.57 82.3684 355.227 82.9473 355.227 83.6113C355.227 84.4456 355.596 85.05 356.333 85.4245C357.071 85.8161 359.677 86.4886 364.153 87.442C366.965 88.0837 369.115 89.0354 370.602 90.2971Z" fill="white"/>
<path d="M381.556 93.6965L385.32 104.469C385.677 105.491 385.897 106.961 385.491 107.964C385.133 108.888 384.742 109.496 384.316 109.787C383.874 110.095 383.329 110.292 382.683 110.377C382.399 110.415 382.11 110.441 381.812 110.455C381.036 110.493 380.257 110.537 379.496 110.701L379.281 110.748C379.174 110.771 379.071 110.807 378.975 110.856L378.674 111.007C376.266 112.218 376.993 115.853 379.68 116.034C379.742 116.038 379.804 116.047 379.866 116.06C380.171 116.126 381.155 116.333 381.484 116.333C381.875 116.35 382.394 116.358 383.041 116.358C387.585 116.358 390.844 112.553 392.485 108.289C392.909 107.186 393.359 105.949 393.834 104.576L397.607 93.6965H391.017L389.905 97.696L388.727 93.6965H381.556Z" fill="white"/>
<path d="M387.41 90.2971H380.419L377.417 80.8452C376.599 78.2671 378.327 75.567 380.796 75.567C382.382 75.567 383.78 76.7221 384.23 78.4056L387.41 90.2971Z" fill="white"/>
<path d="M391.941 90.2971H398.726L401.937 80.5846C402.748 78.1313 401.022 75.567 398.56 75.567C396.956 75.567 395.548 76.694 395.116 78.3241L391.941 90.2971Z" fill="white"/>
<path d="M406.845 93.539C407.259 96.6257 408.417 99.3422 410.321 101.688C412.754 104.67 416.447 106.16 421.401 106.16C426.355 106.16 430.049 104.67 432.482 101.688C434.915 98.6896 436.131 95.0858 436.131 90.8768C436.131 86.7381 434.915 83.1518 432.482 80.1179C430.049 77.0839 426.355 75.567 421.401 75.567C416.447 75.567 412.754 77.0839 410.321 80.1179C407.895 83.1441 406.677 86.7199 406.671 90.8453H414.499C414.503 87.9846 415.094 85.7854 416.271 84.2479C417.47 82.687 419.171 81.9067 421.375 81.9067C423.578 81.9067 425.271 82.687 426.453 84.2479C427.634 85.7911 428.224 88.0007 428.224 90.8768C428.224 93.7529 427.634 95.9713 426.453 97.5322C425.271 99.0929 423.578 99.8734 421.375 99.8734C419.171 99.8734 417.47 99.0929 416.271 97.5322C415.485 96.4928 414.96 95.1617 414.697 93.539H406.845Z" fill="white"/>
<path d="M448.908 85.0703C449.86 82.9057 451.613 81.8233 454.168 81.8233C456.248 81.8233 457.658 82.5625 458.397 84.0408C458.803 84.8503 459.005 86.0119 459.005 87.5253V101.173C459.005 103.302 460.734 105.027 462.865 105.027C464.996 105.027 466.723 103.302 466.723 101.173V85.6511C466.723 82.0433 465.773 79.4651 463.869 77.9164C461.984 76.3501 459.552 75.567 456.573 75.567C454.194 75.567 452.23 76.1477 450.679 77.3092C449.816 77.9604 448.899 79.0251 447.931 80.5034V79.9358C447.931 77.9311 446.303 76.3061 444.297 76.3061C442.289 76.3061 440.662 77.9313 440.662 79.9358V101.279C440.662 103.349 442.342 105.027 444.415 105.027C446.488 105.027 448.168 103.349 448.168 101.279V89.4524C448.168 87.6749 448.415 86.2142 448.908 85.0703Z" fill="white"/>
<path d="M299.032 119.757H302.431V136.754H299.032V119.757Z" fill="white"/>
<path d="M310.925 136.754C309.938 136.754 309.055 136.601 308.275 136.296C307.511 135.976 306.858 135.542 306.317 134.993C305.792 134.444 305.386 133.788 305.099 133.026C304.829 132.264 304.693 131.425 304.693 130.51C304.693 129.611 304.829 128.78 305.099 128.018C305.386 127.255 305.792 126.6 306.317 126.051C306.858 125.502 307.511 125.075 308.275 124.77C309.055 124.45 309.938 124.29 310.925 124.29C311.912 124.29 312.788 124.45 313.552 124.77C314.332 125.075 314.984 125.502 315.51 126.051C316.051 126.6 316.457 127.255 316.728 128.018C317.014 128.78 317.157 129.611 317.157 130.51C317.157 131.425 317.014 132.264 316.728 133.026C316.457 133.788 316.051 134.444 315.51 134.993C314.984 135.542 314.332 135.976 313.552 136.296C312.788 136.601 311.912 136.754 310.925 136.754ZM310.925 134.696C311.53 134.696 312.056 134.574 312.501 134.33C312.947 134.086 313.313 133.766 313.6 133.369C313.886 132.973 314.093 132.531 314.22 132.043C314.364 131.54 314.435 131.029 314.435 130.51C314.435 130.007 314.364 129.504 314.22 129.001C314.093 128.498 313.886 128.056 313.6 127.675C313.313 127.278 312.947 126.958 312.501 126.714C312.056 126.47 311.53 126.348 310.925 126.348C310.32 126.348 309.795 126.47 309.349 126.714C308.904 126.958 308.538 127.278 308.251 127.675C307.965 128.056 307.75 128.498 307.606 129.001C307.479 129.504 307.415 130.007 307.415 130.51C307.415 131.029 307.479 131.54 307.606 132.043C307.75 132.531 307.965 132.973 308.251 133.369C308.538 133.766 308.904 134.086 309.349 134.33C309.795 134.574 310.32 134.696 310.925 134.696Z" fill="white"/>
<path d="M318.288 119.757H331.885V122.328H326.545V136.754H323.605V122.328H318.288V119.757Z" fill="white"/>
<path d="M343.651 129.731L346.55 121.805H346.598L349.45 129.731H343.651ZM345.352 119.757L338.69 136.754H341.015L342.932 131.636H350.168L352.038 136.754H354.554L347.868 119.757H345.352Z" fill="white"/>
<path d="M363.906 128.398H365.815C365.743 127.691 365.569 127.083 365.295 126.575C365.02 126.052 364.665 125.621 364.232 125.282C363.812 124.944 363.32 124.698 362.756 124.544C362.206 124.374 361.613 124.29 360.977 124.29C360.094 124.29 359.321 124.459 358.655 124.798C357.99 125.121 357.433 125.575 356.984 126.159C356.551 126.729 356.225 127.406 356.008 128.191C355.791 128.96 355.683 129.791 355.683 130.683C355.683 131.576 355.791 132.399 356.008 133.153C356.24 133.892 356.572 134.53 357.006 135.069C357.455 135.607 358.004 136.023 358.655 136.315C359.321 136.608 360.08 136.754 360.934 136.754C362.366 136.754 363.494 136.354 364.318 135.554C365.157 134.753 365.678 133.615 365.88 132.138H363.993C363.877 133.061 363.559 133.776 363.038 134.284C362.532 134.792 361.823 135.046 360.912 135.046C360.333 135.046 359.834 134.923 359.415 134.676C358.995 134.43 358.655 134.107 358.395 133.707C358.134 133.292 357.939 132.822 357.809 132.299C357.693 131.776 357.635 131.237 357.635 130.683C357.635 130.083 357.693 129.506 357.809 128.952C357.925 128.383 358.113 127.883 358.373 127.452C358.648 127.021 359.01 126.675 359.458 126.413C359.906 126.152 360.463 126.021 361.129 126.021C361.91 126.021 362.532 126.229 362.995 126.644C363.458 127.06 363.761 127.644 363.906 128.398Z" fill="white"/>
<path d="M377.284 128.398H379.406C379.326 127.691 379.133 127.083 378.827 126.575C378.522 126.052 378.128 125.621 377.646 125.282C377.18 124.944 376.634 124.698 376.007 124.544C375.396 124.374 374.737 124.29 374.03 124.29C373.05 124.29 372.19 124.459 371.45 124.798C370.711 125.121 370.092 125.575 369.594 126.159C369.112 126.729 368.75 127.406 368.509 128.191C368.268 128.96 368.147 129.791 368.147 130.683C368.147 131.576 368.268 132.399 368.509 133.153C368.766 133.892 369.136 134.53 369.618 135.069C370.116 135.607 370.727 136.023 371.45 136.315C372.19 136.608 373.034 136.754 373.982 136.754C375.573 136.754 376.827 136.354 377.742 135.554C378.675 134.753 379.253 133.615 379.478 132.138H377.381C377.252 133.061 376.899 133.776 376.32 134.284C375.758 134.792 374.97 135.046 373.958 135.046C373.315 135.046 372.76 134.923 372.294 134.676C371.828 134.43 371.45 134.107 371.161 133.707C370.872 133.292 370.655 132.822 370.51 132.299C370.382 131.776 370.317 131.237 370.317 130.683C370.317 130.083 370.382 129.506 370.51 128.952C370.639 128.383 370.848 127.883 371.137 127.452C371.442 127.021 371.844 126.675 372.342 126.413C372.841 126.152 373.459 126.021 374.199 126.021C375.067 126.021 375.758 126.229 376.272 126.644C376.786 127.06 377.124 127.644 377.284 128.398Z" fill="white"/>
<path d="M389.8 129.391H382.75C382.781 128.929 382.884 128.498 383.058 128.098C383.232 127.683 383.47 127.321 383.771 127.013C384.071 126.706 384.427 126.467 384.839 126.298C385.266 126.113 385.741 126.021 386.263 126.021C386.77 126.021 387.229 126.113 387.64 126.298C388.067 126.467 388.431 126.706 388.732 127.013C389.049 127.306 389.294 127.66 389.468 128.075C389.658 128.491 389.769 128.929 389.8 129.391ZM391.747 132.715H389.753C389.579 133.499 389.215 134.084 388.661 134.469C388.123 134.853 387.426 135.046 386.572 135.046C385.907 135.046 385.329 134.938 384.839 134.723C384.348 134.507 383.945 134.223 383.628 133.869C383.312 133.499 383.082 133.084 382.94 132.622C382.797 132.145 382.734 131.645 382.75 131.122H391.937C391.968 130.399 391.897 129.637 391.723 128.837C391.565 128.037 391.264 127.298 390.821 126.621C390.394 125.944 389.816 125.39 389.088 124.959C388.376 124.513 387.474 124.29 386.382 124.29C385.543 124.29 384.768 124.444 384.055 124.751C383.359 125.059 382.75 125.49 382.228 126.044C381.721 126.598 381.325 127.252 381.041 128.006C380.756 128.76 380.613 129.591 380.613 130.499C380.645 131.407 380.779 132.245 381.017 133.015C381.27 133.784 381.642 134.446 382.133 135C382.623 135.554 383.225 135.984 383.937 136.292C384.665 136.6 385.519 136.754 386.501 136.754C387.893 136.754 389.049 136.415 389.966 135.738C390.884 135.061 391.478 134.053 391.747 132.715Z" fill="white"/>
<path d="M394.211 119.757V136.754H396.477V119.757H394.211Z" fill="white"/>
<path d="M408.142 129.391H401.797C401.825 128.929 401.918 128.498 402.075 128.098C402.231 127.683 402.445 127.321 402.716 127.013C402.986 126.706 403.307 126.467 403.677 126.298C404.062 126.113 404.489 126.021 404.959 126.021C405.415 126.021 405.828 126.113 406.198 126.298C406.583 126.467 406.91 126.706 407.181 127.013C407.466 127.306 407.687 127.66 407.843 128.075C408.014 128.491 408.114 128.929 408.142 129.391ZM409.894 132.715H408.1C407.943 133.499 407.615 134.084 407.117 134.469C406.633 134.853 406.006 135.046 405.237 135.046C404.638 135.046 404.119 134.938 403.677 134.723C403.235 134.507 402.872 134.223 402.587 133.869C402.303 133.499 402.096 133.084 401.968 132.622C401.84 132.145 401.783 131.645 401.797 131.122H410.065C410.094 130.399 410.03 129.637 409.873 128.837C409.731 128.037 409.46 127.298 409.061 126.621C408.676 125.944 408.157 125.39 407.501 124.959C406.86 124.513 406.049 124.29 405.066 124.29C404.311 124.29 403.613 124.444 402.972 124.751C402.345 125.059 401.797 125.49 401.327 126.044C400.871 126.598 400.515 127.252 400.259 128.006C400.002 128.76 399.874 129.591 399.874 130.499C399.903 131.407 400.024 132.245 400.237 133.015C400.465 133.784 400.8 134.446 401.241 135C401.683 135.554 402.224 135.984 402.865 136.292C403.52 136.6 404.289 136.754 405.173 136.754C406.426 136.754 407.466 136.415 408.292 135.738C409.118 135.061 409.652 134.053 409.894 132.715Z" fill="white"/>
<path d="M412.339 124.575V136.754H414.463V131.336C414.463 130.551 414.547 129.86 414.713 129.263C414.88 128.651 415.147 128.132 415.513 127.708C415.88 127.284 416.363 126.962 416.963 126.743C417.563 126.523 418.288 126.413 419.137 126.413V124.293C417.988 124.261 417.038 124.481 416.288 124.952C415.538 125.423 414.905 126.154 414.388 127.143H414.338V124.575H412.339Z" fill="white"/>
<path d="M431.599 136.454C431.257 136.654 430.782 136.754 430.176 136.754C429.663 136.754 429.252 136.615 428.942 136.338C428.646 136.046 428.499 135.577 428.499 134.93C427.955 135.577 427.316 136.046 426.585 136.338C425.871 136.615 425.095 136.754 424.255 136.754C423.711 136.754 423.189 136.692 422.692 136.569C422.21 136.446 421.79 136.254 421.433 135.992C421.075 135.731 420.788 135.392 420.57 134.977C420.368 134.546 420.269 134.03 420.269 133.43C420.269 132.753 420.385 132.199 420.618 131.768C420.851 131.337 421.155 130.991 421.528 130.73C421.916 130.453 422.35 130.245 422.832 130.106C423.329 129.968 423.834 129.852 424.347 129.76C424.891 129.652 425.404 129.575 425.886 129.529C426.383 129.468 426.819 129.391 427.192 129.299C427.565 129.191 427.861 129.045 428.079 128.86C428.297 128.66 428.404 128.375 428.404 128.006C428.404 127.575 428.32 127.229 428.149 126.967C427.993 126.706 427.782 126.506 427.518 126.367C427.269 126.229 426.982 126.136 426.655 126.09C426.345 126.044 426.034 126.021 425.723 126.021C424.884 126.021 424.184 126.183 423.625 126.506C423.065 126.813 422.763 127.406 422.717 128.283H420.735C420.766 127.544 420.921 126.921 421.201 126.413C421.481 125.906 421.854 125.498 422.32 125.19C422.787 124.867 423.315 124.636 423.906 124.498C424.512 124.359 425.157 124.29 425.841 124.29C426.385 124.29 426.92 124.328 427.448 124.405C427.992 124.482 428.482 124.644 428.917 124.89C429.352 125.121 429.702 125.452 429.966 125.882C430.23 126.313 430.362 126.875 430.362 127.567V133.707C430.362 134.169 430.386 134.507 430.432 134.723C430.495 134.938 430.682 135.046 430.993 135.046C431.164 135.046 431.366 135.007 431.599 134.93V136.454ZM428.381 130.337C428.132 130.522 427.806 130.66 427.401 130.753C426.997 130.83 426.57 130.899 426.119 130.96C425.684 131.007 425.242 131.068 424.792 131.145C424.341 131.207 423.937 131.314 423.579 131.468C423.222 131.622 422.925 131.845 422.692 132.138C422.474 132.415 422.366 132.799 422.366 133.292C422.366 133.615 422.428 133.892 422.552 134.123C422.692 134.338 422.864 134.515 423.066 134.653C423.284 134.792 423.531 134.892 423.811 134.953C424.091 135.015 424.386 135.046 424.697 135.046C425.35 135.046 425.911 134.961 426.377 134.792C426.843 134.607 427.223 134.384 427.518 134.123C427.813 133.846 428.032 133.553 428.172 133.245C428.312 132.922 428.381 132.622 428.381 132.345V130.337Z" fill="white"/>
<path d="M436.283 124.549V120.89H434.538V124.549H432.731V126.319H434.538V134.086C434.538 134.652 434.586 135.109 434.681 135.455C434.777 135.801 434.921 136.069 435.113 136.257C435.318 136.446 435.578 136.58 435.893 136.659C436.221 136.722 436.611 136.753 437.063 136.753H438.397V134.983H437.596C437.323 134.983 437.097 134.975 436.919 134.959C436.755 134.928 436.625 134.873 436.529 134.794C436.433 134.715 436.365 134.605 436.324 134.463C436.296 134.322 436.283 134.133 436.283 133.897V126.319H438.397V124.549H436.283Z" fill="white"/>
<path d="M449.849 129.391H442.799C442.83 128.929 442.933 128.498 443.107 128.098C443.281 127.683 443.519 127.321 443.819 127.013C444.12 126.706 444.476 126.467 444.888 126.298C445.315 126.113 445.79 126.021 446.312 126.021C446.818 126.021 447.277 126.113 447.689 126.298C448.116 126.467 448.48 126.706 448.781 127.013C449.097 127.306 449.343 127.66 449.517 128.075C449.707 128.491 449.817 128.929 449.849 129.391ZM451.796 132.715H449.802C449.628 133.499 449.264 134.084 448.71 134.469C448.172 134.853 447.475 135.046 446.621 135.046C445.956 135.046 445.378 134.938 444.888 134.723C444.397 134.507 443.994 134.223 443.677 133.869C443.36 133.499 443.131 133.084 442.989 132.622C442.846 132.145 442.783 131.645 442.799 131.122H451.986C452.017 130.399 451.946 129.637 451.772 128.837C451.614 128.037 451.313 127.298 450.87 126.621C450.443 125.944 449.865 125.39 449.137 124.959C448.425 124.513 447.523 124.29 446.431 124.29C445.592 124.29 444.816 124.444 444.104 124.751C443.408 125.059 442.799 125.49 442.276 126.044C441.77 126.598 441.374 127.252 441.089 128.006C440.805 128.76 440.662 129.591 440.662 130.499C440.694 131.407 440.828 132.245 441.066 133.015C441.319 133.784 441.691 134.446 442.181 135C442.672 135.554 443.273 135.984 443.986 136.292C444.714 136.6 445.568 136.754 446.549 136.754C447.942 136.754 449.097 136.415 450.015 135.738C450.933 135.061 451.527 134.053 451.796 132.715Z" fill="white"/>
<path d="M456.132 130.541C456.132 129.947 456.187 129.369 456.298 128.807C456.409 128.244 456.59 127.744 456.839 127.306C457.089 126.869 457.422 126.517 457.838 126.251C458.255 125.986 458.761 125.853 459.358 125.853C459.968 125.853 460.488 125.986 460.919 126.251C461.349 126.501 461.696 126.837 461.959 127.259C462.237 127.681 462.438 128.174 462.563 128.736C462.688 129.283 462.75 129.854 462.75 130.448C462.75 131.01 462.688 131.565 462.563 132.112C462.452 132.659 462.264 133.151 462.001 133.589C461.737 134.011 461.397 134.355 460.981 134.62C460.565 134.886 460.058 135.019 459.462 135.019C458.893 135.019 458.393 134.894 457.963 134.644C457.547 134.394 457.2 134.058 456.923 133.636C456.659 133.214 456.458 132.737 456.319 132.206C456.194 131.659 456.132 131.104 456.132 130.541ZM464.457 136.496V119.757H462.688V125.993H462.646C462.452 125.634 462.209 125.337 461.918 125.102C461.64 124.852 461.342 124.657 461.023 124.516C460.704 124.36 460.384 124.251 460.065 124.188C459.746 124.126 459.448 124.094 459.17 124.094C458.352 124.094 457.63 124.266 457.006 124.61C456.395 124.938 455.882 125.392 455.466 125.97C455.064 126.533 454.758 127.197 454.55 127.963C454.356 128.728 454.259 129.541 454.259 130.401C454.259 131.26 454.363 132.073 454.571 132.839C454.779 133.605 455.084 134.277 455.487 134.855C455.903 135.433 456.416 135.894 457.027 136.238C457.651 136.582 458.38 136.754 459.212 136.754C459.961 136.754 460.648 136.605 461.272 136.308C461.897 136.011 462.355 135.527 462.646 134.855H462.688V136.496H464.457Z" fill="white"/>
<path opacity="0.44" d="M209 37V165" stroke="#F2F2F2" stroke-width="5" stroke-linecap="round"/>
<path d="M59.3263 85.3343C57.0886 74.2934 58.7561 58.8754 66.0308 56.2006C65.7066 52.4083 65.7268 47.8895 65.8282 44.1378C65.9353 40.1139 66.1958 37.1207 64.8497 37.3059C63.2373 37.5317 57.905 48.3063 56.7557 62.1148C56.3418 67.1026 56.7094 72.0962 57.4186 76.6382C57.8992 79.5678 58.5389 82.4713 59.3263 85.3343Z" fill="white"/>
<path d="M122.649 85.3343C123.433 82.4713 124.076 79.5678 124.556 76.6382C125.269 72.0962 125.63 67.0997 125.216 62.1148C124.07 48.3093 118.741 37.5317 117.12 37.306C115.779 37.1207 116.04 40.1111 116.144 44.1378C116.248 47.8895 116.266 52.4112 115.941 56.2006C123.216 58.8754 124.884 74.2934 122.649 85.3343Z" fill="white"/>
<path d="M76.4629 63.7259C80.6923 73.8868 83.2339 84.9132 83.8853 87.3912C84.6206 86.3665 87.4922 83.7379 90.9921 83.7379C94.4949 83.7379 97.3058 86.3665 98.0382 87.3912C98.6924 84.9132 101.234 73.8897 105.463 63.7259C105.267 61.8182 104.248 56.1819 103.805 54.141C102.98 50.3199 99.1237 33 90.9892 33C82.8547 33 78.938 50.3199 78.1158 54.141C77.6787 56.1819 76.6568 61.8182 76.4629 63.7259Z" fill="white"/>
<path d="M74.5938 60.4545C75.9775 52.1637 77.3554 47.228 79.0721 42.657C75.8327 43.2129 72.1129 50.806 70.9434 56.6218C72.7729 57.8231 74.504 60.3156 74.5938 60.4545Z" fill="white"/>
<path d="M110.999 56.6255C109.835 50.8069 106.109 43.2108 102.87 42.655C104.587 47.2289 105.959 52.1617 107.346 60.4583C107.441 60.3165 109.166 57.824 110.999 56.6255Z" fill="white"/>
<path d="M102.072 119.68C110.968 119.044 117.423 115.193 118.821 113.963C120.237 112.724 121.094 111.667 119.597 111.459C118.21 111.265 112.849 113.326 111.202 113.833C111.202 113.833 110.71 113.983 110.713 113.827C110.716 113.677 111.506 113.407 111.506 113.407C122.99 109.218 130.143 100.841 129.587 98.8781C128.829 97.1759 124.197 101.941 120.752 104.06C120.752 104.06 120.428 104.26 120.422 104.126C120.416 104.06 120.81 103.733 120.81 103.733C129.674 96.7214 133.272 83.3993 131.726 82.2096C130.901 81.9346 129.448 85.1623 127.352 89.0819C125.746 92.0752 124.197 94.0205 124.197 94.0205C124.197 94.0205 124.058 94.2058 123.98 94.1826C123.919 94.1653 124.023 93.9626 124.023 93.9626C130.389 80.8229 131.104 71.5594 131.321 67.3098C131.81 57.7308 130.088 57.2647 129.396 60.3824C128.591 64.0039 127.633 68.6588 126.935 73.2471C124.999 85.9063 119.571 98.5104 115.278 105.386C114.638 106.393 114.094 106.321 113.964 106.124C113.848 105.959 113.92 105.736 114.317 105.004C126.675 82.169 121.424 59.1782 114.114 58.9148C107.1 58.66 100.398 86.2942 99.6139 89.3251C104.347 97.4046 105.47 108.596 105.132 111.421C105.105 111.656 104.906 111.844 104.663 111.853C104.396 111.859 104.176 111.653 104.168 111.378C104.168 106.231 100.254 86.6155 91.0539 86.6155C81.857 86.6155 77.9431 106.234 77.9431 111.378C77.9345 111.653 77.7116 111.859 77.4452 111.853C77.205 111.847 77.0081 111.656 76.9792 111.421C76.6405 108.596 77.7637 97.4046 82.4938 89.3251C81.7122 86.2942 75.0078 58.66 67.9965 58.9148C60.6841 59.1782 55.4328 82.169 67.7909 105.004C68.1875 105.736 68.2599 105.959 68.1412 106.124C68.0138 106.321 67.4725 106.393 66.8298 105.386C62.5368 98.5104 57.109 85.9063 55.1752 73.2471C54.4717 68.6588 53.5164 64.0039 52.7088 60.3824C52.0169 57.2647 50.2974 57.7308 50.7866 67.3098C50.9979 71.5623 51.7188 80.8258 58.0816 93.9626C58.0816 93.9626 58.1887 94.1624 58.125 94.1826C58.0469 94.2058 57.9108 94.0205 57.9108 94.0205C57.9108 94.0205 56.3592 92.0752 54.7525 89.0819C52.6538 85.1623 51.2006 81.9375 50.3813 82.2096C48.8326 83.3965 52.4309 96.7185 61.2949 103.733C61.2949 103.733 61.6915 104.057 61.6828 104.126C61.6741 104.262 61.3586 104.06 61.3586 104.06C57.9137 101.941 53.2791 97.1759 52.5235 98.8781C51.9677 100.841 59.1151 109.218 70.6018 113.407C70.6018 113.407 71.395 113.679 71.3979 113.827C71.3979 113.983 70.9058 113.833 70.9058 113.833C69.2586 113.329 63.8945 111.265 62.5107 111.459C61.0112 111.667 61.8739 112.724 63.2894 113.963C64.6877 115.193 71.1432 119.044 80.0332 119.68C80.1056 120.482 83.1915 123.287 91.0423 123.287C98.8902 123.287 102.005 120.482 102.072 119.68Z" fill="white"/>
<path d="M38.0059 133.969H40.8833V152.493H50.6274V155.191H38.0088V133.969H38.0059Z" fill="white"/>
<path d="M53.5596 133.968H56.437V155.19H53.5596V133.968Z" fill="white"/>
<path d="M60.0957 133.968H67.4718C68.3894 133.968 69.2434 134.078 70.0337 134.298C70.824 134.518 71.5014 134.843 72.0717 135.274C72.6391 135.702 73.0907 136.252 73.4207 136.921C73.7507 137.59 73.9128 138.374 73.9128 139.275C73.9128 140.496 73.5741 141.489 72.8938 142.259C72.2164 143.029 71.3364 143.594 70.2566 143.953V144.013C70.8964 144.054 71.4956 144.219 72.0572 144.506C72.6159 144.795 73.0993 145.177 73.5104 145.646C73.9186 146.115 74.2457 146.659 74.486 147.279C74.7262 147.901 74.8449 148.57 74.8449 149.288C74.8449 150.249 74.6481 151.094 74.2602 151.824C73.8694 152.553 73.3338 153.167 72.6564 153.668C71.9761 154.169 71.1887 154.548 70.2884 154.805C69.3881 155.066 68.4213 155.196 67.3791 155.196H60.0957V133.968ZM62.9732 142.78H66.8986C67.4399 142.78 67.9494 142.725 68.4271 142.615C68.9076 142.505 69.3274 142.32 69.6863 142.062C70.0453 141.802 70.329 141.472 70.5403 141.072C70.7487 140.673 70.8558 140.181 70.8558 139.602C70.8558 138.762 70.5866 138.033 70.0453 137.413C69.5068 136.794 68.6558 136.484 67.4978 136.484H62.9703V142.78H62.9732ZM62.9732 152.672H67.1996C67.6397 152.672 68.126 152.629 68.6529 152.539C69.1826 152.446 69.6776 152.267 70.1379 151.997C70.5982 151.725 70.9861 151.361 71.3074 150.903C71.6259 150.443 71.788 149.835 71.788 149.074C71.788 147.814 71.3798 146.868 70.5577 146.24C69.7384 145.611 68.6297 145.296 67.2315 145.296H62.9761V152.672H62.9732Z" fill="white"/>
<path d="M77.79 133.968H91.4884V136.666H80.6675V142.992H90.7416V145.69H80.6675V152.492H92.0298V155.19H77.79V133.968Z" fill="white"/>
<path d="M94.8984 133.968H102.361C103.722 133.968 104.839 134.154 105.719 134.521C106.599 134.892 107.294 135.361 107.804 135.931C108.313 136.498 108.669 137.141 108.866 137.847C109.069 138.56 109.164 139.24 109.164 139.9C109.164 140.58 109.046 141.234 108.808 141.863C108.568 142.494 108.223 143.061 107.772 143.571C107.323 144.08 106.773 144.511 106.125 144.859C105.473 145.209 104.752 145.426 103.951 145.504L109.978 155.188H106.379L100.986 145.834H97.7759V155.188H94.9013V133.968H94.8984ZM97.7759 143.322H101.554C102.112 143.322 102.671 143.278 103.218 143.186C103.765 143.096 104.257 142.931 104.686 142.693C105.117 142.453 105.462 142.109 105.719 141.657C105.98 141.208 106.11 140.624 106.11 139.903C106.11 139.185 105.98 138.6 105.719 138.149C105.462 137.7 105.117 137.355 104.686 137.115C104.255 136.878 103.765 136.71 103.218 136.623C102.668 136.53 102.112 136.487 101.554 136.487H97.7759V143.322Z" fill="white"/>
<path d="M117.116 136.666H110.281V133.968H126.828V136.666H119.993V155.19H117.113V136.666H117.116Z" fill="white"/>
<path d="M136.087 146.138L128.054 133.968H131.742L137.529 143.29L143.492 133.968H147L138.967 146.138V155.19H136.09V146.138H136.087Z" fill="white"/>
<path d="M38 158.343H39.4098V167.418H44.1834V168.741H38V158.343Z" fill="white"/>
<path d="M48.8853 158.343H50.1619L54.6142 168.744H52.967L51.9249 166.173H46.9747L45.947 168.744H44.3027L48.8853 158.343ZM51.4096 164.937L49.47 160.164H49.4411L47.4726 164.937H51.4096Z" fill="white"/>
<path d="M56.7888 159.663H53.4395V158.343H61.5479V159.663H58.1986V168.741H56.7888V159.663Z" fill="white"/>
<path d="M63.0391 158.343H64.4488V168.744H63.0391V158.343Z" fill="white"/>
<path d="M67.123 158.343H68.9757L74.7046 166.891H74.7336V158.343H76.1434V168.744H74.3486L68.5618 160.193H68.5328V168.744H67.123V158.343Z" fill="white"/>
<path d="M86.1607 158.343H87.4373L91.8896 168.744H90.2424L89.2002 166.173H84.2501L83.2224 168.744H81.5781L86.1607 158.343ZM88.685 164.937L86.7454 160.164H86.7165L84.748 164.937H88.685Z" fill="white"/>
<path d="M93.1435 158.343H95.2423L98.5482 166.217H98.609L101.883 158.343H103.982V168.744H102.572V160.193H102.543L99.0316 168.744H98.0908L94.5794 160.193H94.5504V168.744H93.1406V158.343H93.1435Z" fill="white"/>
<path d="M106.215 158.343H112.928V159.663H107.625V162.763H112.557V164.083H107.625V167.418H113.188V168.741H106.212V158.343H106.215Z" fill="white"/>
<path d="M114.889 158.343H118.548C119.211 158.343 119.761 158.433 120.189 158.615C120.623 158.797 120.962 159.026 121.211 159.304C121.46 159.585 121.634 159.897 121.732 160.248C121.831 160.595 121.88 160.931 121.88 161.252C121.88 161.585 121.819 161.903 121.703 162.213C121.587 162.523 121.417 162.804 121.199 163.05C120.977 163.302 120.707 163.51 120.392 163.684C120.073 163.855 119.717 163.959 119.326 163.999L122.276 168.744H120.513L117.87 164.161H116.298V168.744H114.889V158.343ZM116.301 162.925H118.154C118.426 162.925 118.698 162.905 118.97 162.859C119.24 162.815 119.48 162.731 119.688 162.616C119.9 162.5 120.068 162.332 120.195 162.109C120.322 161.889 120.386 161.605 120.386 161.252C120.386 160.899 120.319 160.612 120.195 160.392C120.068 160.172 119.9 160.004 119.688 159.889C119.477 159.77 119.24 159.689 118.97 159.646C118.698 159.602 118.429 159.579 118.154 159.579H116.301V162.925Z" fill="white"/>
<path d="M123.875 158.343H125.285V168.744H123.875V158.343Z" fill="white"/>
<path d="M134.903 160.588C134.608 160.206 134.237 159.914 133.786 159.708C133.337 159.503 132.871 159.398 132.387 159.398C131.803 159.398 131.27 159.508 130.795 159.731C130.318 159.951 129.912 160.252 129.574 160.635C129.238 161.017 128.974 161.465 128.789 161.978C128.604 162.493 128.511 163.043 128.511 163.631C128.511 164.178 128.601 164.696 128.778 165.185C128.951 165.677 129.209 166.106 129.542 166.479C129.875 166.853 130.28 167.145 130.761 167.359C131.238 167.576 131.785 167.683 132.39 167.683C132.99 167.683 133.514 167.559 133.965 167.316C134.414 167.07 134.799 166.725 135.111 166.288L136.298 167.183C136.22 167.29 136.084 167.443 135.887 167.646C135.69 167.846 135.433 168.048 135.109 168.248C134.787 168.448 134.394 168.624 133.939 168.775C133.482 168.928 132.958 169.001 132.358 169.001C131.536 169.001 130.795 168.844 130.132 168.532C129.472 168.219 128.908 167.808 128.445 167.298C127.981 166.789 127.625 166.213 127.379 165.573C127.136 164.933 127.012 164.282 127.012 163.628C127.012 162.823 127.145 162.082 127.408 161.402C127.672 160.721 128.042 160.131 128.517 159.639C128.992 159.144 129.562 158.759 130.228 158.487C130.894 158.212 131.629 158.076 132.431 158.076C133.114 158.076 133.789 158.206 134.451 158.472C135.111 158.738 135.653 159.144 136.075 159.694L134.903 160.588Z" fill="white"/>
<path d="M141.258 158.343H142.535L146.987 168.744H145.34L144.298 166.173H139.345L138.317 168.744H136.673L141.258 158.343ZM143.783 164.937L141.843 160.164H141.814L139.846 164.937H143.783Z" fill="white"/>
</svg>
