<svg width="203" height="147" viewBox="0 0 203 147" fill="none" xmlns="http://www.w3.org/2000/svg">
<path d="M10.4788 13.6097L141.081 31.137C142.765 31.358 144.271 32.2952 145.213 33.7079C145.503 34.1432 145.734 34.6153 145.899 35.1116L146.084 35.6655C146.432 36.7102 146.609 37.8042 146.609 38.9054V96.9386C146.609 98.3052 146.166 99.635 145.346 100.728C144.314 102.105 142.765 103 141.057 103.208L10.1297 119.129C8.64583 119.31 7.1402 119.131 5.74051 118.606L5.53551 118.529C4.05106 117.972 2.75119 117.013 1.78181 115.758C0.627899 114.265 0.00189209 112.431 0.00189209 110.544V23.5571C0.00189209 22.3366 0.216888 21.1258 0.637024 19.9799L0.831192 19.4504C1.65224 17.2112 3.32634 15.388 5.48759 14.3795C7.04416 13.6531 8.77573 13.386 10.4788 13.6097Z" fill="#F26522"/>
<path d="M95.9648 125.738V122.283L91.7424 122.859V126.505L95.9648 125.738Z" fill="white"/>
<path fill-rule="evenodd" clip-rule="evenodd" d="M112.892 123.137C112.552 123.048 112.198 123.032 111.852 123.089L68.4287 130.263C66.5577 130.572 65.7019 132.773 66.8725 134.265L76.1149 146.045C76.6962 146.786 77.6453 147.136 78.5687 146.951L138.894 134.849C141.488 134.328 141.595 130.659 139.036 129.989L112.892 123.137ZM112.177 127.315L130.736 132.179L78.7806 142.602L71.9952 133.954L112.177 127.315Z" fill="white"/>
<path fill-rule="evenodd" clip-rule="evenodd" d="M29.4954 4.68206C30.7146 4.41701 31.9728 4.38438 33.2041 4.58586L155.557 24.6072C156.538 24.7677 157.458 25.1858 158.224 25.8188C159.515 26.8848 160.262 28.4712 160.262 30.1449V98.2016C160.262 98.7955 160.218 99.3885 160.131 99.976L159.65 103.226C159.233 106.038 157.192 108.333 154.456 109.079L32.5851 127.814C31.7454 127.943 30.89 127.93 30.0545 127.777C27.3151 127.272 25.0716 125.309 24.208 122.66L23.7015 121.107C23.3812 120.125 23.2099 119.1 23.1933 118.067L21.5324 15.0916C21.5124 13.854 21.7103 12.6225 22.1169 11.4534L22.2343 11.1158C23.3692 7.8531 26.1198 5.41588 29.4954 4.68206ZM33.886 0.418822C32.1305 0.131564 30.3366 0.178092 28.5984 0.555965C23.7858 1.60218 19.8642 5.07697 18.2462 9.72862L18.1288 10.0663C17.5595 11.703 17.2825 13.427 17.3105 15.1597L18.9713 118.135C18.9948 119.59 19.2361 121.033 19.6871 122.416L20.1936 123.969C21.5371 128.09 25.0276 131.144 29.2895 131.929C30.5894 132.169 31.9202 132.188 33.2266 131.987L155.313 113.219L155.415 113.193C159.843 112.05 163.157 108.368 163.827 103.844L164.308 100.595C164.425 99.8025 164.484 99.0026 164.484 98.2016V30.1449C164.484 27.2117 163.175 24.4315 160.914 22.5634C159.571 21.4542 157.957 20.7214 156.239 20.4402L33.886 0.418822Z" fill="white"/>
<path d="M181.438 127.742C181.438 125.961 180.035 124.517 178.304 124.517H163.025C161.294 124.517 159.891 125.961 159.891 127.742V143.463C159.891 145.244 161.294 146.688 163.025 146.688H178.304C180.035 146.688 181.438 145.244 181.438 143.463V127.742Z" fill="url(#paint0_linear_371_104)"/>
<path d="M202.887 110.409C202.887 108.628 201.484 107.184 199.753 107.184H189.175C187.444 107.184 186.041 108.628 186.041 110.409V121.292C186.041 123.073 187.444 124.517 189.175 124.517H199.753C201.484 124.517 202.887 123.073 202.887 121.292V110.409Z" fill="url(#paint1_linear_371_104)"/>
<path d="M192.309 88.1061C192.309 86.3251 190.906 84.8813 189.175 84.8813H183.298C181.567 84.8813 180.164 86.3251 180.164 88.1061V94.1525C180.164 95.9335 181.567 97.3773 183.298 97.3773H189.175C190.906 97.3773 192.309 95.9335 192.309 94.1525V88.1061Z" fill="url(#paint2_linear_371_104)"/>
<g filter="url(#filter0_i_371_104)">
<path d="M59.3054 54.0302C58.5393 52.7877 57.4911 51.8817 56.1606 51.3123C54.8705 50.691 53.6408 50.3804 52.4716 50.3804C51.7862 50.3804 51.0806 50.4839 50.3549 50.691C49.6292 50.8981 48.9438 51.2346 48.2988 51.7005C47.6537 52.1147 47.1296 52.6842 46.7264 53.409C46.3232 54.1337 46.1216 55.0138 46.1216 56.0492C46.1216 57.7059 46.6054 58.9743 47.5731 59.8543C48.5407 60.7344 49.7502 61.4851 51.2016 62.1063C52.6933 62.7276 54.2859 63.3488 55.9792 63.9701C57.6725 64.5913 59.2449 65.4714 60.6963 66.6103C62.188 67.7493 63.4177 69.2765 64.3853 71.192C65.3529 73.1075 65.8368 75.6701 65.8368 78.8799C65.8368 81.9343 65.3933 84.6005 64.5063 86.8784C63.6193 89.1562 62.4098 91.0458 60.8777 92.5472C59.386 94.0485 57.6322 95.1616 55.6163 95.8864C53.6408 96.6111 51.5443 96.9735 49.3268 96.9735C46.545 96.9735 43.9647 96.4299 41.5859 95.3428C39.2072 94.2556 36.9898 92.4954 34.9336 90.0622L41.6464 80.5883C42.614 82.2449 43.8235 83.5392 45.275 84.4711C46.7667 85.3511 48.2988 85.7912 49.8711 85.7912C50.6372 85.7912 51.4032 85.6876 52.1692 85.4806C52.9756 85.2217 53.6811 84.8593 54.2859 84.3934C54.9309 83.9275 55.4349 83.3321 55.7978 82.6073C56.2009 81.8825 56.4025 81.0283 56.4025 80.0447C56.4025 78.388 55.8986 77.0938 54.8906 76.1619C53.923 75.1783 52.6933 74.35 51.2016 73.677C49.7099 73.004 48.0972 72.3309 46.3635 71.6579C44.6299 70.9849 43.0172 70.0789 41.5255 68.94C40.0337 67.8011 38.7839 66.2997 37.776 64.436C36.8083 62.5723 36.3245 60.1132 36.3245 57.0588C36.3245 54.1079 36.768 51.5194 37.655 49.2932C38.5823 47.0671 39.7918 45.2034 41.2836 43.7021C42.8156 42.2007 44.5694 41.0877 46.545 40.3629C48.5205 39.5863 50.5565 39.1981 52.653 39.1981C55.072 39.1981 57.4104 39.6381 59.6682 40.5182C61.926 41.3983 63.962 42.8737 65.7763 44.9445L59.3054 54.0302Z" fill="#773211"/>
</g>
<g filter="url(#filter1_i_371_104)">
<path d="M76.5859 41.8847L85.7209 42.6787V83.6279L103.458 82.3764V91.9039L76.5859 94.2857V41.8847Z" fill="#773211"/>
</g>
<g filter="url(#filter2_i_371_104)">
<path d="M113.911 53.4169L102.113 52.3354V43.2289L134.36 46.3637V54.9843L123.349 54.2006V89.4717L113.911 90.2554V53.4169Z" fill="#773211"/>
</g>
<defs>
<filter id="filter0_i_371_104" x="34.9336" y="39.1981" width="30.9023" height="61.7755" filterUnits="userSpaceOnUse" color-interpolation-filters="sRGB">
<feFlood flood-opacity="0" result="BackgroundImageFix"/>
<feBlend mode="normal" in="SourceGraphic" in2="BackgroundImageFix" result="shape"/>
<feColorMatrix in="SourceAlpha" type="matrix" values="0 0 0 0 0 0 0 0 0 0 0 0 0 0 0 0 0 0 127 0" result="hardAlpha"/>
<feOffset dy="4"/>
<feGaussianBlur stdDeviation="2"/>
<feComposite in2="hardAlpha" operator="arithmetic" k2="-1" k3="1"/>
<feColorMatrix type="matrix" values="0 0 0 0 0 0 0 0 0 0 0 0 0 0 0 0 0 0 0.25 0"/>
<feBlend mode="normal" in2="shape" result="effect1_innerShadow_371_104"/>
</filter>
<filter id="filter1_i_371_104" x="76.5859" y="41.8847" width="26.8711" height="56.401" filterUnits="userSpaceOnUse" color-interpolation-filters="sRGB">
<feFlood flood-opacity="0" result="BackgroundImageFix"/>
<feBlend mode="normal" in="SourceGraphic" in2="BackgroundImageFix" result="shape"/>
<feColorMatrix in="SourceAlpha" type="matrix" values="0 0 0 0 0 0 0 0 0 0 0 0 0 0 0 0 0 0 127 0" result="hardAlpha"/>
<feOffset dy="4"/>
<feGaussianBlur stdDeviation="2"/>
<feComposite in2="hardAlpha" operator="arithmetic" k2="-1" k3="1"/>
<feColorMatrix type="matrix" values="0 0 0 0 0 0 0 0 0 0 0 0 0 0 0 0 0 0 0.25 0"/>
<feBlend mode="normal" in2="shape" result="effect1_innerShadow_371_104"/>
</filter>
<filter id="filter2_i_371_104" x="102.113" y="43.2289" width="32.2461" height="51.0266" filterUnits="userSpaceOnUse" color-interpolation-filters="sRGB">
<feFlood flood-opacity="0" result="BackgroundImageFix"/>
<feBlend mode="normal" in="SourceGraphic" in2="BackgroundImageFix" result="shape"/>
<feColorMatrix in="SourceAlpha" type="matrix" values="0 0 0 0 0 0 0 0 0 0 0 0 0 0 0 0 0 0 127 0" result="hardAlpha"/>
<feOffset dy="4"/>
<feGaussianBlur stdDeviation="2"/>
<feComposite in2="hardAlpha" operator="arithmetic" k2="-1" k3="1"/>
<feColorMatrix type="matrix" values="0 0 0 0 0 0 0 0 0 0 0 0 0 0 0 0 0 0 0.25 0"/>
<feBlend mode="normal" in2="shape" result="effect1_innerShadow_371_104"/>
</filter>
<linearGradient id="paint0_linear_371_104" x1="190.546" y1="84.8813" x2="202.431" y2="157.346" gradientUnits="userSpaceOnUse">
<stop stop-color="#FF7A00"/>
<stop offset="1" stop-color="#CC520A"/>
</linearGradient>
<linearGradient id="paint1_linear_371_104" x1="190.546" y1="84.8813" x2="202.431" y2="157.346" gradientUnits="userSpaceOnUse">
<stop stop-color="#FF7A00"/>
<stop offset="1" stop-color="#CC520A"/>
</linearGradient>
<linearGradient id="paint2_linear_371_104" x1="190.546" y1="84.8813" x2="202.431" y2="157.346" gradientUnits="userSpaceOnUse">
<stop stop-color="#FF7A00"/>
<stop offset="1" stop-color="#CC520A"/>
</linearGradient>
</defs>
</svg>
