<svg width="73" height="106" viewBox="0 0 73 106" fill="none" xmlns="http://www.w3.org/2000/svg">
<path d="M58.7987 0H13.7727C6.17849 0 0 6.17849 0 13.7727V58.7987C0 66.3945 6.17849 72.573 13.7727 72.573H33.2541V99.5H15.1264C13.4529 99.5 12.0947 100.858 12.0947 102.532C12.0947 104.205 13.4529 105.563 15.1264 105.563H57.4451C59.1185 105.563 60.4767 104.205 60.4767 102.532C60.4767 100.858 59.1185 99.5 57.4451 99.5H39.3174V72.5745H58.7987C66.3945 72.5745 72.573 66.3945 72.573 58.8002V13.7727C72.5714 6.17849 66.393 0 58.7987 0ZM50.01 29.5752C50.01 36.4585 44.4105 42.0565 37.5287 42.0565H28.6263V54.9318C28.6263 56.6053 27.2681 57.9635 25.5946 57.9635C23.9212 57.9635 22.563 56.6053 22.563 54.9318V39.0248V17.6411C22.563 15.9677 23.9212 14.6095 25.5946 14.6095H37.5287C44.4105 14.6095 50.01 20.2089 50.01 27.0908V29.5752Z" fill="white"/>
<path d="M37.5274 20.6727H28.625V35.9931H37.5274C41.0669 35.9931 43.9454 33.1146 43.9454 29.5751V27.0907C43.9469 23.5528 41.0669 20.6727 37.5274 20.6727Z" fill="white"/>
</svg>
