<svg width="150" height="150" viewBox="0 0 150 150" fill="none" xmlns="http://www.w3.org/2000/svg">
<path d="M99.3519 17H50.0735C41.762 17 35 23.762 35 32.0735V81.3519C35 89.665 41.762 96.427 50.0735 96.427H71.3947V125.897H51.555C49.7235 125.897 48.237 127.384 48.237 129.215C48.237 131.047 49.7235 132.533 51.555 132.533H97.8704C99.7019 132.533 101.188 131.047 101.188 129.215C101.188 127.384 99.7019 125.897 97.8704 125.897H78.0306V96.4287H99.3519C107.665 96.4287 114.427 89.665 114.427 81.3535V32.0735C114.425 23.762 107.663 17 99.3519 17ZM89.7331 49.3684C89.7331 56.9018 83.6048 63.0284 76.073 63.0284H66.3299V77.1198C66.3299 78.9513 64.8434 80.4378 63.0119 80.4378C61.1804 80.4378 59.6939 78.9513 59.6939 77.1198V59.7105V36.3072C59.6939 34.4757 61.1804 32.9893 63.0119 32.9893H76.073C83.6048 32.9893 89.7331 39.1175 89.7331 46.6493V49.3684Z" fill="#333333"/>
<path d="M76.0708 39.6251H66.3276V56.3924H76.0708C79.9446 56.3924 83.095 53.242 83.095 49.3683V46.6492C83.0966 42.7772 79.9446 39.6251 76.0708 39.6251Z" fill="#333333"/>
</svg>
