<svg width="158" height="30" viewBox="0 0 158 30" fill="none" xmlns="http://www.w3.org/2000/svg">
<path d="M7.3071 6.4408C9.2462 6.4408 10.7928 7.11702 11.9468 8.46946C13.1008 9.8219 13.6778 11.8554 13.6778 14.5698C13.6778 16.3635 13.4129 17.8694 12.8832 19.0876C12.3535 20.3057 11.6062 21.2265 10.6414 21.85C9.68605 22.4734 8.55569 22.7852 7.25035 22.7852C6.42741 22.7852 5.7038 22.6749 5.0795 22.4543C4.4552 22.2337 3.92077 21.9363 3.47619 21.5622C3.03162 21.1882 2.66272 20.7805 2.36949 20.3393H2.19922C2.2276 20.7134 2.26071 21.1642 2.29854 21.6917C2.34584 22.2193 2.36949 22.6797 2.36949 23.0729V29.5474H0V6.72855H1.94383L2.25598 9.05935H2.36949C2.67218 8.57977 3.04108 8.14334 3.47619 7.75008C3.91131 7.34722 4.44101 7.03069 5.06531 6.80049C5.69907 6.5607 6.44633 6.4408 7.3071 6.4408ZM6.89563 8.45507C5.8173 8.45507 4.94707 8.66609 4.28494 9.08813C3.63227 9.51017 3.15459 10.1432 2.8519 10.9873C2.54921 11.8218 2.38841 12.8721 2.36949 14.1382V14.5986C2.36949 15.9319 2.51137 17.0589 2.79514 17.9797C3.08837 18.9005 3.56605 19.6007 4.22819 20.0803C4.89978 20.5599 5.79839 20.7997 6.92401 20.7997C7.88883 20.7997 8.69285 20.5359 9.33606 20.0084C9.97928 19.4808 10.457 18.747 10.7691 17.8071C11.0907 16.8575 11.2515 15.7688 11.2515 14.5411C11.2515 12.6802 10.8921 11.2031 10.1732 10.1097C9.46376 9.0066 8.37124 8.45507 6.89563 8.45507Z" fill="white"/>
<path d="M31.2006 14.5842C31.2006 15.8791 31.0351 17.0349 30.704 18.0516C30.3729 19.0684 29.8953 19.9268 29.271 20.627C28.6467 21.3272 27.89 21.8644 27.0008 22.2384C26.1211 22.6029 25.1232 22.7852 24.007 22.7852C22.9665 22.7852 22.0112 22.6029 21.1409 22.2384C20.2802 21.8644 19.5329 21.3272 18.8991 20.627C18.2748 19.9268 17.7877 19.0684 17.4377 18.0516C17.0972 17.0349 16.9269 15.8791 16.9269 14.5842C16.9269 12.8577 17.2154 11.3902 17.7924 10.1816C18.3694 8.96344 19.1924 8.03783 20.2612 7.40477C21.3396 6.76212 22.6213 6.4408 24.1063 6.4408C25.5252 6.4408 26.7643 6.76212 27.8237 7.40477C28.8926 8.04742 29.7203 8.97782 30.3067 10.196C30.9027 11.4045 31.2006 12.8673 31.2006 14.5842ZM19.3674 14.5842C19.3674 15.8503 19.5329 16.9486 19.864 17.879C20.195 18.8094 20.7058 19.5288 21.3963 20.0371C22.0868 20.5455 22.976 20.7997 24.0638 20.7997C25.1421 20.7997 26.0265 20.5455 26.717 20.0371C27.417 19.5288 27.9325 18.8094 28.2636 17.879C28.5947 16.9486 28.7602 15.8503 28.7602 14.5842C28.7602 13.3277 28.5947 12.2438 28.2636 11.3326C27.9325 10.4118 27.4217 9.702 26.7312 9.20323C26.0407 8.70446 25.1468 8.45507 24.0496 8.45507C22.4321 8.45507 21.245 8.99701 20.4883 10.0809C19.741 11.1647 19.3674 12.6659 19.3674 14.5842Z" fill="white"/>
<path d="M47.9289 22.4687L45.1621 13.2893C45.0392 12.8961 44.9209 12.5124 44.8074 12.1383C44.7034 11.7546 44.6041 11.3902 44.5095 11.0449C44.4243 10.69 44.3439 10.3638 44.2683 10.0665C44.202 9.75955 44.1453 9.49578 44.098 9.27517H43.9987C43.9608 9.49578 43.9088 9.75955 43.8426 10.0665C43.7764 10.3638 43.696 10.69 43.6014 11.0449C43.5163 11.3997 43.4217 11.7738 43.3176 12.1671C43.2136 12.5508 43.0953 12.9392 42.9629 13.3325L40.0685 22.4687H37.4152L33.1303 6.69978H35.5707L37.8125 15.4043C37.9638 15.9798 38.1057 16.5505 38.2381 17.1164C38.38 17.6728 38.4983 18.2003 38.5928 18.6991C38.6969 19.1883 38.7726 19.6151 38.8199 19.9796H38.9334C38.9901 19.7398 39.0516 19.452 39.1178 19.1163C39.1935 18.7806 39.2739 18.4257 39.359 18.0516C39.4536 17.668 39.5529 17.2891 39.657 16.915C39.761 16.5313 39.8651 16.1717 39.9691 15.8359L42.8352 6.69978H45.375L48.1417 15.8216C48.2836 16.282 48.4208 16.7615 48.5532 17.2603C48.6951 17.7591 48.8228 18.2435 48.9363 18.7135C49.0498 19.1739 49.1302 19.5863 49.1775 19.9508H49.291C49.3288 19.6247 49.3998 19.2218 49.5038 18.7422C49.6079 18.2627 49.7261 17.7351 49.8586 17.1596C50.0004 16.5841 50.1471 15.999 50.2984 15.4043L52.5686 6.69978H54.9664L50.6673 22.4687H47.9289Z" fill="white"/>
<path d="M63.7917 6.4408C65.116 6.4408 66.2511 6.73814 67.197 7.33283C68.1429 7.92752 68.8665 8.76201 69.3678 9.83629C69.8691 10.901 70.1198 12.1479 70.1198 13.5771V15.059H59.3791C59.4074 16.9102 59.8615 18.3202 60.7412 19.289C61.6209 20.2577 62.86 20.7421 64.4586 20.7421C65.4423 20.7421 66.3125 20.651 67.0693 20.4688C67.826 20.2865 68.6111 20.018 69.4246 19.6631V21.7637C68.6395 22.1186 67.8591 22.3775 67.0835 22.5406C66.3173 22.7037 65.4092 22.7852 64.3592 22.7852C62.8647 22.7852 61.5594 22.4782 60.4432 21.8644C59.3365 21.2409 58.4757 20.3297 57.8609 19.1307C57.2461 17.9317 56.9386 16.4642 56.9386 14.7281C56.9386 13.0303 57.2177 11.5628 57.7758 10.3255C58.3433 9.07854 59.1379 8.11936 60.1594 7.44794C61.1905 6.77651 62.4012 6.4408 63.7917 6.4408ZM63.7633 8.39752C62.5053 8.39752 61.5026 8.81476 60.7554 9.64925C60.0081 10.4837 59.5635 11.6491 59.4216 13.1454H67.651C67.6415 12.2055 67.4949 11.3806 67.2111 10.6708C66.9368 9.95139 66.5159 9.39507 65.9484 9.0018C65.3808 8.59895 64.6525 8.39752 63.7633 8.39752Z" fill="white"/>
<path d="M81.1869 6.4408C81.499 6.4408 81.8253 6.45998 82.1659 6.49835C82.5064 6.52713 82.8091 6.57029 83.0739 6.62784L82.776 8.84354C82.5206 8.7764 82.2368 8.72364 81.9247 8.68527C81.6125 8.64691 81.3193 8.62772 81.045 8.62772C80.4207 8.62772 79.8295 8.75721 79.2714 9.01619C78.7228 9.26558 78.2404 9.63006 77.8242 10.1097C77.408 10.5796 77.0816 11.1504 76.8452 11.8218C76.6087 12.4836 76.4905 13.2222 76.4905 14.0375V22.4974H74.121V6.72855H76.079L76.3344 9.63486H76.4337C76.7553 9.04976 77.1431 8.51742 77.5972 8.03783C78.0512 7.54865 78.5762 7.16018 79.1721 6.87243C79.7775 6.58468 80.4491 6.4408 81.1869 6.4408Z" fill="white"/>
<path d="M91.9985 6.4408C93.3228 6.4408 94.4579 6.73814 95.4038 7.33283C96.3497 7.92752 97.0733 8.76201 97.5746 9.83629C98.076 10.901 98.3266 12.1479 98.3266 13.5771V15.059H87.5859C87.6143 16.9102 88.0683 18.3202 88.948 19.289C89.8277 20.2577 91.0668 20.7421 92.6654 20.7421C93.6491 20.7421 94.5194 20.651 95.2761 20.4688C96.0328 20.2865 96.8179 20.018 97.6314 19.6631V21.7637C96.8463 22.1186 96.0659 22.3775 95.2903 22.5406C94.5241 22.7037 93.616 22.7852 92.5661 22.7852C91.0715 22.7852 89.7662 22.4782 88.65 21.8644C87.5433 21.2409 86.6826 20.3297 86.0677 19.1307C85.4529 17.9317 85.1455 16.4642 85.1455 14.7281C85.1455 13.0303 85.4245 11.5628 85.9826 10.3255C86.5501 9.07854 87.3447 8.11936 88.3663 7.44794C89.3973 6.77651 90.6081 6.4408 91.9985 6.4408ZM91.9702 8.39752C90.7121 8.39752 89.7094 8.81476 88.9622 9.64925C88.2149 10.4837 87.7703 11.6491 87.6285 13.1454H95.8578C95.8484 12.2055 95.7017 11.3806 95.418 10.6708C95.1437 9.95139 94.7227 9.39507 94.1552 9.0018C93.5877 8.59895 92.8593 8.39752 91.9702 8.39752Z" fill="white"/>
<path d="M107.861 22.7852C105.894 22.7852 104.333 22.1042 103.179 20.7421C102.035 19.3801 101.462 17.3562 101.462 14.6705C101.462 11.9561 102.049 9.90823 103.222 8.52701C104.395 7.1362 105.955 6.4408 107.904 6.4408C108.727 6.4408 109.446 6.55111 110.061 6.77172C110.675 6.99233 111.205 7.28967 111.65 7.66375C112.094 8.02824 112.468 8.44548 112.771 8.91548H112.941C112.903 8.61813 112.865 8.21048 112.827 7.69253C112.789 7.17457 112.771 6.75253 112.771 6.42641V0.110229H115.126V22.4974H113.225L112.87 20.253H112.771C112.477 20.7229 112.104 21.1498 111.65 21.5335C111.205 21.9171 110.671 22.2241 110.046 22.4543C109.432 22.6749 108.703 22.7852 107.861 22.7852ZM108.23 20.7997C109.895 20.7997 111.073 20.3201 111.763 19.3609C112.454 18.4017 112.799 16.9774 112.799 15.0878V14.6562C112.799 12.6515 112.468 11.112 111.806 10.0377C111.153 8.96344 109.961 8.4263 108.23 8.4263C106.783 8.4263 105.7 8.99221 104.981 10.124C104.262 11.2463 103.903 12.781 103.903 14.7281C103.903 16.6656 104.257 18.1619 104.967 19.217C105.686 20.2721 106.774 20.7997 108.23 20.7997Z" fill="white"/>
<path d="M130.024 0.110229V5.70703C130.024 6.34968 130.005 6.97314 129.967 7.57742C129.939 8.18171 129.915 8.6517 129.896 8.98742H130.024C130.449 8.27762 131.064 7.67814 131.868 7.18896C132.672 6.69978 133.699 6.45519 134.947 6.45519C136.896 6.45519 138.447 7.141 139.601 8.51262C140.765 9.87465 141.346 11.9033 141.346 14.5986C141.346 16.3731 141.081 17.8694 140.552 19.0876C140.022 20.3057 139.275 21.2265 138.31 21.85C137.345 22.4734 136.205 22.7852 134.891 22.7852C133.661 22.7852 132.649 22.555 131.854 22.0946C131.069 21.6246 130.464 21.0539 130.038 20.3824H129.854L129.371 22.4974H127.669V0.110229H130.024ZM134.564 8.45507C133.439 8.45507 132.545 8.68048 131.883 9.13129C131.22 9.57251 130.743 10.2439 130.449 11.1456C130.166 12.0376 130.024 13.1694 130.024 14.5411V14.6705C130.024 16.656 130.35 18.1763 131.003 19.2314C131.656 20.2769 132.843 20.7997 134.564 20.7997C136.011 20.7997 137.094 20.2625 137.813 19.1883C138.542 18.114 138.906 16.5793 138.906 14.5842C138.906 12.5508 138.546 11.0209 137.828 9.99455C137.118 8.96823 136.03 8.45507 134.564 8.45507Z" fill="white"/>
<path d="M143.006 6.72855H145.532L148.966 15.8791C149.164 16.4162 149.349 16.9342 149.519 17.433C149.689 17.9222 149.84 18.3921 149.973 18.843C150.105 19.2938 150.209 19.7302 150.285 20.1522H150.384C150.517 19.6727 150.706 19.0444 150.952 18.2675C151.198 17.4809 151.463 16.68 151.747 15.8647L154.996 6.72855H157.535L150.767 24.8138C150.408 25.7826 149.987 26.6267 149.505 27.3461C149.032 28.0655 148.455 28.617 147.774 29.0007C147.093 29.3939 146.27 29.5905 145.305 29.5905C144.86 29.5905 144.468 29.5618 144.127 29.5042C143.787 29.4563 143.493 29.3987 143.248 29.3316V27.418C143.456 27.466 143.706 27.5091 144 27.5475C144.302 27.5859 144.614 27.605 144.936 27.605C145.522 27.605 146.029 27.4899 146.454 27.2597C146.889 27.0391 147.263 26.713 147.575 26.2814C147.887 25.8498 148.157 25.3366 148.384 24.7419L149.235 22.5262L143.006 6.72855Z" fill="white"/>
</svg>
