<svg width="150" height="150" viewBox="0 0 150 150" fill="none" xmlns="http://www.w3.org/2000/svg">
<path d="M77.3548 40.998H67.7679C66.3803 40.998 65.2452 42.1332 65.2452 43.5207V74.805C65.2452 75.6885 66.002 76.4452 66.8854 76.4452H71.301C72.1844 76.4452 72.9412 75.6885 72.9412 74.805V65.5966H77.8609C85.1773 65.5966 90.9796 59.1633 89.9714 51.72C89.0861 45.5386 83.5356 40.998 77.3549 40.998H77.3548ZM77.7332 57.9014H72.8135V48.693H77.7332C80.2559 48.693 82.4004 50.7115 82.4004 53.3602C82.4004 56.0088 80.256 57.9014 77.7332 57.9014Z" fill="#333333"/>
<path d="M83.0498 30.8826C77.9823 28.3725 72.0176 28.3725 66.9502 30.8826L39 44.7274V84.493C39 95.2518 51.812 107.493 75 122C98.188 107.493 111 98.2238 111 84.493C111 70.7623 111 44.7274 111 44.7274L83.0498 30.8826Z" fill="#333333" stroke="#333333" stroke-width="12" stroke-linecap="round" stroke-linejoin="round"/>
<path d="M63 72L72 81L90 63" stroke="white" stroke-width="6" stroke-linecap="round" stroke-linejoin="round"/>
</svg>
