<svg width="632" height="53" viewBox="0 0 632 53" fill="none" xmlns="http://www.w3.org/2000/svg">
<path d="M28.21 13.37C27.3233 12.25 26.11 11.4333 24.57 10.92C23.0767 10.36 21.6533 10.08 20.3 10.08C19.5067 10.08 18.69 10.1733 17.85 10.36C17.01 10.5467 16.2167 10.85 15.47 11.27C14.7233 11.6433 14.1167 12.1567 13.65 12.81C13.1833 13.4633 12.95 14.2567 12.95 15.19C12.95 16.6833 13.51 17.8267 14.63 18.62C15.75 19.4133 17.15 20.09 18.83 20.65C20.5567 21.21 22.4 21.77 24.36 22.33C26.32 22.89 28.14 23.6833 29.82 24.71C31.5467 25.7367 32.97 27.1133 34.09 28.84C35.21 30.5667 35.77 32.8767 35.77 35.77C35.77 38.5233 35.2567 40.9267 34.23 42.98C33.2033 45.0333 31.8033 46.7367 30.03 48.09C28.3033 49.4433 26.2733 50.4467 23.94 51.1C21.6533 51.7533 19.2267 52.08 16.66 52.08C13.44 52.08 10.4533 51.59 7.7 50.61C4.94667 49.63 2.38 48.0433 0 45.85L7.77 37.31C8.89 38.8033 10.29 39.97 11.97 40.81C13.6967 41.6033 15.47 42 17.29 42C18.1767 42 19.0633 41.9067 19.95 41.72C20.8833 41.4867 21.7 41.16 22.4 40.74C23.1467 40.32 23.73 39.7833 24.15 39.13C24.6167 38.4767 24.85 37.7067 24.85 36.82C24.85 35.3267 24.2667 34.16 23.1 33.32C21.98 32.4333 20.5567 31.6867 18.83 31.08C17.1033 30.4733 15.2367 29.8667 13.23 29.26C11.2233 28.6533 9.35667 27.8367 7.63 26.81C5.90333 25.7833 4.45667 24.43 3.29 22.75C2.17 21.07 1.61 18.8533 1.61 16.1C1.61 13.44 2.12333 11.1067 3.15 9.1C4.22333 7.09333 5.62333 5.41333 7.35 4.06C9.12333 2.70667 11.1533 1.70333 13.44 1.05C15.7267 0.35 18.0833 0 20.51 0C23.31 0 26.0167 0.396666 28.63 1.19C31.2433 1.98333 33.6 3.31333 35.7 5.18L28.21 13.37Z" fill="white"/>
<path d="M47.4053 1.26H63.9253L75.3353 33.6H75.4753L86.9553 1.26H103.405V50.82H92.4853V12.81H92.3453L79.3253 50.82H70.9953L58.4653 12.81H58.3253V50.82H47.4053V1.26Z" fill="white"/>
<path d="M133.319 1.26H142.349L163.909 50.82H151.589L147.319 40.32H128.069L123.939 50.82H111.899L133.319 1.26ZM137.519 15.68L131.499 31.08H143.609L137.519 15.68Z" fill="white"/>
<path d="M172.394 1.26H191.574C194.094 1.26 196.474 1.51667 198.714 2.03C201 2.49667 202.984 3.31333 204.664 4.48C206.39 5.6 207.744 7.14 208.724 9.1C209.75 11.0133 210.264 13.4167 210.264 16.31C210.264 19.81 209.354 22.7967 207.534 25.27C205.714 27.6967 203.054 29.2367 199.554 29.89L212.154 50.82H199.064L188.704 31.01H183.314V50.82H172.394V1.26ZM183.314 21.77H189.754C190.734 21.77 191.76 21.7467 192.834 21.7C193.954 21.6067 194.957 21.3967 195.844 21.07C196.73 20.6967 197.454 20.1367 198.014 19.39C198.62 18.6433 198.924 17.5933 198.924 16.24C198.924 14.98 198.667 13.9767 198.154 13.23C197.64 12.4833 196.987 11.9233 196.194 11.55C195.4 11.13 194.49 10.85 193.464 10.71C192.437 10.57 191.434 10.5 190.454 10.5H183.314V21.77Z" fill="white"/>
<path d="M229.644 10.92H215.504V1.26H254.704V10.92H240.564V50.82H229.644V10.92Z" fill="white"/>
<path d="M276.195 1.26H287.115V40.74H307.345V50.82H276.195V1.26Z" fill="white"/>
<path d="M333.183 1.26H342.213L363.773 50.82H351.453L347.183 40.32H327.933L323.803 50.82H311.763L333.183 1.26ZM337.383 15.68L331.363 31.08H343.473L337.383 15.68Z" fill="white"/>
<path d="M372.258 1.26H390.738C392.885 1.26 395.031 1.42333 397.178 1.75C399.371 2.03 401.331 2.63666 403.058 3.57C404.785 4.45667 406.185 5.71667 407.258 7.35C408.331 8.98333 408.868 11.1533 408.868 13.86C408.868 16.66 408.075 18.9933 406.488 20.86C404.948 22.68 402.895 23.9867 400.328 24.78V24.92C401.961 25.1533 403.431 25.62 404.738 26.32C406.091 26.9733 407.234 27.8367 408.168 28.91C409.148 29.9367 409.895 31.15 410.408 32.55C410.921 33.95 411.178 35.4433 411.178 37.03C411.178 39.6433 410.618 41.8367 409.498 43.61C408.378 45.3367 406.931 46.7367 405.158 47.81C403.385 48.8833 401.378 49.6533 399.138 50.12C396.945 50.5867 394.751 50.82 392.558 50.82H372.258V1.26ZM383.178 21.07H391.088C391.928 21.07 392.745 20.9767 393.538 20.79C394.378 20.6033 395.125 20.3 395.778 19.88C396.431 19.46 396.945 18.9 397.318 18.2C397.738 17.5 397.948 16.66 397.948 15.68C397.948 14.6533 397.715 13.8133 397.248 13.16C396.828 12.46 396.268 11.9233 395.568 11.55C394.868 11.1767 394.075 10.92 393.188 10.78C392.301 10.5933 391.438 10.5 390.598 10.5H383.178V21.07ZM383.178 41.58H392.978C393.818 41.58 394.658 41.4867 395.498 41.3C396.385 41.1133 397.178 40.7867 397.878 40.32C398.578 39.8533 399.138 39.2467 399.558 38.5C400.025 37.7533 400.258 36.8433 400.258 35.77C400.258 34.6033 399.954 33.67 399.348 32.97C398.788 32.2233 398.065 31.6633 397.178 31.29C396.291 30.9167 395.335 30.66 394.308 30.52C393.281 30.38 392.325 30.31 391.438 30.31H383.178V41.58Z" fill="white"/>
<path d="M454.951 10.92H440.811V1.26H480.011V10.92H465.871V50.82H454.951V10.92Z" fill="white"/>
<path d="M489.477 1.26H523.147V11.34H500.397V20.58H521.887V30.66H500.397V40.74H524.407V50.82H489.477V1.26Z" fill="white"/>
<path d="M569.058 14.14C567.985 12.8333 566.655 11.83 565.068 11.13C563.529 10.43 561.732 10.08 559.678 10.08C557.625 10.08 555.712 10.4767 553.938 11.27C552.212 12.0633 550.695 13.1833 549.388 14.63C548.128 16.03 547.125 17.71 546.378 19.67C545.678 21.63 545.328 23.7533 545.328 26.04C545.328 28.3733 545.678 30.52 546.378 32.48C547.125 34.3933 548.128 36.0733 549.388 37.52C550.648 38.92 552.118 40.0167 553.798 40.81C555.525 41.6033 557.368 42 559.328 42C561.568 42 563.552 41.5333 565.279 40.6C567.005 39.6667 568.428 38.36 569.548 36.68L578.648 43.47C576.549 46.41 573.888 48.58 570.668 49.98C567.448 51.38 564.135 52.08 560.728 52.08C556.855 52.08 553.285 51.4733 550.018 50.26C546.752 49.0467 543.928 47.32 541.548 45.08C539.168 42.7933 537.302 40.04 535.948 36.82C534.642 33.6 533.988 30.0067 533.988 26.04C533.988 22.0733 534.642 18.48 535.948 15.26C537.302 12.04 539.168 9.31 541.548 7.07C543.928 4.78333 546.752 3.03333 550.018 1.82C553.285 0.606666 556.855 0 560.728 0C562.128 0 563.575 0.14 565.068 0.419999C566.608 0.653332 568.102 1.05 569.548 1.61C571.042 2.17 572.465 2.91667 573.818 3.85C575.172 4.78333 576.385 5.92667 577.458 7.28L569.058 14.14Z" fill="white"/>
<path d="M588.068 1.26H598.988V19.74H620.198V1.26H631.118V50.82H620.198V29.4H598.988V50.82H588.068V1.26Z" fill="white"/>
</svg>
