<svg width="669" height="92" viewBox="0 0 669 92" fill="none" xmlns="http://www.w3.org/2000/svg">
<path d="M8.29365 57.0557C8.24365 59.8057 8.66865 62.1057 9.56865 63.9557C10.4687 65.8057 11.6937 67.2807 13.2437 68.3807C14.8437 69.4807 16.7187 70.2807 18.8687 70.7807C21.0187 71.2307 23.3187 71.4557 25.7687 71.4557C27.1687 71.4557 28.6937 71.2557 30.3437 70.8557C31.9937 70.4557 33.5187 69.8307 34.9187 68.9807C36.3687 68.0807 37.5687 66.9557 38.5187 65.6057C39.4687 64.2057 39.9437 62.5307 39.9437 60.5807C39.9437 59.0807 39.5937 57.7807 38.8937 56.6807C38.2437 55.5807 37.3687 54.6557 36.2687 53.9057C35.2187 53.1557 34.0437 52.5557 32.7437 52.1057C31.4437 51.6057 30.1687 51.2057 28.9187 50.9057L16.9937 47.9807C15.4437 47.5807 13.9187 47.0807 12.4187 46.4807C10.9687 45.8807 9.69365 45.0807 8.59365 44.0807C7.49365 43.0807 6.59365 41.8557 5.89365 40.4057C5.24365 38.9557 4.91865 37.1807 4.91865 35.0807C4.91865 33.7807 5.16865 32.2557 5.66865 30.5057C6.16865 28.7557 7.09365 27.1057 8.44365 25.5557C9.84365 24.0057 11.7437 22.7057 14.1437 21.6557C16.5437 20.5557 19.6187 20.0057 23.3687 20.0057C26.0187 20.0057 28.5437 20.3557 30.9437 21.0557C33.3437 21.7557 35.4437 22.8057 37.2437 24.2057C39.0437 25.6057 40.4687 27.3557 41.5187 29.4557C42.6187 31.5057 43.1687 33.9057 43.1687 36.6557H38.0687C37.9687 34.6057 37.4937 32.8307 36.6437 31.3307C35.8437 29.7807 34.7687 28.5057 33.4187 27.5057C32.1187 26.4557 30.5937 25.6807 28.8437 25.1807C27.1437 24.6307 25.3437 24.3557 23.4437 24.3557C21.6937 24.3557 19.9937 24.5557 18.3437 24.9557C16.7437 25.3057 15.3187 25.9057 14.0687 26.7557C12.8687 27.5557 11.8937 28.6307 11.1437 29.9807C10.3937 31.3307 10.0187 33.0057 10.0187 35.0057C10.0187 36.2557 10.2187 37.3557 10.6187 38.3057C11.0687 39.2057 11.6687 39.9807 12.4187 40.6307C13.1687 41.2807 14.0187 41.8057 14.9687 42.2057C15.9687 42.6057 17.0187 42.9307 18.1187 43.1807L31.1687 46.4057C33.0687 46.9057 34.8437 47.5307 36.4937 48.2807C38.1937 48.9807 39.6687 49.8807 40.9187 50.9807C42.2187 52.0307 43.2187 53.3307 43.9187 54.8807C44.6687 56.4307 45.0437 58.3057 45.0437 60.5057C45.0437 61.1057 44.9687 61.9057 44.8187 62.9057C44.7187 63.9057 44.4187 64.9807 43.9187 66.1307C43.4687 67.2307 42.7937 68.3557 41.8937 69.5057C41.0437 70.6557 39.8437 71.7057 38.2937 72.6557C36.7937 73.5557 34.9187 74.2807 32.6687 74.8307C30.4187 75.4307 27.7187 75.7307 24.5687 75.7307C21.4187 75.7307 18.4937 75.3807 15.7937 74.6807C13.0937 73.9307 10.7937 72.8057 8.89365 71.3057C6.99365 69.8057 5.51865 67.8807 4.46865 65.5307C3.46865 63.1807 3.04365 60.3557 3.19365 57.0557H8.29365ZM64.2349 21.1307L82.0099 68.0807L100.46 21.1307H107.96V74.6807H102.86V28.4057H102.71L84.4099 74.6807H79.6099L61.9849 28.4057H61.8349V74.6807H56.7349V21.1307H64.2349ZM129.807 53.6807H150.882L140.532 26.2307L129.807 53.6807ZM137.907 21.1307H143.607L164.607 74.6807H159.132L152.607 58.0307H128.232L121.782 74.6807H116.382L137.907 21.1307ZM178.323 46.5557H197.373C198.923 46.5557 200.398 46.3307 201.798 45.8807C203.198 45.3807 204.423 44.6807 205.473 43.7807C206.523 42.8807 207.348 41.8057 207.948 40.5557C208.598 39.2557 208.923 37.7807 208.923 36.1307C208.923 32.8307 207.973 30.2307 206.073 28.3307C204.173 26.4307 201.273 25.4807 197.373 25.4807H178.323V46.5557ZM173.223 21.1307H197.748C199.948 21.1307 202.023 21.4057 203.973 21.9557C205.973 22.5057 207.698 23.3557 209.148 24.5057C210.648 25.6057 211.823 27.0557 212.673 28.8557C213.573 30.6057 214.023 32.6807 214.023 35.0807C214.023 38.4807 213.148 41.4307 211.398 43.9307C209.648 46.4307 207.048 48.0307 203.598 48.7307V48.8807C205.348 49.1307 206.798 49.6057 207.948 50.3057C209.098 50.9557 210.023 51.8057 210.723 52.8557C211.473 53.9057 211.998 55.1307 212.298 56.5307C212.648 57.8807 212.873 59.3557 212.973 60.9557C213.023 61.8557 213.073 62.9557 213.123 64.2557C213.173 65.5557 213.273 66.8807 213.423 68.2307C213.573 69.5307 213.798 70.7807 214.098 71.9807C214.448 73.1307 214.898 74.0307 215.448 74.6807H209.823C209.523 74.1807 209.273 73.5807 209.073 72.8807C208.923 72.1307 208.798 71.3807 208.698 70.6307C208.648 69.8307 208.598 69.0557 208.548 68.3057C208.498 67.5557 208.448 66.9057 208.398 66.3557C208.298 64.4557 208.123 62.5807 207.873 60.7307C207.673 58.8307 207.198 57.1557 206.448 55.7057C205.748 54.2057 204.698 53.0057 203.298 52.1057C201.948 51.2057 200.073 50.8057 197.673 50.9057H178.323V74.6807H173.223V21.1307ZM221.737 21.1307H264.112V25.4807H245.437V74.6807H240.337V25.4807H221.737V21.1307ZM297.485 21.1307H302.585V70.3307H332.585V74.6807H297.485V21.1307ZM349.094 53.6807H370.169L359.819 26.2307L349.094 53.6807ZM357.194 21.1307H362.894L383.894 74.6807H378.419L371.894 58.0307H347.519L341.069 74.6807H335.669L357.194 21.1307ZM397.61 44.6057H415.16C417.21 44.6057 418.985 44.3807 420.485 43.9307C421.985 43.4307 423.235 42.7807 424.235 41.9807C425.235 41.1307 425.985 40.1557 426.485 39.0557C426.985 37.9557 427.235 36.7807 427.235 35.5307C427.235 28.8307 423.21 25.4807 415.16 25.4807H397.61V44.6057ZM392.51 21.1307H415.16C417.41 21.1307 419.56 21.3557 421.61 21.8057C423.71 22.2057 425.535 22.9307 427.085 23.9807C428.685 24.9807 429.96 26.3307 430.91 28.0307C431.86 29.6807 432.335 31.7557 432.335 34.2557C432.335 35.6557 432.11 37.0307 431.66 38.3807C431.21 39.6807 430.56 40.8807 429.71 41.9807C428.91 43.0307 427.935 43.9307 426.785 44.6807C425.685 45.4307 424.435 45.9557 423.035 46.2557V46.4057C426.485 46.8557 429.235 48.2807 431.285 50.6807C433.335 53.0307 434.36 55.9557 434.36 59.4557C434.36 60.3057 434.285 61.2807 434.135 62.3807C433.985 63.4307 433.685 64.5307 433.235 65.6807C432.785 66.7807 432.135 67.8807 431.285 68.9807C430.435 70.0807 429.285 71.0557 427.835 71.9057C426.435 72.7057 424.685 73.3807 422.585 73.9307C420.535 74.4307 418.06 74.6807 415.16 74.6807H392.51V21.1307ZM397.61 70.3307H415.16C417.06 70.3307 418.86 70.1807 420.56 69.8807C422.26 69.5307 423.76 68.9307 425.06 68.0807C426.36 67.2307 427.385 66.1057 428.135 64.7057C428.885 63.2557 429.26 61.4557 429.26 59.3057C429.26 55.8557 428.035 53.2807 425.585 51.5807C423.185 49.8307 419.71 48.9557 415.16 48.9557H397.61V70.3307ZM465.208 21.1307H507.583V25.4807H488.908V74.6807H483.808V25.4807H465.208V21.1307ZM516.333 21.1307H553.308V25.4807H521.433V44.8307H551.283V49.1807H521.433V70.3307H553.683V74.6807H516.333V21.1307ZM603.691 37.3307C603.241 35.2807 602.491 33.4557 601.441 31.8557C600.441 30.2057 599.191 28.8307 597.691 27.7307C596.241 26.6307 594.616 25.8057 592.816 25.2557C591.066 24.6557 589.216 24.3557 587.266 24.3557C583.716 24.3557 580.666 25.0307 578.116 26.3807C575.566 27.7307 573.466 29.5307 571.816 31.7807C570.216 33.9807 569.016 36.4807 568.216 39.2807C567.466 42.0807 567.091 44.9557 567.091 47.9057C567.091 50.8057 567.466 53.6807 568.216 56.5307C569.016 59.3307 570.216 61.8557 571.816 64.1057C573.466 66.3057 575.566 68.0807 578.116 69.4307C580.666 70.7807 583.716 71.4557 587.266 71.4557C589.766 71.4557 592.016 71.0057 594.016 70.1057C596.016 69.2057 597.741 67.9807 599.191 66.4307C600.641 64.8807 601.816 63.0807 602.716 61.0307C603.616 58.9307 604.191 56.6807 604.441 54.2807H609.541C609.191 57.5807 608.416 60.5557 607.216 63.2057C606.016 65.8557 604.466 68.1057 602.566 69.9557C600.666 71.8057 598.416 73.2307 595.816 74.2307C593.266 75.2307 590.416 75.7307 587.266 75.7307C583.066 75.7307 579.366 74.9807 576.166 73.4807C573.016 71.9307 570.391 69.8807 568.291 67.3307C566.191 64.7807 564.616 61.8307 563.566 58.4807C562.516 55.1307 561.991 51.6057 561.991 47.9057C561.991 44.2057 562.516 40.6807 563.566 37.3307C564.616 33.9807 566.191 31.0307 568.291 28.4807C570.391 25.8807 573.016 23.8307 576.166 22.3307C579.366 20.7807 583.066 20.0057 587.266 20.0057C589.816 20.0057 592.291 20.3807 594.691 21.1307C597.141 21.8807 599.341 23.0057 601.291 24.5057C603.291 25.9557 604.941 27.7557 606.241 29.9057C607.591 32.0557 608.441 34.5307 608.791 37.3307H603.691ZM621.099 21.1307H626.199V44.3807H657.999V21.1307H663.099V74.6807H657.999V48.7307H626.199V74.6807H621.099V21.1307Z" fill="white"/>
</svg>
