<svg width="50" height="60" viewBox="0 0 50 60" fill="none" xmlns="http://www.w3.org/2000/svg">
<path d="M21.8372 13.7855C25.644 13.7855 28.73 10.6995 28.73 6.89275C28.73 3.08599 25.644 0 21.8372 0C18.0304 0 14.9445 3.08599 14.9445 6.89275C14.9445 10.6995 18.0304 13.7855 21.8372 13.7855Z" fill="#808080"/>
<path d="M49.4858 51.9093L40.4994 35.0622C39.7986 33.7526 38.4344 32.9341 36.9496 32.9341H29.9391V27.9081H39.2501C40.8383 27.9081 42.1221 26.6244 42.1221 25.0361C42.1221 23.4479 40.8383 22.1642 39.2501 22.1642H29.9391V18.5742C29.9391 17.3077 28.8018 16.2766 27.3974 16.2766H16.28C14.8727 16.2766 13.7325 17.3048 13.7325 18.5742V38.6781C13.7325 39.9446 14.8698 40.9756 16.28 40.9756H34.5372L42.3892 55.6974C43.1129 57.053 44.5029 57.8255 45.9389 57.8255C46.5794 57.8255 47.2227 57.6733 47.8287 57.3517C49.7902 56.3034 50.5312 53.8708 49.4858 51.9093Z" fill="#808080"/>
<path d="M19.2423 54.4716C11.1691 54.4716 4.60091 47.9034 4.60091 39.8274C4.60091 35.1259 6.83244 30.9472 10.2874 28.2677V22.8138C4.17873 26.0419 0 32.4521 0 39.8302C0 50.4365 8.63316 59.0696 19.2394 59.0696C26.0776 59.0696 32.08 55.4739 35.489 50.0861L32.864 45.1635C30.7302 50.603 25.4342 54.4716 19.2423 54.4716Z" fill="#808080"/>
</svg>
