<svg width="65" height="65" viewBox="0 0 65 65" fill="none" xmlns="http://www.w3.org/2000/svg">
<path d="M49.4271 2.70831C48.7088 2.70831 48.0199 2.99365 47.512 3.50157C47.0041 4.00948 46.7188 4.69835 46.7188 5.41665V18.9583C46.7188 19.6766 47.0041 20.3655 47.512 20.8734C48.0199 21.3813 48.7088 21.6666 49.4271 21.6666H52.8125V60.5989C52.8125 61.0479 52.9908 61.4784 53.3083 61.7959C53.6257 62.1133 54.0563 62.2916 54.5052 62.2916C54.9541 62.2916 55.3847 62.1133 55.7021 61.7959C56.0196 61.4784 56.1979 61.0479 56.1979 60.5989V21.6666H59.5833C60.3016 21.6666 60.9905 21.3813 61.4984 20.8734C62.0063 20.3655 62.2917 19.6766 62.2917 18.9583V5.41665C62.2917 4.69835 62.0063 4.00948 61.4984 3.50157C60.9905 2.99365 60.3016 2.70831 59.5833 2.70831H49.4271ZM44.0104 8.37821C43.3368 8.20963 42.6451 8.12458 41.9507 8.12498H22.5767C20.6824 8.12514 18.8429 8.76077 17.3527 9.93013C15.8624 11.0995 14.8076 12.735 14.3569 14.5749L13.2844 18.9583H9.81771C9.36877 18.9583 8.93823 19.1367 8.62078 19.4541C8.30334 19.7715 8.125 20.2021 8.125 20.651C8.125 21.1 8.30334 21.5305 8.62078 21.8479C8.93823 22.1654 9.36877 22.3437 9.81771 22.3437H12.4556L11.8693 24.7365C10.7699 25.1469 9.82217 25.8834 9.153 26.8474C8.48382 27.8113 8.12514 28.9567 8.125 30.1302V53.8281C8.125 54.9953 8.58868 56.1148 9.41404 56.9401C10.2394 57.7655 11.3588 58.2291 12.526 58.2291H17.2656C18.4329 58.2291 19.5523 57.7655 20.3776 56.9401C21.203 56.1148 21.6667 54.9953 21.6667 53.8281V49.4271H43.3333V53.8281C43.3333 54.9953 43.797 56.1148 44.6224 56.9401C45.4477 57.7655 46.5672 58.2291 47.7344 58.2291H50.1042V54.8437H47.7344C47.465 54.8437 47.2067 54.7367 47.0162 54.5463C46.8258 54.3558 46.7188 54.0975 46.7188 53.8281V49.4271H50.1042V24.375H15.4429L17.6461 15.3806C17.9165 14.2766 18.5494 13.2953 19.4436 12.5936C20.3377 11.8919 21.4414 11.5105 22.578 11.5104H41.9521C42.6779 11.5104 43.378 11.6648 44.0118 11.9464L44.0104 8.37821ZM11.5104 49.4271H18.2813V53.8281C18.2813 54.0975 18.1742 54.3558 17.9838 54.5463C17.7933 54.7367 17.535 54.8437 17.2656 54.8437H12.526C12.2567 54.8437 11.9984 54.7367 11.8079 54.5463C11.6174 54.3558 11.5104 54.0975 11.5104 53.8281V49.4271ZM16.25 35.2083C16.25 34.49 16.5353 33.8011 17.0433 33.2932C17.5512 32.7853 18.24 32.5 18.9583 32.5C19.6766 32.5 20.3655 32.7853 20.8734 33.2932C21.3813 33.8011 21.6667 34.49 21.6667 35.2083C21.6667 35.9266 21.3813 36.6155 20.8734 37.1234C20.3655 37.6313 19.6766 37.9166 18.9583 37.9166C18.24 37.9166 17.5512 37.6313 17.0433 37.1234C16.5353 36.6155 16.25 35.9266 16.25 35.2083ZM46.0417 37.9166C45.3234 37.9166 44.6345 37.6313 44.1266 37.1234C43.6187 36.6155 43.3333 35.9266 43.3333 35.2083C43.3333 34.49 43.6187 33.8011 44.1266 33.2932C44.6345 32.7853 45.3234 32.5 46.0417 32.5C46.76 32.5 47.4488 32.7853 47.9568 33.2932C48.4647 33.8011 48.75 34.49 48.75 35.2083C48.75 35.9266 48.4647 36.6155 47.9568 37.1234C47.4488 37.6313 46.76 37.9166 46.0417 37.9166ZM37.5781 37.9166C38.0271 37.9166 38.4576 38.095 38.7751 38.4124C39.0925 38.7299 39.2708 39.1604 39.2708 39.6094C39.2708 40.0583 39.0925 40.4888 38.7751 40.8063C38.4576 41.1237 38.0271 41.3021 37.5781 41.3021H27.4219C26.9729 41.3021 26.5424 41.1237 26.2249 40.8063C25.9075 40.4888 25.7292 40.0583 25.7292 39.6094C25.7292 39.1604 25.9075 38.7299 26.2249 38.4124C26.5424 38.095 26.9729 37.9166 27.4219 37.9166H37.5781Z" fill="#808080"/>
</svg>
