<svg width="74" height="57" viewBox="0 0 74 57" fill="none" xmlns="http://www.w3.org/2000/svg">
<path d="M70.3 49.4061H66.6V14.1704C68.0107 13.3346 69.1133 12.0444 69.7367 10.5C70.3601 8.95553 70.4695 7.24317 70.0479 5.62845C69.6262 4.01374 68.6972 2.58691 67.4048 1.56925C66.1125 0.551602 64.529 0 62.9 0C61.271 0 59.6875 0.551602 58.3952 1.56925C57.1028 2.58691 56.1738 4.01374 55.7521 5.62845C55.3305 7.24317 55.4399 8.95553 56.0633 10.5C56.6867 12.0444 57.7892 13.3346 59.2 14.1704V15.2336C59.2 21.2756 56.8611 27.0702 52.6978 31.3426C48.5345 35.615 42.8878 38.0153 37 38.0153C31.1122 38.0153 25.4655 35.615 21.3022 31.3426C17.1389 27.0702 14.8 21.2756 14.8 15.2336V14.1704C16.2108 13.3346 17.3133 12.0444 17.9367 10.5C18.5601 8.95553 18.6695 7.24317 18.2479 5.62845C17.8262 4.01374 16.8972 2.58691 15.6048 1.56925C14.3125 0.551602 12.729 0 11.1 0C9.47101 0 7.88753 0.551602 6.59517 1.56925C5.3028 2.58691 4.37376 4.01374 3.95215 5.62845C3.53053 7.24317 3.6399 8.95553 4.26329 10.5C4.88668 12.0444 5.98925 13.3346 7.4 14.1704V49.4061H3.7C2.7187 49.4061 1.77759 49.8061 1.0837 50.5182C0.38982 51.2303 0 52.196 0 53.203C0 54.2101 0.38982 55.1758 1.0837 55.8879C1.77759 56.6 2.7187 57 3.7 57H18.5C19.4813 57 20.4224 56.6 21.1163 55.8879C21.8102 55.1758 22.2 54.2101 22.2 53.203C22.2 52.196 21.8102 51.2303 21.1163 50.5182C20.4224 49.8061 19.4813 49.4061 18.5 49.4061H14.8V35.2435C17.5777 38.4756 20.9938 41.0643 24.8214 42.8374C28.649 44.6105 32.8005 45.5275 37 45.5275C41.1995 45.5275 45.351 44.6105 49.1786 42.8374C53.0062 41.0643 56.4223 38.4756 59.2 35.2435V49.4061H55.5C54.5187 49.4061 53.5776 49.8061 52.8837 50.5182C52.1898 51.2303 51.8 52.196 51.8 53.203C51.8 54.2101 52.1898 55.1758 52.8837 55.8879C53.5776 56.6 54.5187 57 55.5 57H70.3C71.2813 57 72.2224 56.6 72.9163 55.8879C73.6102 55.1758 74 54.2101 74 53.203C74 52.196 73.6102 51.2303 72.9163 50.5182C72.2224 49.8061 71.2813 49.4061 70.3 49.4061Z" fill="#808080"/>
</svg>
