<svg width="78" height="50" viewBox="0 0 78 50" fill="none" xmlns="http://www.w3.org/2000/svg">
<path d="M40.1707 24.2812C37.2694 24.2812 34.9082 26.6419 34.9082 29.5432C34.9082 32.4451 37.2694 34.8057 40.1707 34.8057C43.072 34.8057 45.4333 32.4451 45.4333 29.5432C45.4333 26.6419 43.072 24.2812 40.1707 24.2812Z" fill="#808080"/>
<path d="M68.5473 21.9293C68.7394 17.9384 67.3302 13.9821 64.6023 10.9427C61.6734 7.67714 57.5274 5.80951 53.2232 5.80951C49.0307 5.82898 44.9777 7.50695 42.0676 10.4987C39.1989 4.13655 32.9002 0 25.76 0C15.8881 0 7.85738 8.03196 7.85738 17.9039C7.85738 19.3075 8.02065 20.6991 8.34218 22.0549C3.30698 24.3854 0 29.4802 0 35.0819C0 43.002 6.44315 49.4458 14.3633 49.4458H62.8037C70.7239 49.4458 77.167 43.002 77.167 35.0819C77.167 29.364 73.742 24.1982 68.5473 21.9293ZM31.015 36.5696C29.9299 37.1052 28.7643 37.3771 27.5473 37.3771C23.2267 37.3771 19.7125 33.8623 19.7125 29.5424C19.7125 25.2225 23.2267 21.7082 27.5473 21.7082C28.748 21.7082 29.901 21.9732 30.9736 22.4957C31.6129 22.8066 31.8779 23.5765 31.5676 24.2152C31.2562 24.8532 30.4875 25.1213 29.8482 24.808C29.1285 24.4582 28.3549 24.2805 27.5473 24.2805C24.646 24.2805 22.2847 26.6411 22.2847 29.5424C22.2847 32.4443 24.646 34.8049 27.5473 34.8049C28.3649 34.8049 29.1486 34.6228 29.8746 34.2636C30.5139 33.9489 31.2825 34.2102 31.5978 34.847C31.913 35.4837 31.6518 36.2549 31.015 36.5696ZM40.1723 37.3771C35.8518 37.3771 32.3376 33.8623 32.3376 29.5424C32.3376 25.2225 35.8518 21.7082 40.1723 21.7082C44.4929 21.7082 48.0071 25.2225 48.0071 29.5424C48.0071 33.8623 44.4929 37.3771 40.1723 37.3771ZM56.1684 43.4535H50.8067C50.3218 43.4535 49.8785 43.1816 49.66 42.7496C49.4402 42.3175 49.4829 41.7988 49.7692 41.4082L54.4728 34.9776C54.6964 34.5129 54.5922 34.0275 54.4126 33.721C54.2945 33.5169 54.0194 33.1734 53.5108 33.1652C52.7183 33.1652 52.0928 33.7907 52.0928 34.56C52.0928 35.2703 51.5175 35.8461 50.8067 35.8461C50.0958 35.8461 49.5205 35.2703 49.5205 34.56C49.5205 32.3721 51.3003 30.5924 53.4882 30.5924C54.827 30.6137 55.98 31.2995 56.6356 32.4267C57.3252 33.6099 57.3478 35.0837 56.6984 36.2738C56.6708 36.3234 53.3412 40.8813 53.3412 40.8813H56.1684C56.8793 40.8813 57.4545 41.4572 57.4545 42.1674C57.4545 42.8777 56.8793 43.4535 56.1684 43.4535Z" fill="#808080"/>
</svg>
