<svg width="76" height="55" viewBox="0 0 76 55" fill="none" xmlns="http://www.w3.org/2000/svg">
<path d="M49.2881 53.3122C49.0336 53.3122 48.7782 53.2991 48.5237 53.2851C47.7864 53.2318 47.2222 52.588 47.2765 51.8498C47.3298 51.1125 47.9736 50.5755 48.7118 50.6026C51.0453 50.7635 53.3265 49.9186 54.9759 48.2691C56.5047 46.7534 57.3365 44.7277 57.3365 42.5813C57.3365 40.435 56.5047 38.4102 54.9759 36.8945C53.4461 35.3788 51.4345 34.5339 49.2881 34.5339H9.04778C8.3105 34.5339 7.70605 33.9304 7.70605 33.1921C7.70605 32.4548 8.30954 31.8504 9.04778 31.8504H49.2881C52.1586 31.8504 54.8542 32.9638 56.8799 34.9894C58.9055 37.0151 60.0188 39.7107 60.0188 42.5811C60.0188 45.4516 58.9054 48.1472 56.8799 50.1729C54.8551 52.1855 52.1183 53.3119 49.2881 53.3119L49.2881 53.3122Z" fill="#808080" stroke="#808080" stroke-width="1.5"/>
<path d="M58.6782 27.8289H2.34173C1.60444 27.8289 1 27.2254 1 26.4872C1 25.7499 1.60348 25.1454 2.34173 25.1454H58.6782C64.5933 25.1454 69.4092 20.3298 69.4092 14.4144C69.4092 8.49936 64.5935 3.68345 58.6782 3.68345C57.9409 3.68345 57.3364 3.07997 57.3364 2.34173C57.3364 1.60445 57.9399 1 58.6782 1C66.0687 1 72.0916 7.02287 72.0916 14.4134C72.0916 21.8059 66.0697 27.8288 58.6782 27.8288V27.8289Z" fill="#808080" stroke="#808080" stroke-width="1.5"/>
<path d="M33.864 19.7831C33.864 20.8946 32.963 21.7947 31.8515 21.7947C30.7409 21.7947 29.8398 20.8946 29.8398 19.7831C29.8398 18.6715 30.7409 17.7714 31.8515 17.7714C32.963 17.7714 33.864 18.6715 33.864 19.7831Z" fill="#808080"/>
<path d="M45.9344 21.1225C45.9344 22.2331 45.0333 23.1341 43.9227 23.1341C42.8112 23.1341 41.9102 22.2331 41.9102 21.1225C41.9102 20.011 42.8112 19.1099 43.9227 19.1099C45.0333 19.1099 45.9344 20.011 45.9344 21.1225Z" fill="#808080"/>
<path d="M56.6668 17.0984C56.6668 18.2091 55.7657 19.1101 54.6551 19.1101C53.5436 19.1101 52.6426 18.2091 52.6426 17.0984C52.6426 15.9869 53.5436 15.0859 54.6551 15.0859C55.7657 15.0859 56.6668 15.9869 56.6668 17.0984Z" fill="#808080"/>
<path d="M28.4979 39.9015C28.4979 41.0131 27.5978 41.9132 26.4862 41.9132C25.3747 41.9132 24.4746 41.0131 24.4746 39.9015C24.4746 38.79 25.3747 37.8899 26.4862 37.8899C27.5978 37.8899 28.4979 38.79 28.4979 39.9015Z" fill="#808080"/>
<path d="M37.8865 41.2427C37.8865 42.3533 36.9855 43.2543 35.8739 43.2543C34.7633 43.2543 33.8623 42.3533 33.8623 41.2427C33.8623 40.1311 34.7633 39.2301 35.8739 39.2301C36.9855 39.2301 37.8865 40.1311 37.8865 41.2427Z" fill="#808080"/>
<path d="M48.618 42.5854C48.618 43.697 47.7179 44.598 46.6064 44.598C45.4948 44.598 44.5947 43.697 44.5947 42.5854C44.5947 41.4748 45.4948 40.5738 46.6064 40.5738C47.7179 40.5738 48.618 41.4748 48.618 42.5854Z" fill="#808080"/>
<path d="M68.7362 42.5854C68.7362 43.697 67.8361 44.598 66.7245 44.598C65.613 44.598 64.7129 43.697 64.7129 42.5854C64.7129 41.4748 65.613 40.5738 66.7245 40.5738C67.8361 40.5738 68.7362 41.4748 68.7362 42.5854Z" fill="#808080"/>
<path d="M32.5203 47.9488C32.5203 49.0595 31.6193 49.9605 30.5087 49.9605C29.3971 49.9605 28.4961 49.0595 28.4961 47.9488C28.4961 46.8373 29.3971 45.9363 30.5087 45.9363C31.6193 45.9363 32.5203 46.8373 32.5203 47.9488Z" fill="#808080"/>
<path d="M66.0535 33.1954C66.0535 34.307 65.1525 35.207 64.0419 35.207C62.9303 35.207 62.0293 34.307 62.0293 33.1954C62.0293 32.0839 62.9303 31.1838 64.0419 31.1838C65.1525 31.1838 66.0535 32.0839 66.0535 33.1954Z" fill="#808080"/>
<path d="M75.4461 31.8535C75.4461 32.965 74.546 33.8661 73.4345 33.8661C72.3229 33.8661 71.4229 32.965 71.4229 31.8535C71.4229 30.7429 72.3229 29.8419 73.4345 29.8419C74.546 29.8419 75.4461 30.7429 75.4461 31.8535Z" fill="#808080"/>
<path d="M49.9588 10.394C49.9588 11.5046 49.0577 12.4056 47.9471 12.4056C46.8356 12.4056 45.9346 11.5046 45.9346 10.394C45.9346 9.28243 46.8356 8.38141 47.9471 8.38141C49.0577 8.38141 49.9588 9.28243 49.9588 10.394Z" fill="#808080"/>
<path d="M41.9119 14.4163C41.9119 15.5269 41.0118 16.4279 39.9003 16.4279C38.7888 16.4279 37.8887 15.5269 37.8887 14.4163C37.8887 13.3048 38.7888 12.4037 39.9003 12.4037C41.0118 12.4037 41.9119 13.3048 41.9119 14.4163Z" fill="#808080"/>
</svg>
