<svg width="80" height="57" viewBox="0 0 80 57" fill="none" xmlns="http://www.w3.org/2000/svg">
<path d="M51.5924 55.8103C51.3257 55.8103 51.0581 55.7965 50.7915 55.7818C50.019 55.726 49.4279 55.0515 49.4847 54.278C49.5406 53.5056 50.2151 52.9429 50.9885 52.9713C53.4334 53.1399 55.8235 52.2547 57.5516 50.5264C59.1534 48.9383 60.0249 46.816 60.0249 44.5671C60.0249 42.3183 59.1534 40.1969 57.5516 38.6088C55.9488 37.0208 53.8412 36.1355 51.5923 36.1355H9.43116C8.65868 36.1355 8.02539 35.5032 8.02539 34.7297C8.02539 33.9573 8.65768 33.324 9.43116 33.324H51.5923C54.5998 33.324 57.4241 34.4905 59.5465 36.6128C61.6688 38.7352 62.8353 41.5595 62.8353 44.5669C62.8353 47.5744 61.6687 50.3987 59.5465 52.5211C57.4251 54.6297 54.5577 55.8099 51.5923 55.8099L51.5924 55.8103Z" fill="#808080" stroke="#808080" stroke-width="1.5"/>
<path d="M61.4314 29.1096H2.40577C1.63329 29.1096 1 28.4773 1 27.7038C1 26.9313 1.63229 26.298 2.40577 26.298H61.4314C67.6288 26.298 72.6746 21.2525 72.6746 15.0548C72.6746 8.85733 67.6291 3.81155 61.4314 3.81155C60.6589 3.81155 60.0256 3.17926 60.0256 2.40578C60.0256 1.6333 60.6579 1 61.4314 1C69.1748 1 75.4851 7.31037 75.4851 15.0537C75.4851 22.7991 69.1758 29.1095 61.4314 29.1095V29.1096Z" fill="#808080" stroke="#808080" stroke-width="1.5"/>
<path d="M35.4331 20.6798C35.4331 21.8444 34.4891 22.7875 33.3245 22.7875C32.1608 22.7875 31.2168 21.8444 31.2168 20.6798C31.2168 19.5152 32.1608 18.5721 33.3245 18.5721C34.4891 18.5721 35.4331 19.5152 35.4331 20.6798Z" fill="#808080"/>
<path d="M35.4331 20.6798C35.4331 21.8444 34.4891 22.7875 33.3245 22.7875C32.1608 22.7875 31.2168 21.8444 31.2168 20.6798C31.2168 19.5152 32.1608 18.5721 33.3245 18.5721C34.4891 18.5721 35.4331 19.5152 35.4331 20.6798" stroke="#808080" stroke-width="1.5"/>
<path d="M48.0796 22.0831C48.0796 23.2467 47.1355 24.1907 45.9719 24.1907C44.8073 24.1907 43.8633 23.2467 43.8633 22.0831C43.8633 20.9185 44.8073 19.9744 45.9719 19.9744C47.1355 19.9744 48.0796 20.9185 48.0796 22.0831Z" fill="#808080" stroke="#808080" stroke-width="1.5"/>
<path d="M59.3237 17.8663C59.3237 19.0299 58.3797 19.974 57.2161 19.974C56.0515 19.974 55.1074 19.0299 55.1074 17.8663C55.1074 16.7017 56.0515 15.7577 57.2161 15.7577C58.3797 15.7577 59.3237 16.7017 59.3237 17.8663Z" fill="#808080" stroke="#808080" stroke-width="1.5"/>
<path d="M29.811 41.7577C29.811 42.9223 28.868 43.8654 27.7034 43.8654C26.5388 43.8654 25.5957 42.9223 25.5957 41.7577C25.5957 40.5931 26.5388 39.6501 27.7034 39.6501C28.868 39.6501 29.811 40.5931 29.811 41.7577Z" fill="#808080" stroke="#808080" stroke-width="1.5"/>
<path d="M39.6479 43.163C39.6479 44.3266 38.7039 45.2706 37.5393 45.2706C36.3757 45.2706 35.4316 44.3266 35.4316 43.163C35.4316 41.9984 36.3757 41.0543 37.5393 41.0543C38.7039 41.0543 39.6479 41.9984 39.6479 43.163Z" fill="#808080" stroke="#808080" stroke-width="1.5"/>
<path d="M50.8911 44.5702C50.8911 45.7348 49.948 46.6788 48.7834 46.6788C47.6188 46.6788 46.6758 45.7348 46.6758 44.5702C46.6758 43.4066 47.6188 42.4625 48.7834 42.4625C49.948 42.4625 50.8911 43.4066 50.8911 44.5702Z" fill="#808080" stroke="#808080" stroke-width="1.5"/>
<path d="M71.9682 44.5702C71.9682 45.7348 71.0252 46.6788 69.8606 46.6788C68.696 46.6788 67.7529 45.7348 67.7529 44.5702C67.7529 43.4066 68.696 42.4625 69.8606 42.4625C71.0252 42.4625 71.9682 43.4066 71.9682 44.5702Z" fill="#808080" stroke="#808080" stroke-width="1.5"/>
<path d="M34.0249 50.1903C34.0249 51.3539 33.0809 52.298 31.9172 52.298C30.7526 52.298 29.8086 51.3539 29.8086 50.1903C29.8086 49.0257 30.7526 48.0817 31.9172 48.0817C33.0809 48.0817 34.0249 49.0257 34.0249 50.1903Z" fill="#808080" stroke="#808080" stroke-width="1.5"/>
<path d="M69.1587 34.7324C69.1587 35.897 68.2146 36.8401 67.051 36.8401C65.8864 36.8401 64.9424 35.897 64.9424 34.7324C64.9424 33.5678 65.8864 32.6248 67.051 32.6248C68.2146 32.6248 69.1587 33.5678 69.1587 34.7324Z" fill="#808080" stroke="#808080" stroke-width="1.5"/>
<path d="M78.9995 33.3262C78.9995 34.4908 78.0564 35.4348 76.8918 35.4348C75.7272 35.4348 74.7842 34.4908 74.7842 33.3262C74.7842 32.1625 75.7272 31.2185 76.8918 31.2185C78.0564 31.2185 78.9995 32.1625 78.9995 33.3262Z" fill="#808080" stroke="#808080" stroke-width="1.5"/>
<path d="M52.2964 10.8429C52.2964 12.0066 51.3523 12.9506 50.1887 12.9506C49.0241 12.9506 48.0801 12.0066 48.0801 10.8429C48.0801 9.67835 49.0241 8.73431 50.1887 8.73431C51.3523 8.73431 52.2964 9.67835 52.2964 10.8429Z" fill="#808080" stroke="#808080" stroke-width="1.5"/>
<path d="M43.8637 15.0558C43.8637 16.2194 42.9207 17.1634 41.7561 17.1634C40.5915 17.1634 39.6484 16.2194 39.6484 15.0558C39.6484 13.8912 40.5915 12.9471 41.7561 12.9471C42.9207 12.9471 43.8637 13.8912 43.8637 15.0558Z" fill="#808080" stroke="#808080" stroke-width="1.5"/>
</svg>
