<svg width="59" height="60" viewBox="0 0 59 60" fill="none" xmlns="http://www.w3.org/2000/svg">
<path d="M42.5978 51.2481C42.1158 51.7301 42.1158 52.5137 42.5978 52.9957C43.0799 53.4777 43.8635 53.4777 44.3455 52.9957C45.7446 51.5966 48.1893 51.5966 49.5884 52.9957C49.8306 53.2379 50.147 53.3566 50.4634 53.3566C50.7798 53.3566 51.0962 53.2355 51.3385 52.9957C51.8205 52.5137 51.8205 51.7301 51.3385 51.2481C49.005 48.9121 44.9288 48.9121 42.5978 51.2481Z" fill="#808080"/>
<path d="M39.1017 47.7498C38.6197 48.2318 38.6197 49.0154 39.1017 49.4975C39.5838 49.9795 40.3674 49.9795 40.8494 49.4975C44.2235 46.1233 49.7111 46.1233 53.0853 49.4975C53.3275 49.7397 53.6439 49.8584 53.9603 49.8584C54.2767 49.8584 54.5931 49.7372 54.8354 49.4975C55.3174 49.0154 55.3174 48.2318 54.8354 47.7498C50.4947 43.4141 43.4375 43.4141 39.1017 47.7498Z" fill="#808080"/>
<path d="M58.3273 44.2573C55.2918 41.2243 51.2577 39.5508 46.9665 39.5508C42.6753 39.5508 38.6387 41.2243 35.6057 44.2573C35.1236 44.7393 35.1236 45.5229 35.6057 46.0049C36.0877 46.4869 36.8713 46.4869 37.3533 46.0049C39.9216 43.4366 43.3328 42.0227 46.9665 42.0227C50.6002 42.0227 54.0114 43.4366 56.5797 46.0049C56.8219 46.2471 57.1383 46.3658 57.4548 46.3658C57.7712 46.3658 58.0876 46.2447 58.3298 46.0049C58.8094 45.5229 58.8094 44.7418 58.3273 44.2573Z" fill="#808080"/>
<path d="M46.966 59.3266C48.3312 59.3266 49.4379 58.2199 49.4379 56.8547C49.4379 55.4895 48.3312 54.3828 46.966 54.3828C45.6008 54.3828 44.4941 55.4895 44.4941 56.8547C44.4941 58.2199 45.6008 59.3266 46.966 59.3266Z" fill="#808080"/>
<path d="M37.0911 20.1954C36.918 21.6019 36.2135 22.8774 35.1111 23.7846C34.9158 23.9428 34.7749 24.1603 34.7057 24.4026C34.3547 25.6459 33.8455 26.8522 33.1879 27.9893C32.9951 28.3255 32.9704 28.7333 33.1212 29.0893C33.2745 29.4477 33.5834 29.7122 33.9592 29.8061L37.0762 30.5848C40.4207 31.4203 43.256 33.5263 45.058 36.5198C45.2903 36.9054 45.7081 37.1304 46.1703 37.1155L46.509 37.0958C46.6622 37.0883 46.8155 37.0784 46.9688 37.0784C50.1649 37.0784 53.324 37.9164 56.1074 39.4984C56.2977 39.6072 56.5103 39.6591 56.7179 39.6591C56.7253 39.6591 56.7352 39.6591 56.7426 39.6591C57.457 39.6863 58.0033 39.1128 58.0033 38.4232C58.0033 38.0647 57.8501 37.7459 57.6103 37.5184C56.137 35.2394 53.9098 33.6351 51.3069 32.985L44.4969 31.2794L43.9901 29.2623C45.7946 27.4183 47.0404 24.9439 47.4557 22.3979C48.5186 22.0172 49.322 21.0655 49.4678 19.8914L49.9251 16.2354C50.0314 15.3727 49.7669 14.5026 49.1959 13.8451C48.9141 13.5237 48.5705 13.2691 48.1899 13.0887L48.3431 9.99635L48.9438 9.39321C50.0537 8.21411 50.9782 6.20199 49.0798 3.30245C47.6436 1.10988 45.2261 0 41.8865 0C40.6605 0 39.029 0.0741569 37.2765 0.669884C36.9254 0.788535 36.6461 1.05797 36.5151 1.40651C36.3841 1.75257 36.4162 2.14066 36.6016 2.46201C38.2924 5.37885 38.1663 8.37726 36.2605 10.686C35.8798 11.1483 35.8848 11.8157 36.2704 12.273C37.269 13.4545 37.7338 15.0069 37.5434 16.5419L37.0911 20.1954Z" fill="#808080"/>
<path d="M41.8937 37.1724C41.9975 36.7645 41.8838 36.3319 41.5946 36.023C40.1807 34.52 38.4083 33.4695 36.4704 32.985L29.6603 31.2794L29.1536 29.2623C30.958 27.4183 32.2039 24.9439 32.6192 22.3979C33.6821 22.0172 34.4854 21.0655 34.6313 19.8914L35.0886 16.2354C35.1949 15.3727 34.9304 14.5026 34.3594 13.8451C34.0776 13.5237 33.734 13.2691 33.3533 13.0887L33.5066 9.99635L34.1072 9.39321C35.2171 8.21411 36.1416 6.20199 34.2432 3.30245C32.8095 1.10988 30.392 0 27.0524 0C25.7646 0 22.8107 0 20.0273 1.83415C12.0035 2.03437 10.9604 6.00424 10.9604 9.45748C10.9604 10.2411 11.1334 11.8898 11.2644 13.022C10.8393 13.2024 10.4537 13.4718 10.1447 13.8253C9.5613 14.4828 9.29186 15.3604 9.40062 16.2329L9.85793 19.8864C10.0137 21.1421 10.9208 22.1433 12.09 22.4621C12.5029 24.9044 13.6844 27.2897 15.3777 29.0942L14.8339 31.2769L8.02378 32.9776C3.29998 34.1591 0 38.3836 0 43.2508C0 43.933 0.553705 44.4867 1.23595 44.4867L31.9023 44.4941C32.4041 44.4941 32.8565 44.1901 33.0468 43.7229C33.2347 43.2656 33.5066 42.8577 33.8551 42.5092C35.9018 40.465 38.3342 38.9596 41.0879 38.0425C41.4858 37.909 41.7899 37.5827 41.8937 37.1724Z" fill="#808080"/>
</svg>
