<svg width="54" height="54" viewBox="0 0 54 54" fill="none" xmlns="http://www.w3.org/2000/svg">
<path d="M8.99387 6.14142e-05C6.6092 0.00217037 4.3228 0.950411 2.63658 2.63663C0.950368 4.32284 0.00212721 6.60924 1.82573e-05 8.99391C-0.00325733 10.6104 0.434284 12.1972 1.26557 13.5836L7.74519 23.3368C7.88646 23.5374 8.0733 23.7017 8.29036 23.8161C8.50742 23.9305 8.74852 23.9918 8.99387 23.9949C9.23994 23.9956 9.48243 23.936 9.70012 23.8213C9.91781 23.7066 10.104 23.5402 10.2425 23.3368L16.7728 13.5161C17.5734 12.1498 17.9983 10.5961 18.0045 9.01249C18.0107 7.42892 17.5979 5.87188 16.8079 4.49937C16.018 3.12686 14.8791 1.98772 13.5067 1.19753C12.1344 0.407332 10.5774 -0.00579527 8.99387 6.14142e-05ZM8.99387 11.9975C8.40221 11.9958 7.8243 11.8189 7.33304 11.4892C6.84179 11.1594 6.4592 10.6916 6.23356 10.1446C6.00791 9.5977 5.94931 8.99618 6.06514 8.41597C6.18098 7.83575 6.46607 7.30285 6.88444 6.88448C7.3028 6.46611 7.83571 6.18102 8.41592 6.06519C8.99614 5.94935 9.59766 6.00795 10.1446 6.2336C10.6915 6.45925 11.1594 6.84183 11.4892 7.33309C11.8189 7.82434 11.9958 8.40225 11.9974 8.99391C11.9999 9.38903 11.9239 9.78072 11.7738 10.1462C11.6238 10.5118 11.4026 10.8439 11.1232 11.1233C10.8438 11.4027 10.5117 11.6238 10.1462 11.7739C9.78067 11.9239 9.38899 11.9999 8.99387 11.9975Z" fill="#F87E3A"/>
<path d="M38.0293 10.4967C33.7973 10.5022 29.7403 12.1857 26.7479 15.1781C23.7555 18.1706 22.0719 22.2276 22.0664 26.4595C22.0603 29.3038 22.8241 32.0968 24.2769 34.5421L36.7806 53.3229C36.9155 53.531 37.1005 53.7019 37.3187 53.8199C37.5369 53.9378 37.7812 53.999 38.0293 53.9979C38.2769 53.9971 38.5205 53.935 38.7384 53.8172C38.9563 53.6995 39.1417 53.5297 39.278 53.3229L50.7692 36.0777L51.8154 34.4746C53.2504 32.0481 54.0025 29.2786 53.9921 26.4595C53.9866 22.2276 52.303 18.1706 49.3106 15.1782C46.3182 12.1857 42.2612 10.5022 38.0293 10.4967ZM38.0293 32.2473C36.8845 32.2473 35.7655 31.9078 34.8137 31.2719C33.8619 30.6359 33.1201 29.732 32.682 28.6744C32.244 27.6168 32.1294 26.4531 32.3527 25.3303C32.576 24.2076 33.1272 23.1763 33.9367 22.3669C34.7461 21.5575 35.7774 21.0062 36.9001 20.7829C38.0228 20.5596 39.1866 20.6742 40.2442 21.1123C41.3017 21.5503 42.2057 22.2922 42.8416 23.244C43.4776 24.1958 43.817 25.3148 43.817 26.4595C43.8172 27.2196 43.6676 27.9723 43.3768 28.6746C43.0861 29.3769 42.6597 30.015 42.1222 30.5525C41.5848 31.09 40.9467 31.5163 40.2444 31.8071C39.5421 32.0979 38.7894 32.2475 38.0293 32.2473Z" fill="#F87E3A"/>
<path d="M31.4986 50.9962C25.9313 50.9899 20.5938 48.7755 16.6571 44.8389C12.7204 40.9022 10.5061 35.5647 10.4998 29.9974V28.4975C10.4998 28.0997 10.3418 27.7182 10.0605 27.4369C9.77923 27.1556 9.39772 26.9976 8.99991 26.9976C8.60211 26.9976 8.2206 27.1556 7.93931 27.4369C7.65803 27.7182 7.5 28.0997 7.5 28.4975V29.9974C7.50728 36.36 10.038 42.4599 14.5371 46.9589C19.0361 51.458 25.136 53.9887 31.4986 53.996C31.8964 53.996 32.2779 53.838 32.5592 53.5567C32.8405 53.2754 32.9985 52.8939 32.9985 52.4961C32.9985 52.0983 32.8405 51.7168 32.5592 51.4355C32.2779 51.1542 31.8964 50.9962 31.4986 50.9962Z" fill="#F87E3A"/>
</svg>
