<svg width="54" height="54" viewBox="0 0 54 54" fill="none" xmlns="http://www.w3.org/2000/svg">
<path d="M3.375 6.75C3.375 4.95979 4.08616 3.2429 5.35203 1.97703C6.6179 0.711159 8.33479 0 10.125 0L30.375 0C32.1652 0 33.8821 0.711159 35.148 1.97703C36.4138 3.2429 37.125 4.95979 37.125 6.75V33.75C38.9152 33.75 40.6321 34.4612 41.898 35.727C43.1638 36.9929 43.875 38.7098 43.875 40.5V42.1875C43.875 42.6351 44.0528 43.0643 44.3693 43.3807C44.6857 43.6972 45.1149 43.875 45.5625 43.875C46.0101 43.875 46.4393 43.6972 46.7557 43.3807C47.0722 43.0643 47.25 42.6351 47.25 42.1875V27H45.5625C45.1149 27 44.6857 26.8222 44.3693 26.5057C44.0528 26.1893 43.875 25.7601 43.875 25.3125V14.7656C43.875 14.3181 44.0528 13.8889 44.3693 13.5724C44.6857 13.2559 45.1149 13.0781 45.5625 13.0781H50.6081C50.571 11.4716 50.4292 10.0609 49.9297 8.95388C49.6623 8.31021 49.1965 7.76868 48.6 7.40812C47.979 7.03687 47.034 6.75 45.5625 6.75C45.1149 6.75 44.6857 6.57221 44.3693 6.25574C44.0528 5.93928 43.875 5.51005 43.875 5.0625C43.875 4.61495 44.0528 4.18572 44.3693 3.86926C44.6857 3.55279 45.1149 3.375 45.5625 3.375C47.466 3.375 49.0522 3.74625 50.328 4.509C51.6206 5.2785 52.4678 6.36863 53.0078 7.57013C54.0034 9.78075 54 12.5145 54 14.5935V25.3125C54 25.7601 53.8222 26.1893 53.5057 26.5057C53.1893 26.8222 52.7601 27 52.3125 27H50.625V42.1875C50.625 43.5302 50.0916 44.8178 49.1422 45.7672C48.1928 46.7166 46.9052 47.25 45.5625 47.25C44.2198 47.25 42.9322 46.7166 41.9828 45.7672C41.0334 44.8178 40.5 43.5302 40.5 42.1875V40.5C40.5 39.6049 40.1444 38.7465 39.5115 38.1135C38.8785 37.4806 38.0201 37.125 37.125 37.125V50.625H38.8125C39.2601 50.625 39.6893 50.8028 40.0057 51.1193C40.3222 51.4357 40.5 51.8649 40.5 52.3125C40.5 52.7601 40.3222 53.1893 40.0057 53.5057C39.6893 53.8222 39.2601 54 38.8125 54H1.6875C1.23995 54 0.810725 53.8222 0.494257 53.5057C0.17779 53.1893 0 52.7601 0 52.3125C0 51.8649 0.17779 51.4357 0.494257 51.1193C0.810725 50.8028 1.23995 50.625 1.6875 50.625H3.375V6.75ZM11.8125 6.75C11.3649 6.75 10.9357 6.92779 10.6193 7.24426C10.3028 7.56073 10.125 7.98995 10.125 8.4375V25.3125C10.125 25.7601 10.3028 26.1893 10.6193 26.5057C10.9357 26.8222 11.3649 27 11.8125 27H28.6875C29.1351 27 29.5643 26.8222 29.8807 26.5057C30.1972 26.1893 30.375 25.7601 30.375 25.3125V8.4375C30.375 7.98995 30.1972 7.56073 29.8807 7.24426C29.5643 6.92779 29.1351 6.75 28.6875 6.75H11.8125Z" fill="#F87E3A"/>
</svg>
