<svg width="52" height="52" viewBox="0 0 52 52" fill="none" xmlns="http://www.w3.org/2000/svg">
<path d="M33.8227 0C38.8864 0 43.1823 1.76627 46.7104 5.2988C50.2385 8.83133 52.0017 13.1317 52 18.2H46.8065C46.8065 16.4667 46.4923 14.8521 45.8639 13.3562C45.2355 11.8603 44.3811 10.5283 43.3009 9.36L39.7303 15.405C39.2975 16.0983 38.8327 16.8567 38.3359 17.68C37.839 18.5033 37.3084 19.2183 36.7441 19.825C36.1382 20.475 35.3808 20.8 34.4719 20.8C33.563 20.8 32.784 20.4967 32.1348 19.89C31.4856 19.2833 31.161 18.525 31.161 17.615C31.161 16.705 31.4856 15.925 32.1348 15.275C32.7407 14.6683 33.4661 14.1267 34.3109 13.65C35.1557 13.1733 35.9235 12.7183 36.6142 12.285L42.6517 8.71C41.4831 7.62667 40.1519 6.7704 38.6579 6.1412C37.1639 5.512 35.5522 5.19827 33.8227 5.2V0ZM26.2272 52C22.5918 52 19.184 51.3067 16.0038 49.92C12.8236 48.5333 10.0538 46.6587 7.69418 44.2962C5.3346 41.9354 3.46234 39.1621 2.0774 35.9762C0.692468 32.7903 0 29.3783 0 25.74C0 19.4133 2.01249 13.8337 6.03745 9.0012C10.0624 4.16867 15.191 1.16827 21.4232 0C20.6442 4.29 20.8822 8.48293 22.1373 12.5788C23.3924 16.6747 25.5564 20.2601 28.6292 23.335C31.702 26.4117 35.2838 28.5783 39.3746 29.835C43.4653 31.0917 47.6522 31.33 51.9351 30.55C50.8098 36.79 47.8236 41.925 42.9763 45.955C38.129 49.985 32.546 52 26.2272 52Z" fill="#808080"/>
</svg>
