<svg width="50" height="55" viewBox="0 0 50 55" fill="none" xmlns="http://www.w3.org/2000/svg">
<g clip-path="url(#clip0_4061_195)">
<path d="M23.1875 26.5C26.7016 26.5 30.0718 25.104 32.5567 22.6192C35.0415 20.1343 36.4375 16.7641 36.4375 13.25C36.4375 9.73588 35.0415 6.36569 32.5567 3.88084C30.0718 1.39598 26.7016 0 23.1875 0C19.6734 0 16.3032 1.39598 13.8183 3.88084C11.3335 6.36569 9.9375 9.73588 9.9375 13.25C9.9375 16.7641 11.3335 20.1343 13.8183 22.6192C16.3032 25.104 19.6734 26.5 23.1875 26.5ZM18.4568 31.4688C8.26055 31.4688 0 39.7293 0 49.9256C0 51.6232 1.37676 53 3.07441 53H43.3006C44.9982 53 46.375 51.6232 46.375 49.9256C46.375 39.7293 38.1145 31.4688 27.9182 31.4688H18.4568Z" fill="#808080"/>
<path d="M42.5 55C46.6421 55 50 51.6421 50 47.5C50 43.3579 46.6421 40 42.5 40C38.3579 40 35 43.3579 35 47.5C35 51.6421 38.3579 55 42.5 55Z" fill="#F04A49"/>
</g>
<defs>
<clipPath id="clip0_4061_195">
<rect width="50" height="55" fill="white"/>
</clipPath>
</defs>
</svg>
