<svg width="66" height="57" viewBox="0 0 66 57" fill="none" xmlns="http://www.w3.org/2000/svg">
<path d="M55.9449 9.54116C49.9075 3.53987 41.7742 0.119779 33.2623 0.00308676C24.7505 -0.113605 16.5264 3.08224 10.3268 8.91577C4.12724 14.7493 0.437386 22.7639 0.0364478 31.2671C-0.36449 39.7703 2.55488 48.0965 8.17807 54.4875L8.20268 54.5148C8.2478 54.5626 8.29018 54.6119 8.3394 54.6584C8.44057 54.7732 8.55542 54.9031 8.69077 55.0384C9.22158 55.6026 9.86314 56.0512 10.5753 56.356C11.2874 56.6609 12.0548 56.8154 12.8295 56.81C13.6041 56.8046 14.3693 56.6394 15.0771 56.3247C15.7849 56.01 16.4202 55.5525 16.9431 54.981C18.9551 52.7943 21.399 51.0488 24.1201 49.8548C26.8412 48.6608 29.7804 48.0444 32.7519 48.0444C35.7234 48.0444 38.6626 48.6608 41.3837 49.8548C44.1048 51.0488 46.5487 52.7943 48.5607 54.981C49.0875 55.5555 49.7278 56.0144 50.4412 56.3286C51.1546 56.6428 51.9254 56.8054 52.7049 56.8062C53.4844 56.807 54.2555 56.6459 54.9695 56.3331C55.6835 56.0203 56.3248 55.5627 56.8527 54.9892L57.2915 54.5107L57.3162 54.4834C62.8567 48.2269 65.8005 40.0916 65.5464 31.7384C65.2923 23.3851 61.8596 15.4438 55.949 9.5357L55.9449 9.54116ZM30.5562 10.8742C30.5562 10.294 30.7867 9.73761 31.1969 9.32738C31.6071 8.91714 32.1635 8.68667 32.7437 8.68667C33.3239 8.68667 33.8803 8.91714 34.2905 9.32738C34.7007 9.73761 34.9312 10.294 34.9312 10.8742V15.2492C34.9312 15.8293 34.7007 16.3857 34.2905 16.796C33.8803 17.2062 33.3239 17.4367 32.7437 17.4367C32.1635 17.4367 31.6071 17.2062 31.1969 16.796C30.7867 16.3857 30.5562 15.8293 30.5562 15.2492V10.8742ZM15.2437 34.9367H10.8687C10.2885 34.9367 9.73214 34.7062 9.3219 34.296C8.91166 33.8857 8.6812 33.3293 8.6812 32.7492C8.6812 32.169 8.91166 31.6126 9.3219 31.2024C9.73214 30.7921 10.2885 30.5617 10.8687 30.5617H15.2437C15.8239 30.5617 16.3803 30.7921 16.7905 31.2024C17.2007 31.6126 17.4312 32.169 17.4312 32.7492C17.4312 33.3293 17.2007 33.8857 16.7905 34.296C16.3803 34.7062 15.8239 34.9367 15.2437 34.9367ZM21.9156 21.921C21.5054 22.331 20.9492 22.5612 20.3693 22.5612C19.7894 22.5612 19.2332 22.331 18.823 21.921L15.729 18.8285C15.3188 18.4182 15.0883 17.8617 15.0883 17.2815C15.0883 16.7013 15.3188 16.1448 15.729 15.7345C16.1393 15.3242 16.6958 15.0937 17.276 15.0937C17.8562 15.0937 18.4127 15.3242 18.823 15.7345L21.9156 18.8285C22.3255 19.2387 22.5558 19.7948 22.5558 20.3748C22.5558 20.9547 22.3255 21.5109 21.9156 21.921ZM42.3277 25.0793L35.8335 35.4015C35.5679 35.7697 35.2447 36.0929 34.8765 36.3585C33.9876 36.9787 32.89 37.2232 31.8218 37.0391C30.7537 36.855 29.8013 36.257 29.1714 35.3751C28.5414 34.4931 28.2847 33.3982 28.4569 32.3282C28.6291 31.2581 29.2164 30.2991 30.0914 29.6593L40.4136 23.1652C40.6483 23.0016 40.9274 22.9139 41.2134 22.9139C41.4994 22.9139 41.7786 23.0016 42.0132 23.1652C42.3079 23.3779 42.5064 23.6987 42.5653 24.0573C42.6242 24.416 42.5388 24.7834 42.3277 25.0793ZM46.6644 21.921C46.2508 22.314 45.7001 22.5298 45.1297 22.5225C44.5593 22.5152 44.0143 22.2853 43.6109 21.882C43.2075 21.4786 42.9777 20.9336 42.9704 20.3632C42.9631 19.7927 43.1789 19.242 43.5718 18.8285L46.6644 15.7345C47.0747 15.3242 47.6311 15.0937 48.2114 15.0937C48.7916 15.0937 49.3481 15.3242 49.7583 15.7345C50.1686 16.1448 50.3991 16.7013 50.3991 17.2815C50.3991 17.8617 50.1686 18.4182 49.7583 18.8285L46.6644 21.921ZM54.6187 34.9367H50.2437C49.6635 34.9367 49.1071 34.7062 48.6969 34.296C48.2867 33.8857 48.0562 33.3293 48.0562 32.7492C48.0562 32.169 48.2867 31.6126 48.6969 31.2024C49.1071 30.7921 49.6635 30.5617 50.2437 30.5617H54.6187C55.1989 30.5617 55.7553 30.7921 56.1655 31.2024C56.5757 31.6126 56.8062 32.169 56.8062 32.7492C56.8062 33.3293 56.5757 33.8857 56.1655 34.296C55.7553 34.7062 55.1989 34.9367 54.6187 34.9367Z" fill="#F87E3A"/>
</svg>
