<svg width="146" height="67" viewBox="0 0 146 67" fill="none" xmlns="http://www.w3.org/2000/svg">
<path d="M0 10C0 4.47715 4.47715 0 10 0H136C141.523 0 146 4.47715 146 10V57C146 62.5228 141.523 67 136 67H10C4.47715 67 0 62.5228 0 57V10Z" fill="#CF3B43"/>
<path d="M56.76 20.44H63.04V43.72H76.96V49H56.76V20.44ZM85.7109 25.12H80.0309V20.44H85.7109V25.12ZM80.0309 28.32H85.7109V49H80.0309V28.32ZM101.623 49H95.3034L88.2234 28.32H94.1834L98.5434 42.44H98.6234L102.983 28.32H108.623L101.623 49ZM124.885 36.44C124.618 35 124.138 33.9067 123.445 33.16C122.778 32.4133 121.751 32.04 120.365 32.04C119.458 32.04 118.698 32.2 118.085 32.52C117.498 32.8133 117.018 33.1867 116.645 33.64C116.298 34.0933 116.045 34.5733 115.885 35.08C115.751 35.5867 115.671 36.04 115.645 36.44H124.885ZM115.645 40.04C115.725 41.88 116.191 43.2133 117.045 44.04C117.898 44.8667 119.125 45.28 120.725 45.28C121.871 45.28 122.858 45 123.685 44.44C124.511 43.8533 125.018 43.24 125.205 42.6H130.205C129.405 45.08 128.178 46.8533 126.525 47.92C124.871 48.9867 122.871 49.52 120.525 49.52C118.898 49.52 117.431 49.2667 116.125 48.76C114.818 48.2267 113.711 47.48 112.805 46.52C111.898 45.56 111.191 44.4133 110.685 43.08C110.205 41.7467 109.965 40.28 109.965 38.68C109.965 37.1333 110.218 35.6933 110.725 34.36C111.231 33.0267 111.951 31.88 112.885 30.92C113.818 29.9333 114.925 29.16 116.205 28.6C117.511 28.04 118.951 27.76 120.525 27.76C122.285 27.76 123.818 28.1067 125.125 28.8C126.431 29.4667 127.498 30.3733 128.325 31.52C129.178 32.6667 129.791 33.9733 130.165 35.44C130.538 36.9067 130.671 38.44 130.565 40.04H115.645Z" fill="white"/>
<circle opacity="0.2" cx="28.5" cy="33.5" r="15.5" fill="white"/>
<circle cx="28.5" cy="33.5" r="7.75" fill="white"/>
</svg>
