<svg width="120" height="120" viewBox="0 0 120 120" fill="none" xmlns="http://www.w3.org/2000/svg">
<circle cx="60" cy="60" r="56" fill="#717275"/>
<circle cx="60" cy="60" r="60" fill="#808080"/>
<path fill-rule="evenodd" clip-rule="evenodd" d="M32 87.2307V87.1497V87.0687C33.9653 81.21 37.6831 76.1273 42.63 72.5362C47.5769 68.9452 53.5037 67.0265 59.5761 67.0503C65.6484 67.0742 71.5606 69.0394 76.4802 72.6692C81.3997 76.2991 85.079 81.4108 87 87.2848V87.332L82.1325 89V88.9527C80.5436 84.1458 77.5198 79.9661 73.4849 76.9991C69.4499 74.0322 64.6058 72.4265 59.6311 72.4072C54.6565 72.3878 49.8005 73.9557 45.7434 76.8912C41.6864 79.8267 38.6314 83.9827 37.0066 88.7772V88.8582V88.9325L32 87.2307ZM59.649 30.0001C63.3257 30.0093 66.8855 31.318 69.7221 33.7032C72.5587 36.0884 74.4966 39.4026 75.2057 43.0813C75.9148 46.76 75.3512 50.5755 73.6109 53.878C71.8707 57.1805 69.0614 59.7657 65.6617 61.1932C62.2619 62.6206 58.482 62.802 54.9658 61.7066C51.4496 60.6111 48.4146 58.3065 46.3778 55.1853C44.341 52.0641 43.4283 48.3194 43.7954 44.5891C44.1624 40.8587 45.7864 37.3735 48.3907 34.7272C49.8684 33.2204 51.624 32.027 53.5563 31.2156C55.4886 30.4043 57.5593 29.9912 59.649 30.0001ZM67.1854 38.5088C65.4427 36.7309 63.1493 35.6242 60.696 35.3772C58.2428 35.1302 55.7814 35.7582 53.7313 37.1542C51.6813 38.5502 50.1693 40.6278 49.453 43.0331C48.7368 45.4384 48.8606 48.0225 49.8033 50.3451C50.7461 52.6678 52.4495 54.5852 54.6232 55.7709C56.797 56.9565 59.3067 57.3368 61.7246 56.8472C64.1426 56.3575 66.3193 55.0282 67.8838 53.0855C69.4483 51.1429 70.3038 48.7072 70.3046 46.1935C70.3084 44.766 70.0346 43.3519 69.4992 42.0328C68.9639 40.7138 68.1774 39.5161 67.1854 38.5088Z" fill="white"/>
</svg>
