<svg width="154" height="191" viewBox="0 0 154 191" fill="none" xmlns="http://www.w3.org/2000/svg">
<path d="M29.9523 73.4974C26.8096 57.9914 29.1514 36.3382 39.3681 32.5816C38.9128 27.2557 38.9413 20.9093 39.0836 15.6404C39.234 9.98923 39.5999 5.78543 37.7094 6.04563C35.4449 6.36274 27.9561 21.4948 26.3421 40.8875C25.7607 47.8925 26.277 54.9056 27.2731 61.2845C27.948 65.3988 28.8465 69.4766 29.9523 73.4974Z" fill="#BE1E2D"/>
<path d="M118.884 73.4975C119.986 69.4766 120.888 65.3988 121.563 61.2845C122.563 54.9056 123.072 47.8884 122.49 40.8875C120.88 21.4989 113.396 6.36275 111.119 6.04564C109.236 5.78544 109.602 9.98517 109.749 15.6404C109.895 20.9094 109.919 27.2598 109.464 32.5816C119.681 36.3382 122.023 57.9914 118.884 73.4975Z" fill="#BE1E2D"/>
<path d="M54.0203 43.1519C59.9601 57.4221 63.5296 72.9078 64.4444 76.3879C65.477 74.9487 69.5101 71.2572 74.4253 71.2572C79.3447 71.2572 83.2923 74.9487 84.3209 76.3879C85.2397 72.9078 88.8093 57.4261 94.7491 43.1519C94.4726 40.4727 93.0416 32.5571 92.4195 29.6908C91.2608 24.3243 85.8455 0 74.4213 0C62.997 0 57.4963 24.3243 56.3417 29.6908C55.7278 32.5571 54.2927 40.4727 54.0203 43.1519Z" fill="#EF4136"/>
<path d="M51.3949 38.5576C53.3382 26.9138 55.2734 19.982 57.6843 13.5625C53.1349 14.3431 47.9107 25.0071 46.2682 33.1748C48.8376 34.862 51.2688 38.3625 51.3949 38.5576Z" fill="#BE1E2D"/>
<path d="M102.523 33.1795C100.888 25.0077 95.6559 14.3397 91.1066 13.5591C93.5174 19.9827 95.4445 26.9104 97.3919 38.5623C97.5261 38.3631 99.9492 34.8626 102.523 33.1795Z" fill="#BE1E2D"/>
<path d="M89.984 121.735C102.477 120.841 111.544 115.434 113.507 113.706C115.495 111.966 116.699 110.482 114.597 110.189C112.649 109.917 105.12 112.811 102.807 113.523C102.807 113.523 102.116 113.734 102.12 113.515C102.124 113.303 103.234 112.925 103.234 112.925C119.362 107.042 129.408 95.2767 128.627 92.5202C127.562 90.1297 121.057 96.8216 116.219 99.7976C116.219 99.7976 115.764 100.078 115.756 99.8911C115.747 99.7976 116.3 99.3382 116.3 99.3382C128.749 89.4914 133.803 70.7817 131.632 69.1107C130.473 68.7245 128.432 73.2576 125.489 78.7624C123.232 82.9662 121.057 85.6982 121.057 85.6982C121.057 85.6982 120.862 85.9584 120.752 85.9259C120.667 85.9015 120.813 85.6169 120.813 85.6169C129.753 67.1633 130.758 54.1535 131.062 48.1852C131.75 34.7323 129.331 34.0777 128.359 38.4563C127.229 43.5424 125.883 50.0798 124.903 56.5237C122.183 74.3024 114.56 92.0039 108.531 101.66C107.633 103.074 106.868 102.973 106.685 102.696C106.523 102.465 106.624 102.152 107.181 101.123C124.537 69.0538 117.162 36.7651 106.897 36.3951C97.0459 36.0373 87.6341 74.8472 86.5323 79.1039C93.1795 90.4509 94.7569 106.168 94.2813 110.136C94.2447 110.466 93.9642 110.73 93.6227 110.742C93.2486 110.75 92.9396 110.462 92.9274 110.075C92.9274 102.847 87.4308 75.2985 74.5104 75.2985C61.5941 75.2985 56.0975 102.851 56.0975 110.075C56.0853 110.462 55.7722 110.75 55.3982 110.742C55.0608 110.734 54.7843 110.466 54.7436 110.136C54.268 106.168 55.8454 90.4509 62.4885 79.1039C61.3908 74.8472 51.975 36.0373 42.1282 36.3951C31.8586 36.7651 24.4836 69.0538 41.8395 101.123C42.3965 102.152 42.4982 102.465 42.3315 102.696C42.1526 102.973 41.3923 103.074 40.4898 101.66C34.4605 92.0039 26.8376 74.3024 24.1218 56.5237C23.1339 50.0798 21.7922 43.5424 20.6579 38.4563C19.6863 34.0777 17.2713 34.7323 17.9584 48.1852C18.2552 54.1576 19.2675 67.1674 28.2036 85.6169C28.2036 85.6169 28.3541 85.8974 28.2646 85.9259C28.1548 85.9584 27.9638 85.6982 27.9638 85.6982C27.9638 85.6982 25.7846 82.9662 23.5282 78.7624C20.5807 73.2576 18.5398 68.7285 17.3892 69.1107C15.2141 70.7776 20.2676 89.4873 32.7164 99.3382C32.7164 99.3382 33.2734 99.7935 33.2612 99.8911C33.249 100.082 32.8058 99.7976 32.8058 99.7976C27.9678 96.8216 21.4588 90.1297 20.3977 92.5202C19.6171 95.2767 29.655 107.042 45.7872 112.925C45.7872 112.925 46.9012 113.307 46.9052 113.515C46.9052 113.734 46.2141 113.523 46.2141 113.523C43.9008 112.816 36.3673 109.917 34.4239 110.189C32.318 110.482 33.5295 111.966 35.5176 113.706C37.4812 115.434 46.5475 120.841 59.0328 121.735C59.1344 122.862 63.4683 126.801 74.4942 126.801C85.5159 126.801 89.8905 122.862 89.984 121.735Z" fill="#F26522"/>
<path d="M0.00671387 141.802H4.04789V167.817H17.7326V171.606H0.0107803V141.802H0.00671387Z" fill="#4F5252"/>
<path d="M21.8508 141.802H25.892V171.606H21.8508V141.802Z" fill="#4F5252"/>
<path d="M31.0297 141.802H41.3887C42.6775 141.802 43.8768 141.956 44.9867 142.265C46.0966 142.574 47.048 143.03 47.8489 143.635C48.6458 144.237 49.28 145.009 49.7435 145.949C50.2069 146.888 50.4346 147.99 50.4346 149.254C50.4346 150.97 49.9589 152.364 49.0035 153.446C48.0522 154.527 46.8163 155.32 45.2998 155.824V155.909C46.1983 155.966 47.0399 156.198 47.8286 156.6C48.6132 157.007 49.2922 157.544 49.8695 158.202C50.4427 158.861 50.9021 159.625 51.2396 160.495C51.577 161.369 51.7437 162.308 51.7437 163.317C51.7437 164.667 51.4673 165.854 50.9225 166.878C50.3736 167.903 49.6215 168.765 48.6702 169.468C47.7147 170.171 46.6089 170.704 45.3445 171.066C44.0801 171.432 42.7222 171.615 41.2586 171.615H31.0297V141.802ZM35.0708 154.177H40.5837C41.344 154.177 42.0595 154.1 42.7304 153.946C43.4052 153.791 43.9947 153.531 44.4989 153.169C45.003 152.803 45.4014 152.34 45.6982 151.779C45.9909 151.218 46.1414 150.526 46.1414 149.713C46.1414 148.534 45.7633 147.51 45.003 146.64C44.2468 145.77 43.0515 145.335 41.4253 145.335H35.0668V154.177H35.0708ZM35.0708 168.069H41.0066C41.6245 168.069 42.3075 168.008 43.0475 167.882C43.7915 167.752 44.4867 167.5 45.1331 167.122C45.7795 166.74 46.3243 166.228 46.7756 165.585C47.2228 164.939 47.4505 164.085 47.4505 163.016C47.4505 161.247 46.8772 159.918 45.7226 159.036C44.5721 158.153 43.0149 157.71 41.0513 157.71H35.0749V168.069H35.0708Z" fill="#4F5252"/>
<path d="M55.88 141.802H75.1183V145.591H59.9212V154.474H74.0693V158.263H59.9212V167.817H75.8785V171.606H55.88V141.802Z" fill="#4F5252"/>
<path d="M79.9078 141.802H90.3889C92.2997 141.802 93.869 142.062 95.1049 142.578C96.3409 143.099 97.3166 143.757 98.0321 144.558C98.7477 145.355 99.2477 146.258 99.5242 147.25C99.8088 148.25 99.9429 149.205 99.9429 150.132C99.9429 151.088 99.7763 152.006 99.4429 152.889C99.1054 153.775 98.6216 154.572 97.9874 155.287C97.3572 156.003 96.5848 156.609 95.6741 157.096C94.7593 157.588 93.747 157.893 92.6209 158.003L101.085 171.602H96.0319L88.4577 158.467H83.949V171.602H79.9119V141.802H79.9078ZM83.949 154.938H89.2546C90.0392 154.938 90.8239 154.877 91.5923 154.747C92.3607 154.62 93.0518 154.389 93.6535 154.055C94.2593 153.718 94.7431 153.234 95.1049 152.6C95.4708 151.97 95.6538 151.148 95.6538 150.136C95.6538 149.128 95.4708 148.307 95.1049 147.672C94.7431 147.042 94.2593 146.558 93.6535 146.221C93.0477 145.888 92.3607 145.652 91.5923 145.53C90.8198 145.4 90.0392 145.339 89.2546 145.339H83.949V154.938Z" fill="#4F5252"/>
<path d="M111.111 145.591H101.512V141.802H124.751V145.591H115.152V171.606H111.107V145.591H111.111Z" fill="#4F5252"/>
<path d="M137.753 158.893L126.471 141.802H131.651L139.778 154.893L148.153 141.802H153.081L141.799 158.893V171.606H137.757V158.893H137.753Z" fill="#4F5252"/>
<path d="M0 176.031H1.97993V188.777H8.68405V190.635H0V176.031Z" fill="#F26522"/>
<path d="M15.287 176.031H17.0799L23.3327 190.639H21.0194L19.5558 187.029H12.6037L11.1604 190.639H8.8512L15.287 176.031ZM18.8322 185.293L16.1082 178.588H16.0676L13.303 185.293H18.8322Z" fill="#F26522"/>
<path d="M26.3879 177.885H21.6841V176.031H33.0717V177.885H28.3679V190.635H26.3879V177.885Z" fill="#F26522"/>
<path d="M35.1647 176.031H37.1446V190.639H35.1647V176.031Z" fill="#F26522"/>
<path d="M40.9005 176.031H43.5025L51.5482 188.037H51.5889V176.031H53.5688V190.639H51.0482L42.9211 178.629H42.8804V190.639H40.9005V176.031Z" fill="#F26522"/>
<path d="M67.6373 176.031H69.4302L75.6831 190.639H73.3698L71.9062 187.029H64.954L63.5108 190.639H61.2015L67.6373 176.031ZM71.1825 185.293L68.4586 178.588H68.4179L65.6533 185.293H71.1825Z" fill="#F26522"/>
<path d="M77.445 176.031H80.3925L85.0354 187.09H85.1208L89.7189 176.031H92.6665V190.639H90.6865V178.629H90.6459L85.7143 190.639H84.393L79.4615 178.629H79.4208V190.639H77.4409V176.031H77.445Z" fill="#F26522"/>
<path d="M95.8025 176.031H105.231V177.885H97.7825V182.239H104.71V184.093H97.7825V188.777H105.596V190.635H95.7985V176.031H95.8025Z" fill="#F26522"/>
<path d="M107.983 176.031H113.122C114.053 176.031 114.826 176.157 115.427 176.413C116.037 176.67 116.513 176.991 116.863 177.381C117.212 177.775 117.456 178.214 117.594 178.706C117.733 179.194 117.802 179.666 117.802 180.117C117.802 180.585 117.716 181.032 117.554 181.467C117.391 181.902 117.151 182.296 116.846 182.642C116.533 182.996 116.155 183.288 115.712 183.532C115.265 183.772 114.765 183.918 114.216 183.975L118.359 190.639H115.883L112.171 184.203H109.963V190.639H107.983V176.031ZM109.967 182.467H112.569C112.952 182.467 113.334 182.439 113.716 182.374C114.094 182.313 114.431 182.195 114.724 182.032C115.021 181.869 115.257 181.634 115.436 181.321C115.614 181.012 115.704 180.613 115.704 180.117C115.704 179.621 115.61 179.219 115.436 178.91C115.257 178.601 115.021 178.365 114.724 178.202C114.427 178.036 114.094 177.922 113.716 177.861C113.334 177.8 112.956 177.767 112.569 177.767H109.967V182.467Z" fill="#F26522"/>
<path d="M120.605 176.031H122.585V190.639H120.605V176.031Z" fill="#F26522"/>
<path d="M136.092 179.185C135.677 178.649 135.157 178.238 134.522 177.949C133.892 177.661 133.238 177.514 132.559 177.514C131.737 177.514 130.989 177.669 130.323 177.982C129.652 178.291 129.083 178.714 128.607 179.25C128.135 179.787 127.765 180.417 127.505 181.137C127.245 181.86 127.115 182.633 127.115 183.458C127.115 184.226 127.241 184.954 127.489 185.641C127.733 186.332 128.095 186.934 128.562 187.459C129.03 187.983 129.599 188.394 130.274 188.695C130.945 188.999 131.713 189.15 132.563 189.15C133.404 189.15 134.14 188.975 134.774 188.634C135.405 188.288 135.945 187.804 136.384 187.19L138.051 188.447C137.941 188.597 137.75 188.812 137.474 189.097C137.197 189.378 136.836 189.662 136.38 189.943C135.929 190.223 135.376 190.471 134.738 190.683C134.095 190.898 133.36 191 132.518 191C131.363 191 130.323 190.78 129.392 190.341C128.465 189.902 127.672 189.325 127.021 188.609C126.371 187.894 125.871 187.085 125.525 186.186C125.184 185.288 125.009 184.373 125.009 183.454C125.009 182.324 125.196 181.283 125.566 180.328C125.936 179.372 126.456 178.543 127.123 177.852C127.79 177.156 128.591 176.616 129.526 176.234C130.461 175.847 131.493 175.656 132.62 175.656C133.579 175.656 134.526 175.839 135.457 176.213C136.384 176.587 137.145 177.156 137.738 177.929L136.092 179.185Z" fill="#F26522"/>
<path d="M145.017 176.031H146.81L153.063 190.639H150.749L149.286 187.029H142.329L140.886 190.639H138.577L145.017 176.031ZM148.562 185.293L145.838 178.588H145.797L143.033 185.293H148.562Z" fill="#F26522"/>
</svg>
