<svg width="53" height="58" viewBox="0 0 53 58" fill="none" xmlns="http://www.w3.org/2000/svg">
<path d="M13.6756 0.811912C11.139 0.720617 9.05111 1.53545 9.01101 2.63355L8.76101 9.46449C5.86601 10.078 3.88482 11.351 3.8285 12.8893L0.541875 51.828C0.508599 51.968 0.487268 52.1096 0.480442 52.2547C0.478736 52.3314 0.480443 52.4082 0.487269 52.4859L0.463379 52.7691L0.523957 52.7709C1.02565 55.3024 5.84724 57.4406 11.7985 57.659C18.1499 57.8919 23.3811 55.8493 23.4826 53.0959L23.329 40.0143H29.7402L29.741 52.7845C29.7197 52.9262 29.7103 53.0695 29.7163 53.2128C29.7197 53.2896 29.7299 53.3681 29.741 53.4432V53.7282L29.8007 53.7231C30.5149 56.206 35.5003 57.9295 41.4481 57.6462C47.7961 57.3433 52.837 54.8681 52.7048 52.1173L48.9224 12.7921C48.8456 11.1803 46.6631 9.88598 43.5351 9.34247L43.2152 2.61137C43.1631 1.51497 41.0659 0.721471 38.5335 0.843482C35.9986 0.963787 33.9875 1.95353 34.0387 3.04993L34.3655 9.87745C31.5319 10.7341 29.6651 12.1675 29.7384 13.705V18.3875H23.079L23.0244 13.5932C23.0833 11.9798 21.0159 10.5054 17.946 9.70168L18.1926 2.96887C18.2318 1.87162 16.2105 0.904914 13.6756 0.811912Z" fill="#D2A59B"/>
</svg>
