<svg width="136" height="136" viewBox="0 0 136 136" fill="none" xmlns="http://www.w3.org/2000/svg">
<g filter="url(#filter0_f_1746_254)">
<rect x="10" y="10" width="116" height="116" rx="33" stroke="white" stroke-width="4"/>
</g>
<rect x="10" y="10" width="116" height="116" rx="31" stroke="white" stroke-width="4"/>
<g filter="url(#filter1_f_1746_254)">
<path fill-rule="evenodd" clip-rule="evenodd" d="M63.7439 38C63.4194 38 63.1151 38.1575 62.9276 38.4224L58.5181 44.6536C57.4775 46.1134 55.7479 46.8287 53.912 46.7012L46.137 46.2212C45.8194 46.2016 45.5114 46.3343 45.3075 46.5786L40.5511 52.279C40.3297 52.5443 40.261 52.9051 40.3693 53.2332L42.6694 60.1989C42.9362 61.0495 42.9704 61.9607 42.7794 62.8213C42.586 63.6718 42.1713 64.4748 41.5556 65.125L36.3745 70.6045C36.141 70.8514 36.0489 71.1999 36.1299 71.5299L37.8345 78.4759C37.9143 78.8012 38.1516 79.0648 38.4666 79.1784L45.5951 81.7475C46.4498 82.0728 47.1882 82.6014 47.7471 83.2673C48.3021 83.9352 48.6802 84.7413 48.8268 85.614L50.0384 92.932C50.0927 93.2603 50.3069 93.5401 50.6096 93.6783L57.3846 96.7714C57.6721 96.9027 58.0049 96.8903 58.2819 96.7379L64.9207 93.0856C65.716 92.6463 66.6036 92.426 67.4911 92.425C67.9526 92.4259 68.4141 92.4859 68.8642 92.6045C69.2827 92.7147 69.6899 92.8754 70.0755 93.0856L76.9871 96.7648C77.2652 96.9128 77.5968 96.9211 77.882 96.7872L84.6219 93.6218C84.9237 93.4801 85.135 93.1972 85.1853 92.8676L86.2756 85.725C86.4159 84.8474 86.7889 84.0352 87.3427 83.3616C87.8927 82.6948 88.6222 82.1635 89.4719 81.835L96.6431 79.0714C96.9524 78.9522 97.1825 78.6874 97.2575 78.3645L98.879 71.3841C98.9546 71.0586 98.8626 70.7169 98.6338 70.4733L93.4419 64.9452C92.8148 64.2927 92.3773 63.5132 92.1649 62.6848C91.9563 61.8624 91.969 60.9908 92.2332 60.1472L94.4898 53.0346C94.5931 52.7089 94.523 52.3529 94.3038 52.0908L89.6308 46.5019C89.4246 46.2553 89.1124 46.1228 88.7918 46.1459L81.0829 46.7012C80.17 46.7646 79.2724 46.5936 78.4733 46.2257C77.6692 45.8532 76.9637 45.2803 76.439 44.5499L72.0688 38.4195C71.8811 38.1563 71.5778 38 71.2545 38H63.7439ZM67.3002 77.4927C73.0201 77.4927 77.6578 73.0329 77.6578 67.5313C77.6578 62.0297 73.0201 57.5699 67.3002 57.5699C61.5803 57.5699 56.9427 62.0297 56.9427 67.5313C56.9427 73.0329 61.5803 77.4927 67.3002 77.4927Z" fill="white"/>
</g>
<path fill-rule="evenodd" clip-rule="evenodd" d="M63.7439 38C63.4194 38 63.1151 38.1575 62.9276 38.4224L58.5181 44.6536C57.4775 46.1134 55.7479 46.8287 53.912 46.7012L46.137 46.2212C45.8194 46.2016 45.5114 46.3343 45.3075 46.5786L40.5511 52.279C40.3297 52.5443 40.261 52.9051 40.3693 53.2332L42.6694 60.1989C42.9362 61.0495 42.9704 61.9607 42.7794 62.8213C42.586 63.6718 42.1713 64.4748 41.5556 65.125L36.3745 70.6045C36.141 70.8514 36.0489 71.1999 36.1299 71.5299L37.8345 78.4759C37.9143 78.8012 38.1516 79.0648 38.4666 79.1784L45.5951 81.7475C46.4498 82.0728 47.1882 82.6014 47.7471 83.2673C48.3021 83.9352 48.6802 84.7413 48.8268 85.614L50.0384 92.932C50.0927 93.2603 50.3069 93.5401 50.6096 93.6783L57.3846 96.7714C57.6721 96.9027 58.0049 96.8903 58.2819 96.7379L64.9207 93.0856C65.716 92.6463 66.6036 92.426 67.4911 92.425C67.9526 92.4259 68.4141 92.4859 68.8642 92.6045C69.2827 92.7147 69.6899 92.8754 70.0755 93.0856L76.9871 96.7648C77.2652 96.9128 77.5968 96.9211 77.882 96.7872L84.6219 93.6218C84.9237 93.4801 85.135 93.1972 85.1853 92.8676L86.2756 85.725C86.4159 84.8474 86.7889 84.0352 87.3427 83.3616C87.8927 82.6948 88.6222 82.1635 89.4719 81.835L96.6431 79.0714C96.9524 78.9522 97.1825 78.6874 97.2575 78.3645L98.879 71.3841C98.9546 71.0586 98.8626 70.7169 98.6338 70.4733L93.4419 64.9452C92.8148 64.2927 92.3773 63.5132 92.1649 62.6848C91.9563 61.8624 91.969 60.9908 92.2332 60.1472L94.4898 53.0346C94.5931 52.7089 94.523 52.3529 94.3038 52.0908L89.6308 46.5019C89.4246 46.2553 89.1124 46.1228 88.7918 46.1459L81.0829 46.7012C80.17 46.7646 79.2724 46.5936 78.4733 46.2257C77.6692 45.8532 76.9637 45.2803 76.439 44.5499L72.0688 38.4195C71.8811 38.1563 71.5778 38 71.2545 38H63.7439ZM67.3002 77.4927C73.0201 77.4927 77.6578 73.0329 77.6578 67.5313C77.6578 62.0297 73.0201 57.5699 67.3002 57.5699C61.5803 57.5699 56.9427 62.0297 56.9427 67.5313C56.9427 73.0329 61.5803 77.4927 67.3002 77.4927Z" fill="white"/>
<defs>
<filter id="filter0_f_1746_254" x="0" y="0" width="136" height="136" filterUnits="userSpaceOnUse" color-interpolation-filters="sRGB">
<feFlood flood-opacity="0" result="BackgroundImageFix"/>
<feBlend mode="normal" in="SourceGraphic" in2="BackgroundImageFix" result="shape"/>
<feGaussianBlur stdDeviation="4" result="effect1_foregroundBlur_1746_254"/>
</filter>
<filter id="filter1_f_1746_254" x="29.1011" y="31" width="76.8038" height="72.8821" filterUnits="userSpaceOnUse" color-interpolation-filters="sRGB">
<feFlood flood-opacity="0" result="BackgroundImageFix"/>
<feBlend mode="normal" in="SourceGraphic" in2="BackgroundImageFix" result="shape"/>
<feGaussianBlur stdDeviation="3.5" result="effect1_foregroundBlur_1746_254"/>
</filter>
</defs>
</svg>
