<svg width="52" height="54" viewBox="0 0 52 54" fill="none" xmlns="http://www.w3.org/2000/svg">
<path d="M18.244 50.5714V42.3811C18.244 40.2903 19.9692 38.5954 22.0975 38.5954H29.8772C30.8992 38.5954 31.8794 38.9942 32.602 39.7042C33.3247 40.4141 33.7307 41.377 33.7307 42.3811V50.5714C33.7242 51.4406 34.0712 52.2764 34.6946 52.8933C35.318 53.5101 36.1662 53.8571 37.051 53.8571H42.3587C44.8376 53.8634 47.2171 52.9004 48.9722 51.1807C50.7274 49.4609 51.7137 47.1258 51.7137 44.6905V21.3576C51.7137 19.3905 50.8261 17.5245 49.2901 16.2624L31.2344 2.09601C28.0936 -0.387851 23.5934 -0.307653 20.5464 2.28648L2.90263 16.2624C1.29408 17.4873 0.332666 19.3588 0.285156 21.3576V44.6667C0.285156 49.7424 4.47356 53.8571 9.64021 53.8571H14.8267C16.6644 53.8571 18.1579 52.4005 18.1712 50.5952L18.244 50.5714Z" fill="#FFC6BA"/>
</svg>
