<svg width="53" height="52" viewBox="0 0 53 52" fill="none" xmlns="http://www.w3.org/2000/svg">
<path fill-rule="evenodd" clip-rule="evenodd" d="M23.4744 1.83331C23.1471 1.83331 22.8405 1.99348 22.6536 2.26214L19.1591 7.28401C18.3209 8.47989 16.9275 9.06588 15.4487 8.96141L9.28947 8.57473C8.96862 8.55459 8.65765 8.68992 8.45374 8.93845L4.7459 13.4574C4.5297 13.7209 4.4626 14.0764 4.56786 14.4006L6.39214 20.0188C6.60704 20.7156 6.63454 21.4621 6.48075 22.1672C6.32492 22.8638 5.99085 23.5217 5.49484 24.0544L1.38528 28.4743C1.15688 28.7199 1.06685 29.0637 1.14553 29.3898L2.47472 34.8979C2.55314 35.2229 2.78879 35.4872 3.10269 35.6023L8.74896 37.6717C9.43746 37.9381 10.0323 38.3712 10.4824 38.9167C10.9296 39.4639 11.2341 40.1242 11.3523 40.8392L12.3131 46.7412C12.3664 47.0684 12.5783 47.348 12.879 47.4876L18.1507 49.9352C18.4418 50.0703 18.78 50.0575 19.0601 49.9009L24.3168 46.9599C24.9574 46.6 25.6724 46.4196 26.3874 46.4187C26.7592 46.4195 27.1309 46.4687 27.4935 46.5658C27.8306 46.6561 28.1586 46.7877 28.4692 46.9599L33.9452 49.9243C34.2264 50.0766 34.5636 50.0851 34.8522 49.9473L40.097 47.4423C40.3967 47.2992 40.6057 47.0167 40.655 46.6883L41.5193 40.9301C41.6324 40.2111 41.9328 39.5458 42.3789 38.9939C42.822 38.4477 43.4097 38.0125 44.0941 37.7434L49.777 35.5161C50.085 35.3954 50.3134 35.1303 50.387 34.8078L51.6521 29.269C51.7256 28.9474 51.6357 28.6102 51.4119 28.3678L47.2922 23.9071C46.787 23.3725 46.4346 22.734 46.2635 22.0553C46.0954 21.3816 46.1056 20.6676 46.3185 19.9765L48.1091 14.2371C48.2095 13.9153 48.141 13.5645 47.9269 13.3042L44.2865 8.87648C44.0803 8.62559 43.765 8.49052 43.4411 8.51424L37.3363 8.96141C36.601 9.01333 35.8778 8.87325 35.2341 8.57191C34.5864 8.26672 34.018 7.7974 33.5954 7.19909L30.1326 2.25931C29.9455 1.9923 29.6399 1.83331 29.3138 1.83331H23.4744ZM26.2336 34.1861C30.8413 34.1861 34.5772 30.5326 34.5772 26.0256C34.5772 21.5187 30.8413 17.8651 26.2336 17.8651C21.6259 17.8651 17.89 21.5187 17.89 26.0256C17.89 30.5326 21.6259 34.1861 26.2336 34.1861Z" fill="#FFC6BA"/>
<path d="M19.1591 7.28401L22.6536 2.26214C22.8405 1.99348 23.1471 1.83331 23.4744 1.83331H29.3138C29.6399 1.83331 29.9455 1.9923 30.1326 2.25931L33.5954 7.19909M19.1591 7.28401C18.3209 8.47989 16.9275 9.06588 15.4487 8.96141M19.1591 7.28401C18.3168 8.47703 16.9275 9.07074 15.4487 8.96141M15.4487 8.96141L9.28947 8.57473C8.96862 8.55459 8.65765 8.68992 8.45374 8.93845L4.7459 13.4574C4.5297 13.7209 4.4626 14.0764 4.56786 14.4006L6.39214 20.0188M6.39214 20.0188C6.60704 20.7156 6.63454 21.4621 6.48075 22.1672M6.39214 20.0188C6.6101 20.7144 6.63658 21.4594 6.47973 22.1744M6.48075 22.1672C6.32492 22.8638 5.99085 23.5217 5.49484 24.0544M6.48075 22.1672L6.47973 22.1744M5.49484 24.0544L1.38528 28.4743C1.15688 28.7199 1.06685 29.0637 1.14553 29.3898L2.47472 34.8979C2.55314 35.2229 2.78879 35.4872 3.10269 35.6023L8.74896 37.6717C9.43746 37.9381 10.0323 38.3712 10.4824 38.9167M5.49484 24.0544C5.9939 23.526 6.32492 22.8703 6.47973 22.1744M10.4824 38.9167C10.9296 39.4639 11.2341 40.1242 11.3523 40.8392M10.4824 38.9167C10.9336 39.4639 11.2392 40.1224 11.3523 40.8392M10.4824 38.9167L10.4753 38.9089C10.4458 38.8731 10.4142 38.8358 10.3837 38.801M11.3523 40.8392L12.3131 46.7412C12.3664 47.0684 12.5783 47.348 12.879 47.4876L18.1507 49.9352C18.4418 50.0703 18.78 50.0575 19.0601 49.9009L24.3168 46.9599M24.3168 46.9599C24.9574 46.6 25.6724 46.4196 26.3874 46.4187M24.3168 46.9599C24.5704 46.8156 24.8362 46.7004 25.1092 46.614C25.5237 46.4826 25.9556 46.4179 26.3874 46.4187M26.3874 46.4187C26.7592 46.4195 27.1309 46.4687 27.4935 46.5658C27.8306 46.6561 28.1586 46.7877 28.4692 46.9599M26.3874 46.4187C27.1054 46.4178 27.8245 46.5982 28.4692 46.9599M28.4692 46.9599L33.9452 49.9243C34.2264 50.0766 34.5636 50.0851 34.8522 49.9472L40.097 47.4423C40.3967 47.2992 40.6057 47.0167 40.655 46.6883L41.5193 40.9301M41.5193 40.9301C41.6324 40.2111 41.9328 39.5458 42.3789 38.9939M41.5193 40.9301C41.6283 40.2095 41.9308 39.5452 42.3789 38.9939M42.3789 38.9939C42.822 38.4477 43.4097 38.0125 44.0941 37.7434M42.3789 38.9939C42.821 38.4455 43.4066 38.0091 44.0941 37.7434M44.0941 37.7434L49.777 35.5161C50.085 35.3954 50.3134 35.1303 50.387 34.8078L51.6522 29.269C51.7256 28.9474 51.6357 28.6102 51.4119 28.3678L47.2922 23.9071M47.2922 23.9071C46.787 23.3725 46.4346 22.734 46.2635 22.0553M47.2922 23.9071C47.0549 23.6574 46.8512 23.3845 46.6852 23.0951C46.4957 22.7665 46.3541 22.4167 46.2635 22.0553M46.2635 22.0553C46.0954 21.3816 46.1056 20.6676 46.3185 19.9765L48.1091 14.2371C48.2095 13.9153 48.141 13.5645 47.9269 13.3042L44.2865 8.87649C44.0803 8.62559 43.765 8.49052 43.4411 8.51424L37.3363 8.96141M37.3363 8.96141C36.601 9.01333 35.8778 8.87325 35.2341 8.57191M37.3363 8.96141C36.5999 9.01632 35.8778 8.87512 35.2341 8.57191M35.2341 8.57191C34.5864 8.26672 34.018 7.7974 33.5954 7.19909M35.2341 8.57191C34.5853 8.26784 34.016 7.79977 33.5954 7.19909M6.47973 22.1744L6.48177 22.1638M34.5772 26.0256C34.5772 30.5326 30.8413 34.1861 26.2336 34.1861C21.6259 34.1861 17.89 30.5326 17.89 26.0256C17.89 21.5187 21.6259 17.8651 26.2336 17.8651C30.8413 17.8651 34.5772 21.5187 34.5772 26.0256Z" stroke="#FFC6BA" stroke-width="2"/>
</svg>
