<svg width="56" height="56" viewBox="0 0 56 56" fill="none" xmlns="http://www.w3.org/2000/svg">
<path d="M49.1556 0.800049C52.4938 0.800049 55.2 3.46917 55.2 6.76169L55.2 16.9385C55.2 20.231 52.4939 22.9002 49.1556 22.9002H40.0889C36.7507 22.9002 34.0445 20.231 34.0445 16.9385L34.0445 6.76169C34.0445 3.46917 36.7507 0.800049 40.0889 0.800049L49.1556 0.800049Z" fill="#D2A59B"/>
<path d="M6.84449 0.800049C3.50624 0.800049 0.800049 3.46917 0.800049 6.76169L0.800078 16.9385C0.800078 20.231 3.50627 22.9002 6.84452 22.9002H15.9112C19.2494 22.9002 21.9556 20.231 21.9556 16.9385L21.9556 6.76169C21.9556 3.46917 19.2494 0.800049 15.9112 0.800049L6.84449 0.800049Z" fill="#D2A59B"/>
<path d="M49.1556 33.1002C52.4939 33.1002 55.2 35.7693 55.2 39.0618V49.2385C55.2 52.531 52.4939 55.2002 49.1556 55.2002H40.089C36.7507 55.2002 34.0445 52.531 34.0445 49.2385L34.0445 39.0618C34.0445 35.7693 36.7507 33.1002 40.0889 33.1002H49.1556Z" fill="#D2A59B"/>
<path d="M6.84452 33.1002C3.50626 33.1002 0.800075 35.7693 0.800075 39.0618L0.800084 49.2385C0.800084 52.531 3.50627 55.2002 6.84452 55.2002H15.9112C19.2494 55.2002 21.9556 52.531 21.9556 49.2385L21.9556 39.0618C21.9556 35.7693 19.2494 33.1002 15.9112 33.1002H6.84452Z" fill="#D2A59B"/>
</svg>
