<svg width="54" height="54" viewBox="0 0 54 54" fill="none" xmlns="http://www.w3.org/2000/svg">
<path d="M47.5349 0.59993C50.775 0.59993 53.4015 3.19055 53.4015 6.38623L53.4016 16.2637C53.4016 19.4594 50.775 22.05 47.5349 22.05H38.7349C35.4948 22.05 32.8682 19.4594 32.8682 16.2637L32.8682 6.38623C32.8682 3.19054 35.4948 0.59993 38.7349 0.59993L47.5349 0.59993Z" fill="#FFC6BA"/>
<path d="M6.46822 0.59993C3.22815 0.59993 0.601559 3.19055 0.601559 6.38623L0.601587 16.2637C0.601587 19.4594 3.22818 22.05 6.46825 22.05H15.2682C18.5083 22.05 21.1349 19.4594 21.1349 16.2637L21.1349 6.38623C21.1349 3.19054 18.5083 0.59993 15.2682 0.59993L6.46822 0.59993Z" fill="#FFC6BA"/>
<path d="M47.5349 31.95C50.775 31.95 53.4016 34.5406 53.4016 37.7363V47.6137C53.4016 50.8094 50.775 53.4 47.5349 53.4H38.7349C35.4948 53.4 32.8682 50.8094 32.8682 47.6137L32.8682 37.7363C32.8682 34.5406 35.4948 31.95 38.7349 31.95H47.5349Z" fill="#FFC6BA"/>
<path d="M6.46825 31.95C3.22818 31.95 0.601584 34.5406 0.601585 37.7363L0.601594 47.6137C0.601594 50.8094 3.22819 53.4 6.46826 53.4H15.2683C18.5083 53.4 21.1349 50.8094 21.1349 47.6137L21.1349 37.7363C21.1349 34.5406 18.5083 31.95 15.2682 31.95H6.46825Z" fill="#FFC6BA"/>
<path d="M47.5349 0.59993C50.775 0.59993 53.4015 3.19055 53.4015 6.38623L53.4016 16.2637C53.4016 19.4594 50.775 22.05 47.5349 22.05H38.7349C35.4948 22.05 32.8682 19.4594 32.8682 16.2637L32.8682 6.38623C32.8682 3.19054 35.4948 0.59993 38.7349 0.59993L47.5349 0.59993Z" stroke="#EE242E" stroke-linecap="round" stroke-linejoin="round"/>
<path d="M6.46822 0.59993C3.22815 0.59993 0.601559 3.19055 0.601559 6.38623L0.601587 16.2637C0.601587 19.4594 3.22818 22.05 6.46825 22.05H15.2682C18.5083 22.05 21.1349 19.4594 21.1349 16.2637L21.1349 6.38623C21.1349 3.19054 18.5083 0.59993 15.2682 0.59993L6.46822 0.59993Z" stroke="#EE242E" stroke-linecap="round" stroke-linejoin="round"/>
<path d="M47.5349 31.95C50.775 31.95 53.4016 34.5406 53.4016 37.7363V47.6137C53.4016 50.8094 50.775 53.4 47.5349 53.4H38.7349C35.4948 53.4 32.8682 50.8094 32.8682 47.6137L32.8682 37.7363C32.8682 34.5406 35.4948 31.95 38.7349 31.95H47.5349Z" stroke="#EE242E" stroke-linecap="round" stroke-linejoin="round"/>
<path d="M6.46825 31.95C3.22818 31.95 0.601584 34.5406 0.601585 37.7363L0.601594 47.6137C0.601594 50.8094 3.22819 53.4 6.46826 53.4H15.2683C18.5083 53.4 21.1349 50.8094 21.1349 47.6137L21.1349 37.7363C21.1349 34.5406 18.5083 31.95 15.2682 31.95H6.46825Z" stroke="#EE242E" stroke-linecap="round" stroke-linejoin="round"/>
</svg>
