<svg width="54" height="56" viewBox="0 0 54 56" fill="none" xmlns="http://www.w3.org/2000/svg">
<path d="M18.7152 51.9914V43.5529C18.7152 41.3988 20.4927 39.6525 22.6854 39.6525H30.7009C31.7539 39.6525 32.7638 40.0635 33.5083 40.7949C34.2529 41.5264 34.6712 42.5185 34.6712 43.5529V51.9914C34.6646 52.887 35.022 53.7481 35.6643 54.3837C36.3066 55.0192 37.1805 55.3767 38.0921 55.3767H43.5606C46.1146 55.3832 48.5663 54.391 50.3746 52.6192C52.1829 50.8473 53.1992 48.4414 53.1992 45.9324V21.8924C53.1992 19.8656 52.2847 17.9431 50.7021 16.6428L32.0993 2.04711C28.8632 -0.51202 24.2267 -0.429392 21.0873 2.24335L2.90895 16.6428C1.25165 17.9048 0.261108 19.833 0.212158 21.8924V45.9078C0.212158 51.1373 4.52748 55.3767 9.8507 55.3767H15.1944C17.0878 55.3767 18.6265 53.876 18.6403 52.016L18.7152 51.9914Z" fill="#FCAE9E"/>
</svg>
