<svg width="136" height="136" viewBox="0 0 136 136" fill="none" xmlns="http://www.w3.org/2000/svg">
<g filter="url(#filter0_f_1746_245)">
<rect x="10" y="10" width="116" height="116" rx="33" stroke="white" stroke-width="4"/>
</g>
<rect x="10" y="10" width="116" height="116" rx="31" stroke="white" stroke-width="4"/>
<g filter="url(#filter1_f_1746_245)">
<path d="M55.2122 40.007C52.6756 39.9157 50.5877 40.7305 50.5476 41.8286L50.2976 48.6596C47.4026 49.273 45.4214 50.546 45.3651 52.0844L42.0785 91.0231C42.0452 91.163 42.0239 91.3047 42.0171 91.4497C42.0154 91.5265 42.0171 91.6033 42.0239 91.681L42 91.9642L42.0606 91.9659C42.5623 94.4975 47.3839 96.6356 53.3351 96.8541C59.6865 97.087 64.9177 95.0444 65.0192 92.291L64.8656 79.2093H71.2768L71.2776 91.9796C71.2563 92.1212 71.2469 92.2646 71.2529 92.4079C71.2563 92.4847 71.2665 92.5632 71.2776 92.6383V92.9232L71.3374 92.9181C72.0515 95.401 77.0369 97.1245 82.9848 96.8413C89.3328 96.5384 94.3736 94.0632 94.2414 91.3124L90.459 51.9871C90.3822 50.3754 88.1997 49.081 85.0717 48.5375L84.7518 41.8064C84.6997 40.71 82.6025 39.9165 80.0701 40.0386C77.5352 40.1589 75.5241 41.1486 75.5753 42.245L75.9021 49.0725C73.0686 49.9292 71.2017 51.3626 71.2751 52.9001V57.5826H64.6156L64.561 52.7883C64.6199 51.1749 62.5525 49.7005 59.4826 48.8968L59.7292 42.1639C59.7684 41.0667 57.7472 40.1 55.2122 40.007Z" fill="white"/>
</g>
<path d="M55.2122 40.007C52.6756 39.9157 50.5877 40.7305 50.5476 41.8286L50.2976 48.6596C47.4026 49.273 45.4214 50.546 45.3651 52.0844L42.0785 91.0231C42.0452 91.163 42.0239 91.3047 42.0171 91.4497C42.0154 91.5265 42.0171 91.6033 42.0239 91.681L42 91.9642L42.0606 91.9659C42.5623 94.4975 47.3839 96.6356 53.3351 96.8541C59.6865 97.087 64.9177 95.0444 65.0192 92.291L64.8656 79.2093H71.2768L71.2776 91.9796C71.2563 92.1212 71.2469 92.2646 71.2529 92.4079C71.2563 92.4847 71.2665 92.5632 71.2776 92.6383V92.9232L71.3374 92.9181C72.0515 95.401 77.0369 97.1245 82.9848 96.8413C89.3328 96.5384 94.3736 94.0632 94.2414 91.3124L90.459 51.9871C90.3822 50.3754 88.1997 49.081 85.0717 48.5375L84.7518 41.8064C84.6997 40.71 82.6025 39.9165 80.0701 40.0386C77.5352 40.1589 75.5241 41.1486 75.5753 42.245L75.9021 49.0725C73.0686 49.9292 71.2017 51.3626 71.2751 52.9001V57.5826H64.6156L64.561 52.7883C64.6199 51.1749 62.5525 49.7005 59.4826 48.8968L59.7292 42.1639C59.7684 41.0667 57.7472 40.1 55.2122 40.007Z" fill="white"/>
<defs>
<filter id="filter0_f_1746_245" x="0" y="0" width="136" height="136" filterUnits="userSpaceOnUse" color-interpolation-filters="sRGB">
<feFlood flood-opacity="0" result="BackgroundImageFix"/>
<feBlend mode="normal" in="SourceGraphic" in2="BackgroundImageFix" result="shape"/>
<feGaussianBlur stdDeviation="4" result="effect1_foregroundBlur_1746_245"/>
</filter>
<filter id="filter1_f_1746_245" x="35" y="33" width="66.2439" height="70.8722" filterUnits="userSpaceOnUse" color-interpolation-filters="sRGB">
<feFlood flood-opacity="0" result="BackgroundImageFix"/>
<feBlend mode="normal" in="SourceGraphic" in2="BackgroundImageFix" result="shape"/>
<feGaussianBlur stdDeviation="3.5" result="effect1_foregroundBlur_1746_245"/>
</filter>
</defs>
</svg>
