<svg width="53" height="58" viewBox="0 0 53 58" fill="none" xmlns="http://www.w3.org/2000/svg">
<path d="M13.6771 0.811851C11.1404 0.720556 9.05257 1.53539 9.01247 2.63349L8.76247 9.46442C5.86748 10.0779 3.88628 11.3509 3.82997 12.8893L0.54334 51.828C0.510064 51.9679 0.488733 52.1096 0.481907 52.2546C0.480201 52.3314 0.481908 52.4082 0.488734 52.4858L0.464844 52.7691L0.525422 52.7708C1.02712 55.3023 5.8487 57.4405 11.8 57.6589C18.1514 57.8919 23.3825 55.8492 23.4841 53.0959L23.3305 40.0142H29.7416L29.7425 52.7845C29.7211 52.9261 29.7118 53.0694 29.7177 53.2128C29.7211 53.2896 29.7314 53.3681 29.7425 53.4431V53.7281L29.8022 53.723C30.5163 56.2059 35.5018 57.9294 41.4496 57.6461C47.7976 57.3432 52.8385 54.868 52.7062 52.1172L48.9239 12.792C48.8471 11.1803 46.6645 9.88592 43.5366 9.34241L43.2166 2.61131C43.1646 1.51491 41.0673 0.72141 38.535 0.843421C36 0.963726 33.989 1.95347 34.0402 3.04987L34.367 9.87739C31.5334 10.734 29.6665 12.1674 29.7399 13.705V18.3875H23.0805L23.0259 13.5932C23.0847 11.9797 21.0174 10.5054 17.9475 9.70162L18.194 2.96881C18.2333 1.87156 16.212 0.904853 13.6771 0.811851Z" fill="#FFC6BA"/>
</svg>
