<svg width="62" height="60" viewBox="0 0 62 60" fill="none" xmlns="http://www.w3.org/2000/svg">
<path fill-rule="evenodd" clip-rule="evenodd" d="M27.778 1.66675C27.4507 1.66675 27.1441 1.82692 26.9571 2.09557L22.8087 8.05722C21.8259 9.45929 20.1924 10.1463 18.4586 10.0238L11.1493 9.56495C10.8285 9.54481 10.5175 9.68014 10.3136 9.92867L5.85065 15.3679C5.63445 15.6314 5.56735 15.9869 5.67261 16.3111L7.84054 22.9877C8.0925 23.8046 8.12474 24.6798 7.94443 25.5064C7.76173 26.3232 7.37007 27.0945 6.78854 27.719L1.90737 32.9688C1.67897 33.2145 1.58894 33.5583 1.66763 33.8843L3.26935 40.5218C3.34778 40.8468 3.58342 41.1111 3.89732 41.2262L10.6037 43.6841C11.4109 43.9965 12.1083 44.5043 12.6361 45.1438C13.1603 45.7853 13.5173 46.5595 13.6558 47.3978L14.797 54.4076C14.8503 54.7348 15.0623 55.0143 15.3629 55.1539L21.7064 58.0991C21.9975 58.2343 22.3357 58.2215 22.6158 58.0648L28.8556 54.5738C29.6067 54.1519 30.445 53.9403 31.2833 53.9393C31.7191 53.9402 32.155 53.9979 32.5801 54.1117C32.9753 54.2176 33.3598 54.3719 33.724 54.5738L40.2213 58.0911C40.5026 58.2433 40.8397 58.2519 41.1283 58.114L47.4393 55.0999C47.7389 54.9568 47.9479 54.6743 47.9972 54.3459L49.0241 47.5043C49.1567 46.6614 49.5089 45.8814 50.032 45.2344C50.5514 44.5939 51.2404 44.0837 52.0428 43.7682L58.7904 41.1237C59.0984 41.003 59.3268 40.7378 59.4004 40.4153L60.9242 33.7441C60.9977 33.4225 60.9078 33.0853 60.684 32.843L55.7923 27.5463C55.2001 26.9196 54.7869 26.171 54.5863 25.3753C54.3893 24.5854 54.4012 23.7483 54.6508 22.9381L56.7778 16.1202C56.8782 15.7984 56.8097 15.4476 56.5956 15.1873L52.2118 9.85528C52.0055 9.60439 51.6902 9.46931 51.3663 9.49304L44.1199 10.0238C43.2578 10.0847 42.41 9.92047 41.6553 9.56718C40.8958 9.20936 40.2295 8.65913 39.734 7.95766L35.6227 2.09274C35.4356 1.82573 35.13 1.66675 34.8039 1.66675H27.778ZM31.103 39.5976C36.5051 39.5976 40.8851 35.3142 40.8851 30.0302C40.8851 24.7461 36.5051 20.4627 31.103 20.4627C25.7008 20.4627 21.3208 24.7461 21.3208 30.0302C21.3208 35.3142 25.7008 39.5976 31.103 39.5976Z" fill="#D2A59B"/>
<path d="M22.8087 8.05722L26.9571 2.09557C27.1441 1.82692 27.4507 1.66675 27.778 1.66675H34.8039C35.13 1.66675 35.4356 1.82573 35.6227 2.09274L39.734 7.95766M22.8087 8.05722C21.8259 9.45929 20.1924 10.1463 18.4586 10.0238M22.8087 8.05722C21.8212 9.45593 20.1924 10.152 18.4586 10.0238M18.4586 10.0238L11.1493 9.56495C10.8285 9.5448 10.5175 9.68014 10.3136 9.92867L5.85065 15.3679C5.63445 15.6314 5.56735 15.9869 5.67261 16.3111L7.84054 22.9877M7.84054 22.9877C8.0925 23.8046 8.12474 24.6798 7.94443 25.5064M7.84054 22.9877C8.09608 23.8032 8.12713 24.6766 7.94324 25.5149M7.94443 25.5064C7.76173 26.3232 7.37007 27.0945 6.78854 27.719M7.94443 25.5064L7.94324 25.5149M6.78854 27.719L1.90737 32.9688C1.67897 33.2145 1.58894 33.5583 1.66763 33.8843L3.26935 40.5218C3.34778 40.8468 3.58342 41.1111 3.89732 41.2262L10.6037 43.6841C11.4109 43.9965 12.1083 44.5043 12.6361 45.1438M6.78854 27.719C7.37365 27.0996 7.76173 26.3308 7.94324 25.5149M12.6361 45.1438C13.1603 45.7853 13.5173 46.5595 13.6558 47.3978M12.6361 45.1438C13.1651 45.7853 13.5233 46.5574 13.6558 47.3978M12.6361 45.1438L12.6277 45.1346C12.5931 45.0927 12.5561 45.049 12.5203 45.0082M13.6558 47.3978L14.797 54.4076C14.8503 54.7348 15.0623 55.0143 15.3629 55.1539L21.7064 58.0991C21.9975 58.2343 22.3357 58.2215 22.6158 58.0648L28.8556 54.5738M28.8556 54.5738C29.6067 54.1519 30.445 53.9403 31.2833 53.9393M28.8556 54.5738C29.153 54.4046 29.4646 54.2695 29.7847 54.1682C30.2707 54.0142 30.777 53.9383 31.2833 53.9393M31.2833 53.9393C31.7191 53.9402 32.155 53.9979 32.5801 54.1117C32.9753 54.2176 33.3598 54.3719 33.724 54.5738M31.2833 53.9393C32.1251 53.9382 32.9682 54.1497 33.724 54.5738M33.724 54.5738L40.2213 58.0911C40.5026 58.2433 40.8397 58.2519 41.1283 58.114L47.4393 55.0999C47.7389 54.9568 47.9479 54.6743 47.9972 54.3459L49.0241 47.5043M49.0241 47.5043C49.1567 46.6614 49.5089 45.8814 50.032 45.2344M49.0241 47.5043C49.1519 46.6595 49.5065 45.8806 50.032 45.2344M50.032 45.2344C50.5514 44.5939 51.2404 44.0837 52.0428 43.7682M50.032 45.2344C50.5502 44.5914 51.2368 44.0797 52.0428 43.7682M52.0428 43.7682L58.7904 41.1237C59.0984 41.003 59.3268 40.7378 59.4004 40.4153L60.9242 33.7441C60.9977 33.4225 60.9078 33.0853 60.684 32.843L55.7923 27.5463M55.7923 27.5463C55.2 26.9196 54.7869 26.171 54.5863 25.3753M55.7923 27.5463C55.5141 27.2536 55.2753 26.9336 55.0806 26.5943C54.8585 26.2091 54.6926 25.799 54.5863 25.3753M54.5863 25.3753C54.3893 24.5854 54.4012 23.7483 54.6508 22.9381L56.7778 16.1202C56.8782 15.7984 56.8097 15.4476 56.5956 15.1873L52.2118 9.85528C52.0055 9.60439 51.6902 9.46931 51.3663 9.49304L44.1199 10.0238M44.1199 10.0238C43.2578 10.0847 42.41 9.92047 41.6553 9.56718M44.1199 10.0238C43.2566 10.0882 42.41 9.92266 41.6553 9.56718M41.6553 9.56718C40.8958 9.20936 40.2295 8.65913 39.734 7.95766M41.6553 9.56718C40.8946 9.21067 40.2271 8.6619 39.734 7.95766M7.94324 25.5149L7.94563 25.5025M40.8851 30.0302C40.8851 35.3142 36.5051 39.5976 31.103 39.5976C25.7008 39.5976 21.3208 35.3142 21.3208 30.0302C21.3208 24.7461 25.7008 20.4627 31.103 20.4627C36.5051 20.4627 40.8851 24.7461 40.8851 30.0302Z" stroke="#D2A59B" stroke-width="2"/>
</svg>
