<svg width="65" height="65" viewBox="0 0 65 65" fill="none" xmlns="http://www.w3.org/2000/svg">
<path d="M63.4497 1.08735C62.9061 0.407756 62.0226 0 61.1391 0H3.91742C3.03395 0 2.21844 0.407756 1.60681 1.08735C1.06313 1.76694 0.791296 2.65041 0.927215 3.53388L2.96599 15.4947C3.23783 16.9219 4.4611 18.0092 5.88824 18.0092H9.82988L11.5289 28.8147C11.7327 30.2419 13.024 31.3292 14.4511 31.3292H50.4695C51.9646 31.3292 53.1879 30.2419 53.3918 28.8147L55.0907 18.0092H59.0324C60.4595 18.0092 61.7508 16.9898 61.9546 15.5627L63.9934 3.60184C64.2652 2.65041 63.9934 1.76694 63.4497 1.08735ZM35.9262 17.9412L35.5864 25.2808H29.4701L29.1303 17.9412H35.9262ZM15.9462 17.9412H23.1499L23.4897 25.2808H17.1015L15.9462 17.9412ZM47.955 25.2808H41.5669L41.9067 17.9412H49.1103L47.955 25.2808Z" fill="#808080"/>
<path d="M22.3348 39.0765C21.995 38.4648 21.6552 37.9891 21.0436 37.3775C20.5678 36.9018 19.8883 36.6979 19.2087 36.8338C18.2572 37.0377 17.5776 38.0571 17.7815 39.0765L17.9174 39.824C17.9854 40.0279 18.1893 40.5036 18.2572 40.9114C18.3252 41.3191 18.4611 41.7269 18.4611 42.1346C18.5291 42.9501 18.5291 43.6977 18.3932 44.4453C18.2572 45.1928 17.9854 45.8724 17.6456 46.6879L16.2864 49.6102C15.8787 50.6295 15.4029 51.7849 15.1311 53.0081C14.8593 54.2314 14.6554 55.5906 14.7913 56.9498C14.9952 59.7361 16.2864 62.1147 17.7815 63.8816C18.3252 64.4932 19.1407 64.7651 19.9562 64.4932C20.9756 64.1534 21.5193 62.9981 21.1795 61.9787L21.1115 61.8428C20.4319 60.0079 20.0242 58.3089 20.1601 56.7459C20.2281 55.2508 20.7717 53.6198 21.5872 51.7849C21.995 50.8334 22.4027 49.882 22.8105 48.8626C23.2183 47.7073 23.694 46.2802 23.694 44.921C23.7619 43.5618 23.5581 42.1346 23.0823 40.9114C22.9464 40.2318 22.6746 39.6201 22.3348 39.0765Z" fill="#808080"/>
<path d="M35.5867 39.0767C35.2469 38.4651 34.9071 37.9894 34.2955 37.3777C33.8198 36.902 33.1402 36.6981 32.4606 36.8341C31.4412 37.0379 30.8296 38.0573 31.0335 39.0767L31.1694 39.8243C31.2373 40.0281 31.4412 40.5039 31.5092 40.9116C31.5771 41.3194 31.7131 41.7271 31.7131 42.1349C31.781 42.9504 31.781 43.6979 31.6451 44.4455C31.5092 45.1931 31.2373 45.8726 30.8975 46.6882L29.5384 49.6104C29.1306 50.6298 28.6549 51.7851 28.3831 53.0084C28.1112 54.2316 27.9073 55.5908 28.0433 56.95C28.2471 59.7363 29.5384 62.1149 31.0335 63.8818C31.5771 64.4935 32.3927 64.7653 33.2082 64.4935C34.2276 64.1537 34.7712 62.9984 34.4314 61.979L34.3635 61.8431C33.6839 60.0082 33.2761 58.3092 33.412 56.7461C33.48 55.251 34.0237 53.62 34.8392 51.7851C35.179 50.8337 35.6547 49.8822 36.0625 48.8629C36.4702 47.7075 36.9459 46.2804 36.9459 44.9212C37.0139 43.562 36.81 42.1349 36.3343 40.9116C36.1984 40.232 35.9265 39.6204 35.5867 39.0767Z" fill="#808080"/>
<path d="M48.8387 39.0765C48.4989 38.4648 48.1591 37.9891 47.5475 37.3775C47.0718 36.9018 46.4601 36.6979 45.7126 36.8338C44.7611 37.0377 44.0815 38.0571 44.2854 39.0765L44.4213 39.824C44.4893 40.0279 44.6932 40.5036 44.7611 40.9114C44.8291 41.3191 44.965 41.7269 44.965 42.1346C45.033 42.9501 45.033 43.6977 44.8971 44.4453C44.7611 45.1928 44.4893 45.8724 44.1495 46.6879L42.7903 49.6102C42.3826 50.6295 41.9068 51.7849 41.635 53.0081C41.3632 54.2314 41.1593 55.5906 41.2952 56.9498C41.4991 59.7361 42.7903 62.1147 44.2854 63.8816C44.8291 64.4932 45.6446 64.7651 46.4601 64.4932C47.4795 64.1534 48.0232 62.9981 47.6834 61.9787L47.6154 61.8428C46.9358 60.0079 46.5281 58.3089 46.664 56.7459C46.732 55.2508 47.2756 53.6198 48.0911 51.7849C48.4989 50.8334 48.9066 49.882 49.3144 48.8626C49.7222 47.7073 50.1979 46.2802 50.1979 44.921C50.2658 43.5618 50.062 42.1346 49.5862 40.9114C49.4503 40.2318 49.1785 39.6201 48.8387 39.0765Z" fill="#808080"/>
</svg>
