<svg width="28" height="28" viewBox="0 0 28 28" fill="none" xmlns="http://www.w3.org/2000/svg">
<path d="M25.8996 16.1V11.9M9.09961 11.2V16.8M9.09961 11.2H7.69961M9.09961 11.2H10.4996M9.09961 16.8H7.69961M9.09961 16.8H10.4996M11.8996 11.2V16.8M11.8996 11.2H10.4996M11.8996 11.2H13.2996M11.8996 16.8H10.4996M11.8996 16.8H13.2996M7.69961 16.8H6.29961V11.2H7.69961M7.69961 16.8V11.2M10.4996 16.8V11.2M13.2996 16.8H14.6996V11.2H13.2996M13.2996 16.8V11.2M4.89961 21H18.8996C20.446 21 21.6996 19.7464 21.6996 18.2V9.8C21.6996 8.2536 20.446 7 18.8996 7H4.89961C3.35321 7 2.09961 8.2536 2.09961 9.8V18.2C2.09961 19.7464 3.35321 21 4.89961 21Z" stroke="#6B739D" stroke-width="2" stroke-linecap="round" stroke-linejoin="round"/>
</svg>
