<svg width="20" height="20" viewBox="0 0 20 20" fill="none" xmlns="http://www.w3.org/2000/svg">
<g clip-path="url(#clip0_1079_10159)">
<path d="M10.6356 16.5623C9.76186 15.5362 9.23364 14.2074 9.23364 12.7573C9.23364 11.4839 9.63206 9.98608 10.4214 8.2831C10.6906 7.70238 11.0053 7.09768 11.3652 6.46986C9.66771 3.40826 7.58679 0.931621 7.44002 0.758425L6.79737 0L6.15472 0.758425C5.90436 1.05394 0.0234375 8.05356 0.0234375 13.226C0.0234375 16.9612 3.06219 20.0001 6.79737 20.0001C8.83037 20.0001 10.6568 19.0998 11.8996 17.677C11.4266 17.3673 11.0009 16.9914 10.6356 16.5623Z" fill="#6B739D"/>
<path d="M15.1104 2.76367C13.8976 4.29946 10.2441 9.22026 10.2441 12.7578C10.2441 15.441 12.4271 17.6239 15.1103 17.6239C17.7935 17.6239 19.9766 15.441 19.9766 12.7578C19.9766 9.21709 16.3232 4.29851 15.1104 2.76367Z" fill="#6B739D"/>
</g>
<defs>
<clipPath id="clip0_1079_10159">
<rect width="20" height="20" fill="white"/>
</clipPath>
</defs>
</svg>
