<svg width="26" height="26" viewBox="0 0 26 26" fill="none" xmlns="http://www.w3.org/2000/svg">
<path d="M13.0005 23.3996C13.0005 23.3996 21.1396 16.1648 21.1396 10.7387C21.1396 6.24362 17.4956 2.59961 13.0005 2.59961C8.50534 2.59961 4.86133 6.24362 4.86133 10.7387C4.86133 16.1648 13.0005 23.3996 13.0005 23.3996Z" fill="#6B739D" stroke="#6B739D" stroke-width="2"/>
<path d="M15.6004 10.4008C15.6004 11.8367 14.4363 13.0008 13.0004 13.0008C11.5645 13.0008 10.4004 11.8367 10.4004 10.4008C10.4004 8.96484 11.5645 7.80078 13.0004 7.80078C14.4363 7.80078 15.6004 8.96484 15.6004 10.4008Z" stroke="#F3FBF5" stroke-width="2"/>
<path d="M8 10C8 7.23858 10.2386 5 13 5C15.7614 5 18 7.23858 18 10C18 12.7614 15.7614 15 13 15C10.2386 15 8 12.7614 8 10Z" fill="white"/>
<path d="M10.5 10.5L12.0516 12L15.5 9" stroke="#6B739D" stroke-width="1.5" stroke-linecap="round" stroke-linejoin="round"/>
</svg>
