<svg width="13" height="26" viewBox="0 0 13 26" fill="none" xmlns="http://www.w3.org/2000/svg">
<path d="M11.136 3.91016H9.6543V4.34212H11.136V3.91016Z" fill="#808080"/>
<path d="M12.0003 4.84375H9.6543V5.27571H12.0003V4.84375Z" fill="#808080"/>
<path d="M11.136 5.7793H9.6543V6.21126H11.136V5.7793Z" fill="#808080"/>
<path d="M11.136 6.70703H9.6543V7.139H11.136V6.70703Z" fill="#808080"/>
<path d="M12.0003 7.64648H9.6543V8.07845H12.0003V7.64648Z" fill="#808080"/>
<path d="M11.136 8.57812H9.6543V9.01009H11.136V8.57812Z" fill="#808080"/>
<path d="M11.136 9.50977H9.6543V9.94173H11.136V9.50977Z" fill="#808080"/>
<path d="M12.0003 10.4453H9.6543V10.8773H12.0003V10.4453Z" fill="#808080"/>
<path d="M11.136 11.3789H9.6543V11.8109H11.136V11.3789Z" fill="#808080"/>
<path d="M11.136 12.3164H9.6543V12.7484H11.136V12.3164Z" fill="#808080"/>
<path d="M12.0003 13.2461H9.6543V13.6781H12.0003V13.2461Z" fill="#808080"/>
<path d="M5.96034 22.5906C7.65247 22.5906 9.0242 21.2189 9.0242 19.5267C9.0242 17.8346 7.65247 16.4629 5.96034 16.4629C4.26822 16.4629 2.89648 17.8346 2.89648 19.5267C2.89648 21.2189 4.26822 22.5906 5.96034 22.5906Z" fill="#808080"/>
<path d="M9.06172 14.4325V4.05688C9.06172 2.3475 7.67105 0.957031 5.96167 0.957031C4.25229 0.957031 2.86162 2.3475 2.86162 4.05688V14.4325C1.0907 15.5127 0 17.4433 0 19.5247C0 22.812 2.67445 25.4863 5.96167 25.4863C9.24905 25.4863 11.9235 22.8121 11.9235 19.5247C11.9235 17.4433 10.8327 15.5127 9.06172 14.4325ZM5.96167 23.3552C3.8496 23.3552 2.13136 21.6368 2.13136 19.5247C2.13136 17.542 3.64558 15.9066 5.57837 15.7136V3.6721H6.34492V15.7136C8.27771 15.9066 9.79208 17.542 9.79208 19.5247C9.79213 21.6368 8.07379 23.3552 5.96167 23.3552Z" fill="#808080"/>
</svg>
