<svg width="66" height="66" viewBox="0 0 66 66" fill="none" xmlns="http://www.w3.org/2000/svg">
<path fill-rule="evenodd" clip-rule="evenodd" d="M33 66C51.2254 66 66 51.2254 66 33C66 14.7746 51.2254 0 33 0C14.7746 0 0 14.7746 0 33C0 51.2254 14.7746 66 33 66ZM62.5506 32.894C62.5506 40.7578 59.4294 48.2996 53.8735 53.8601C48.3177 59.4207 40.7823 62.5445 32.9252 62.5445C25.0681 62.5445 17.5327 59.4207 11.9769 53.8601C6.42104 48.2996 3.2998 40.7578 3.2998 32.894V32.6465C3.37993 24.8369 6.53533 17.3742 12.0807 11.8793C17.6261 6.38437 25.1136 3.301 32.917 3.29883C40.7205 3.29666 48.2097 6.37586 53.7582 11.8677C59.3066 17.3595 62.4661 24.8204 62.5506 32.63V32.894ZM14.4151 14.2051C19.3409 9.31837 25.9892 6.56628 32.9249 6.54297C39.8571 6.56834 46.5017 9.31885 51.4266 14.2016C56.3515 19.0844 59.1623 25.7085 59.2531 32.646V32.8935C59.2531 39.8821 56.4792 46.5844 51.5417 51.5261C46.6042 56.4678 39.9075 59.244 32.9249 59.244C25.9422 59.244 19.2455 56.4678 14.308 51.5261C9.37053 46.5844 6.59668 39.8821 6.59668 32.8935V32.6625C6.68104 25.7214 9.48923 19.0919 14.4151 14.2051ZM22.1265 41.0115C23.541 41.0646 24.9494 40.7996 26.248 40.236C26.3789 40.1671 26.4837 40.0573 26.5462 39.9231C26.6088 39.789 26.6256 39.6381 26.5942 39.4935L26.2315 37.992C26.2053 37.8942 26.1576 37.8036 26.092 37.7265C26.0265 37.6495 25.9446 37.588 25.8524 37.5465C25.764 37.4978 25.6647 37.4723 25.5639 37.4723C25.463 37.4723 25.3637 37.4978 25.2753 37.5465C24.4021 37.9049 23.466 38.0845 22.5222 38.0745C21.8498 38.1216 21.1754 38.0194 20.5471 37.7754C19.9188 37.5314 19.352 37.1515 18.8874 36.6628C18.4228 36.1741 18.0718 35.5888 17.8594 34.9486C17.647 34.3084 17.5785 33.6292 17.6588 32.9595C17.6588 29.6595 19.5052 27.696 22.6211 27.696C23.5107 27.6767 24.3939 27.8512 25.2094 28.2075C25.2959 28.2513 25.3909 28.2755 25.4878 28.2783C25.5847 28.2812 25.681 28.2626 25.7699 28.224C25.8602 28.1913 25.9407 28.1364 26.0041 28.0643C26.0675 27.9922 26.1117 27.9052 26.1326 27.8115L26.6272 26.277C26.6727 26.1211 26.6611 25.954 26.5946 25.8059C26.5282 25.6577 26.4111 25.5381 26.2645 25.4685C25.0947 24.965 23.8277 24.7283 22.5552 24.7755C21.4616 24.7257 20.3697 24.9047 19.3491 25.3008C18.3286 25.697 17.4017 26.3017 16.6276 27.0764C15.8536 27.8511 15.2494 28.7788 14.8535 29.8002C14.4577 30.8217 14.2789 31.9145 14.3286 33.009C14.2418 34.0649 14.3823 35.1272 14.7407 36.1242C15.0991 37.1212 15.667 38.0296 16.4061 38.7881C17.1453 39.5466 18.0384 40.1376 19.0252 40.5212C20.012 40.9047 21.0696 41.0719 22.1265 41.0115ZM33.4854 41.028H33.5019C37.1618 41.028 40.8546 38.4705 40.8546 32.745C40.8546 27.96 37.9696 24.759 33.6832 24.759C29.3309 24.759 26.314 28.158 26.314 33.009C26.314 37.7445 29.265 41.028 33.4854 41.028ZM51.4592 39.6686C51.4914 39.5866 51.5068 39.499 51.5046 39.411V38.0085C51.5071 37.9211 51.4918 37.8342 51.4595 37.753C51.4273 37.6717 51.3788 37.598 51.3171 37.5362C51.2553 37.4744 51.1816 37.4259 51.1005 37.3936C51.0193 37.3613 50.9325 37.346 50.8452 37.3485H46.872C49.345 34.956 51.2079 32.877 51.2079 30.303C51.2289 29.7154 51.126 29.13 50.9058 28.5849C50.6857 28.0399 50.3532 27.5473 49.9301 27.1395C49.5071 26.7316 49.0028 26.4175 48.4504 26.2177C47.8979 26.0179 47.3095 25.9369 46.7237 25.98C45.2692 25.9731 43.858 26.4751 42.7341 27.399C42.624 27.4948 42.5471 27.6231 42.5145 27.7654C42.4819 27.9077 42.4953 28.0567 42.5527 28.191L43.0968 29.379C43.1342 29.4769 43.1964 29.5634 43.2773 29.6299C43.3583 29.6964 43.4551 29.7408 43.5584 29.7585C43.6569 29.7852 43.7603 29.7887 43.8604 29.7687C43.9606 29.7487 44.0547 29.7056 44.1354 29.643C44.7504 29.0901 45.5356 28.7641 46.361 28.719C46.6067 28.6788 46.8585 28.6975 47.0957 28.7734C47.3328 28.8493 47.5487 28.9803 47.7256 29.1558C47.9025 29.3312 48.0353 29.546 48.1134 29.7827C48.1914 30.0194 48.2123 30.2711 48.1744 30.5175C48.1744 32.0685 47.0039 33.471 43.7067 36.5895L42.3714 37.893C42.3064 37.9576 42.2553 38.0348 42.2213 38.12C42.1872 38.2051 42.171 38.2963 42.1735 38.388V39.411C42.1713 39.499 42.1868 39.5866 42.2189 39.6686C42.2511 39.7506 42.2993 39.8253 42.3608 39.8884C42.4222 39.9514 42.4957 40.0015 42.5768 40.0357C42.6579 40.0699 42.745 40.0875 42.833 40.0875H50.8452C50.9332 40.0875 51.0203 40.0699 51.1014 40.0357C51.1825 40.0015 51.2559 39.9514 51.3174 39.8884C51.3789 39.8253 51.4271 39.7506 51.4592 39.6686ZM33.5837 38.1752C36.3204 38.1752 37.5568 35.4857 37.5568 32.8292C37.5568 30.3212 36.3369 27.6152 33.6002 27.6152C30.8635 27.6152 29.6436 30.3212 29.6436 32.9777C29.6436 35.5517 30.9789 38.1752 33.5672 38.1752H33.5837Z" fill="#808080"/>
</svg>
