<svg width="50" height="60" viewBox="0 0 50 60" fill="none" xmlns="http://www.w3.org/2000/svg">
<path d="M21.8381 13.7855C25.6448 13.7855 28.7308 10.6995 28.7308 6.89275C28.7308 3.08599 25.6448 0 21.8381 0C18.0313 0 14.9453 3.08599 14.9453 6.89275C14.9453 10.6995 18.0313 13.7855 21.8381 13.7855Z" fill="white"/>
<path d="M49.4857 51.9093L40.4993 35.0622C39.7985 33.7526 38.4343 32.9341 36.9495 32.9341H29.939V27.9081H39.25C40.8382 27.9081 42.1219 26.6244 42.1219 25.0361C42.1219 23.4479 40.8382 22.1642 39.25 22.1642H29.939V18.5742C29.939 17.3077 28.8017 16.2766 27.3973 16.2766H16.2799C14.8726 16.2766 13.7324 17.3048 13.7324 18.5742V38.6781C13.7324 39.9446 14.8697 40.9756 16.2799 40.9756H34.537L42.389 55.6974C43.1128 57.053 44.5028 57.8255 45.9388 57.8255C46.5792 57.8255 47.2226 57.6733 47.8286 57.3517C49.7901 56.3034 50.5311 53.8708 49.4857 51.9093Z" fill="white"/>
<path d="M19.2423 54.4716C11.1691 54.4716 4.60091 47.9034 4.60091 39.8274C4.60091 35.1259 6.83244 30.9472 10.2874 28.2677V22.8138C4.17873 26.0419 0 32.4521 0 39.8302C0 50.4365 8.63316 59.0696 19.2394 59.0696C26.0776 59.0696 32.08 55.4739 35.489 50.0861L32.864 45.1635C30.7302 50.603 25.4342 54.4716 19.2423 54.4716Z" fill="white"/>
</svg>
