<svg width="54" height="60" viewBox="0 0 54 60" fill="none" xmlns="http://www.w3.org/2000/svg">
<path d="M4.90909 0C2.2319 0 0 2.27324 0 5V57.5C0.000142319 58.8807 1.099 59.9999 2.45455 60H31.9091C33.2646 59.9999 34.3635 58.8807 34.3636 57.5V46.25C34.3636 45.5596 34.9131 45 35.5909 45H36.8182C38.2029 45 39.2727 46.0897 39.2727 47.5V50C39.2727 54.1125 42.5986 57.5 46.6364 57.5C50.6741 57.5 54 54.1125 54 50V17.5C54 15.1415 52.909 12.9141 51.0565 11.499L43.199 5.49805C41.9998 4.58217 40.467 5.02517 39.7617 6.00098C38.9576 7.1135 39.1695 8.67436 40.2555 9.50195L43.199 11.748C43.8181 12.2203 44.1823 12.9622 44.1818 13.75V20C44.1818 22.3059 45.7702 24.2838 47.878 24.8438C48.5324 25.0176 49.0909 25.5596 49.0909 26.25V50C49.0909 51.4103 48.021 52.5 46.6364 52.5C45.2517 52.5 44.1818 51.4103 44.1818 50V47.5C44.1818 43.3875 40.8559 40 36.8182 40H35.5909C34.9131 40 34.3636 39.4404 34.3636 38.75V5C34.3636 2.27324 32.1317 7.5e-08 29.4545 7.5e-08L4.90909 0ZM17.1818 15C17.4797 14.9997 17.7739 15.0668 18.0432 15.1963C18.3125 15.3259 18.5502 15.5148 18.7392 15.7493C18.9282 15.9838 19.0636 16.2581 19.1359 16.5524C19.2081 16.8467 19.2153 17.1537 19.157 17.4512L17.4215 26.2744C17.3923 26.4232 17.3959 26.5766 17.4321 26.7238C17.4682 26.871 17.5359 27.0081 17.6304 27.1254C17.7249 27.2426 17.8437 27.337 17.9784 27.4018C18.1131 27.4666 18.2602 27.5001 18.4091 27.5H22.0909C22.3772 27.5003 22.6595 27.5683 22.9156 27.6985C23.1718 27.8287 23.3948 28.0176 23.5671 28.2504C23.7395 28.4832 23.8565 28.7535 23.909 29.0402C23.9614 29.3268 23.9479 29.6219 23.8695 29.9023L20.3123 42.5977C20.1177 43.2902 19.7069 43.8993 19.142 44.3328C18.5772 44.7662 17.8891 45.0005 17.1818 45C16.884 45.0003 16.5898 44.9332 16.3204 44.8037C16.0511 44.6741 15.8134 44.4852 15.6244 44.2507C15.4355 44.0162 15.3 43.7419 15.2277 43.4476C15.1555 43.1533 15.1483 42.8463 15.2067 42.5488L16.9421 33.7256C16.9713 33.5768 16.9677 33.4234 16.9316 33.2762C16.8955 33.129 16.8277 32.9919 16.7332 32.8746C16.6388 32.7574 16.5199 32.663 16.3852 32.5982C16.2506 32.5334 16.1035 32.4999 15.9545 32.5H12.2727C11.9865 32.4997 11.7042 32.4317 11.448 32.3015C11.1919 32.1713 10.9689 31.9824 10.7965 31.7496C10.6241 31.5168 10.5071 31.2465 10.4547 30.9598C10.4022 30.6732 10.4157 30.3781 10.4941 30.0977L14.0513 17.4023C14.2459 16.7098 14.6567 16.1007 15.2216 15.6672C15.7865 15.2338 16.4746 14.9995 17.1818 15Z" fill="white"/>
</svg>
