<svg width="90" height="64" viewBox="0 0 90 64" fill="none" xmlns="http://www.w3.org/2000/svg">
<path d="M86.2297 31.7861L73.8951 44.1206L61.5605 31.7861" stroke="#FFFEF9" stroke-width="5" stroke-linecap="square"/>
<path d="M4 31.7855L16.3346 19.4509L28.6691 31.7855" stroke="#FFFEF9" stroke-width="5" stroke-linecap="square"/>
<path d="M73.9625 40.0092V31.9917C73.9635 26.7215 72.5276 21.5507 69.8092 17.0355C67.0909 12.5204 63.193 8.83186 58.5349 6.36663C53.8768 3.90141 48.6346 2.75281 43.3725 3.04441C38.1103 3.336 33.0272 5.05675 28.6699 8.02155" stroke="#FFFEF9" stroke-width="5" stroke-linecap="square"/>
<path d="M61.6265 55.8175C57.2693 58.7823 52.1862 60.5031 46.924 60.7947C41.6618 61.0863 36.4197 59.9377 31.7616 57.4724C27.1034 55.0072 23.2055 51.3186 20.4872 46.8035C17.7689 42.2884 16.333 37.1176 16.334 31.8473V23.5626" stroke="#FFFEF9" stroke-width="5" stroke-linecap="square"/>
<path d="M16.334 23.5624V19.4509" stroke="#FFFEF9" stroke-width="5" stroke-linecap="round"/>
<path d="M73.8965 44.121V40.0095" stroke="#FFFEF9" stroke-width="5" stroke-linecap="round"/>
</svg>
