<svg width="90" height="64" viewBox="0 0 90 64" fill="none" xmlns="http://www.w3.org/2000/svg">
<path d="M86.2304 31.7861L73.8958 44.1206L61.5613 31.7861" stroke="#FFFEF9" stroke-width="5" stroke-linecap="square"/>
<path d="M4 31.7855L16.3346 19.4509L28.6691 31.7855" stroke="#FFFEF9" stroke-width="5" stroke-linecap="square"/>
<path d="M73.9617 40.0092V31.9917C73.9627 26.7215 72.5268 21.5507 69.8085 17.0355C67.0902 12.5204 63.1923 8.83186 58.5342 6.36663C53.876 3.90141 48.6339 2.75281 43.3717 3.04441C38.1095 3.336 33.0264 5.05675 28.6692 8.02155" stroke="#FFFEF9" stroke-width="5" stroke-linecap="square"/>
<path d="M61.6273 55.8175C57.27 58.7823 52.1869 60.5031 46.9247 60.7947C41.6625 61.0863 36.4204 59.9377 31.7623 57.4724C27.1041 55.0072 23.2063 51.3186 20.4879 46.8035C17.7696 42.2884 16.3337 37.1176 16.3347 31.8473V23.5626" stroke="#FFFEF9" stroke-width="5" stroke-linecap="square"/>
<path d="M16.3347 23.5624V19.4509" stroke="#FFFEF9" stroke-width="5" stroke-linecap="round"/>
<path d="M73.8962 44.121V40.0095" stroke="#FFFEF9" stroke-width="5" stroke-linecap="round"/>
</svg>
