<svg width="74" height="57" viewBox="0 0 74 57" fill="none" xmlns="http://www.w3.org/2000/svg">
<path d="M66.1 49.4061V49.9061H66.6H70.3C71.1445 49.9061 71.957 50.2502 72.5582 50.8672C73.1598 51.4845 73.5 52.3245 73.5 53.203C73.5 54.0816 73.1598 54.9216 72.5582 55.5389C71.957 56.1559 71.1445 56.5 70.3 56.5H55.5C54.6555 56.5 53.843 56.1559 53.2418 55.539C52.6402 54.9216 52.3 54.0816 52.3 53.203C52.3 52.3245 52.6402 51.4845 53.2418 50.8672C53.843 50.2502 54.6555 49.9061 55.5 49.9061H59.2H59.7V49.4061V35.2435V33.8945L58.8208 34.9176C56.0891 38.0961 52.7305 40.6409 48.9684 42.3837C45.2064 44.1264 41.1266 45.0275 37 45.0275C32.8734 45.0275 28.7936 44.1264 25.0316 42.3837C21.2695 40.6409 17.9109 38.0961 15.1792 34.9176L14.3 33.8945V35.2435V49.4061V49.9061H14.8H18.5C19.3445 49.9061 20.157 50.2502 20.7582 50.8672C21.3598 51.4845 21.7 52.3245 21.7 53.203C21.7 54.0816 21.3598 54.9216 20.7582 55.5389C20.157 56.1559 19.3445 56.5 18.5 56.5H3.7C2.85554 56.5 2.04297 56.1559 1.4418 55.5389C0.840201 54.9216 0.5 54.0816 0.5 53.203C0.5 52.3245 0.8402 51.4845 1.4418 50.8672C2.04297 50.2502 2.85554 49.9061 3.7 49.9061H7.4H7.9V49.4061V14.1704V13.8855L7.65486 13.7402C6.34007 12.9613 5.30998 11.7572 4.72695 10.3128C4.14385 8.86821 4.04139 7.26578 4.43593 5.75477C4.83043 4.24388 5.69911 2.91124 6.90449 1.96209C8.10964 1.01312 9.58441 0.5 11.1 0.5C12.6156 0.5 14.0904 1.01312 15.2955 1.96209C16.5009 2.91124 17.3696 4.24388 17.7641 5.75477C18.1586 7.26578 18.0561 8.86821 17.4731 10.3128C16.89 11.7572 15.8599 12.9613 14.5451 13.7402L14.3 13.8855V14.1704V15.2336C14.3 21.4041 16.6885 27.3245 20.9441 31.6916C25.2002 36.0591 30.9754 38.5153 37 38.5153C43.0246 38.5153 48.7998 36.0591 53.0559 31.6916C57.3115 27.3245 59.7 21.4041 59.7 15.2336V14.1704V13.8855L59.4549 13.7402C58.1401 12.9613 57.11 11.7572 56.5269 10.3128C55.9439 8.86821 55.8414 7.26578 56.2359 5.75477C56.6304 4.24388 57.4991 2.91124 58.7045 1.96209L58.3952 1.56925L58.7045 1.96208C59.9096 1.01312 61.3844 0.5 62.9 0.5C64.4156 0.5 65.8904 1.01312 67.0955 1.96208C68.3009 2.91124 69.1696 4.24388 69.5641 5.75477C69.9586 7.26578 69.8561 8.86821 69.2731 10.3128C68.69 11.7572 67.6599 12.9613 66.3451 13.7402L66.1 13.8855V14.1704V49.4061Z" fill="white" stroke="#0C1723"/>
</svg>
