<svg width="55" height="54" viewBox="0 0 55 54" fill="none" xmlns="http://www.w3.org/2000/svg">
<path fill-rule="evenodd" clip-rule="evenodd" d="M0 7.63395C0 3.41892 3.49957 0.00195312 7.8165 0.00195312H46.4647C50.7817 0.00195312 54.2812 3.41892 54.2812 7.63395V45.37C54.2812 49.585 50.7817 53.002 46.4647 53.002H7.8165C3.49957 53.002 0 49.585 0 45.37V7.63395ZM23.4605 15.6273C23.4605 20.5301 19.3414 24.5046 14.2602 24.5046C9.17911 24.5046 5.06003 20.5301 5.06003 15.6273C5.06003 10.7244 9.17911 6.7499 14.2602 6.7499C19.3414 6.7499 23.4605 10.7244 23.4605 15.6273ZM48.7612 28.4993H31.2808V45.3663H48.7612V28.4993Z" fill="#EEEEEE"/>
</svg>
