<svg width="60" height="65" viewBox="0 0 60 65" fill="none" xmlns="http://www.w3.org/2000/svg">
<path fill-rule="evenodd" clip-rule="evenodd" d="M29.8727 24.8307C30.5532 24.8307 31.2099 24.9243 31.835 25.0983L54.8811 0L59.7473 4.49911L52.87 11.9881C62.6081 25.2789 61.485 44.2236 49.4988 56.2088L45.2903 52.0002C54.8935 42.3979 56.0453 27.3799 48.7485 16.4767L45.8074 19.6797C51.5653 28.459 50.5971 40.4624 42.9026 48.1568L38.6941 43.9492C43.9951 38.6482 44.9662 30.5723 41.6074 24.2533L36.7164 29.5802C37.0127 30.3745 37.1762 31.2357 37.1762 32.1332C37.1762 36.1659 33.9063 39.4358 29.8727 39.4358C29.1931 39.4358 28.5355 39.3431 27.9113 39.1691L4.86615 64.2664L0 59.7673L6.87722 52.2793C-2.86177 38.9875 -1.73866 20.0438 10.2484 8.05768L14.456 12.2662C4.85277 21.8685 3.70099 36.8866 10.9988 47.7898L13.9389 44.5868C8.18098 35.8084 9.14924 23.805 16.8437 16.1096L21.0522 20.3172C15.7512 25.6192 14.781 33.696 18.1389 40.0141L23.0299 34.6872C22.7326 33.892 22.5711 33.0317 22.5711 32.1332C22.5711 28.1006 25.841 24.8307 29.8727 24.8307Z" fill="#808080"/>
</svg>
