<svg width="87" height="76" viewBox="0 0 87 76" fill="none" xmlns="http://www.w3.org/2000/svg">
<path d="M84.7311 58.3091L53.2641 5.62234C51.1784 2.08571 47.4604 0 43.289 0C39.1176 0 35.3996 2.08571 33.3139 5.62234L1.84693 58.3091C-0.329456 61.9364 -0.329456 66.2892 1.75625 70.0072C3.84196 73.7252 7.65064 75.9016 11.822 75.9016H74.756C79.018 75.9016 82.736 73.7252 84.8218 70.0072C86.9075 66.2892 86.9075 61.9364 84.7311 58.3091ZM43.289 63.5687C40.5685 63.5687 38.3921 61.3923 38.3921 58.6718C38.3921 55.9513 40.5685 53.7749 43.289 53.7749C46.0095 53.7749 48.1859 55.9513 48.1859 58.6718C48.1859 61.3923 46.0095 63.5687 43.289 63.5687ZM48.5486 26.298L46.8256 46.5203C46.6443 48.4246 44.9213 49.8756 43.017 49.6942C41.294 49.5128 39.9337 48.1526 39.8431 46.5203L38.1201 26.298C37.848 23.3962 40.0244 20.8571 42.9263 20.585C45.8281 20.313 48.3672 22.4893 48.6393 25.3912C48.5486 25.6632 48.5486 26.026 48.5486 26.298Z" fill="white"/>
</svg>
