<svg width="49" height="66" viewBox="0 0 49 66" fill="none" xmlns="http://www.w3.org/2000/svg">
<path d="M24.6367 0C18.274 0.00834549 12.1744 2.56264 7.67531 7.10273C3.17625 11.6428 0.645045 17.7981 0.636774 24.2188C0.627501 28.5342 1.77593 32.7717 3.96023 36.4818L22.7593 64.9759C22.9621 65.2917 23.2403 65.551 23.5684 65.7299C23.8964 65.9089 24.2638 66.0017 24.6367 66C25.009 65.9987 25.3753 65.9046 25.7029 65.7259C26.0304 65.5472 26.3091 65.2896 26.5142 64.9759L43.791 38.8115L45.364 36.3794C47.5214 32.6977 48.6522 28.4959 48.6366 24.2188C48.6283 17.7981 46.0971 11.6428 41.598 7.10274C37.0989 2.56266 30.9993 0.00835901 24.6367 0ZM24.6367 33C22.9156 33 21.2332 32.485 19.8022 31.5201C18.3712 30.5552 17.2558 29.1838 16.5972 27.5792C15.9386 25.9746 15.7662 24.209 16.102 22.5056C16.4378 20.8022 17.2665 19.2376 18.4835 18.0095C19.7005 16.7814 21.251 15.9451 22.939 15.6063C24.627 15.2674 26.3767 15.4413 27.9667 16.106C29.5568 16.7706 30.9158 17.8961 31.872 19.3402C32.8282 20.7842 33.3385 22.482 33.3385 24.2188C33.3388 25.372 33.1139 26.514 32.6767 27.5795C32.2395 28.645 31.5985 29.6132 30.7904 30.4286C29.9823 31.2441 29.0229 31.8909 27.967 32.3321C26.9112 32.7733 25.7795 33.0003 24.6367 33Z" fill="white"/>
</svg>
