<svg width="50" height="74" viewBox="0 0 50 74" fill="none" xmlns="http://www.w3.org/2000/svg">
<path d="M24.924 0C31.7295 0 37.89 2.75892 42.3474 7.21633C46.8071 11.676 49.5637 17.8366 49.5637 24.6397C49.5637 37.9317 42.3795 46.1533 34.8418 54.7835C31.8488 58.2104 28.7961 61.7038 26.1818 65.5621C25.709 66.2576 24.761 66.4389 24.0655 65.9684C23.8957 65.8536 23.7557 65.7067 23.6478 65.5438C21.0358 61.6946 17.9877 58.2035 14.9992 54.7835C7.46154 46.1556 0.277344 37.9317 0.277344 24.6397C0.277344 17.8343 3.03626 11.6738 7.49368 7.21633L7.58778 7.13141C12.0406 2.72449 18.1644 0 24.9194 0H24.924ZM34.75 60.99C33.9903 60.625 33.6735 59.7115 34.0385 58.9518C34.4034 58.192 35.317 57.8753 36.0767 58.2402C37.6375 58.9931 38.9159 59.9158 39.8088 60.9601C40.7728 62.0871 41.3099 63.3518 41.3099 64.7083C41.3099 66.9186 39.8983 68.8788 37.5273 70.3707C35.3835 71.7226 32.3836 72.7257 28.9545 73.1664C28.1213 73.2719 27.357 72.6798 27.2514 71.8466C27.1458 71.0134 27.738 70.2491 28.5712 70.1435C31.555 69.7579 34.1188 68.9155 35.9023 67.7908C37.3735 66.8636 38.248 65.7894 38.248 64.7083C38.248 64.1138 37.9772 63.5148 37.4883 62.9455C36.8732 62.2271 35.9344 61.5638 34.7477 60.99H34.75ZM21.2791 70.1435C22.1123 70.2491 22.7044 71.0134 22.5989 71.8466C22.4933 72.6798 21.729 73.2719 20.8958 73.1664C17.4666 72.7234 14.4667 71.7226 12.3229 70.3707C9.95191 68.8765 8.54032 66.9186 8.54032 64.7083C8.54032 63.3518 9.07512 62.0871 10.0414 60.9601C10.9366 59.9181 12.2128 58.9954 13.7735 58.2402C14.5333 57.8753 15.4445 58.192 15.8117 58.9518C16.1767 59.7115 15.8599 60.6227 15.1002 60.99C13.9136 61.5615 12.9748 62.2271 12.3597 62.9455C11.8708 63.5148 11.5999 64.1138 11.5999 64.7083C11.5999 65.7871 12.4744 66.8636 13.9457 67.7908C15.7314 68.9178 18.2952 69.7579 21.2768 70.1435H21.2791ZM34.3484 15.2199C31.9383 12.8099 28.6056 11.318 24.9263 11.318C21.2469 11.318 17.9142 12.8099 15.5042 15.2199C13.0941 17.63 11.6022 20.9627 11.6022 24.642C11.6022 28.3214 13.0941 31.6541 15.5042 34.0641C17.9142 36.4742 21.2469 37.9661 24.9263 37.9661C28.6056 37.9661 31.9383 36.4742 34.3484 34.0641C36.7584 31.6541 38.2503 28.3214 38.2503 24.642C38.2503 20.9627 36.7584 17.63 34.3484 15.2199Z" fill="white"/>
</svg>
