<svg width="68" height="67" viewBox="0 0 68 67" fill="none" xmlns="http://www.w3.org/2000/svg">
<path d="M67.4082 41.3349L28.9949 2.85515C25.1893 -0.951717 18.5786 -0.951717 14.7909 2.85515L10.0562 7.5914C6.1434 11.5234 6.1434 17.9039 10.0562 21.8359L17.3101 29.11L16.7562 29.6641C12.8255 33.5961 12.8255 39.9945 16.7562 43.9264C16.9885 44.1588 17.2386 44.3196 17.4887 44.5162L14.7015 53.5777H7.1082V46.8576H0.408203V67H7.1082V60.2799H19.6327L23.7778 46.8397C23.8135 46.8397 23.8493 46.8576 23.885 46.8576C26.565 46.8576 29.1021 45.8031 30.9959 43.9086L31.5498 43.3545L37.821 49.6278L56.7597 40.1374L62.6735 46.0533L67.4082 41.3349Z" fill="white"/>
</svg>
