<svg width="101" height="68" viewBox="0 0 101 68" fill="none" xmlns="http://www.w3.org/2000/svg">
<path fill-rule="evenodd" clip-rule="evenodd" d="M15.1659 0.175764C14.3855 0.518031 11.9087 3.06808 9.94371 5.55242C5.1992 11.5507 1.91415 18.8723 0.519024 26.5577C0.147925 28.6018 -0.000205951 30.5743 2.14881e-07 33.4654C0.000309464 37.6643 0.209774 39.9552 0.877031 43.059C2.59357 51.0426 6.34765 58.4062 11.8447 64.5718C13.1098 65.9909 14.8561 67.6338 15.3069 67.8291C16.6964 68.4309 18.4804 67.3073 18.4804 65.8302C18.4804 65.562 18.4083 65.2127 18.32 65.0541C18.159 64.7645 17.2798 63.7582 15.6128 61.9554C5.96789 51.5251 2.34947 37.1545 5.92615 23.4842C7.73742 16.5612 11.2222 10.4664 16.5921 4.83009C17.1759 4.21717 17.7814 3.5525 17.9374 3.35307C18.4705 2.67174 18.4335 1.66742 17.8498 0.974452C17.0895 0.0721729 16.0843 -0.227069 15.1659 0.175764ZM84.0621 0.212975C83.1939 0.593035 82.6223 1.45762 82.6949 2.28092C82.7519 2.92776 83.1579 3.50357 84.823 5.2996C89.1799 9.99889 92.0823 14.6855 94.0144 20.141C95.0049 22.9379 95.8064 26.1682 96.0941 28.5233C96.2743 29.9982 96.2725 37.9103 96.0917 39.4244C95.817 41.7246 95.002 44.9955 94.0125 47.7691C92.0433 53.2888 89.3114 57.6401 84.5451 62.8484C83.3652 64.1376 82.7315 65.0207 82.5624 65.6113C82.2797 66.5982 83.3364 67.8825 84.5191 67.9892C85.4064 68.0695 86.0191 67.7204 87.5166 66.2818C92.0788 61.8989 96.1925 55.3194 98.5388 48.653C99.4847 45.9654 100.316 42.6392 100.651 40.2003C101.061 37.2173 101.123 30.888 100.766 28.3295C99.4553 18.9189 95.5133 10.4925 88.9571 3.08581C86.3862 0.181384 85.4241 -0.383279 84.0621 0.212975Z" fill="white"/>
<path fill-rule="evenodd" clip-rule="evenodd" d="M50.5 68C70.6584 68 87 52.7777 87 34C87 15.2223 70.6584 0 50.5 0C30.3416 0 14 15.2223 14 34C14 52.7777 30.3416 68 50.5 68ZM48.1887 16.5772C48.2701 16.0513 48.9296 15.3434 49.5192 15.1491C50.4669 14.8367 51.2973 15.0134 52.092 15.6962L52.6633 16.187L52.6576 25.9404C52.6545 31.3048 52.6138 36.5959 52.567 37.6984C52.4911 39.4886 52.4588 39.7384 52.2638 40.0349C51.9241 40.5518 51.3045 40.9042 50.6451 40.9555C49.8503 41.0175 49.3269 40.8017 48.6019 40.1129L48 39.541L48.0624 28.2662C48.0967 22.065 48.1536 16.805 48.1887 16.5772ZM48.136 48.2086C48.274 47.7415 48.9307 47.0615 49.4993 46.7969C50.5327 46.316 51.846 46.7541 52.4149 47.7694C52.5683 48.0431 52.6 48.3553 52.6053 49.6481C52.6088 50.5008 52.5759 51.3571 52.5319 51.5509C52.488 51.7448 52.2669 52.1012 52.0404 52.3431C51.303 53.1306 50.3296 53.2848 49.285 52.7796C48.6372 52.4661 48.2681 51.898 48.1319 51.0047C47.9958 50.1108 47.9978 48.6764 48.136 48.2086Z" fill="white"/>
</svg>
