<svg width="83" height="83" viewBox="0 0 83 83" fill="none" xmlns="http://www.w3.org/2000/svg">
<path d="M64.168 78.9829V81.6734C67.1443 81.6734 69.549 79.2687 69.549 76.2924H66.8585C66.8585 77.7721 65.6477 78.9829 64.168 78.9829Z" fill="white"/>
<path d="M64.1692 68.2219C64.1692 72.678 60.5538 76.2934 56.0977 76.2934V78.9839C62.0336 78.9839 66.8597 74.1578 66.8597 68.2219H64.1692Z" fill="white"/>
<path d="M60.1329 64.32V62.0499L61.8649 63.7819C62.3862 64.3032 63.2438 64.3032 63.765 63.7819L82.5986 44.9483L75.3174 0L37.6503 37.6671C37.129 38.1884 37.129 39.046 37.6503 39.5673L38.5583 40.4753L34.7244 41.2489L13.4021 31.7816C11.4515 30.924 9.19818 31.0249 7.33163 32.0843L2.75777 34.6907C1.05939 35.6661 0.470839 37.8185 1.44615 39.5168C1.59749 39.7859 1.79928 40.0381 2.01788 40.2567L6.72627 44.9651C5.28012 45.1669 3.95168 45.8395 2.92593 46.8653L1.34525 48.446C0.823968 48.9673 0.823968 49.8249 1.34525 50.3461L12.494 61.4949L0 73.989L8.62644 82.6154L21.1205 70.1214L32.2693 81.2702C32.7906 81.7915 33.6482 81.7915 34.1695 81.2702L35.7501 79.6895C36.7759 78.6637 37.4485 77.3185 37.6503 75.8892L42.1233 80.3621C43.9057 82.1278 46.7644 82.1278 48.5469 80.3621L56.9883 71.9207C59.0062 69.9196 60.1329 67.1786 60.1329 64.32ZM57.4424 62.1339C49.3204 58.3672 43.1658 51.3719 40.4417 42.8464L40.8621 42.7623L57.4424 59.3425V62.1339ZM67.2459 17.4883L69.1461 19.3885L53.003 35.5315L51.1028 33.6314L67.2459 17.4883ZM49.7576 34.9766L51.6578 36.8768L48.9673 39.5673L47.0671 37.6671L49.7576 34.9766ZM33.85 77.8061L33.2278 78.4283L4.1871 49.3876L4.80928 48.7655C6.38996 47.1848 8.94594 47.1848 10.5098 48.7655L33.85 72.0888C35.4306 73.6695 35.4306 76.2255 33.85 77.8061ZM49.3708 75.7378L8.27331 34.6403L8.66007 34.4217C9.76991 33.7827 11.132 33.7154 12.3091 34.2367L21.07 38.138L19.5062 39.7018L21.4064 41.602L23.7101 39.2982L26.6697 40.6099L23.5588 43.7208L25.4589 45.6209L29.3097 41.7701L32.2693 43.0818L27.5945 47.7565L29.4947 49.6567L35.2625 43.8889L37.8185 43.3845C40.8116 53.1712 48.0088 61.1082 57.4255 65.0599C57.2574 66.9432 56.4334 68.6921 55.0882 70.0205L49.3708 75.7378Z" fill="white"/>
<path d="M7.90337 27.8645C8.97957 27.8645 10.0053 28.2849 10.762 29.0416L12.6622 27.1414C10.039 24.5182 5.78459 24.5182 3.14453 27.1414L5.0447 29.0416C5.80141 28.2849 6.82716 27.8645 7.90337 27.8645Z" fill="white"/>
<path d="M7.9031 22.4828C8.60935 22.4828 9.2988 22.7687 9.80327 23.2732L11.7034 21.373C9.60148 19.271 6.1879 19.271 4.08594 21.373L5.98611 23.2732C6.5074 22.7687 7.18002 22.4828 7.9031 22.4828Z" fill="white"/>
<path d="M16.0914 30.7723L18.7483 30.3351C18.6138 29.5111 18.5129 28.6872 18.4792 27.8632H21.1697C21.3043 29.8643 21.7247 31.8485 22.4477 33.7319L24.9533 32.7734C22.5486 26.4675 23.9948 19.3376 28.6527 14.4443L37.6491 23.4407C36.6906 25.4585 37.5314 27.8632 39.5493 28.8217C41.5672 29.7802 43.9718 28.9394 44.9303 26.9215C45.8888 24.9036 45.048 22.499 43.0301 21.5405C41.9371 21.0192 40.6423 21.0192 39.5493 21.5405L30.6538 12.645C38.2377 6.82678 49.1006 8.18885 55.0197 15.7055L57.1385 14.0407C53.6072 9.5341 48.3271 6.75951 42.6266 6.38957V3.69906C49.0501 4.069 55.0365 7.14627 59.0723 12.1573L61.1574 10.459C52.3124 -0.521675 36.2366 -2.23687 25.256 6.62499C25.1382 6.70907 25.0374 6.80996 24.9196 6.89404L22.061 4.03537L20.1608 5.93554L22.9522 8.72695C18.3279 13.5026 15.7383 19.8757 15.7383 26.5179C15.7383 27.9473 15.856 29.3766 16.0914 30.7723ZM42.6434 25.1727C42.6434 25.9126 42.038 26.5179 41.2981 26.5179C40.5582 26.5179 39.9529 25.9126 39.9529 25.1727C39.9529 24.4328 40.5582 23.8274 41.2981 23.8274C42.038 23.8274 42.6434 24.4328 42.6434 25.1727ZM39.9529 3.68224V6.37275C35.8666 6.6418 31.9486 8.15521 28.7536 10.7112L26.8366 8.81103C30.5529 5.76739 35.1436 3.96811 39.9529 3.68224ZM26.7526 12.5441C23.4567 15.9577 21.4724 20.4307 21.1529 25.1727H18.4624C18.7819 19.7244 21.052 14.562 24.8524 10.6439L26.7526 12.5441Z" fill="white"/>
</svg>
