<svg width="104" height="70" viewBox="0 0 104 70" fill="none" xmlns="http://www.w3.org/2000/svg">
<path fill-rule="evenodd" clip-rule="evenodd" d="M15.612 0.180933C14.8086 0.533267 12.2589 3.15831 10.2362 5.71573C5.35212 11.8904 1.97045 19.4273 0.534289 27.3388C0.152275 29.443 -0.000212009 31.4735 2.21201e-07 34.4497C0.000318566 38.7721 0.215944 41.1304 0.902827 44.3254C2.66985 52.5438 6.53435 60.124 12.193 66.471C13.4954 67.9318 15.2931 69.623 15.7571 69.824C17.1874 70.4436 19.024 69.287 19.024 67.7664C19.024 67.4903 18.9497 67.1308 18.8589 66.9675C18.6931 66.6693 17.7881 65.6334 16.072 63.7776C6.14342 53.0406 2.41857 38.2473 6.10044 24.1749C7.96499 17.0483 11.5523 10.7742 17.0801 4.97216C17.6811 4.34121 18.3044 3.65699 18.465 3.45169C19.0138 2.75032 18.9757 1.71646 18.3748 1.00311C17.5922 0.0742956 16.5573 -0.233747 15.612 0.180933ZM86.5345 0.219239C85.6407 0.610478 85.0523 1.50049 85.1271 2.34801C85.1858 3.01387 85.6037 3.60661 87.3178 5.45547C91.8028 10.293 94.7906 15.1174 96.7795 20.7334C97.7992 23.6125 98.6242 26.9379 98.9204 29.3622C99.1059 30.8805 99.1041 39.0253 98.918 40.5839C98.6352 42.9518 97.7962 46.3189 96.7776 49.1741C94.7505 54.8561 91.9382 59.3354 87.0317 64.6968C85.8171 66.024 85.1648 66.933 84.9907 67.541C84.6997 68.5569 85.7875 69.879 87.005 69.9889C87.9184 70.0715 88.549 69.7122 90.0907 68.2313C94.787 63.7194 99.0217 56.9465 101.437 50.084C102.411 47.3174 103.266 43.8933 103.612 41.3826C104.034 38.3119 104.097 31.7965 103.73 29.1627C102.38 19.4753 98.3225 10.8011 91.5735 3.17657C88.927 0.186719 87.9365 -0.394552 86.5345 0.219239Z" fill="white"/>
<path fill-rule="evenodd" clip-rule="evenodd" d="M51.9853 70C72.7366 70 89.5588 54.33 89.5588 35C89.5588 15.67 72.7366 0 51.9853 0C31.234 0 14.4117 15.67 14.4117 35C14.4117 54.33 31.234 70 51.9853 70ZM49.6061 17.0648C49.6898 16.5234 50.3687 15.7946 50.9757 15.5946C51.9512 15.2731 52.8061 15.455 53.6241 16.1578L54.2122 16.6631L54.2064 26.7033C54.2032 32.2255 54.1613 37.6723 54.1131 38.8072C54.035 40.65 54.0017 40.9072 53.801 41.2123C53.4512 41.7445 52.8135 42.1072 52.1347 42.1601C51.3165 42.2239 50.7777 42.0017 50.0314 41.2927L49.4118 40.704L49.476 29.0975C49.5113 22.7139 49.5699 17.2992 49.6061 17.0648ZM49.5517 49.6265C49.6938 49.1456 50.3699 48.4457 50.9552 48.1732C52.0189 47.6782 53.3709 48.1292 53.9566 49.1744C54.1145 49.4561 54.147 49.7775 54.1526 51.1083C54.1562 51.9862 54.1222 52.8676 54.077 53.0671C54.0318 53.2667 53.8042 53.6336 53.571 53.8826C52.8119 54.6933 51.8099 54.852 50.7346 54.3319C50.0677 54.0092 49.6878 53.4244 49.5476 52.5049C49.4074 51.5847 49.4095 50.1081 49.5517 49.6265Z" fill="white"/>
</svg>
