<svg width="70" height="70" viewBox="0 0 70 70" fill="none" xmlns="http://www.w3.org/2000/svg">
<path fill-rule="evenodd" clip-rule="evenodd" d="M33.9347 0.176637C33.6712 0.296719 33.2806 0.560981 33.0666 0.763901C32.8528 0.966822 32.5601 1.36157 32.4164 1.6409C32.2605 1.94418 32.1552 2.42875 32.1552 2.84336C32.1552 3.22537 32.2505 3.76608 32.3671 4.04499C32.4836 4.32404 32.7145 4.69771 32.8804 4.87557C33.0462 5.0533 33.4283 5.32632 33.7294 5.48228C34.1759 5.71341 34.6557 5.78447 36.3303 5.86744C37.4596 5.92331 38.9996 6.07351 39.7525 6.20099C40.5054 6.3286 41.6757 6.57657 42.3533 6.75224C43.0309 6.92778 44.1397 7.26502 44.8173 7.50162C45.4949 7.73823 46.8501 8.32248 47.8288 8.79993C48.8076 9.27725 50.2552 10.0925 51.0457 10.6116C51.8362 11.1305 53.0398 12.023 53.7201 12.5948C54.4006 13.1666 55.5093 14.2122 56.1841 14.9186C56.8589 15.6249 57.7721 16.683 58.2136 17.2701C58.6549 17.8571 59.3874 18.9284 59.8413 19.6507C60.2951 20.373 60.963 21.5851 61.3254 22.3445C61.6879 23.1039 62.2074 24.3414 62.4798 25.0945C62.7523 25.8476 63.1563 27.2031 63.3775 28.1068C63.5987 29.0105 63.8713 30.4463 63.9832 31.2973C64.0954 32.1484 64.1869 33.8242 64.1869 35.0214C64.1869 36.2187 64.0954 37.8945 63.9832 38.7456C63.8713 39.5966 63.5987 41.0324 63.3775 41.9361C63.1563 42.8398 62.7567 44.1827 62.4897 44.9204C62.2225 45.6582 61.7616 46.7793 61.4652 47.4119C61.1688 48.0443 60.5847 49.1426 60.1672 49.8523C59.7496 50.562 58.9337 51.7822 58.354 52.5639C57.7743 53.3457 56.5549 54.7304 55.6443 55.6413C54.7337 56.5521 53.3636 57.7611 52.5994 58.3281C51.8353 58.895 50.6791 59.6797 50.0301 60.0717C49.3813 60.4637 48.1994 61.0916 47.4037 61.4671C46.6081 61.8425 45.2387 62.3893 44.3605 62.6821C43.4824 62.9749 42.1788 63.345 41.4636 63.5046C40.7483 63.6642 39.5163 63.8814 38.7258 63.9877C37.9353 64.0938 36.2907 64.182 35.0711 64.1834C33.8515 64.1849 32.1406 64.0926 31.269 63.9782C30.3973 63.8641 28.8696 63.5609 27.8739 63.3047C26.8783 63.0485 25.5571 62.6512 24.9381 62.4218C24.3189 62.1925 23.177 61.7052 22.4005 61.3388C21.6239 60.9724 20.3949 60.2994 19.6693 59.8432C18.9438 59.3871 17.8895 58.667 17.3263 58.2431C16.7631 57.8192 15.7106 56.912 14.9873 56.2273C14.264 55.5427 13.1991 54.4192 12.6209 53.7308C12.0427 53.0423 11.1451 51.8322 10.6263 51.0415C10.1074 50.2507 9.29236 48.8028 8.81517 47.8238C8.33785 46.8448 7.75361 45.4892 7.51693 44.8115C7.28012 44.1337 6.93885 42.9938 6.75844 42.2784C6.57802 41.5629 6.33326 40.4231 6.21444 39.7453C6.09563 39.0675 5.94957 37.5579 5.88988 36.3907C5.80118 34.6558 5.72972 34.1684 5.49811 33.7207C5.34247 33.4194 5.06952 33.0373 4.89184 32.8715C4.71402 32.7055 4.34045 32.4745 4.06147 32.358C3.78263 32.2413 3.24207 32.146 2.86015 32.146C2.44305 32.146 1.95792 32.2522 1.645 32.4118C1.35863 32.558 0.936329 32.8916 0.706769 33.1531C0.477208 33.4148 0.212193 33.8625 0.118015 34.1481C-0.00463678 34.5197 -0.0290028 35.2049 0.0324598 36.5552C0.079686 37.5934 0.215889 39.1056 0.334982 39.9156C0.454211 40.7257 0.67679 41.9737 0.829557 42.6891C0.982323 43.4046 1.40175 44.8833 1.76149 45.9753C2.12123 47.0673 2.67932 48.546 3.00169 49.2615C3.32392 49.9769 3.89256 51.1168 4.26516 51.7945C4.63764 52.4723 5.34603 53.6368 5.83937 54.3823C6.33258 55.1278 7.15965 56.2677 7.67723 56.9153C8.19493 57.5631 9.30961 58.7909 10.1545 59.6439C10.9992 60.497 12.2449 61.647 12.9225 62.1995C13.6001 62.752 14.8629 63.6784 15.7287 64.2583C16.5945 64.8381 18.3501 65.8269 19.63 66.4553C21.0021 67.1291 22.8022 67.8786 24.0167 68.2817C25.1496 68.6579 26.8436 69.1194 27.7811 69.3077C28.7188 69.4958 30.0403 69.7288 30.7179 69.8253C31.4281 69.9263 33.2544 70.0004 35.0298 70C36.8208 69.9996 38.6541 69.9239 39.4103 69.8193C40.1255 69.7201 41.4324 69.4886 42.3145 69.3047C43.1964 69.1208 44.7034 68.7192 45.6631 68.4122C46.6229 68.1054 47.9956 67.604 48.7136 67.298C49.4315 66.9921 50.5426 66.4661 51.1826 66.1295C51.8225 65.7926 52.9183 65.1585 53.6175 64.7204C54.3169 64.2821 55.4565 63.4949 56.15 62.971C56.8436 62.4472 57.9505 61.5209 58.6097 60.9125C59.2691 60.3043 60.3062 59.267 60.9142 58.6074C61.5224 57.948 62.4485 56.8408 62.9722 56.1471C63.4959 55.4534 64.3012 54.2863 64.7616 53.5535C65.2221 52.8208 66.0524 51.2852 66.6068 50.1412C67.1614 48.9972 67.9203 47.1349 68.2934 46.0027C68.6666 44.8706 69.1242 43.1844 69.3105 42.2555C69.4968 41.3268 69.728 40.0123 69.8244 39.3345C69.9238 38.635 69.9997 36.8001 70 35.0899C70.0004 32.9093 69.9314 31.5862 69.7502 30.2976C69.6126 29.3186 69.2645 27.5894 68.9769 26.4548C68.6893 25.3203 68.2295 23.7799 67.9552 23.0317C67.6808 22.2836 67.0031 20.7472 66.4491 19.6176C65.8951 18.4879 65.1482 17.1016 64.7892 16.5368C64.4303 15.972 63.6123 14.8013 62.9715 13.9352C62.2834 13.0053 60.9627 11.5166 59.7456 10.2992C58.5285 9.08186 57.0403 7.76082 56.1105 7.07251C55.2447 6.43157 54.0743 5.61331 53.5097 5.2543C52.945 4.89529 51.559 4.1481 50.4297 3.59397C49.3004 3.03984 47.7604 2.35933 47.0075 2.08179C46.2546 1.80411 44.7147 1.34514 43.5853 1.06185C42.456 0.778552 40.8236 0.444596 39.9578 0.319722C39.092 0.194848 37.4904 0.0625801 36.3987 0.0254739C34.77 -0.0295693 34.3279 -0.00245843 33.9347 0.176637ZM21.6149 2.65194C21.3513 2.76613 20.9607 3.0256 20.7467 3.22852C20.5329 3.43144 20.2402 3.82619 20.0965 4.10552C19.9406 4.4088 19.8353 4.89337 19.8353 5.30798C19.8353 5.68999 19.9306 6.2307 20.0472 6.50961C20.1637 6.78866 20.3946 7.16233 20.5605 7.34019C20.7263 7.51792 21.1084 7.79012 21.4095 7.94498C21.7821 8.13667 22.2079 8.22444 22.7419 8.21992C23.3364 8.21486 23.6773 8.1249 24.1481 7.849C24.4898 7.64868 24.9326 7.23791 25.1322 6.9364C25.3726 6.57301 25.5153 6.14184 25.5554 5.6585C25.5887 5.25731 25.5408 4.70113 25.4489 4.42263C25.357 4.14413 25.0887 3.69625 24.8527 3.42733C24.6165 3.15842 24.1764 2.82624 23.8747 2.68904C23.5729 2.55185 23.0488 2.4408 22.71 2.44203C22.3712 2.4434 21.8784 2.53774 21.6149 2.65194ZM11.5156 9.47798C11.1935 9.58026 10.7223 9.82234 10.4686 10.0159C10.215 10.2094 9.87797 10.6354 9.71959 10.9625C9.5441 11.3252 9.43309 11.8205 9.43486 12.2327C9.43651 12.6043 9.5519 13.1548 9.69139 13.456C9.83074 13.7572 10.122 14.1699 10.3386 14.373C10.5552 14.576 10.9613 14.838 11.2412 14.9549C11.5212 15.0718 12.0006 15.1676 12.3065 15.1676C12.6124 15.1676 13.0918 15.0718 13.3718 14.9549C13.6517 14.838 14.0558 14.576 14.2697 14.373C14.4836 14.1699 14.7828 13.7623 14.9343 13.4672C15.1497 13.0485 15.1981 12.7414 15.1551 12.0666C15.1116 11.3824 15.0145 11.0805 14.6897 10.6177C14.4638 10.2961 14.0355 9.90052 13.7378 9.73868C13.4399 9.5767 12.9499 9.41006 12.6487 9.36816C12.3429 9.32558 11.8426 9.37419 11.5156 9.47798ZM3.8879 20.2244C3.51146 20.4438 3.04946 20.8545 2.86124 21.1373C2.56995 21.5747 2.51902 21.809 2.51902 22.7108C2.51902 23.6669 2.559 23.827 2.92969 24.3533C3.15555 24.6741 3.61755 25.0846 3.95635 25.2656C4.47036 25.5403 4.72401 25.5867 5.48839 25.5459C6.25277 25.5053 6.50205 25.4265 6.99388 25.0701C7.31803 24.8353 7.72199 24.3807 7.89159 24.0599C8.10596 23.6545 8.19945 23.2434 8.19863 22.7111C8.19754 22.1152 8.10774 21.7892 7.79385 21.2416C7.47874 20.6921 7.23316 20.4596 6.67316 20.1805C6.18241 19.9358 5.73753 19.8234 5.26417 19.8242C4.74961 19.8251 4.39699 19.9277 3.8879 20.2244Z" fill="white"/>
<path fill-rule="evenodd" clip-rule="evenodd" d="M35.1171 60.2343C48.9889 60.2343 60.2343 48.9889 60.2343 35.1171C60.2343 21.2453 48.9889 10 35.1171 10C21.2453 10 10 21.2453 10 35.1171C10 48.9889 21.2453 60.2343 35.1171 60.2343ZM33.4561 20.7598C33.6399 20.5854 33.9756 20.3625 34.2019 20.2644C34.4283 20.1663 34.8402 20.0841 35.1171 20.0815C35.3941 20.079 35.8175 20.1591 36.058 20.2596C36.2985 20.3601 36.6457 20.5851 36.8295 20.7595C37.0132 20.934 37.2646 21.2733 37.3881 21.5132C37.5971 21.9199 37.6125 22.2511 37.6125 26.3557V30.7618L38.1736 31.1737C38.4822 31.4003 38.908 31.8272 39.12 32.1224C39.3318 32.4174 39.6132 32.9033 39.7454 33.202C39.8775 33.5007 40.0323 34.0757 40.0895 34.4798C40.1521 34.9215 40.1494 35.4865 40.0827 35.8964C40.0216 36.2714 39.8143 36.9145 39.622 37.3256C39.4207 37.7559 39.0196 38.3258 38.6766 38.669C38.3334 39.0122 37.7637 39.4133 37.3335 39.6147C36.9225 39.807 36.2796 40.0144 35.9046 40.0755C35.4949 40.1422 34.93 40.1449 34.4884 40.0823C34.0845 40.0251 33.5096 39.8702 33.211 39.7381C32.9124 39.6059 32.4266 39.3244 32.1316 39.1125C31.8365 38.9005 31.4098 38.4746 31.1833 38.1659L30.7714 37.6047H27.6611C25.1198 37.6047 24.471 37.5714 24.1152 37.4226C23.8755 37.3225 23.5545 37.124 23.4018 36.9814C23.2491 36.839 23.0131 36.5106 22.8774 36.2518C22.7137 35.9398 22.6306 35.5634 22.6306 35.1343C22.6306 34.7052 22.7137 34.3289 22.8774 34.0168C23.0131 33.758 23.2491 33.4296 23.4018 33.2872C23.5545 33.1446 23.8755 32.9462 24.1152 32.8461C24.471 32.6972 25.12 32.664 27.6638 32.664H30.7768L31.1638 32.1248C31.3767 31.8283 31.8034 31.4003 32.112 31.1737L32.6731 30.7618V26.3557C32.6731 22.2511 32.6885 21.9199 32.8975 21.5132C33.021 21.2733 33.2724 20.9341 33.4561 20.7598Z" fill="white"/>
</svg>
