<svg width="87" height="76" viewBox="0 0 87 76" fill="none" xmlns="http://www.w3.org/2000/svg">
<path d="M84.5279 58.3091L53.061 5.62234C50.9753 2.08571 47.2573 0 43.0859 0C38.9145 0 35.1965 2.08571 33.1108 5.62234L1.64381 58.3091C-0.532581 61.9364 -0.532581 66.2892 1.55312 70.0072C3.63883 73.7252 7.44751 75.9016 11.6189 75.9016H74.5528C78.8149 75.9016 82.5329 73.7252 84.6186 70.0072C86.7043 66.2892 86.7043 61.9364 84.5279 58.3091ZM43.0859 63.5687C40.3654 63.5687 38.189 61.3923 38.189 58.6718C38.189 55.9513 40.3654 53.7749 43.0859 53.7749C45.8064 53.7749 47.9827 55.9513 47.9827 58.6718C47.9827 61.3923 45.8064 63.5687 43.0859 63.5687ZM48.3455 26.298L46.6225 46.5203C46.4411 48.4246 44.7182 49.8756 42.8138 49.6942C41.0909 49.5128 39.7306 48.1526 39.6399 46.5203L37.917 26.298C37.6449 23.3962 39.8213 20.8571 42.7231 20.585C45.625 20.313 48.1641 22.4893 48.4362 25.3912C48.3455 25.6632 48.3455 26.026 48.3455 26.298Z" fill="#808080"/>
</svg>
