<svg width="76" height="67" viewBox="0 0 76 67" fill="none" xmlns="http://www.w3.org/2000/svg">
<path d="M0 49.8606L7.63586 42.1172L24.3121 59.0283L16.6763 66.7718L0 49.8606Z" fill="white"/>
<path d="M73.8611 25.6918C72.0834 24.159 69.3855 24.35 67.8396 26.1178L57.1703 38.3446C57.175 38.4182 57.175 38.4866 57.175 38.5602C57.175 41.4884 54.777 43.8727 51.8332 43.8727H34.4146C34.0697 43.8727 33.7942 43.5987 33.7942 43.2557C33.7942 42.9128 34.0697 42.6388 34.4146 42.6388H51.8387C54.1034 42.6388 55.9397 40.8072 55.9397 38.5602C55.9397 38.4329 55.9349 38.3104 55.9201 38.1883C55.8365 37.2384 55.4129 36.3474 54.7385 35.6715C53.9653 34.9025 52.9318 34.477 51.8386 34.477L19.2394 34.4765C16.6991 34.4765 14.3112 35.4606 12.514 37.2479L8.56055 41.1797L25.3402 57.8714L28.0581 55.1637C29.0625 54.1648 30.2345 53.3864 31.5487 52.8477C32.8583 52.3091 34.2419 52.0351 35.6645 52.0351H52.084C54.7427 52.0351 57.4951 50.7864 59.4445 48.6908L74.2893 31.6799C74.9637 30.9062 75.3333 29.922 75.3333 28.9038C75.3333 27.6693 74.7965 26.499 73.8609 25.6911L73.8611 25.6918Z" fill="white"/>
<path d="M37.4931 30.1334C41.5295 30.1334 45.1702 28.6077 48.0255 25.7202C50.8807 22.8322 52.3886 19.1498 52.3886 15.067C52.3886 10.9842 50.8803 7.30181 48.0255 4.41372C45.1703 1.52523 41.5297 0 37.4931 0C33.4567 0 29.8161 1.52509 26.9608 4.41318C24.1056 7.30113 22.5977 10.9835 22.5977 15.0664C22.5977 19.1493 24.106 22.8316 26.9608 25.7196C29.8159 28.6076 33.4566 30.1334 37.4931 30.1334ZM33.2664 17.9248C33.3885 17.7222 33.5935 17.5891 33.8279 17.5695C33.8525 17.5695 33.8766 17.5647 33.9013 17.5647C34.2038 17.5647 34.4675 17.7423 34.5797 18.0186C34.7653 18.4827 35.0285 18.8629 35.3556 19.1492C35.8826 19.6085 36.5903 19.8402 37.4544 19.8402C38.3619 19.8402 39.0697 19.6329 39.5578 19.2182C40.0753 18.7839 40.3338 18.2557 40.3338 17.6533C40.3338 17.2434 40.2116 16.8881 39.9678 16.5969C39.7382 16.3207 39.3822 16.0985 38.8694 15.9155C38.5669 15.8068 37.9079 15.6292 36.8535 15.3624C35.6188 15.0517 34.7501 14.6762 34.2814 14.2514C33.6323 13.6639 33.3198 12.9729 33.3198 12.1334C33.3198 11.6052 33.4714 11.1014 33.7686 10.6373C34.0664 10.1733 34.5058 9.81801 35.0767 9.57089C35.5795 9.35346 36.1845 9.22513 36.8823 9.19066V8.77597C36.8823 8.43552 37.1555 8.15393 37.4973 8.15393C37.8391 8.15393 38.1123 8.43022 38.1123 8.77597V9.21559C39.1126 9.31422 39.8937 9.60058 40.4306 10.0747C40.709 10.3165 40.9334 10.5981 41.0991 10.9088C41.2212 11.131 41.216 11.3978 41.0944 11.62C40.9675 11.8469 40.7379 11.9901 40.4794 12.0002H40.4259C40.1234 12.015 39.8502 11.8469 39.7281 11.5754C39.5766 11.2498 39.3768 10.9783 39.1278 10.7805C38.6931 10.4347 38.0687 10.2571 37.2682 10.2571C36.4529 10.2571 35.7891 10.4395 35.3064 10.7953C34.9158 11.0817 34.716 11.4715 34.716 11.9556C34.716 12.3953 34.8964 12.775 35.2529 13.0762C35.6236 13.3922 36.4289 13.6982 37.7175 14.0042C38.8694 14.2805 39.7281 14.5621 40.2602 14.8484C40.7531 15.1099 41.1437 15.4752 41.422 15.9297C41.6952 16.3789 41.8367 16.9516 41.8367 17.6378C41.8367 18.245 41.6658 18.8272 41.3292 19.3607C40.9974 19.8888 40.5192 20.2887 39.9043 20.5501C39.4114 20.7575 38.8111 20.8906 38.118 20.9399V21.3647C38.118 21.7104 37.8448 21.9867 37.503 21.9867C37.1612 21.9867 36.888 21.7104 36.888 21.3647V20.9452C35.7362 20.871 34.8333 20.5554 34.199 19.9976C33.7743 19.6274 33.4425 19.1486 33.2181 18.571C33.1247 18.3589 33.1447 18.1224 33.2663 17.9246L33.2664 17.9248Z" fill="white"/>
</svg>
