<svg width="85" height="77" viewBox="0 0 85 77" fill="none" xmlns="http://www.w3.org/2000/svg">
<path d="M41.8234 0.0019436C41.8128 0.0121431 41.8024 0.022534 41.7922 0.0331326C31.1207 0.115133 20.4591 4.18008 12.3234 12.3144C-4.12232 28.7572 -4.10368 55.4525 12.3547 71.9083C13.8293 73.3828 15.3707 74.7809 17.0109 76.0019C17.2427 76.1787 17.5329 76.261 17.8229 76.232C18.113 76.203 18.3812 76.0649 18.5734 75.8458C18.9477 75.4324 19.3085 75.0169 19.6671 74.6583C32.091 62.2366 52.1998 62.2563 64.6359 74.6893C65.0146 75.0679 65.373 75.4519 65.7296 75.8455C65.9204 76.0562 66.1825 76.1887 66.4653 76.2176C66.748 76.2464 67.0314 76.1695 67.2609 76.0018C68.8941 74.788 70.4596 73.4279 71.9484 71.9393C88.3941 55.4966 88.3754 28.8011 71.9172 12.3454C63.6888 4.11875 52.9224 0.00629946 42.1359 0.00169946C42.0943 -0.000566485 42.0525 -0.000566485 42.0109 0.00169946C41.9797 0.000426635 41.9484 0.000426635 41.9172 0.00169946C41.886 0.000426635 41.8546 0.000670776 41.8234 0.0019436ZM41.8234 8.06444C41.8546 8.06317 41.8858 8.06317 41.9171 8.06444C41.9483 8.06317 41.9795 8.06317 42.0108 8.06444C42.0524 8.06218 42.0941 8.06218 42.1358 8.06444C50.8597 8.06844 59.6032 11.3769 66.2608 18.0332C79.1692 30.9394 79.5633 51.6571 67.4483 65.0333C67.2574 65.2439 66.9954 65.3765 66.7126 65.4053C66.4299 65.4342 66.1464 65.3573 65.917 65.1895C51.8546 54.7007 32.452 54.7043 18.3859 65.1585C18.1564 65.3263 17.873 65.4032 17.5903 65.3743C17.3075 65.3455 17.0454 65.213 16.8546 65.0024C4.72997 51.6189 5.14439 30.929 18.0421 18.0335C24.6061 11.4707 33.1817 8.179 41.7921 8.096C41.8023 8.0854 41.8128 8.07464 41.8234 8.06444ZM42.1359 10.3457C33.9945 10.3417 25.879 13.4474 19.6671 19.6582C7.85515 31.468 7.35795 50.1881 18.0109 62.6895C32.4888 52.5516 51.8557 52.5637 66.3234 62.7515C76.9803 50.2574 76.4637 31.4834 64.6359 19.6577C58.4503 13.4733 50.3623 10.3802 42.2609 10.3452C42.2193 10.345 42.1775 10.3457 42.1359 10.3457ZM58.4484 20.9707C58.7128 20.9531 59.1743 21.0093 59.5109 21.3457C59.8475 21.6823 59.9037 22.1123 59.8859 22.3769C59.8681 22.6415 59.8015 22.8272 59.7296 23.0019C59.5857 23.3512 59.3769 23.68 59.1046 24.0644L50.1359 36.7519C50.7969 39.4614 50.0865 42.4268 47.9796 44.5333C44.7692 47.7386 39.5368 47.7462 36.3234 44.5333C33.11 41.3205 33.1129 36.0866 36.3234 32.8769C38.4223 30.7776 41.3726 30.0737 44.0734 30.7207L56.7921 21.7207V21.7519C57.1766 21.4796 57.4738 21.2707 57.8234 21.1269C57.9981 21.0547 58.1839 20.9887 58.4484 20.9707Z" fill="#808080"/>
</svg>
