<svg width="83" height="83" viewBox="0 0 83 83" fill="none" xmlns="http://www.w3.org/2000/svg">
<path d="M64.168 78.9829V81.6734C67.1443 81.6734 69.549 79.2687 69.549 76.2924H66.8585C66.8585 77.7721 65.6477 78.9829 64.168 78.9829Z" fill="#808080"/>
<path d="M64.1692 68.2219C64.1692 72.678 60.5538 76.2934 56.0977 76.2934V78.9839C62.0336 78.9839 66.8597 74.1578 66.8597 68.2219H64.1692Z" fill="#808080"/>
<path d="M60.1329 64.32V62.0499L61.8649 63.7819C62.3862 64.3032 63.2438 64.3032 63.765 63.7819L82.5986 44.9483L75.3174 0L37.6503 37.6671C37.129 38.1884 37.129 39.046 37.6503 39.5673L38.5583 40.4753L34.7244 41.2489L13.4021 31.7816C11.4515 30.924 9.19818 31.0249 7.33163 32.0843L2.75777 34.6907C1.05939 35.6661 0.470839 37.8185 1.44615 39.5168C1.59749 39.7859 1.79928 40.0381 2.01788 40.2567L6.72627 44.9651C5.28012 45.1669 3.95168 45.8395 2.92593 46.8653L1.34525 48.446C0.823968 48.9673 0.823968 49.8249 1.34525 50.3461L12.494 61.4949L0 73.989L8.62644 82.6154L21.1205 70.1214L32.2693 81.2702C32.7906 81.7915 33.6482 81.7915 34.1695 81.2702L35.7501 79.6895C36.7759 78.6637 37.4485 77.3185 37.6503 75.8892L42.1233 80.3621C43.9057 82.1278 46.7644 82.1278 48.5469 80.3621L56.9883 71.9207C59.0062 69.9196 60.1329 67.1786 60.1329 64.32ZM57.4424 62.1339C49.3204 58.3672 43.1658 51.3719 40.4417 42.8464L40.8621 42.7623L57.4424 59.3425V62.1339ZM67.2459 17.4883L69.1461 19.3885L53.003 35.5315L51.1028 33.6314L67.2459 17.4883ZM49.7576 34.9766L51.6578 36.8768L48.9673 39.5673L47.0671 37.6671L49.7576 34.9766ZM33.85 77.8061L33.2278 78.4283L4.1871 49.3876L4.80928 48.7655C6.38996 47.1848 8.94594 47.1848 10.5098 48.7655L33.85 72.0888C35.4306 73.6695 35.4306 76.2255 33.85 77.8061ZM49.3708 75.7378L8.27331 34.6403L8.66007 34.4217C9.76991 33.7827 11.132 33.7154 12.3091 34.2367L21.07 38.138L19.5062 39.7018L21.4064 41.602L23.7101 39.2982L26.6697 40.6099L23.5588 43.7208L25.4589 45.6209L29.3097 41.7701L32.2693 43.0818L27.5945 47.7565L29.4947 49.6567L35.2625 43.8889L37.8185 43.3845C40.8116 53.1712 48.0088 61.1082 57.4255 65.0599C57.2574 66.9432 56.4334 68.6921 55.0882 70.0205L49.3708 75.7378Z" fill="#808080"/>
<path d="M7.90337 27.8645C8.97957 27.8645 10.0053 28.2849 10.762 29.0416L12.6622 27.1414C10.039 24.5182 5.78459 24.5182 3.14453 27.1414L5.0447 29.0416C5.80141 28.2849 6.82716 27.8645 7.90337 27.8645Z" fill="#808080"/>
<path d="M7.9031 22.4828C8.60935 22.4828 9.2988 22.7687 9.80327 23.2732L11.7034 21.373C9.60148 19.271 6.1879 19.271 4.08594 21.373L5.98611 23.2732C6.5074 22.7687 7.18002 22.4828 7.9031 22.4828Z" fill="#808080"/>
<path d="M16.0934 30.7723L18.7502 30.3351C18.6157 29.5111 18.5148 28.6872 18.4812 27.8632H21.1717C21.3062 29.8643 21.7266 31.8485 22.4497 33.7319L24.9552 32.7734C22.5506 26.4675 23.9967 19.3376 28.6547 14.4443L37.6511 23.4407C36.6926 25.4585 37.5334 27.8632 39.5512 28.8217C41.5691 29.7802 43.9738 28.9394 44.9323 26.9215C45.8907 24.9036 45.05 22.499 43.0321 21.5405C41.9391 21.0192 40.6443 21.0192 39.5512 21.5405L30.6557 12.645C38.2396 6.82678 49.1025 8.18885 55.0217 15.7055L57.1404 14.0407C53.6091 9.5341 48.329 6.75951 42.6285 6.38957V3.69906C49.0521 4.069 55.0385 7.14627 59.0742 12.1573L61.1594 10.459C52.3143 -0.521675 36.2385 -2.23687 25.2579 6.62499C25.1402 6.70907 25.0393 6.80996 24.9216 6.89404L22.0629 4.03537L20.1628 5.93554L22.9542 8.72695C18.3298 13.5026 15.7402 19.8757 15.7402 26.5179C15.7402 27.9473 15.8579 29.3766 16.0934 30.7723ZM42.6453 25.1727C42.6453 25.9126 42.04 26.5179 41.3001 26.5179C40.5602 26.5179 39.9548 25.9126 39.9548 25.1727C39.9548 24.4328 40.5602 23.8274 41.3001 23.8274C42.04 23.8274 42.6453 24.4328 42.6453 25.1727ZM39.9548 3.68224V6.37275C35.8686 6.6418 31.9505 8.15521 28.7556 10.7112L26.8386 8.81103C30.5548 5.76739 35.1455 3.96811 39.9548 3.68224ZM26.7545 12.5441C23.4586 15.9577 21.4744 20.4307 21.1549 25.1727H18.4644C18.7839 19.7244 21.054 14.562 24.8543 10.6439L26.7545 12.5441Z" fill="#808080"/>
</svg>
