<svg width="48" height="66" viewBox="0 0 48 66" fill="none" xmlns="http://www.w3.org/2000/svg">
<path d="M23.9999 0C17.6373 0.00834549 11.5377 2.56264 7.03859 7.10273C2.53953 11.6428 0.00832579 17.7981 5.57171e-05 24.2188C-0.0092175 28.5342 1.13921 32.7717 3.32351 36.4818L22.1226 64.9759C22.3254 65.2917 22.6036 65.551 22.9317 65.7299C23.2597 65.9089 23.6271 66.0017 23.9999 66C24.3723 65.9987 24.7386 65.9046 25.0661 65.7259C25.3937 65.5472 25.6724 65.2896 25.8774 64.9759L43.1543 38.8115L44.7273 36.3794C46.8847 32.6977 48.0155 28.4959 47.9998 24.2188C47.9916 17.7981 45.4603 11.6428 40.9613 7.10274C36.4622 2.56266 30.3626 0.00835901 23.9999 0ZM23.9999 33C22.2789 33 20.5965 32.485 19.1654 31.5201C17.7344 30.5552 16.6191 29.1838 15.9605 27.5792C15.3019 25.9746 15.1295 24.209 15.4653 22.5056C15.8011 20.8022 16.6298 19.2376 17.8468 18.0095C19.0638 16.7814 20.6143 15.9451 22.3023 15.6063C23.9903 15.2674 25.7399 15.4413 27.33 16.106C28.9201 16.7706 30.2791 17.8961 31.2353 19.3402C32.1915 20.7842 32.7018 22.482 32.7018 24.2188C32.7021 25.372 32.4772 26.514 32.04 27.5795C31.6028 28.645 30.9618 29.6132 30.1537 30.4286C29.3456 31.2441 28.3862 31.8909 27.3303 32.3321C26.2744 32.7733 25.1428 33.0003 23.9999 33Z" fill="#808080"/>
</svg>
