<svg width="50" height="74" viewBox="0 0 50 74" fill="none" xmlns="http://www.w3.org/2000/svg">
<path d="M24.6466 0C31.4521 0 37.6126 2.75892 42.07 7.21633C46.5297 11.676 49.2864 17.8366 49.2864 24.6397C49.2864 37.9317 42.1022 46.1533 34.5645 54.7835C31.5715 58.2104 28.5187 61.7038 25.9044 65.5621C25.4316 66.2576 24.4837 66.4389 23.7882 65.9684C23.6183 65.8536 23.4783 65.7067 23.3705 65.5438C20.7584 61.6946 17.7103 58.2035 14.7219 54.7835C7.1842 46.1556 0 37.9317 0 24.6397C0 17.8343 2.75892 11.6738 7.21633 7.21633L7.31044 7.13141C11.7633 2.72449 17.8871 0 24.642 0H24.6466ZM34.4727 60.99C33.713 60.625 33.3962 59.7115 33.7612 58.9518C34.1261 58.192 35.0396 57.8753 35.7994 58.2402C37.3601 58.9931 38.6386 59.9158 39.5315 60.9601C40.4955 62.0871 41.0326 63.3518 41.0326 64.7083C41.0326 66.9186 39.621 68.8788 37.25 70.3707C35.1062 71.7226 32.1063 72.7257 28.6771 73.1664C27.8439 73.2719 27.0796 72.6798 26.974 71.8466C26.8684 71.0134 27.4606 70.2491 28.2938 70.1435C31.2777 69.7579 33.8415 68.9155 35.6249 67.7908C37.0962 66.8636 37.9707 65.7894 37.9707 64.7083C37.9707 64.1138 37.6998 63.5148 37.2109 62.9455C36.5958 62.2271 35.657 61.5638 34.4704 60.99H34.4727ZM21.0017 70.1435C21.8349 70.2491 22.4271 71.0134 22.3215 71.8466C22.2159 72.6798 21.4516 73.2719 20.6184 73.1664C17.1893 72.7234 14.1894 71.7226 12.0456 70.3707C9.67457 68.8765 8.26298 66.9186 8.26298 64.7083C8.26298 63.3518 8.79778 62.0871 9.76409 60.9601C10.6592 59.9181 11.9354 58.9954 13.4962 58.2402C14.2559 57.8753 15.1672 58.192 15.5344 58.9518C15.8993 59.7115 15.5826 60.6227 14.8229 60.99C13.6362 61.5615 12.6974 62.2271 12.0823 62.9455C11.5934 63.5148 11.3226 64.1138 11.3226 64.7083C11.3226 65.7871 12.1971 66.8636 13.6683 67.7908C15.4541 68.9178 18.0179 69.7579 20.9994 70.1435H21.0017ZM34.071 15.2199C31.661 12.8099 28.3282 11.318 24.6489 11.318C20.9696 11.318 17.6369 12.8099 15.2268 15.2199C12.8168 17.63 11.3249 20.9627 11.3249 24.642C11.3249 28.3214 12.8168 31.6541 15.2268 34.0641C17.6369 36.4742 20.9696 37.9661 24.6489 37.9661C28.3282 37.9661 31.661 36.4742 34.071 34.0641C36.481 31.6541 37.973 28.3214 37.973 24.642C37.973 20.9627 36.481 17.63 34.071 15.2199Z" fill="#808080"/>
</svg>
