<svg width="85" height="77" viewBox="0 0 85 77" fill="none" xmlns="http://www.w3.org/2000/svg">
<path d="M42.0968 0.0019436C42.0862 0.0121431 42.0758 0.022534 42.0656 0.0331326C31.3941 0.115133 20.7326 4.18008 12.5968 12.3144C-3.84889 28.7572 -3.83024 55.4525 12.6281 71.9083C14.1027 73.3828 15.6441 74.7809 17.2843 76.0019C17.5161 76.1787 17.8063 76.261 18.0964 76.232C18.3864 76.203 18.6546 76.0649 18.8468 75.8458C19.2212 75.4324 19.582 75.0169 19.9405 74.6583C32.3645 62.2366 52.4732 62.2563 64.9093 74.6893C65.288 75.0679 65.6464 75.4519 66.0031 75.8455C66.1939 76.0562 66.4559 76.1887 66.7387 76.2176C67.0215 76.2464 67.3049 76.1695 67.5343 76.0018C69.1676 74.788 70.733 73.4279 72.2218 71.9393C88.6675 55.4966 88.6488 28.8011 72.1906 12.3454C63.9622 4.11875 53.1958 0.00629946 42.4093 0.00169946C42.3677 -0.000566485 42.326 -0.000566485 42.2843 0.00169946C42.2531 0.000426635 42.2219 0.000426635 42.1906 0.00169946C42.1594 0.000426635 42.128 0.000670776 42.0968 0.0019436ZM42.0968 8.06444C42.128 8.06317 42.1593 8.06317 42.1905 8.06444C42.2217 8.06317 42.253 8.06317 42.2842 8.06444C42.3258 8.06218 42.3676 8.06218 42.4092 8.06444C51.1332 8.06844 59.8766 11.3769 66.5342 18.0332C79.4427 30.9394 79.8367 51.6571 67.7217 65.0333C67.5309 65.2439 67.2688 65.3765 66.9861 65.4053C66.7033 65.4342 66.4199 65.3573 66.1904 65.1895C52.128 54.7007 32.7254 54.7043 18.6593 65.1585C18.4299 65.3263 18.1464 65.4032 17.8637 65.3743C17.5809 65.3455 17.3189 65.213 17.128 65.0024C5.00341 51.6189 5.41783 30.929 18.3155 18.0335C24.8796 11.4707 33.4552 8.179 42.0655 8.096C42.0757 8.0854 42.0862 8.07464 42.0968 8.06444ZM42.4093 10.3457C34.2679 10.3417 26.1524 13.4474 19.9405 19.6582C8.12859 31.468 7.63139 50.1881 18.2843 62.6895C32.7623 52.5516 52.1292 52.5637 66.5968 62.7515C77.2538 50.2574 76.7371 31.4834 64.9093 19.6577C58.7238 13.4733 50.6357 10.3802 42.5343 10.3452C42.4927 10.345 42.4509 10.3457 42.4093 10.3457ZM58.7218 20.9707C58.9863 20.9531 59.4477 21.0093 59.7843 21.3457C60.1209 21.6823 60.1771 22.1123 60.1593 22.3769C60.1415 22.6415 60.0749 22.8272 60.003 23.0019C59.8592 23.3512 59.6503 23.68 59.378 24.0644L50.4093 36.7519C51.0704 39.4614 50.3599 42.4268 48.253 44.5333C45.0426 47.7386 39.8102 47.7462 36.5968 44.5333C33.3834 41.3205 33.3864 36.0866 36.5968 32.8769C38.6957 30.7776 41.646 30.0737 44.3468 30.7207L57.0655 21.7207V21.7519C57.4501 21.4796 57.7473 21.2707 58.0968 21.1269C58.2716 21.0547 58.4573 20.9887 58.7218 20.9707Z" fill="white"/>
</svg>
