<svg width="65" height="64" viewBox="0 0 65 64" fill="none" xmlns="http://www.w3.org/2000/svg">
<path d="M32.4879 11.1125C33.3642 11.1125 34.0754 10.4013 34.0754 9.525V1.5875C34.0754 0.7112 33.3642 0 32.4879 0C31.6116 0 30.9004 0.7112 30.9004 1.5875V9.525C30.9004 10.4013 31.6116 11.1125 32.4879 11.1125Z" fill="white"/>
<path d="M48.2062 17.6211C48.6126 17.6211 49.019 17.4656 49.3302 17.1576L56.0643 10.4234C56.6835 9.8043 56.6835 8.79782 56.0643 8.1787C55.4452 7.55957 54.4387 7.55957 53.8196 8.1787L47.0854 14.9129C46.4663 15.532 46.4663 16.5385 47.0854 17.1576C47.3934 17.4656 47.7998 17.6211 48.2062 17.6211Z" fill="white"/>
<path d="M62.65 30.1625H54.7125C53.8362 30.1625 53.125 30.8737 53.125 31.75C53.125 32.6263 53.8362 33.3375 54.7125 33.3375H62.65C63.5263 33.3375 64.2375 32.6263 64.2375 31.75C64.2375 30.8737 63.5263 30.1625 62.65 30.1625Z" fill="white"/>
<path d="M11.8508 31.75C11.8508 30.8737 11.1396 30.1625 10.2633 30.1625H2.32578C1.44948 30.1625 0.738281 30.8737 0.738281 31.75C0.738281 32.6263 1.44948 33.3375 2.32578 33.3375H10.2633C11.1396 33.3375 11.8508 32.6263 11.8508 31.75Z" fill="white"/>
<path d="M15.6477 17.1575C15.9589 17.4686 16.3653 17.6242 16.7717 17.6242C17.1781 17.6242 17.5845 17.4686 17.8956 17.1607C18.5148 16.5415 18.5148 15.5351 17.8956 14.9159L11.1583 8.17858C10.5392 7.55945 9.53269 7.55945 8.91356 8.17858C8.29444 8.7977 8.29444 9.80418 8.91356 10.4233L15.6477 17.1575Z" fill="white"/>
<path d="M16.6133 44.45H48.3633V31.75C48.3633 23.8728 41.2418 17.4625 32.4883 17.4625C23.7348 17.4625 16.6133 23.8728 16.6133 31.75V44.45ZM32.4883 26.9875C35.114 26.9875 37.2508 29.1243 37.2508 31.75C37.2508 32.6263 36.5396 33.3375 35.6633 33.3375C34.787 33.3375 34.0758 32.6263 34.0758 31.75C34.0758 30.8769 33.3646 30.1625 32.4883 30.1625C31.612 30.1625 30.9008 29.4513 30.9008 28.575C30.9008 27.6987 31.612 26.9875 32.4883 26.9875Z" fill="white"/>
<path d="M49.9504 47.625H15.0254C10.6502 47.625 7.08789 51.1842 7.08789 55.5625C7.08789 59.9408 10.6502 63.5 15.0254 63.5H49.9504C54.3255 63.5 57.8879 59.9408 57.8879 55.5625C57.8879 51.1842 54.3255 47.625 49.9504 47.625Z" fill="white"/>
</svg>
