<svg width="59" height="68" viewBox="0 0 59 68" fill="none" xmlns="http://www.w3.org/2000/svg">
<path d="M37.1049 44.0727L37.3545 43.9283V43.6399V21.25C37.3545 19.1789 39.0334 17.5 41.1045 17.5C43.1755 17.5 44.8545 19.1789 44.8545 21.25V43.6399V43.9283L45.104 44.0727C47.4961 45.4571 49.1045 48.0403 49.1045 51C49.1045 55.4182 45.5227 59 41.1045 59C36.6862 59 33.1045 55.4182 33.1045 51C33.1045 48.0403 34.7128 45.4571 37.1049 44.0727ZM53.3545 39.757V39.9461L40.9837 67.9996L40.9872 67.4996C40.9872 67.4996 40.9871 67.4996 40.9871 67.4996C31.9261 67.4366 24.5584 59.9754 24.6047 50.914C24.6259 46.7633 26.1799 42.9768 28.7293 40.0879L28.8545 39.9461V39.757V12.75C28.8545 5.98456 34.339 0.5 41.1045 0.5C47.8699 0.5 53.3545 5.98456 53.3545 12.75V39.757ZM41.0245 62.1247L41.0262 62.1247L41.1027 62.125H41.1045C47.2392 62.125 52.2295 57.1348 52.2295 51C52.2295 46.6649 49.9892 44.1951 48.3415 42.3786C48.217 42.2414 48.096 42.1079 47.9795 41.9776V12.75C47.9795 8.95871 44.8958 5.875 41.1045 5.875C37.3132 5.875 34.2295 8.95871 34.2295 12.75V41.9777C34.1135 42.1074 33.9934 42.2401 33.87 42.3762C32.2169 44.2011 30.0016 46.6466 29.9796 50.9414C29.9484 57.0442 34.9233 62.0824 41.0245 62.1247Z" fill="white" stroke="#0C1723"/>
<path d="M3 24.3047H23.145" stroke="white" stroke-width="5" stroke-linecap="round" stroke-linejoin="round"/>
<path d="M17.0635 8.24414V40.4571" stroke="white" stroke-width="5" stroke-linecap="round" stroke-linejoin="round"/>
<path d="M4.99512 18.3164L11.0766 24.3504L4.99512 30.3844" stroke="white" stroke-width="5" stroke-linecap="round" stroke-linejoin="round"/>
<path d="M23.1451 12.2344L17.1111 18.3159L11.0771 12.2344" stroke="white" stroke-width="5" stroke-linecap="round" stroke-linejoin="round"/>
<path d="M11.0771 36.4663L17.0953 30.3848L20.1044 33.4255" stroke="white" stroke-width="5" stroke-linecap="round" stroke-linejoin="round"/>
</svg>
