<svg width="59" height="68" viewBox="0 0 59 68" fill="none" xmlns="http://www.w3.org/2000/svg">
<path d="M37.1059 44.0727L37.3554 43.9283V43.6399V21.25C37.3554 19.1789 39.0344 17.5 41.1054 17.5C43.1765 17.5 44.8555 19.1789 44.8555 21.25V43.6399V43.9283L45.105 44.0727C47.4971 45.4571 49.1055 48.0403 49.1055 51C49.1055 55.4182 45.5237 59 41.1054 59C36.6872 59 33.1054 55.4182 33.1054 51C33.1054 48.0403 34.7138 45.4571 37.1059 44.0727ZM53.3555 39.757V39.9461L40.9847 67.9996L40.9882 67.4996C40.9882 67.4996 40.9881 67.4996 40.9881 67.4996C31.9271 67.4366 24.5594 59.9754 24.6057 50.914C24.6268 46.7633 26.1809 42.9768 28.7303 40.0879L28.8554 39.9461V39.757V12.75C28.8554 5.98456 34.34 0.5 41.1054 0.5C47.8709 0.5 53.3555 5.98456 53.3555 12.75V39.757ZM41.0255 62.1247L41.0272 62.1247L41.1037 62.125H41.1054C47.2402 62.125 52.2305 57.1348 52.2305 51C52.2305 46.6649 49.9902 44.1951 48.3425 42.3786C48.218 42.2414 48.0969 42.1079 47.9805 41.9776V12.75C47.9805 8.95871 44.8967 5.875 41.1054 5.875C37.3142 5.875 34.2304 8.95871 34.2304 12.75V41.9777C34.1145 42.1074 33.9943 42.2401 33.871 42.3762C32.2179 44.2011 30.0026 46.6466 29.9806 50.9414C29.9494 57.0442 34.9243 62.0824 41.0255 62.1247Z" fill="white" stroke="#0C1723"/>
<path d="M3 24.3047H23.145" stroke="white" stroke-width="5" stroke-linecap="round" stroke-linejoin="round"/>
<path d="M17.0625 8.24414V40.4571" stroke="white" stroke-width="5" stroke-linecap="round" stroke-linejoin="round"/>
<path d="M4.99609 18.3164L11.0776 24.3504L4.99609 30.3844" stroke="white" stroke-width="5" stroke-linecap="round" stroke-linejoin="round"/>
<path d="M23.1461 12.2344L17.1121 18.3159L11.0781 12.2344" stroke="white" stroke-width="5" stroke-linecap="round" stroke-linejoin="round"/>
<path d="M11.0781 36.4663L17.0963 30.3848L20.1054 33.4255" stroke="white" stroke-width="5" stroke-linecap="round" stroke-linejoin="round"/>
</svg>
