<svg width="59" height="68" viewBox="0 0 59 68" fill="none" xmlns="http://www.w3.org/2000/svg">
<path d="M49.6045 51C49.6045 55.6944 45.7989 59.5 41.1045 59.5C36.4101 59.5 32.6045 55.6944 32.6045 51C32.6045 47.8543 34.3146 45.1099 36.8545 43.6399V21.25C36.8545 18.9028 38.7573 17 41.1045 17C43.4517 17 45.3545 18.9028 45.3545 21.25V43.6399C47.8944 45.1099 49.6045 47.8543 49.6045 51ZM53.8545 39.757C56.4991 42.7537 58.1045 46.689 58.1045 51C58.1045 60.3893 50.4939 68 41.1045 68C41.0648 68 41.0236 67.9999 40.9837 67.9996C31.6467 67.9348 24.057 60.2485 24.1047 50.9114C24.1265 46.6351 25.7281 42.7331 28.3545 39.757V12.75C28.3545 5.70841 34.0629 0 41.1045 0C48.1461 0 53.8545 5.70841 53.8545 12.75V39.757ZM51.7295 51C51.7295 46.4394 49.1569 44.0685 47.4795 42.1677V12.75C47.4795 9.23485 44.6196 6.375 41.1045 6.375C37.5893 6.375 34.7295 9.23485 34.7295 12.75V42.1677C33.0385 44.0839 30.5027 46.431 30.4796 50.944C30.4498 56.7712 35.2028 61.5844 41.028 61.6247L41.1045 61.625C46.9631 61.625 51.7295 56.8586 51.7295 51Z" fill="white"/>
<path d="M3 24.3047H23.145" stroke="white" stroke-width="5" stroke-linecap="round" stroke-linejoin="round"/>
<path d="M17.0635 8.24414V40.4571" stroke="white" stroke-width="5" stroke-linecap="round" stroke-linejoin="round"/>
<path d="M4.99512 18.3164L11.0766 24.3504L4.99512 30.3844" stroke="white" stroke-width="5" stroke-linecap="round" stroke-linejoin="round"/>
<path d="M23.1451 12.2344L17.1111 18.3159L11.0771 12.2344" stroke="white" stroke-width="5" stroke-linecap="round" stroke-linejoin="round"/>
<path d="M11.0771 36.4663L17.0953 30.3848L20.1044 33.4255" stroke="white" stroke-width="5" stroke-linecap="round" stroke-linejoin="round"/>
</svg>
