<svg width="70" height="70" viewBox="0 0 70 70" fill="none" xmlns="http://www.w3.org/2000/svg">
<path d="M11.659 7.96131e-05C8.5677 0.00281351 5.60378 1.23205 3.41788 3.41794C1.23199 5.60383 0.00275757 8.56776 2.36675e-05 11.6591C-0.00422257 13.7546 0.562976 15.8117 1.6406 17.6089L10.0403 30.2522C10.2235 30.5123 10.4657 30.7252 10.747 30.8735C11.0284 31.0218 11.341 31.1013 11.659 31.1053C11.978 31.1063 12.2924 31.029 12.5746 30.8803C12.8568 30.7315 13.0982 30.5159 13.2777 30.2522L21.7431 17.5214C22.7809 15.7502 23.3318 13.736 23.3398 11.6832C23.3478 9.63033 22.8126 7.6119 21.7886 5.83267C20.7646 4.05345 19.2882 2.57674 17.5092 1.55239C15.7302 0.528037 13.7119 -0.00751259 11.659 7.96131e-05ZM11.659 15.5527C10.892 15.5505 10.1429 15.3213 9.50605 14.8938C8.86922 14.4663 8.37326 13.8598 8.08075 13.1508C7.78823 12.4418 7.71227 11.662 7.86243 10.9099C8.01259 10.1577 8.38216 9.4669 8.9245 8.92456C9.46685 8.38221 10.1577 8.01265 10.9098 7.86248C11.662 7.71232 12.4417 7.78829 13.1508 8.0808C13.8598 8.37332 14.4663 8.86927 14.8937 9.5061C15.3212 10.1429 15.5505 10.8921 15.5526 11.6591C15.5558 12.1713 15.4573 12.679 15.2628 13.1529C15.0682 13.6267 14.7815 14.0572 14.4194 14.4194C14.0572 14.7816 13.6267 15.0683 13.1528 15.2628C12.679 15.4574 12.1712 15.5559 11.659 15.5527Z" fill="white"/>
<path d="M49.3025 13.6074C43.8166 13.6145 38.5573 15.7969 34.6782 19.6761C30.799 23.5553 28.6166 28.8145 28.6094 34.3004C28.6014 37.9876 29.5916 41.6083 31.475 44.7782L47.6838 69.1243C47.8587 69.3941 48.0986 69.6156 48.3814 69.7685C48.6642 69.9214 48.981 70.0008 49.3025 69.9993C49.6236 69.9982 49.9394 69.9178 50.2218 69.7651C50.5042 69.6124 50.7445 69.3923 50.9213 69.1243L65.8177 46.7688L67.1739 44.6907C69.0341 41.5451 70.0091 37.9549 69.9956 34.3004C69.9884 28.8145 67.806 23.5553 63.9268 19.6761C60.0477 15.797 54.7885 13.6145 49.3025 13.6074ZM49.3025 41.8033C47.8186 41.8033 46.368 41.3633 45.1341 40.5389C43.9003 39.7144 42.9386 38.5426 42.3707 37.1717C41.8029 35.8007 41.6543 34.2921 41.9438 32.8367C42.2333 31.3813 42.9479 30.0444 43.9972 28.9951C45.0465 27.9458 46.3833 27.2312 47.8388 26.9417C49.2942 26.6522 50.8028 26.8008 52.1737 27.3687C53.5447 27.9366 54.7165 28.8982 55.5409 30.1321C56.3654 31.3659 56.8054 32.8165 56.8054 34.3004C56.8056 35.2858 56.6117 36.2615 56.2347 37.1719C55.8578 38.0823 55.3051 38.9095 54.6084 39.6063C53.9116 40.3031 53.0844 40.8557 52.174 41.2327C51.2636 41.6097 50.2879 41.8036 49.3025 41.8033Z" fill="white"/>
<path d="M40.8367 66.1082C33.6196 66.1001 26.7005 63.2295 21.5972 58.1263C16.494 53.023 13.6234 46.1039 13.6153 38.8868V36.9424C13.6153 36.4267 13.4105 35.9322 13.0458 35.5675C12.6812 35.2029 12.1866 34.998 11.6709 34.998C11.1553 34.998 10.6607 35.2029 10.2961 35.5675C9.93142 35.9322 9.72656 36.4267 9.72656 36.9424V38.8868C9.736 47.1348 13.0167 55.0423 18.8489 60.8746C24.6812 66.7068 32.5887 69.9875 40.8367 69.9969C41.3524 69.9969 41.8469 69.7921 42.2116 69.4274C42.5762 69.0628 42.7811 68.5682 42.7811 68.0525C42.7811 67.5369 42.5762 67.0423 42.2116 66.6776C41.8469 66.313 41.3524 66.1082 40.8367 66.1082Z" fill="white"/>
</svg>
