<svg width="69" height="59" viewBox="0 0 69 59" fill="none" xmlns="http://www.w3.org/2000/svg">
<path d="M32.5125 0H6.58733C5.3593 0 4.33594 1.02336 4.33594 2.25139V47.3475C4.33594 48.5755 5.3593 49.5989 6.58733 49.5989H32.5125C33.7405 49.5989 34.7638 48.5755 34.7638 47.3475V2.25139C34.7638 1.02336 33.7405 0 32.5125 0ZM31.4209 28.5859C31.4209 29.8139 30.3975 30.8373 29.1695 30.8373H9.99853C8.7705 30.8373 7.74714 29.8139 7.74714 28.5859V4.91213C7.74714 4.29811 8.22471 3.75232 8.90695 3.75232H29.1695C30.3975 3.75232 31.4209 4.77568 31.4209 6.00371V28.5859Z" fill="white"/>
<path d="M48.75 58.4H1.88011C1.12964 58.4 0.515625 57.786 0.515625 57.0355V53.1468C0.515625 52.3963 1.12964 51.7823 1.88011 51.7823H48.75C49.5005 51.7823 50.1145 52.3963 50.1145 53.1468V57.0355C50.1145 57.786 49.5005 58.4 48.75 58.4Z" fill="white"/>
<path d="M39.6758 49.5306V30.9737C39.6758 29.4045 40.972 28.1765 42.473 28.1765C43.9739 28.1765 45.2701 29.4728 45.2701 30.9737V49.5306H39.6758Z" fill="white"/>
<path d="M42.5404 33.771C41.517 33.771 40.6301 33.2252 40.0843 32.3383C39.3339 30.9738 39.7432 29.2682 41.1077 28.5177L64.5085 15.0094C64.9179 14.7365 65.3954 14.6 65.9412 14.6C66.9646 14.6 67.8515 15.1458 68.3973 16.0327C69.1478 17.3972 68.7384 19.1028 67.3739 19.8533L43.9049 33.4299C43.4955 33.6345 43.018 33.771 42.5404 33.771Z" fill="white"/>
</svg>
