<svg width="68" height="67" viewBox="0 0 68 67" fill="none" xmlns="http://www.w3.org/2000/svg">
<path d="M34.377 0C15.8991 0 0.876953 15.0221 0.876953 33.5C0.876953 51.9779 15.8991 67 34.377 67C52.8548 67 67.877 51.9779 67.877 33.5C67.877 15.0221 52.8548 0 34.377 0ZM34.377 63.9674C26.5485 63.9674 19.3548 61.0053 13.9948 56.0684L23.8685 46.1947L25.6317 42.3863C25.8433 41.9632 25.9843 41.4695 26.0548 40.9758L26.2664 39.3537L11.8085 53.8821C6.94222 48.5221 3.90958 41.3284 3.90958 33.5C3.90958 16.7147 17.5917 3.03263 34.377 3.03263C42.2054 3.03263 49.3991 5.99474 54.7591 10.9316L42.1348 23.5558C42.3464 23.8379 42.558 24.0495 42.7696 24.3316C43.1927 24.8958 43.6864 25.3895 44.1801 25.8126L56.8748 13.0474C61.7412 18.4779 64.7738 25.6011 64.7738 33.4295C64.8443 50.2853 51.1622 63.9674 34.377 63.9674Z" fill="white"/>
<path d="M46.791 29.6915L44.6047 28.281C43.4057 27.5052 42.3478 26.5179 41.431 25.3894C38.3983 21.5105 37.6931 21.0873 36.6352 21.0168L33.1794 20.8052C32.4741 20.7347 31.6983 21.0168 30.0057 21.9337C27.0436 23.4852 24.6457 25.8831 23.0941 28.8452L22.1068 30.6789C21.5426 31.7368 21.8952 33.0063 22.9531 33.5705C23.3057 33.7115 23.5878 33.8526 23.9405 33.8526C24.7162 33.8526 25.4215 33.4294 25.7741 32.7242L26.832 30.82C27.5373 29.48 28.5247 28.3515 29.5826 27.3642L28.8773 33.7821L27.7489 41.3284C27.6783 41.9631 27.4668 42.5979 27.1847 43.1621L23.2352 51.5547C22.671 52.8242 23.1647 54.3052 24.4341 54.94C24.7868 55.081 25.1394 55.1515 25.492 55.1515C26.4089 55.1515 27.3257 54.5873 27.7489 53.6705L31.6983 45.2779C32.192 44.22 32.5447 43.1621 32.6857 42.0337L33.0383 39.7768L36.3531 43.021C36.9878 43.6558 37.4815 44.4316 37.6931 45.3484L39.5973 53.1768C39.8794 54.3052 40.9373 55.081 42.0657 55.081C42.2773 55.081 42.4889 55.081 42.7004 55.0105C44.0404 54.6579 44.8868 53.3179 44.5341 51.9779L42.6299 44.1494C42.2068 42.3158 41.2899 40.6937 39.9499 39.4242L36.6352 36.2505L38.3278 28.2105C39.4562 29.621 40.7962 30.82 42.3478 31.8779L44.5341 33.2884C45.5215 33.9231 46.791 33.641 47.4257 32.6537C47.9899 31.6663 47.7078 30.3263 46.791 29.6915Z" fill="white"/>
<path d="M35.0823 19.7475C37.6212 20.0296 39.9486 18.1959 40.2307 15.5864C40.5128 13.0475 38.6791 10.7201 36.0696 10.438C33.5307 10.1559 31.2033 11.9896 30.9212 14.599C30.6391 17.138 32.4728 19.4654 35.0823 19.7475Z" fill="white"/>
</svg>
