<svg width="78" height="50" viewBox="0 0 78 50" fill="none" xmlns="http://www.w3.org/2000/svg">
<path fill-rule="evenodd" clip-rule="evenodd" d="M64.6025 10.9427C67.3304 13.9822 68.7396 17.9385 68.5475 21.9294C73.7422 24.1983 77.1673 29.3641 77.1673 35.082C77.1673 43.0022 70.7241 49.4459 62.8039 49.4459H14.3634C6.44317 49.4459 0 43.0022 0 35.082C0 29.4803 3.30699 24.3854 8.3422 22.055C8.02067 20.6991 7.8574 19.3075 7.8574 17.904C7.8574 8.03198 15.8881 0 25.7601 0C32.9003 0 39.1991 4.13656 42.0677 10.4987C44.9778 7.50697 49.0308 5.829 53.2233 5.80952C57.5275 5.80952 61.6735 7.67716 64.6025 10.9427ZM35.7309 29.641C35.7309 30.1576 35.7916 30.6626 35.913 31.1561C36.0466 31.6382 36.2531 32.0744 36.5324 32.4646C36.8117 32.8549 37.176 33.1706 37.6253 33.4116C38.0746 33.6412 38.621 33.7559 39.2647 33.7559C39.9083 33.7559 40.4547 33.6412 40.904 33.4116C41.3533 33.1706 41.7176 32.8549 41.9969 32.4646C42.2762 32.0744 42.4766 31.6382 42.598 31.1561C42.7316 30.6626 42.7984 30.1576 42.7984 29.641C42.7984 29.1016 42.7316 28.5793 42.598 28.0743C42.4766 27.5692 42.2762 27.1216 41.9969 26.7313C41.7176 26.3296 41.3533 26.014 40.904 25.7844C40.4547 25.5434 39.9083 25.4228 39.2647 25.4228C38.621 25.4228 38.0746 25.5434 37.6253 25.7844C37.176 26.014 36.8117 26.3296 36.5324 26.7313C36.2531 27.1216 36.0466 27.5692 35.913 28.0743C35.7916 28.5793 35.7309 29.1016 35.7309 29.641ZM32.8711 29.641C32.8711 28.7228 33.0168 27.8734 33.3083 27.0929C33.5997 26.3009 34.0187 25.6122 34.5651 25.0268C35.1116 24.4415 35.7795 23.9823 36.5688 23.6495C37.3703 23.3166 38.2689 23.1502 39.2647 23.1502C40.2726 23.1502 41.1712 23.3166 41.9605 23.6495C42.7498 23.9823 43.4177 24.4415 43.9642 25.0268C44.5106 25.6122 44.9296 26.3009 45.221 27.0929C45.5125 27.8734 45.6582 28.7228 45.6582 29.641C45.6582 30.5363 45.5125 31.3742 45.221 32.1547C44.9296 32.9238 44.5106 33.5952 43.9642 34.1691C43.4177 34.743 42.7498 35.1964 41.9605 35.5293C41.1712 35.8507 40.2726 36.0114 39.2647 36.0114C38.2689 36.0114 37.3703 35.8507 36.5688 35.5293C35.7795 35.1964 35.1116 34.743 34.5651 34.1691C34.0187 33.5952 33.5997 32.9238 33.3083 32.1547C33.0168 31.3742 32.8711 30.5363 32.8711 29.641ZM28.2446 35.0672C28.1039 35.4678 27.7256 35.7359 27.3011 35.7359H25.5003C25.0729 35.7359 24.6926 35.4642 24.5542 35.0597L21.0311 24.7667C20.8089 24.1177 21.2912 23.4429 21.9772 23.4429H22.791C23.2209 23.4429 23.6026 23.7176 23.7392 24.1251L26.401 32.0686C26.4045 32.0789 26.4142 32.0859 26.4251 32.0859C26.4359 32.0859 26.4456 32.0789 26.4491 32.0687L29.1456 24.1215C29.2833 23.7158 29.6641 23.4429 30.0926 23.4429H30.9157C31.605 23.4429 32.0876 24.1238 31.8592 24.7742L28.2446 35.0672ZM55.9869 26.7791C56.2506 27.195 56.6465 27.575 57.139 27.575H57.9257C58.525 27.575 59.0012 27.0442 58.8035 26.4785C58.7048 26.1962 58.5813 25.9304 58.4329 25.6811C58.1051 25.1301 57.6861 24.671 57.1761 24.3037C56.6782 23.9249 56.1075 23.638 55.4639 23.4429C54.8324 23.2477 54.1584 23.1502 53.442 23.1502C52.4462 23.1502 51.5476 23.3166 50.7461 23.6495C49.9568 23.9823 49.2889 24.4415 48.7424 25.0268C48.196 25.6122 47.777 26.3009 47.4856 27.0929C47.1941 27.8734 47.0484 28.7228 47.0484 29.641C47.0484 30.5363 47.1941 31.3742 47.4856 32.1547C47.777 32.9238 48.196 33.5952 48.7424 34.1691C49.2889 34.743 49.9568 35.1964 50.7461 35.5293C51.5476 35.8507 52.4462 36.0114 53.442 36.0114C54.2434 36.0114 54.9781 35.8966 55.646 35.667C56.3139 35.4375 56.8968 35.1046 57.3947 34.6684C57.8926 34.2323 58.2933 33.7043 58.5969 33.0845C58.7511 32.7697 58.8755 32.4356 58.9702 32.0823C59.1228 31.5129 58.6519 31.0012 58.0623 31.0012H57.2693C56.7677 31.0012 56.3606 31.3803 56.1917 31.8526C56.0323 32.2983 55.7957 32.6802 55.4821 32.9984C54.9963 33.5034 54.3163 33.7559 53.442 33.7559C52.7984 33.7559 52.2519 33.6412 51.8026 33.4116C51.3533 33.1706 50.989 32.8549 50.7097 32.4646C50.4304 32.0744 50.2239 31.6382 50.0904 31.1561C49.9689 30.6626 49.9082 30.1576 49.9082 29.641C49.9082 29.1016 49.9689 28.5793 50.0904 28.0743C50.2239 27.5692 50.4304 27.1216 50.7097 26.7313C50.989 26.3296 51.3533 26.014 51.8026 25.7844C52.2519 25.5434 52.7984 25.4228 53.442 25.4228C53.7941 25.4228 54.1281 25.4802 54.4438 25.595C54.7717 25.6983 55.0631 25.8475 55.3181 26.0427C55.5731 26.2378 55.7857 26.4673 55.9557 26.7313C55.9663 26.7471 55.9767 26.763 55.9869 26.7791Z" fill="white"/>
</svg>
