<svg width="20" height="20" viewBox="0 0 20 20" fill="none" xmlns="http://www.w3.org/2000/svg">
<path d="M18.7219 16.6248C17.7559 17.5601 16.5983 18.3038 15.2489 18.8558C13.9149 19.4078 12.2589 19.6838 10.2809 19.6838C8.41028 19.6838 6.76961 19.3081 5.35894 18.5568C3.96361 17.7901 2.88261 16.7091 2.11594 15.3138C1.34928 13.9031 0.965942 12.2395 0.965942 10.3228C0.965942 8.92745 1.20361 7.65479 1.67894 6.50479C2.16961 5.35479 2.84428 4.36579 3.70294 3.53779C4.57694 2.69445 5.59661 2.05045 6.76194 1.60579C7.94261 1.14579 9.22294 0.915787 10.6029 0.915787C12.5503 0.915787 14.1756 1.27612 15.4789 1.99679C16.7823 2.71745 17.7636 3.69879 18.4229 4.94079C19.0823 6.16745 19.4119 7.54745 19.4119 9.08079C19.4119 9.78612 19.3276 10.5221 19.1589 11.2888C18.9903 12.0401 18.7143 12.7378 18.3309 13.3818C17.9629 14.0258 17.4799 14.5471 16.8819 14.9458C16.2839 15.3445 15.5556 15.5438 14.6969 15.5438C14.2369 15.5438 13.7923 15.3675 13.3629 15.0148C12.9489 14.6621 12.6883 14.2405 12.5809 13.7498C12.3356 14.2558 11.9523 14.6928 11.4309 15.0608C10.9096 15.4135 10.2503 15.5898 9.45294 15.5898C6.49361 15.5898 5.01394 13.7805 5.01394 10.1618C5.01394 8.91979 5.20561 7.88479 5.58894 7.05679C5.98761 6.22879 6.51661 5.60779 7.17594 5.19379C7.83528 4.77979 8.54828 4.57279 9.31494 4.57279C10.0049 4.57279 10.5569 4.67245 10.9709 4.87179C11.3849 5.05579 11.6686 5.25512 11.8219 5.46979V4.52679L14.6739 4.94079L14.3979 12.1168V12.2548C14.3979 12.6841 14.4899 12.9985 14.6739 13.1978C14.8579 13.3818 15.0726 13.4738 15.3179 13.4738C15.5633 13.4738 15.8239 13.2898 16.0999 12.9218C16.3913 12.5538 16.6366 12.0401 16.8359 11.3808C17.0353 10.7215 17.1349 9.96245 17.1349 9.10379C17.1349 7.92312 16.9126 6.84979 16.4679 5.88379C16.0233 4.90245 15.3179 4.12812 14.3519 3.56079C13.4013 2.97812 12.1516 2.68679 10.6029 2.68679C9.19228 2.68679 7.91961 3.00879 6.78494 3.65279C5.66561 4.29679 4.77628 5.19379 4.11694 6.34379C3.47294 7.47845 3.15094 8.81245 3.15094 10.3458C3.15094 11.9405 3.46528 13.2975 4.09394 14.4168C4.73794 15.5208 5.59661 16.3641 6.66994 16.9468C7.75861 17.5295 8.96228 17.8208 10.2809 17.8208C11.9216 17.8208 13.3936 17.5985 14.6969 17.1538C16.0003 16.6938 17.0889 16.1111 17.9629 15.4058L18.7219 16.6248ZM11.8449 7.72379C11.7223 7.43245 11.5153 7.17179 11.2239 6.94179C10.9479 6.71179 10.5416 6.59679 10.0049 6.59679C9.60628 6.59679 9.22294 6.70412 8.85494 6.91879C8.50228 7.11812 8.21094 7.48612 7.98094 8.02279C7.76628 8.54412 7.65894 9.28012 7.65894 10.2308C7.65894 11.5495 7.85828 12.4771 8.25694 13.0138C8.67094 13.5505 9.19228 13.8188 9.82094 13.8188C10.4803 13.8188 10.9786 13.5581 11.3159 13.0368C11.6686 12.5001 11.8449 11.8638 11.8449 11.1278V7.72379Z" fill="#929BB9"/>
</svg>
