<svg width="20" height="24" viewBox="0 0 20 24" fill="none" xmlns="http://www.w3.org/2000/svg">
<path d="M3.21274 7.96021V6.19721C3.26473 3.96725 4.56948 1.92713 6.64814 0.82575C8.72674 -0.275311 11.2729 -0.275311 13.3515 0.82575C15.4301 1.92702 16.7352 3.96714 16.7871 6.19721V7.96021C17.6392 7.96021 18.4563 8.276 19.059 8.83834C19.6614 9.40049 20 10.1632 20 10.9583V21.002V21.0018C20 21.7971 19.6614 22.5597 19.059 23.1218C18.4563 23.6842 17.6392 24 16.7871 24H3.21285C2.36076 24 1.54343 23.6842 0.941021 23.1218C0.338383 22.5597 0 21.7972 0 21.0018V10.9581C0 10.163 0.338406 9.40028 0.941021 8.83813C1.54343 8.27577 2.36076 7.96 3.21285 7.96L3.21274 7.96021ZM8.71647 17.665C8.71647 18.0935 8.96142 18.4894 9.35898 18.7038C9.75655 18.9179 10.2465 18.9179 10.644 18.7038C11.0416 18.4894 11.2865 18.0935 11.2865 17.665V14.2921C11.2865 13.8638 11.0416 13.4679 10.644 13.2536C10.2464 13.0395 9.75651 13.0395 9.35898 13.2536C8.96141 13.468 8.71647 13.8638 8.71647 14.2921V17.665ZM5.78308 7.96021L14.2168 7.96042V6.19742C14.176 4.81737 13.3634 3.55816 12.0754 2.87892C10.7875 2.19985 9.21245 2.19985 7.92444 2.87892C6.63649 3.55821 5.82387 4.81737 5.78308 6.19742V7.96021Z" fill="#929BB9"/>
</svg>
