<svg width="303" height="50" viewBox="0 0 303 50" fill="none" xmlns="http://www.w3.org/2000/svg">
<path d="M14.1118 32.9092C15.7573 34.5547 18.4448 34.5547 20.0903 32.9092C21.7357 31.2638 21.7357 28.5762 20.0903 26.9308L7.25578 14.0962C5.61032 12.4508 2.92275 12.4508 1.2773 14.0962C-0.36815 15.7417 -0.36815 18.4293 1.2773 20.0747L8.87381 27.6438L14.1118 32.9092Z" fill="url(#paint0_radial_2206_309)"/>
<path d="M20.0904 1.26189C18.445 -0.383561 15.7574 -0.383561 14.112 1.26189L1.27744 14.0964C-0.340589 15.7144 -0.450283 18.2375 1.1129 19.9103L1.16774 19.9926L1.25002 20.0749C1.25002 20.0749 1.25001 20.0749 1.27744 20.1023C1.27744 20.1023 1.30486 20.1023 1.30486 20.1297L8.87394 27.6988C4.78774 23.6126 10.2726 17.1405 10.2726 17.1405L20.1179 7.29521C21.7633 5.59491 21.7633 2.90734 20.0904 1.26189Z" fill="url(#paint1_linear_2206_309)"/>
<path d="M60.0588 17.0581C58.4133 15.4126 55.7257 15.4126 54.0803 17.0581C52.4348 18.7035 52.4348 21.3911 54.0803 23.0365L66.9148 35.8711C68.5603 37.5165 71.2478 37.5165 72.8933 35.8711C74.5387 34.2256 74.5387 31.538 72.8933 29.8926L65.2968 22.3235L60.0588 17.0581Z" fill="url(#paint2_linear_2206_309)"/>
<path d="M54.0804 48.7056C55.7258 50.351 58.4134 50.351 60.0588 48.7056L72.8934 35.8711C74.5114 34.2531 74.6211 31.7026 73.0579 30.0571L73.0031 29.9749L72.9208 29.8926C72.9208 29.8926 72.9208 29.8926 72.8934 29.8652C72.8934 29.8652 72.8659 29.8652 72.8659 29.8378L65.2969 22.2687C69.3831 26.3549 63.8982 32.827 63.8982 32.827L54.0529 42.6723C52.4075 44.3726 52.4075 47.0601 54.0804 48.7056Z" fill="url(#paint3_linear_2206_309)"/>
<path d="M34.3568 47.0328C33.6712 49.1993 31.3675 50.406 29.2285 49.7204C27.062 49.0347 25.8553 46.7311 26.5409 44.592L39.8142 2.87983C40.4998 0.713318 42.8034 -0.493347 44.9425 0.192257C47.109 0.877862 48.3157 3.18149 47.6301 5.32058L34.3568 47.0328Z" fill="white"/>
<path d="M97.73 35L107.09 14H111.89L121.28 35H116.18L108.5 16.46H110.42L102.71 35H97.73ZM102.41 30.5L103.7 26.81H114.5L115.82 30.5H102.41Z" fill="white"/>
<path d="M123.459 35V14H132.999C135.279 14 137.289 14.44 139.029 15.32C140.769 16.18 142.129 17.39 143.109 18.95C144.089 20.51 144.579 22.36 144.579 24.5C144.579 26.62 144.089 28.47 143.109 30.05C142.129 31.61 140.769 32.83 139.029 33.71C137.289 34.57 135.279 35 132.999 35H123.459ZM128.319 31.01H132.759C134.159 31.01 135.369 30.75 136.389 30.23C137.429 29.69 138.229 28.93 138.789 27.95C139.369 26.97 139.659 25.82 139.659 24.5C139.659 23.16 139.369 22.01 138.789 21.05C138.229 20.07 137.429 19.32 136.389 18.8C135.369 18.26 134.159 17.99 132.759 17.99H128.319V31.01Z" fill="white"/>
<path d="M148.244 35V14H152.264L161.204 28.82H159.074L167.864 14H171.854L171.914 35H167.354L167.324 20.99H168.164L161.144 32.78H158.954L151.784 20.99H152.804V35H148.244Z" fill="white"/>
<path d="M176.896 35V14H181.756V35H176.896Z" fill="white"/>
<path d="M186.74 35V14H190.76L203.15 29.12H201.2V14H206V35H202.01L189.59 19.88H191.54V35H186.74Z" fill="white"/>
<path d="M222.814 35V17.96H216.094V14H234.394V17.96H227.674V35H222.814Z" fill="#2CEF57"/>
<path d="M246.916 35.36C245.256 35.36 243.716 35.09 242.296 34.55C240.896 34.01 239.676 33.25 238.636 32.27C237.616 31.29 236.816 30.14 236.236 28.82C235.676 27.5 235.396 26.06 235.396 24.5C235.396 22.94 235.676 21.5 236.236 20.18C236.816 18.86 237.626 17.71 238.666 16.73C239.706 15.75 240.926 14.99 242.326 14.45C243.726 13.91 245.246 13.64 246.886 13.64C248.546 13.64 250.066 13.91 251.446 14.45C252.846 14.99 254.056 15.75 255.076 16.73C256.116 17.71 256.926 18.86 257.506 20.18C258.086 21.48 258.376 22.92 258.376 24.5C258.376 26.06 258.086 27.51 257.506 28.85C256.926 30.17 256.116 31.32 255.076 32.3C254.056 33.26 252.846 34.01 251.446 34.55C250.066 35.09 248.556 35.36 246.916 35.36ZM246.886 31.22C247.826 31.22 248.686 31.06 249.466 30.74C250.266 30.42 250.966 29.96 251.566 29.36C252.166 28.76 252.626 28.05 252.946 27.23C253.286 26.41 253.456 25.5 253.456 24.5C253.456 23.5 253.286 22.59 252.946 21.77C252.626 20.95 252.166 20.24 251.566 19.64C250.986 19.04 250.296 18.58 249.496 18.26C248.696 17.94 247.826 17.78 246.886 17.78C245.946 17.78 245.076 17.94 244.276 18.26C243.496 18.58 242.806 19.04 242.206 19.64C241.606 20.24 241.136 20.95 240.796 21.77C240.476 22.59 240.316 23.5 240.316 24.5C240.316 25.48 240.476 26.39 240.796 27.23C241.136 28.05 241.596 28.76 242.176 29.36C242.776 29.96 243.476 30.42 244.276 30.74C245.076 31.06 245.946 31.22 246.886 31.22Z" fill="#2CEF57"/>
<path d="M272.229 35.36C270.569 35.36 269.029 35.09 267.609 34.55C266.209 34.01 264.989 33.25 263.949 32.27C262.929 31.29 262.129 30.14 261.549 28.82C260.989 27.5 260.709 26.06 260.709 24.5C260.709 22.94 260.989 21.5 261.549 20.18C262.129 18.86 262.939 17.71 263.979 16.73C265.019 15.75 266.239 14.99 267.639 14.45C269.039 13.91 270.559 13.64 272.199 13.64C273.859 13.64 275.379 13.91 276.759 14.45C278.159 14.99 279.369 15.75 280.389 16.73C281.429 17.71 282.239 18.86 282.819 20.18C283.399 21.48 283.689 22.92 283.689 24.5C283.689 26.06 283.399 27.51 282.819 28.85C282.239 30.17 281.429 31.32 280.389 32.3C279.369 33.26 278.159 34.01 276.759 34.55C275.379 35.09 273.869 35.36 272.229 35.36ZM272.199 31.22C273.139 31.22 273.999 31.06 274.779 30.74C275.579 30.42 276.279 29.96 276.879 29.36C277.479 28.76 277.939 28.05 278.259 27.23C278.599 26.41 278.769 25.5 278.769 24.5C278.769 23.5 278.599 22.59 278.259 21.77C277.939 20.95 277.479 20.24 276.879 19.64C276.299 19.04 275.609 18.58 274.809 18.26C274.009 17.94 273.139 17.78 272.199 17.78C271.259 17.78 270.389 17.94 269.589 18.26C268.809 18.58 268.119 19.04 267.519 19.64C266.919 20.24 266.449 20.95 266.109 21.77C265.789 22.59 265.629 23.5 265.629 24.5C265.629 25.48 265.789 26.39 266.109 27.23C266.449 28.05 266.909 28.76 267.489 29.36C268.089 29.96 268.789 30.42 269.589 30.74C270.389 31.06 271.259 31.22 272.199 31.22Z" fill="#2CEF57"/>
<path d="M287.341 35V14H292.201V31.04H302.731V35H287.341Z" fill="#2CEF57"/>
<defs>
<radialGradient id="paint0_radial_2206_309" cx="0" cy="0" r="1" gradientUnits="userSpaceOnUse" gradientTransform="translate(0.824309 16.02) scale(23.5492)">
<stop offset="0.1667" stop-color="#4674B5"/>
<stop offset="0.3306" stop-color="#4878B5"/>
<stop offset="0.4942" stop-color="#4F84B6"/>
<stop offset="0.6576" stop-color="#5998B6"/>
<stop offset="0.821" stop-color="#68B4B7"/>
<stop offset="0.9831" stop-color="#7CD8B9"/>
<stop offset="1" stop-color="#7EDCB9"/>
</radialGradient>
<linearGradient id="paint1_linear_2206_309" x1="4.3999" y1="13.8286" x2="34.2028" y2="13.8286" gradientUnits="userSpaceOnUse">
<stop stop-color="#7EDCB9"/>
<stop offset="0.0168892" stop-color="#7CD8B9"/>
<stop offset="0.179" stop-color="#68B4B7"/>
<stop offset="0.3424" stop-color="#5998B6"/>
<stop offset="0.5058" stop-color="#4F84B6"/>
<stop offset="0.6694" stop-color="#4878B5"/>
<stop offset="0.8333" stop-color="#4674B5"/>
</linearGradient>
<linearGradient id="paint2_linear_2206_309" x1="74.1293" y1="26.4679" x2="52.8291" y2="26.4679" gradientUnits="userSpaceOnUse">
<stop offset="0.00955605" stop-color="#8C0053"/>
<stop offset="0.1433" stop-color="#8F0651"/>
<stop offset="0.3241" stop-color="#99174D"/>
<stop offset="0.5319" stop-color="#A93445"/>
<stop offset="0.7597" stop-color="#BF5B3B"/>
<stop offset="1" stop-color="#DB8D2E"/>
</linearGradient>
<linearGradient id="paint3_linear_2206_309" x1="69.7717" y1="36.135" x2="39.9688" y2="36.135" gradientUnits="userSpaceOnUse">
<stop stop-color="#DB8D2E"/>
<stop offset="0.2403" stop-color="#BF5B3B"/>
<stop offset="0.4681" stop-color="#A93445"/>
<stop offset="0.6759" stop-color="#99174D"/>
<stop offset="0.8567" stop-color="#8F0651"/>
<stop offset="0.9904" stop-color="#8C0053"/>
</linearGradient>
</defs>
</svg>
