<svg width="177" height="48" viewBox="0 0 177 48" fill="none" xmlns="http://www.w3.org/2000/svg">
<rect width="177" height="48" rx="24" fill="#F6FCF2" fill-opacity="0.04"/>
<path d="M70.544 13.152H74.8L83.6 36H79.312L77.168 29.952H68.048L65.904 36H61.776L70.544 13.152ZM69.136 26.912H76.112L72.688 17.088H72.592L69.136 26.912ZM96.4318 24.992C96.2824 23.968 95.8664 23.2 95.1838 22.688C94.5224 22.1547 93.6798 21.888 92.6558 21.888C92.1864 21.888 91.6851 21.9733 91.1518 22.144C90.6184 22.2933 90.1278 22.592 89.6798 23.04C89.2318 23.4667 88.8584 24.0747 88.5598 24.864C88.2611 25.632 88.1118 26.6453 88.1118 27.904C88.1118 28.5867 88.1864 29.2693 88.3358 29.952C88.5064 30.6347 88.7624 31.2427 89.1038 31.776C89.4664 32.3093 89.9251 32.7467 90.4798 33.088C91.0344 33.408 91.7064 33.568 92.4958 33.568C93.5624 33.568 94.4371 33.2373 95.1198 32.576C95.8238 31.9147 96.2611 30.9867 96.4318 29.792H100.08C99.7384 31.9467 98.9171 33.6 97.6158 34.752C96.3358 35.8827 94.6291 36.448 92.4958 36.448C91.1944 36.448 90.0424 36.2347 89.0398 35.808C88.0584 35.36 87.2264 34.7627 86.5438 34.016C85.8611 33.248 85.3384 32.3413 84.9758 31.296C84.6344 30.2507 84.4638 29.12 84.4638 27.904C84.4638 26.6667 84.6344 25.504 84.9758 24.416C85.3171 23.328 85.8291 22.3893 86.5118 21.6C87.1944 20.7893 88.0371 20.16 89.0398 19.712C90.0638 19.2427 91.2584 19.008 92.6238 19.008C93.5838 19.008 94.4904 19.136 95.3438 19.392C96.2184 19.6267 96.9864 19.9893 97.6478 20.48C98.3304 20.9707 98.8851 21.5893 99.3118 22.336C99.7384 23.0827 99.9944 23.968 100.08 24.992H96.4318ZM101.381 19.456H104.133V14.496H107.781V19.456H111.077V22.176H107.781V31.008C107.781 31.392 107.792 31.7227 107.813 32C107.856 32.2773 107.93 32.512 108.037 32.704C108.165 32.896 108.346 33.0453 108.581 33.152C108.816 33.2373 109.136 33.28 109.541 33.28C109.797 33.28 110.053 33.28 110.309 33.28C110.565 33.2587 110.821 33.216 111.077 33.152V35.968C110.672 36.0107 110.277 36.0533 109.893 36.096C109.509 36.1387 109.114 36.16 108.709 36.16C107.749 36.16 106.97 36.0747 106.373 35.904C105.797 35.712 105.338 35.4453 104.997 35.104C104.677 34.7413 104.453 34.2933 104.325 33.76C104.218 33.2267 104.154 32.6187 104.133 31.936V22.176H101.381V19.456ZM113.797 13.152H117.445V16.608H113.797V13.152ZM113.797 19.456H117.445V36H113.797V19.456ZM119.788 19.456H123.756L127.948 32.16H128.012L132.044 19.456H135.82L129.9 36H125.804L119.788 19.456ZM149.374 26.272C149.331 25.696 149.203 25.1413 148.99 24.608C148.798 24.0747 148.52 23.616 148.158 23.232C147.816 22.8267 147.39 22.5067 146.878 22.272C146.387 22.016 145.832 21.888 145.214 21.888C144.574 21.888 143.987 22.0053 143.454 22.24C142.942 22.4533 142.494 22.7627 142.11 23.168C141.747 23.552 141.448 24.0107 141.214 24.544C141 25.0773 140.883 25.6533 140.862 26.272H149.374ZM140.862 28.672C140.862 29.312 140.947 29.9307 141.118 30.528C141.31 31.1253 141.587 31.648 141.95 32.096C142.312 32.544 142.771 32.9067 143.326 33.184C143.88 33.44 144.542 33.568 145.31 33.568C146.376 33.568 147.23 33.344 147.87 32.896C148.531 32.4267 149.022 31.7333 149.342 30.816H152.798C152.606 31.712 152.275 32.512 151.806 33.216C151.336 33.92 150.771 34.5173 150.11 35.008C149.448 35.4773 148.702 35.8293 147.87 36.064C147.059 36.32 146.206 36.448 145.31 36.448C144.008 36.448 142.856 36.2347 141.854 35.808C140.851 35.3813 139.998 34.784 139.294 34.016C138.611 33.248 138.088 32.3307 137.726 31.264C137.384 30.1973 137.214 29.024 137.214 27.744C137.214 26.5707 137.395 25.4613 137.758 24.416C138.142 23.3493 138.675 22.4213 139.358 21.632C140.062 20.8213 140.904 20.1813 141.886 19.712C142.867 19.2427 143.976 19.008 145.214 19.008C146.515 19.008 147.678 19.2853 148.702 19.84C149.747 20.3733 150.611 21.088 151.294 21.984C151.976 22.88 152.467 23.9147 152.766 25.088C153.086 26.24 153.171 27.4347 153.022 28.672H140.862Z" fill="white"/>
<circle opacity="0.2" cx="38" cy="24" r="15" fill="#9BF15C"/>
<circle cx="38" cy="24" r="10" fill="#9BF15C"/>
</svg>
