<svg width="177" height="48" viewBox="0 0 177 48" fill="none" xmlns="http://www.w3.org/2000/svg">
<rect width="177" height="48" rx="24" fill="#F6FCF2" fill-opacity="0.04"/>
<path d="M52.432 13.152H56.432V36H52.432V13.152ZM60.8263 19.456H64.2823V21.888L64.3463 21.952C64.9009 21.0347 65.6263 20.32 66.5223 19.808C67.4183 19.2747 68.4103 19.008 69.4983 19.008C71.3116 19.008 72.7409 19.4773 73.7863 20.416C74.8316 21.3547 75.3542 22.7627 75.3542 24.64V36H71.7063V25.6C71.6636 24.2987 71.3863 23.36 70.8743 22.784C70.3623 22.1867 69.5623 21.888 68.4743 21.888C67.8556 21.888 67.3009 22.0053 66.8103 22.24C66.3196 22.4533 65.9036 22.7627 65.5623 23.168C65.2209 23.552 64.9543 24.0107 64.7623 24.544C64.5703 25.0773 64.4743 25.6427 64.4743 26.24V36H60.8263V19.456ZM93.0573 32.32C93.0573 32.768 93.1106 33.088 93.2173 33.28C93.3453 33.472 93.5799 33.568 93.9213 33.568C94.0279 33.568 94.1559 33.568 94.3053 33.568C94.4546 33.568 94.6253 33.5467 94.8173 33.504V36.032C94.6893 36.0747 94.5186 36.1173 94.3053 36.16C94.1133 36.224 93.9106 36.2773 93.6973 36.32C93.4839 36.3627 93.2706 36.3947 93.0573 36.416C92.8439 36.4373 92.6626 36.448 92.5133 36.448C91.7666 36.448 91.1479 36.2987 90.6573 36C90.1666 35.7013 89.8466 35.1787 89.6973 34.432C88.9719 35.136 88.0759 35.648 87.0093 35.968C85.9639 36.288 84.9506 36.448 83.9693 36.448C83.2226 36.448 82.5079 36.3413 81.8253 36.128C81.1426 35.936 80.5346 35.648 80.0013 35.264C79.4893 34.8587 79.0733 34.3573 78.7533 33.76C78.4546 33.1413 78.3053 32.4267 78.3053 31.616C78.3053 30.592 78.4866 29.76 78.8493 29.12C79.2333 28.48 79.7239 27.9787 80.3213 27.616C80.9399 27.2533 81.6226 26.9973 82.3693 26.848C83.1373 26.6773 83.9053 26.5493 84.6733 26.464C85.3346 26.336 85.9639 26.2507 86.5613 26.208C87.1586 26.144 87.6813 26.048 88.1293 25.92C88.5986 25.792 88.9613 25.6 89.2173 25.344C89.4946 25.0667 89.6333 24.6613 89.6333 24.128C89.6333 23.6587 89.5159 23.2747 89.2813 22.976C89.0679 22.6773 88.7906 22.4533 88.4493 22.304C88.1293 22.1333 87.7666 22.0267 87.3613 21.984C86.9559 21.92 86.5719 21.888 86.2093 21.888C85.1853 21.888 84.3426 22.1013 83.6813 22.528C83.0199 22.9547 82.6466 23.616 82.5613 24.512H78.9133C78.9773 23.4453 79.2333 22.56 79.6813 21.856C80.1293 21.152 80.6946 20.5867 81.3773 20.16C82.0813 19.7333 82.8706 19.4347 83.7453 19.264C84.6199 19.0933 85.5159 19.008 86.4333 19.008C87.2439 19.008 88.0439 19.0933 88.8333 19.264C89.6226 19.4347 90.3266 19.712 90.9453 20.096C91.5853 20.48 92.0973 20.9813 92.4813 21.6C92.8653 22.1973 93.0573 22.9333 93.0573 23.808V32.32ZM89.4093 27.712C88.8546 28.0747 88.1719 28.2987 87.3613 28.384C86.5506 28.448 85.7399 28.5547 84.9293 28.704C84.5453 28.768 84.1719 28.864 83.8093 28.992C83.4466 29.0987 83.1266 29.2587 82.8493 29.472C82.5719 29.664 82.3479 29.9307 82.1773 30.272C82.0279 30.592 81.9533 30.9867 81.9533 31.456C81.9533 31.8613 82.0706 32.2027 82.3053 32.48C82.5399 32.7573 82.8173 32.9813 83.1373 33.152C83.4786 33.3013 83.8413 33.408 84.2253 33.472C84.6306 33.536 84.9933 33.568 85.3133 33.568C85.7186 33.568 86.1559 33.5147 86.6253 33.408C87.0946 33.3013 87.5319 33.12 87.9373 32.864C88.3639 32.608 88.7159 32.288 88.9933 31.904C89.2706 31.4987 89.4093 31.008 89.4093 30.432V27.712ZM108.151 24.992C108.001 23.968 107.585 23.2 106.903 22.688C106.241 22.1547 105.399 21.888 104.375 21.888C103.905 21.888 103.404 21.9733 102.871 22.144C102.337 22.2933 101.847 22.592 101.399 23.04C100.951 23.4667 100.577 24.0747 100.279 24.864C99.9798 25.632 99.8305 26.6453 99.8305 27.904C99.8305 28.5867 99.9052 29.2693 100.055 29.952C100.225 30.6347 100.481 31.2427 100.823 31.776C101.185 32.3093 101.644 32.7467 102.199 33.088C102.753 33.408 103.425 33.568 104.215 33.568C105.281 33.568 106.156 33.2373 106.839 32.576C107.543 31.9147 107.98 30.9867 108.151 29.792H111.799C111.457 31.9467 110.636 33.6 109.335 34.752C108.055 35.8827 106.348 36.448 104.215 36.448C102.913 36.448 101.761 36.2347 100.759 35.808C99.7772 35.36 98.9452 34.7627 98.2625 34.016C97.5798 33.248 97.0572 32.3413 96.6945 31.296C96.3532 30.2507 96.1825 29.12 96.1825 27.904C96.1825 26.6667 96.3532 25.504 96.6945 24.416C97.0358 23.328 97.5478 22.3893 98.2305 21.6C98.9132 20.7893 99.7558 20.16 100.759 19.712C101.783 19.2427 102.977 19.008 104.343 19.008C105.303 19.008 106.209 19.136 107.063 19.392C107.937 19.6267 108.705 19.9893 109.367 20.48C110.049 20.9707 110.604 21.5893 111.031 22.336C111.457 23.0827 111.713 23.968 111.799 24.992H108.151ZM113.1 19.456H115.852V14.496H119.5V19.456H122.796V22.176H119.5V31.008C119.5 31.392 119.51 31.7227 119.532 32C119.574 32.2773 119.649 32.512 119.756 32.704C119.884 32.896 120.065 33.0453 120.3 33.152C120.534 33.2373 120.854 33.28 121.26 33.28C121.516 33.28 121.772 33.28 122.028 33.28C122.284 33.2587 122.54 33.216 122.796 33.152V35.968C122.39 36.0107 121.996 36.0533 121.612 36.096C121.228 36.1387 120.833 36.16 120.428 36.16C119.468 36.16 118.689 36.0747 118.092 35.904C117.516 35.712 117.057 35.4453 116.716 35.104C116.396 34.7413 116.172 34.2933 116.044 33.76C115.937 33.2267 115.873 32.6187 115.852 31.936V22.176H113.1V19.456ZM125.516 13.152H129.164V16.608H125.516V13.152ZM125.516 19.456H129.164V36H125.516V19.456ZM131.507 19.456H135.475L139.667 32.16H139.731L143.763 19.456H147.539L141.619 36H137.523L131.507 19.456ZM161.093 26.272C161.05 25.696 160.922 25.1413 160.709 24.608C160.517 24.0747 160.239 23.616 159.877 23.232C159.535 22.8267 159.109 22.5067 158.597 22.272C158.106 22.016 157.551 21.888 156.933 21.888C156.293 21.888 155.706 22.0053 155.173 22.24C154.661 22.4533 154.213 22.7627 153.829 23.168C153.466 23.552 153.167 24.0107 152.933 24.544C152.719 25.0773 152.602 25.6533 152.581 26.272H161.093ZM152.581 28.672C152.581 29.312 152.666 29.9307 152.837 30.528C153.029 31.1253 153.306 31.648 153.669 32.096C154.031 32.544 154.49 32.9067 155.045 33.184C155.599 33.44 156.261 33.568 157.029 33.568C158.095 33.568 158.949 33.344 159.589 32.896C160.25 32.4267 160.741 31.7333 161.061 30.816H164.517C164.325 31.712 163.994 32.512 163.525 33.216C163.055 33.92 162.49 34.5173 161.829 35.008C161.167 35.4773 160.421 35.8293 159.589 36.064C158.778 36.32 157.925 36.448 157.029 36.448C155.727 36.448 154.575 36.2347 153.573 35.808C152.57 35.3813 151.717 34.784 151.013 34.016C150.33 33.248 149.807 32.3307 149.445 31.264C149.103 30.1973 148.933 29.024 148.933 27.744C148.933 26.5707 149.114 25.4613 149.477 24.416C149.861 23.3493 150.394 22.4213 151.077 21.632C151.781 20.8213 152.623 20.1813 153.605 19.712C154.586 19.2427 155.695 19.008 156.933 19.008C158.234 19.008 159.397 19.2853 160.421 19.84C161.466 20.3733 162.33 21.088 163.013 21.984C163.695 22.88 164.186 23.9147 164.485 25.088C164.805 26.24 164.89 27.4347 164.741 28.672H152.581Z" fill="white"/>
<circle opacity="0.2" cx="26" cy="24" r="15" fill="#E4E5E9"/>
<circle cx="26" cy="24" r="10" fill="#D5D7DE"/>
</svg>
