<svg width="55" height="59" viewBox="0 0 55 59" fill="none" xmlns="http://www.w3.org/2000/svg">
<path fill-rule="evenodd" clip-rule="evenodd" d="M0 57.2307V57.1497V57.0687C1.96533 51.21 5.68312 46.1273 10.63 42.5362C15.5769 38.9452 21.5037 37.0265 27.5761 37.0503C33.6484 37.0742 39.5606 39.0394 44.4802 42.6692C49.3997 46.2991 53.079 51.4108 55 57.2848V57.332L50.1325 59V58.9527C48.5436 54.1458 45.5198 49.9661 41.4849 46.9991C37.4499 44.0322 32.6058 42.4265 27.6311 42.4072C22.6565 42.3878 17.8005 43.9557 13.7434 46.8912C9.68636 49.8267 6.63144 53.9827 5.00662 58.7772V58.8582V58.9325L0 57.2307ZM27.649 0.000141531C31.3257 0.00933502 34.8855 1.318 37.7221 3.70321C40.5587 6.08842 42.4966 9.40264 43.2057 13.0813C43.9148 16.76 43.3512 20.5755 41.6109 23.878C39.8707 27.1805 37.0614 29.7657 33.6617 31.1932C30.2619 32.6206 26.482 32.802 22.9658 31.7066C19.4496 30.6111 16.4146 28.3065 14.3778 25.1853C12.341 22.0641 11.4283 18.3194 11.7954 14.5891C12.1624 10.8587 13.7864 7.37354 16.3907 4.72715C17.8684 3.22042 19.624 2.02696 21.5563 1.21565C23.4886 0.404332 25.5593 -0.0087818 27.649 0.000141531ZM35.1854 8.50876C33.4427 6.73088 31.1493 5.62416 28.696 5.37716C26.2428 5.13016 23.7814 5.75816 21.7313 7.15417C19.6813 8.55018 18.1693 10.6278 17.453 13.0331C16.7368 15.4384 16.8606 18.0225 17.8033 20.3451C18.7461 22.6678 20.4495 24.5852 22.6232 25.7709C24.797 26.9565 27.3067 27.3368 29.7246 26.8472C32.1426 26.3575 34.3193 25.0282 35.8838 23.0855C37.4483 21.1429 38.3038 18.7072 38.3046 16.1935C38.3084 14.766 38.0346 13.3519 37.4992 12.0328C36.9639 10.7138 36.1774 9.51606 35.1854 8.50876Z" fill="white"/>
</svg>
