<svg width="68" height="68" viewBox="0 0 68 68" fill="none" xmlns="http://www.w3.org/2000/svg">
<path d="M20.6751 5.81185C18.1385 5.72056 16.0506 6.53539 16.0105 7.63349L15.7605 14.4644C12.8655 15.0779 10.8843 16.3509 10.828 17.8893L7.54139 56.828C7.50811 56.9679 7.48678 57.1096 7.47995 57.2546C7.47825 57.3314 7.47996 57.4082 7.48678 57.4858L7.46289 57.7691L7.52347 57.7708C8.02517 60.3023 12.8468 62.4405 18.798 62.6589C25.1494 62.8919 30.3806 60.8492 30.4821 58.0959L30.3285 45.0142H36.7397L36.7405 57.7845C36.7192 57.9261 36.7098 58.0694 36.7158 58.2128C36.7192 58.2896 36.7294 58.3681 36.7405 58.4431V58.7281L36.8002 58.723C37.5144 61.2059 42.4998 62.9294 48.4476 62.6461C54.7957 62.3432 59.8365 59.868 59.7043 57.1172L55.9219 17.792C55.8451 16.1803 53.6626 14.8859 50.5346 14.3424L50.2147 7.61131C50.1626 6.51491 48.0654 5.72141 45.533 5.84342C42.9981 5.96373 40.987 6.95347 41.0382 8.04987L41.365 14.8774C38.5314 15.734 36.6646 17.1674 36.738 18.705V23.3875H30.0785L30.0239 18.5932C30.0828 16.9797 28.0154 15.5054 24.9455 14.7016L25.1921 7.96881C25.2313 6.87156 23.21 5.90485 20.6751 5.81185Z" fill="#8B5434"/>
</svg>
