<svg width="92" height="92" viewBox="0 0 92 92" fill="none" xmlns="http://www.w3.org/2000/svg">
<rect width="91.4912" height="91.4912" rx="20" fill="#F26522"/>
<path d="M45.4474 22.5746C42.35 22.5746 39.3896 23.1821 36.5663 24.3972C33.7429 25.6124 31.3127 27.2385 29.2756 29.2756C27.2385 31.3127 25.6124 33.7429 24.3972 36.5663C23.1821 39.3896 22.5746 42.35 22.5746 45.4474C22.5746 48.5447 23.1821 51.5051 24.3972 54.3285C25.6124 57.1518 27.2385 59.5821 29.2756 61.6192C31.3127 63.6563 33.7429 65.2824 36.5663 66.4975C39.3896 67.7126 42.35 68.3202 45.4474 68.3202C48.5447 68.3202 51.5051 67.7126 54.3285 66.4975C57.1518 65.2824 59.5821 63.6563 61.6192 61.6192C63.6563 59.5821 65.2824 57.1518 66.4975 54.3285C67.7126 51.5051 68.3202 48.5447 68.3202 45.4474C68.3202 42.35 67.7126 39.3896 66.4975 36.5663C65.2824 33.7429 63.6563 31.3127 61.6192 29.2756C59.5821 27.2385 57.1518 25.6124 54.3285 24.3972C51.5051 23.1821 48.5447 22.5746 45.4474 22.5746ZM72.8947 45.4474C72.8947 50.427 71.6677 55.0194 69.2136 59.2247C66.7596 63.4299 63.4299 66.7596 59.2247 69.2136C55.0194 71.6677 50.427 72.8947 45.4474 72.8947C40.4678 72.8947 35.8753 71.6677 31.6701 69.2136C27.4648 66.7596 24.1352 63.4299 21.6811 59.2247C19.227 55.0194 18 50.427 18 45.4474C18 40.4678 19.227 35.8753 21.6811 31.6701C24.1352 27.4648 27.4648 24.1352 31.6701 21.6811C35.8753 19.227 40.4678 18 45.4474 18C50.427 18 55.0194 19.227 59.2247 21.6811C63.4299 24.1352 66.7596 27.4648 69.2136 31.6701C71.6677 35.8753 72.8947 40.4678 72.8947 45.4474Z" fill="white" stroke="#F26522"/>
</svg>
