<svg width="35" height="35" viewBox="0 0 35 35" fill="none" xmlns="http://www.w3.org/2000/svg">
<path d="M17.5 4.30448e-05C14.6037 -0.00640781 11.7519 0.7123 9.20464 2.09062C6.65736 3.46895 4.49566 5.46303 2.91667 7.89103V3.88893H0V13.6111H9.72222V10.6945H4.63098C6.30334 7.56305 9.06357 5.15166 12.3912 3.91499C15.7189 2.67832 19.384 2.70182 22.6955 3.98107C26.007 5.26031 28.7361 7.7069 30.3682 10.8595C32.0002 14.0121 32.4225 17.6529 31.5553 21.0954C30.6882 24.5379 28.5915 27.5441 25.6607 29.5474C22.7299 31.5506 19.1674 32.4124 15.6451 31.9701C12.1227 31.5279 8.88381 29.8123 6.53912 27.1468C4.19444 24.4813 2.90597 21.05 2.91667 17.5H0C0 20.9612 1.02636 24.3446 2.94928 27.2225C4.87221 30.1003 7.60533 32.3434 10.803 33.6679C14.0007 34.9924 17.5194 35.339 20.9141 34.6637C24.3087 33.9885 27.4269 32.3218 29.8744 29.8744C32.3218 27.427 33.9885 24.3088 34.6637 20.9141C35.339 17.5194 34.9924 14.0008 33.6679 10.8031C32.3433 7.60536 30.1003 4.87224 27.2225 2.94932C24.3446 1.0264 20.9612 4.30448e-05 17.5 4.30448e-05Z" fill="#1a191930"/>
</svg>
