<svg width="178" height="30" viewBox="0 0 178 30" fill="none" xmlns="http://www.w3.org/2000/svg">
<path d="M8.27021 19.2863C9.23452 20.2506 10.8096 20.2506 11.7739 19.2863C12.7382 18.3219 12.7382 16.7469 11.7739 15.7826L4.25227 8.26101C3.28796 7.2967 1.71293 7.2967 0.748621 8.26101C-0.215686 9.22532 -0.215686 10.8004 0.748621 11.7647L5.2005 16.2005L8.27021 19.2863Z" fill="url(#paint0_radial_2206_387)"/>
<path d="M11.7739 0.739709C10.8096 -0.224597 9.23453 -0.224597 8.27023 0.739709L0.748635 8.2613C-0.1996 9.20954 -0.263886 10.6881 0.652206 11.6685L0.684349 11.7167L0.732565 11.7649C0.732565 11.7649 0.732563 11.765 0.748635 11.781C0.748635 11.781 0.764708 11.781 0.764708 11.7971L5.20052 16.2329C2.80582 13.8382 6.02018 10.0453 6.02018 10.0453L11.7899 4.2755C12.7543 3.27905 12.7543 1.70402 11.7739 0.739709Z" fill="url(#paint1_linear_2206_387)"/>
<path d="M35.1971 9.99676C34.2328 9.03245 32.6578 9.03245 31.6934 9.99676C30.7291 10.9611 30.7291 12.5361 31.6934 13.5004L39.215 21.022C40.1793 21.9863 41.7544 21.9863 42.7187 21.022C43.683 20.0577 43.683 18.4827 42.7187 17.5184L38.2668 13.0825L35.1971 9.99676Z" fill="url(#paint2_linear_2206_387)"/>
<path d="M31.6934 28.5436C32.6577 29.5079 34.2328 29.5079 35.1971 28.5436L42.7187 21.022C43.6669 20.0738 43.7312 18.5791 42.8151 17.6148L42.7829 17.5666L42.7347 17.5184C42.7347 17.5184 42.7347 17.5184 42.7187 17.5023C42.7187 17.5023 42.7026 17.5023 42.7026 17.4862L38.2668 13.0504C40.6615 15.4451 37.4471 19.2381 37.4471 19.2381L31.6773 25.0078C30.713 26.0043 30.713 27.5793 31.6934 28.5436Z" fill="url(#paint3_linear_2206_387)"/>
<path d="M20.1345 27.5633C19.7327 28.8329 18.3827 29.5401 17.1291 29.1383C15.8594 28.7365 15.1523 27.3865 15.5541 26.1329L23.3328 1.68771C23.7346 0.418036 25.0846 -0.289123 26.3382 0.112671C27.6079 0.514466 28.3151 1.86449 27.9133 3.11809L20.1345 27.5633Z" fill="#0C0F44"/>
<path d="M57.274 20.5115L62.7594 8.20463H65.5724L71.0754 20.5115H68.0866L63.5857 9.6463H64.7109L60.1925 20.5115H57.274ZM60.0167 17.8744L60.7727 15.7118H67.102L67.8756 17.8744H60.0167Z" fill="#0C0F44"/>
<path d="M72.3522 20.5115V8.20463H77.9431C79.2793 8.20463 80.4572 8.46249 81.4769 8.97821C82.4966 9.4822 83.2937 10.1913 83.868 11.1055C84.4423 12.0198 84.7295 13.104 84.7295 14.3581C84.7295 15.6005 84.4423 16.6847 83.868 17.6106C83.2937 18.5249 82.4966 19.2398 81.4769 19.7556C80.4572 20.2596 79.2793 20.5115 77.9431 20.5115H72.3522ZM75.2004 18.1732H77.8024C78.6229 18.1732 79.332 18.0209 79.9298 17.7161C80.5393 17.3997 81.0081 16.9543 81.3363 16.3799C81.6762 15.8056 81.8461 15.1317 81.8461 14.3581C81.8461 13.5728 81.6762 12.8988 81.3363 12.3362C81.0081 11.7619 80.5393 11.3224 79.9298 11.0176C79.332 10.7012 78.6229 10.5429 77.8024 10.5429H75.2004V18.1732Z" fill="#0C0F44"/>
<path d="M86.8774 20.5115V8.20463H89.2333L94.4725 16.8898H93.2243L98.3756 8.20463H100.714L100.749 20.5115H98.0767L98.0591 12.3011H98.5514L94.4374 19.2105H93.1539L88.952 12.3011H89.5498V20.5115H86.8774Z" fill="#0C0F44"/>
<path d="M103.669 20.5115V8.20463H106.517V20.5115H103.669Z" fill="#0C0F44"/>
<path d="M109.438 20.5115V8.20463H111.794L119.055 17.0656H117.912V8.20463H120.725V20.5115H118.387L111.108 11.6506H112.251V20.5115H109.438Z" fill="#0C0F44"/>
<path d="M131.165 20.5115V10.5254H127.227V8.20463H137.952V10.5254H134.013V20.5115H131.165Z" fill="#0C0F44"/>
<path d="M145.29 20.7225C144.317 20.7225 143.415 20.5643 142.582 20.2478C141.762 19.9314 141.047 19.486 140.438 18.9116C139.84 18.3373 139.371 17.6634 139.031 16.8898C138.703 16.1162 138.539 15.2723 138.539 14.3581C138.539 13.4439 138.703 12.6 139.031 11.8264C139.371 11.0528 139.846 10.3789 140.455 9.80453C141.065 9.2302 141.78 8.78481 142.6 8.46835C143.42 8.15188 144.311 7.99365 145.272 7.99365C146.245 7.99365 147.136 8.15188 147.945 8.46835C148.765 8.78481 149.474 9.2302 150.072 9.80453C150.682 10.3789 151.156 11.0528 151.496 11.8264C151.836 12.5882 152.006 13.4321 152.006 14.3581C152.006 15.2723 151.836 16.1221 151.496 16.9074C151.156 17.681 150.682 18.3549 150.072 18.9292C149.474 19.4918 148.765 19.9314 147.945 20.2478C147.136 20.5643 146.251 20.7225 145.29 20.7225ZM145.272 18.2963C145.823 18.2963 146.327 18.2025 146.784 18.015C147.253 17.8275 147.663 17.5579 148.015 17.2063C148.367 16.8546 148.636 16.4385 148.824 15.958C149.023 15.4774 149.123 14.9441 149.123 14.3581C149.123 13.772 149.023 13.2387 148.824 12.7582C148.636 12.2776 148.367 11.8615 148.015 11.5099C147.675 11.1583 147.271 10.8887 146.802 10.7012C146.333 10.5136 145.823 10.4199 145.272 10.4199C144.721 10.4199 144.212 10.5136 143.743 10.7012C143.286 10.8887 142.881 11.1583 142.53 11.5099C142.178 11.8615 141.903 12.2776 141.703 12.7582C141.516 13.2387 141.422 13.772 141.422 14.3581C141.422 14.9324 141.516 15.4657 141.703 15.958C141.903 16.4385 142.172 16.8546 142.512 17.2063C142.864 17.5579 143.274 17.8275 143.743 18.015C144.212 18.2025 144.721 18.2963 145.272 18.2963Z" fill="#0C0F44"/>
<path d="M160.124 20.7225C159.151 20.7225 158.249 20.5643 157.417 20.2478C156.596 19.9314 155.881 19.486 155.272 18.9116C154.674 18.3373 154.205 17.6634 153.865 16.8898C153.537 16.1162 153.373 15.2723 153.373 14.3581C153.373 13.4439 153.537 12.6 153.865 11.8264C154.205 11.0528 154.68 10.3789 155.289 9.80453C155.899 9.2302 156.614 8.78481 157.434 8.46835C158.255 8.15188 159.146 7.99365 160.107 7.99365C161.079 7.99365 161.97 8.15188 162.779 8.46835C163.599 8.78481 164.309 9.2302 164.906 9.80453C165.516 10.3789 165.99 11.0528 166.33 11.8264C166.67 12.5882 166.84 13.4321 166.84 14.3581C166.84 15.2723 166.67 16.1221 166.33 16.9074C165.99 17.681 165.516 18.3549 164.906 18.9292C164.309 19.4918 163.599 19.9314 162.779 20.2478C161.97 20.5643 161.085 20.7225 160.124 20.7225ZM160.107 18.2963C160.657 18.2963 161.161 18.2025 161.619 18.015C162.087 17.8275 162.498 17.5579 162.849 17.2063C163.201 16.8546 163.471 16.4385 163.658 15.958C163.857 15.4774 163.957 14.9441 163.957 14.3581C163.957 13.772 163.857 13.2387 163.658 12.7582C163.471 12.2776 163.201 11.8615 162.849 11.5099C162.509 11.1583 162.105 10.8887 161.636 10.7012C161.167 10.5136 160.657 10.4199 160.107 10.4199C159.556 10.4199 159.046 10.5136 158.577 10.7012C158.12 10.8887 157.716 11.1583 157.364 11.5099C157.012 11.8615 156.737 12.2776 156.538 12.7582C156.35 13.2387 156.256 13.772 156.256 14.3581C156.256 14.9324 156.35 15.4657 156.538 15.958C156.737 16.4385 157.006 16.8546 157.346 17.2063C157.698 17.5579 158.108 17.8275 158.577 18.015C159.046 18.2025 159.556 18.2963 160.107 18.2963Z" fill="#0C0F44"/>
<path d="M168.981 20.5115V8.20463H171.829V18.1908H178V20.5115H168.981Z" fill="#0C0F44"/>
<defs>
<radialGradient id="paint0_radial_2206_387" cx="0" cy="0" r="1" gradientUnits="userSpaceOnUse" gradientTransform="translate(0.483147 9.3884) scale(13.8009)">
<stop offset="0.1667" stop-color="#4674B5"/>
<stop offset="0.3306" stop-color="#4878B5"/>
<stop offset="0.4942" stop-color="#4F84B6"/>
<stop offset="0.6576" stop-color="#5998B6"/>
<stop offset="0.821" stop-color="#68B4B7"/>
<stop offset="0.9831" stop-color="#7CD8B9"/>
<stop offset="1" stop-color="#7EDCB9"/>
</radialGradient>
<linearGradient id="paint1_linear_2206_387" x1="2.57854" y1="8.10438" x2="20.0444" y2="8.10438" gradientUnits="userSpaceOnUse">
<stop stop-color="#7EDCB9"/>
<stop offset="0.0168892" stop-color="#7CD8B9"/>
<stop offset="0.179" stop-color="#68B4B7"/>
<stop offset="0.3424" stop-color="#5998B6"/>
<stop offset="0.5058" stop-color="#4F84B6"/>
<stop offset="0.6694" stop-color="#4878B5"/>
<stop offset="0.8333" stop-color="#4674B5"/>
</linearGradient>
<linearGradient id="paint2_linear_2206_387" x1="43.4431" y1="15.5114" x2="30.9602" y2="15.5114" gradientUnits="userSpaceOnUse">
<stop offset="0.00955605" stop-color="#8C0053"/>
<stop offset="0.1433" stop-color="#8F0651"/>
<stop offset="0.3241" stop-color="#99174D"/>
<stop offset="0.5319" stop-color="#A93445"/>
<stop offset="0.7597" stop-color="#BF5B3B"/>
<stop offset="1" stop-color="#DB8D2E"/>
</linearGradient>
<linearGradient id="paint3_linear_2206_387" x1="40.8892" y1="21.1767" x2="23.4234" y2="21.1767" gradientUnits="userSpaceOnUse">
<stop stop-color="#DB8D2E"/>
<stop offset="0.2403" stop-color="#BF5B3B"/>
<stop offset="0.4681" stop-color="#A93445"/>
<stop offset="0.6759" stop-color="#99174D"/>
<stop offset="0.8567" stop-color="#8F0651"/>
<stop offset="0.9904" stop-color="#8C0053"/>
</linearGradient>
</defs>
</svg>
