<svg width="42" height="57" viewBox="0 0 42 57" fill="none" xmlns="http://www.w3.org/2000/svg">
<path d="M20.6931 0C15.2072 0.00713058 9.94795 2.18958 6.06879 6.06874C2.18963 9.9479 0.00717862 15.2071 4.80401e-05 20.6931C-0.00794748 24.3803 0.982242 28.0009 2.86558 31.1709L19.0744 55.5169C19.2493 55.7868 19.4892 56.0083 19.772 56.1612C20.0549 56.3141 20.3716 56.3934 20.6931 56.3919C21.0142 56.3909 21.33 56.3104 21.6124 56.1577C21.8949 56.0051 22.1352 55.785 22.3119 55.5169L37.2083 33.1614L38.5645 31.0834C40.4247 27.9377 41.3997 24.3476 41.3862 20.6931C41.3791 15.2071 39.1966 9.94791 35.3175 6.06875C31.4383 2.18959 26.1791 0.00714213 20.6931 0ZM20.6931 28.196C19.2092 28.196 17.7586 27.7559 16.5248 26.9315C15.2909 26.1071 14.3292 24.9353 13.7614 23.5643C13.1935 22.1933 13.0449 20.6848 13.3344 19.2293C13.6239 17.7739 14.3385 16.437 15.3878 15.3877C16.4371 14.3384 17.774 13.6239 19.2294 13.3344C20.6848 13.0449 22.1934 13.1934 23.5644 13.7613C24.9353 14.3292 26.1071 15.2909 26.9316 16.5247C27.756 17.7585 28.196 19.2092 28.196 20.6931C28.1962 21.6784 28.0023 22.6542 27.6254 23.5646C27.2484 24.475 26.6957 25.3022 25.999 25.9989C25.3022 26.6957 24.475 27.2483 23.5646 27.6253C22.6542 28.0023 21.6785 28.1962 20.6931 28.196Z" fill="#50A028"/>
</svg>
