<svg width="21" height="21" viewBox="0 0 21 21" fill="none" xmlns="http://www.w3.org/2000/svg">
<path d="M15.3786 18.376H4.82861C3.72661 18.376 2.82861 17.4331 2.82861 16.2739V5.19855C2.82861 4.03935 3.72661 3.09645 4.82861 3.09645H11.0146C11.3146 3.09645 11.5586 3.35475 11.5586 3.66975C11.5586 3.98685 11.3146 4.24305 11.0146 4.24305H4.82861C4.32861 4.24305 3.92061 4.67145 3.92061 5.19855V16.276C3.92061 16.801 4.32861 17.2294 4.82861 17.2294H15.3786C15.8806 17.2294 16.2886 16.801 16.2886 16.2739V9.78075C16.2886 9.46575 16.5326 9.20955 16.8346 9.20955C17.1346 9.20955 17.3806 9.46575 17.3806 9.78075V16.2739C17.3806 17.4331 16.4826 18.376 15.3786 18.376Z" fill="#1944AB"/>
<path d="M6.72265 14.8292C6.57865 14.8292 6.43865 14.7704 6.33665 14.6612C6.20665 14.5268 6.15265 14.3315 6.18865 14.1446L6.70265 11.444C6.72265 11.3327 6.77465 11.2298 6.85065 11.15L14.3866 3.23927C15.1666 2.42027 16.4346 2.42027 17.2166 3.23927C17.5926 3.63617 17.8006 4.16327 17.8006 4.72397C17.8006 5.28677 17.5926 5.81387 17.2146 6.21077L9.68065 14.1215C9.60465 14.2013 9.50665 14.2559 9.40265 14.279L6.83065 14.8187C6.79465 14.8271 6.75865 14.8292 6.72265 14.8292ZM9.29465 13.7162H9.30265H9.29465ZM7.73865 11.8388L7.41865 13.5272L9.02665 13.1891L16.4446 5.40017C16.6166 5.21957 16.7106 4.98017 16.7106 4.72397C16.7106 4.46987 16.6166 4.23047 16.4446 4.04987C16.0906 3.67817 15.5126 3.67817 15.1586 4.04987L7.73865 11.8388Z" fill="#1944AB"/>
<path d="M15.8007 7.45814C15.6607 7.45814 15.5207 7.40354 15.4147 7.29014L13.3587 5.12924C13.1447 4.90664 13.1447 4.54334 13.3587 4.31864C13.5707 4.09604 13.9167 4.09604 14.1307 4.31864L16.1867 6.47954C16.4007 6.70424 16.4007 7.06754 16.1867 7.29014C16.0807 7.40144 15.9407 7.45814 15.8007 7.45814Z" fill="#1944AB"/>
</svg>
