<svg width="1069" height="33" viewBox="0 0 1069 33" fill="none" xmlns="http://www.w3.org/2000/svg">
<path d="M0.338242 10.49H3.57824V12.59H3.63824C4.11824 11.69 4.78824 11.05 5.64824 10.67C6.50824 10.27 7.43824 10.07 8.43824 10.07C9.65824 10.07 10.7182 10.29 11.6182 10.73C12.5382 11.15 13.2982 11.74 13.8982 12.5C14.4982 13.24 14.9482 14.11 15.2482 15.11C15.5482 16.11 15.6982 17.18 15.6982 18.32C15.6982 19.36 15.5582 20.37 15.2782 21.35C15.0182 22.33 14.6082 23.2 14.0482 23.96C13.5082 24.7 12.8182 25.3 11.9782 25.76C11.1382 26.2 10.1482 26.42 9.00824 26.42C8.50824 26.42 8.00824 26.37 7.50824 26.27C7.00824 26.19 6.52824 26.05 6.06824 25.85C5.60824 25.65 5.17824 25.4 4.77824 25.1C4.39824 24.78 4.07824 24.41 3.81824 23.99H3.75824V31.73H0.338242V10.49ZM12.2782 18.26C12.2782 17.56 12.1882 16.88 12.0082 16.22C11.8282 15.56 11.5582 14.98 11.1982 14.48C10.8382 13.96 10.3882 13.55 9.84824 13.25C9.30824 12.93 8.68824 12.77 7.98824 12.77C6.54824 12.77 5.45824 13.27 4.71824 14.27C3.99824 15.27 3.63824 16.6 3.63824 18.26C3.63824 19.04 3.72824 19.77 3.90824 20.45C4.10824 21.11 4.39824 21.68 4.77824 22.16C5.15824 22.64 5.60824 23.02 6.12824 23.3C6.66824 23.58 7.28824 23.72 7.98824 23.72C8.76824 23.72 9.42824 23.56 9.96824 23.24C10.5082 22.92 10.9482 22.51 11.2882 22.01C11.6482 21.49 11.8982 20.91 12.0382 20.27C12.1982 19.61 12.2782 18.94 12.2782 18.26ZM25.6981 26.42C24.4581 26.42 23.3481 26.22 22.3681 25.82C21.4081 25.4 20.5881 24.83 19.9081 24.11C19.2481 23.39 18.7381 22.53 18.3781 21.53C18.0381 20.53 17.8681 19.43 17.8681 18.23C17.8681 17.05 18.0381 15.96 18.3781 14.96C18.7381 13.96 19.2481 13.1 19.9081 12.38C20.5881 11.66 21.4081 11.1 22.3681 10.7C23.3481 10.28 24.4581 10.07 25.6981 10.07C26.9381 10.07 28.0381 10.28 28.9981 10.7C29.9781 11.1 30.7981 11.66 31.4581 12.38C32.1381 13.1 32.6481 13.96 32.9881 14.96C33.3481 15.96 33.5281 17.05 33.5281 18.23C33.5281 19.43 33.3481 20.53 32.9881 21.53C32.6481 22.53 32.1381 23.39 31.4581 24.11C30.7981 24.83 29.9781 25.4 28.9981 25.82C28.0381 26.22 26.9381 26.42 25.6981 26.42ZM25.6981 23.72C26.4581 23.72 27.1181 23.56 27.6781 23.24C28.2381 22.92 28.6981 22.5 29.0581 21.98C29.4181 21.46 29.6781 20.88 29.8381 20.24C30.0181 19.58 30.1081 18.91 30.1081 18.23C30.1081 17.57 30.0181 16.91 29.8381 16.25C29.6781 15.59 29.4181 15.01 29.0581 14.51C28.6981 13.99 28.2381 13.57 27.6781 13.25C27.1181 12.93 26.4581 12.77 25.6981 12.77C24.9381 12.77 24.2781 12.93 23.7181 13.25C23.1581 13.57 22.6981 13.99 22.3381 14.51C21.9781 15.01 21.7081 15.59 21.5281 16.25C21.3681 16.91 21.2881 17.57 21.2881 18.23C21.2881 18.91 21.3681 19.58 21.5281 20.24C21.7081 20.88 21.9781 21.46 22.3381 21.98C22.6981 22.5 23.1581 22.92 23.7181 23.24C24.2781 23.56 24.9381 23.72 25.6981 23.72ZM34.9613 10.49H38.5913L41.6213 22.07H41.6813L44.5913 10.49H48.0413L50.8313 22.07H50.8913L54.0413 10.49H57.5213L52.6613 26H49.1513L46.2713 14.48H46.2113L43.3613 26H39.7613L34.9613 10.49ZM70.3709 16.88C70.3309 16.34 70.2109 15.82 70.0109 15.32C69.8309 14.82 69.5709 14.39 69.2309 14.03C68.9109 13.65 68.5109 13.35 68.0309 13.13C67.5709 12.89 67.0509 12.77 66.4709 12.77C65.8709 12.77 65.3209 12.88 64.8209 13.1C64.3409 13.3 63.9209 13.59 63.5609 13.97C63.2209 14.33 62.9409 14.76 62.7209 15.26C62.5209 15.76 62.4109 16.3 62.3909 16.88H70.3709ZM62.3909 19.13C62.3909 19.73 62.4709 20.31 62.6309 20.87C62.8109 21.43 63.0709 21.92 63.4109 22.34C63.7509 22.76 64.1809 23.1 64.7009 23.36C65.2209 23.6 65.8409 23.72 66.5609 23.72C67.5609 23.72 68.3609 23.51 68.9609 23.09C69.5809 22.65 70.0409 22 70.3409 21.14H73.5809C73.4009 21.98 73.0909 22.73 72.6509 23.39C72.2109 24.05 71.6809 24.61 71.0609 25.07C70.4409 25.51 69.7409 25.84 68.9609 26.06C68.2009 26.3 67.4009 26.42 66.5609 26.42C65.3409 26.42 64.2609 26.22 63.3209 25.82C62.3809 25.42 61.5809 24.86 60.9209 24.14C60.2809 23.42 59.7909 22.56 59.4509 21.56C59.1309 20.56 58.9709 19.46 58.9709 18.26C58.9709 17.16 59.1409 16.12 59.4809 15.14C59.8409 14.14 60.3409 13.27 60.9809 12.53C61.6409 11.77 62.4309 11.17 63.3509 10.73C64.2709 10.29 65.3109 10.07 66.4709 10.07C67.6909 10.07 68.7809 10.33 69.7409 10.85C70.7209 11.35 71.5309 12.02 72.1709 12.86C72.8109 13.7 73.2709 14.67 73.5509 15.77C73.8509 16.85 73.9309 17.97 73.7909 19.13H62.3909ZM76.3908 10.49H79.6008V13.49H79.6608C79.7608 13.07 79.9508 12.66 80.2308 12.26C80.5308 11.86 80.8808 11.5 81.2808 11.18C81.7008 10.84 82.1608 10.57 82.6608 10.37C83.1608 10.17 83.6708 10.07 84.1908 10.07C84.5908 10.07 84.8608 10.08 85.0008 10.1C85.1608 10.12 85.3208 10.14 85.4808 10.16V13.46C85.2408 13.42 84.9908 13.39 84.7308 13.37C84.4908 13.33 84.2508 13.31 84.0108 13.31C83.4308 13.31 82.8808 13.43 82.3608 13.67C81.8608 13.89 81.4208 14.23 81.0408 14.69C80.6608 15.13 80.3608 15.68 80.1408 16.34C79.9208 17 79.8108 17.76 79.8108 18.62V26H76.3908V10.49ZM97.0604 16.88C97.0204 16.34 96.9004 15.82 96.7004 15.32C96.5204 14.82 96.2604 14.39 95.9204 14.03C95.6004 13.65 95.2004 13.35 94.7204 13.13C94.2604 12.89 93.7404 12.77 93.1604 12.77C92.5604 12.77 92.0104 12.88 91.5104 13.1C91.0304 13.3 90.6104 13.59 90.2504 13.97C89.9104 14.33 89.6304 14.76 89.4104 15.26C89.2104 15.76 89.1004 16.3 89.0804 16.88H97.0604ZM89.0804 19.13C89.0804 19.73 89.1604 20.31 89.3204 20.87C89.5004 21.43 89.7604 21.92 90.1004 22.34C90.4404 22.76 90.8704 23.1 91.3904 23.36C91.9104 23.6 92.5304 23.72 93.2504 23.72C94.2504 23.72 95.0504 23.51 95.6504 23.09C96.2704 22.65 96.7304 22 97.0304 21.14H100.27C100.09 21.98 99.7804 22.73 99.3404 23.39C98.9004 24.05 98.3704 24.61 97.7504 25.07C97.1304 25.51 96.4304 25.84 95.6504 26.06C94.8904 26.3 94.0904 26.42 93.2504 26.42C92.0304 26.42 90.9504 26.22 90.0104 25.82C89.0704 25.42 88.2704 24.86 87.6104 24.14C86.9704 23.42 86.4804 22.56 86.1404 21.56C85.8204 20.56 85.6604 19.46 85.6604 18.26C85.6604 17.16 85.8304 16.12 86.1704 15.14C86.5304 14.14 87.0304 13.27 87.6704 12.53C88.3304 11.77 89.1204 11.17 90.0404 10.73C90.9604 10.29 92.0004 10.07 93.1604 10.07C94.3804 10.07 95.4704 10.33 96.4304 10.85C97.4104 11.35 98.2204 12.02 98.8604 12.86C99.5004 13.7 99.9604 14.67 100.24 15.77C100.54 16.85 100.62 17.97 100.48 19.13H89.0804ZM117.69 26H114.45V23.9H114.39C113.93 24.8 113.26 25.45 112.38 25.85C111.5 26.23 110.57 26.42 109.59 26.42C108.37 26.42 107.3 26.21 106.38 25.79C105.48 25.35 104.73 24.76 104.13 24.02C103.53 23.28 103.08 22.41 102.78 21.41C102.48 20.39 102.33 19.3 102.33 18.14C102.33 16.74 102.52 15.53 102.9 14.51C103.28 13.49 103.78 12.65 104.4 11.99C105.04 11.33 105.76 10.85 106.56 10.55C107.38 10.23 108.21 10.07 109.05 10.07C109.53 10.07 110.02 10.12 110.52 10.22C111.02 10.3 111.5 10.44 111.96 10.64C112.42 10.84 112.84 11.1 113.22 11.42C113.62 11.72 113.95 12.08 114.21 12.5H114.27V4.58H117.69V26ZM105.75 18.41C105.75 19.07 105.83 19.72 105.99 20.36C106.17 21 106.43 21.57 106.77 22.07C107.13 22.57 107.58 22.97 108.12 23.27C108.66 23.57 109.3 23.72 110.04 23.72C110.8 23.72 111.45 23.56 111.99 23.24C112.55 22.92 113 22.5 113.34 21.98C113.7 21.46 113.96 20.88 114.12 20.24C114.3 19.58 114.39 18.91 114.39 18.23C114.39 16.51 114 15.17 113.22 14.21C112.46 13.25 111.42 12.77 110.1 12.77C109.3 12.77 108.62 12.94 108.06 13.28C107.52 13.6 107.07 14.03 106.71 14.57C106.37 15.09 106.12 15.69 105.96 16.37C105.82 17.03 105.75 17.71 105.75 18.41ZM129.86 4.58H133.28V12.5H133.34C133.58 12.12 133.87 11.78 134.21 11.48C134.55 11.18 134.92 10.93 135.32 10.73C135.74 10.51 136.17 10.35 136.61 10.25C137.07 10.13 137.52 10.07 137.96 10.07C139.18 10.07 140.24 10.29 141.14 10.73C142.06 11.15 142.82 11.74 143.42 12.5C144.02 13.24 144.47 14.11 144.77 15.11C145.07 16.11 145.22 17.18 145.22 18.32C145.22 19.36 145.08 20.37 144.8 21.35C144.54 22.33 144.13 23.2 143.57 23.96C143.03 24.7 142.34 25.3 141.5 25.76C140.66 26.2 139.67 26.42 138.53 26.42C138.01 26.42 137.48 26.38 136.94 26.3C136.42 26.24 135.92 26.11 135.44 25.91C134.96 25.71 134.52 25.45 134.12 25.13C133.74 24.81 133.42 24.39 133.16 23.87H133.1V26H129.86V4.58ZM141.8 18.26C141.8 17.56 141.71 16.88 141.53 16.22C141.35 15.56 141.08 14.98 140.72 14.48C140.36 13.96 139.91 13.55 139.37 13.25C138.83 12.93 138.21 12.77 137.51 12.77C136.07 12.77 134.98 13.27 134.24 14.27C133.52 15.27 133.16 16.6 133.16 18.26C133.16 19.04 133.25 19.77 133.43 20.45C133.63 21.11 133.92 21.68 134.3 22.16C134.68 22.64 135.13 23.02 135.65 23.3C136.19 23.58 136.81 23.72 137.51 23.72C138.29 23.72 138.95 23.56 139.49 23.24C140.03 22.92 140.47 22.51 140.81 22.01C141.17 21.49 141.42 20.91 141.56 20.27C141.72 19.61 141.8 18.94 141.8 18.26ZM146.4 10.49H150.15L154.2 22.07H154.26L158.19 10.49H161.76L155.73 26.84C155.45 27.54 155.17 28.21 154.89 28.85C154.63 29.49 154.3 30.05 153.9 30.53C153.52 31.03 153.04 31.42 152.46 31.7C151.88 32 151.14 32.15 150.24 32.15C149.44 32.15 148.65 32.09 147.87 31.97V29.09C148.15 29.13 148.42 29.17 148.68 29.21C148.94 29.27 149.21 29.3 149.49 29.3C149.89 29.3 150.22 29.25 150.48 29.15C150.74 29.05 150.95 28.9 151.11 28.7C151.29 28.52 151.44 28.3 151.56 28.04C151.68 27.78 151.79 27.48 151.89 27.14L152.28 25.94L146.4 10.49ZM173.537 3.152H178.561V21.776H189.697V26H173.537V3.152ZM196.698 6.896H192.154V3.152H196.698V6.896ZM192.154 9.456H196.698V26H192.154V9.456ZM212.404 17.744C212.404 17.04 212.329 16.368 212.18 15.728C212.031 15.088 211.796 14.5227 211.476 14.032C211.156 13.5413 210.751 13.1573 210.26 12.88C209.791 12.5813 209.215 12.432 208.532 12.432C207.871 12.432 207.295 12.5813 206.804 12.88C206.313 13.1573 205.908 13.5413 205.588 14.032C205.268 14.5227 205.033 15.088 204.884 15.728C204.735 16.368 204.66 17.04 204.66 17.744C204.66 18.4267 204.735 19.088 204.884 19.728C205.033 20.368 205.268 20.9333 205.588 21.424C205.908 21.9147 206.313 22.3093 206.804 22.608C207.295 22.8853 207.871 23.024 208.532 23.024C209.215 23.024 209.791 22.8853 210.26 22.608C210.751 22.3093 211.156 21.9147 211.476 21.424C211.796 20.9333 212.031 20.368 212.18 19.728C212.329 19.088 212.404 18.4267 212.404 17.744ZM200.276 3.152H204.82V11.472H204.884C205.439 10.6187 206.185 10 207.124 9.616C208.084 9.21067 209.076 9.008 210.1 9.008C210.932 9.008 211.753 9.17867 212.564 9.52C213.375 9.86133 214.1 10.384 214.74 11.088C215.401 11.792 215.935 12.6987 216.34 13.808C216.745 14.896 216.948 16.1973 216.948 17.712C216.948 19.2267 216.745 20.5387 216.34 21.648C215.935 22.736 215.401 23.632 214.74 24.336C214.1 25.04 213.375 25.5627 212.564 25.904C211.753 26.2453 210.932 26.416 210.1 26.416C208.884 26.416 207.796 26.224 206.836 25.84C205.876 25.456 205.151 24.8053 204.66 23.888H204.596V26H200.276V3.152ZM230.974 15.952C230.761 14.8 230.377 13.9253 229.822 13.328C229.289 12.7307 228.468 12.432 227.358 12.432C226.633 12.432 226.025 12.56 225.534 12.816C225.065 13.0507 224.681 13.3493 224.382 13.712C224.105 14.0747 223.902 14.4587 223.774 14.864C223.668 15.2693 223.604 15.632 223.582 15.952H230.974ZM223.582 18.832C223.646 20.304 224.02 21.3707 224.702 22.032C225.385 22.6933 226.366 23.024 227.646 23.024C228.564 23.024 229.353 22.8 230.014 22.352C230.676 21.8827 231.081 21.392 231.23 20.88H235.23C234.59 22.864 233.609 24.2827 232.286 25.136C230.964 25.9893 229.364 26.416 227.486 26.416C226.185 26.416 225.012 26.2133 223.966 25.808C222.921 25.3813 222.036 24.784 221.31 24.016C220.585 23.248 220.02 22.3307 219.614 21.264C219.23 20.1973 219.038 19.024 219.038 17.744C219.038 16.5067 219.241 15.3547 219.646 14.288C220.052 13.2213 220.628 12.304 221.374 11.536C222.121 10.7467 223.006 10.128 224.03 9.68C225.076 9.232 226.228 9.008 227.486 9.008C228.894 9.008 230.121 9.28533 231.166 9.84C232.212 10.3733 233.065 11.0987 233.726 12.016C234.409 12.9333 234.9 13.9787 235.198 15.152C235.497 16.3253 235.604 17.552 235.518 18.832H223.582ZM238.213 9.456H242.533V12.528H242.597C242.811 12.016 243.099 11.5467 243.461 11.12C243.824 10.672 244.24 10.2987 244.709 10C245.179 9.68 245.68 9.43467 246.213 9.264C246.747 9.09333 247.301 9.008 247.877 9.008C248.176 9.008 248.507 9.06133 248.869 9.168V13.392C248.656 13.3493 248.4 13.3173 248.101 13.296C247.803 13.2533 247.515 13.232 247.237 13.232C246.405 13.232 245.701 13.3707 245.125 13.648C244.549 13.9253 244.08 14.3093 243.717 14.8C243.376 15.2693 243.131 15.824 242.981 16.464C242.832 17.104 242.757 17.7973 242.757 18.544V26H238.213V9.456ZM256.411 9.456H259.739V12.496H256.411V20.688C256.411 21.456 256.539 21.968 256.795 22.224C257.051 22.48 257.563 22.608 258.331 22.608C258.587 22.608 258.832 22.5973 259.067 22.576C259.302 22.5547 259.526 22.5227 259.739 22.48V26C259.355 26.064 258.928 26.1067 258.459 26.128C257.99 26.1493 257.531 26.16 257.083 26.16C256.379 26.16 255.707 26.1067 255.067 26C254.448 25.9147 253.894 25.7333 253.403 25.456C252.934 25.1787 252.56 24.784 252.283 24.272C252.006 23.76 251.867 23.088 251.867 22.256V12.496H249.115V9.456H251.867V4.496H256.411V9.456ZM270.061 28.048C269.57 29.392 268.888 30.352 268.013 30.928C267.138 31.504 265.922 31.792 264.365 31.792C263.896 31.792 263.426 31.7707 262.957 31.728C262.509 31.7067 262.05 31.6747 261.581 31.632V27.888C262.008 27.9307 262.445 27.9733 262.893 28.016C263.341 28.0587 263.789 28.0693 264.237 28.048C264.834 27.984 265.272 27.7493 265.549 27.344C265.848 26.9387 265.997 26.4907 265.997 26C265.997 25.6373 265.933 25.296 265.805 24.976L260.013 9.456H264.845L268.589 20.784H268.653L272.269 9.456H276.973L270.061 28.048ZM287.881 3.152H292.905V21.776H304.041V26H287.881V3.152ZM306.178 14.544C306.242 13.4773 306.508 12.592 306.978 11.888C307.447 11.184 308.044 10.6187 308.77 10.192C309.495 9.76533 310.306 9.46667 311.202 9.296C312.119 9.104 313.036 9.008 313.954 9.008C314.786 9.008 315.628 9.072 316.482 9.2C317.335 9.30667 318.114 9.53067 318.818 9.872C319.522 10.2133 320.098 10.6933 320.546 11.312C320.994 11.9093 321.218 12.7093 321.218 13.712V22.32C321.218 23.0667 321.26 23.7813 321.346 24.464C321.431 25.1467 321.58 25.6587 321.794 26H317.186C317.1 25.744 317.026 25.488 316.962 25.232C316.919 24.9547 316.887 24.6773 316.866 24.4C316.14 25.1467 315.287 25.6693 314.306 25.968C313.324 26.2667 312.322 26.416 311.298 26.416C310.508 26.416 309.772 26.32 309.09 26.128C308.407 25.936 307.81 25.6373 307.298 25.232C306.786 24.8267 306.38 24.3147 306.082 23.696C305.804 23.0773 305.666 22.3413 305.666 21.488C305.666 20.5493 305.826 19.7813 306.146 19.184C306.487 18.5653 306.914 18.0747 307.426 17.712C307.959 17.3493 308.556 17.0827 309.218 16.912C309.9 16.72 310.583 16.5707 311.266 16.464C311.948 16.3573 312.62 16.272 313.282 16.208C313.943 16.144 314.53 16.048 315.042 15.92C315.554 15.792 315.959 15.6107 316.258 15.376C316.556 15.12 316.695 14.7573 316.674 14.288C316.674 13.7973 316.588 13.4133 316.418 13.136C316.268 12.8373 316.055 12.6133 315.778 12.464C315.522 12.2933 315.212 12.1867 314.85 12.144C314.508 12.08 314.135 12.048 313.73 12.048C312.834 12.048 312.13 12.24 311.618 12.624C311.106 13.008 310.807 13.648 310.722 14.544H306.178ZM316.674 17.904C316.482 18.0747 316.236 18.2133 315.938 18.32C315.66 18.4053 315.351 18.48 315.01 18.544C314.69 18.608 314.348 18.6613 313.986 18.704C313.623 18.7467 313.26 18.8 312.898 18.864C312.556 18.928 312.215 19.0133 311.874 19.12C311.554 19.2267 311.266 19.376 311.01 19.568C310.775 19.7387 310.583 19.9627 310.434 20.24C310.284 20.5173 310.21 20.8693 310.21 21.296C310.21 21.7013 310.284 22.0427 310.434 22.32C310.583 22.5973 310.786 22.8213 311.042 22.992C311.298 23.1413 311.596 23.248 311.938 23.312C312.279 23.376 312.631 23.408 312.994 23.408C313.89 23.408 314.583 23.2587 315.074 22.96C315.564 22.6613 315.927 22.3093 316.162 21.904C316.396 21.4773 316.535 21.0507 316.578 20.624C316.642 20.1973 316.674 19.856 316.674 19.6V17.904ZM330.505 9.456H333.833V12.496H330.505V20.688C330.505 21.456 330.633 21.968 330.889 22.224C331.145 22.48 331.657 22.608 332.425 22.608C332.681 22.608 332.926 22.5973 333.161 22.576C333.395 22.5547 333.619 22.5227 333.833 22.48V26C333.449 26.064 333.022 26.1067 332.553 26.128C332.083 26.1493 331.625 26.16 331.177 26.16C330.473 26.16 329.801 26.1067 329.161 26C328.542 25.9147 327.987 25.7333 327.497 25.456C327.027 25.1787 326.654 24.784 326.377 24.272C326.099 23.76 325.961 23.088 325.961 22.256V12.496H323.209V9.456H325.961V4.496H330.505V9.456ZM340.667 6.896H336.123V3.152H340.667V6.896ZM336.123 9.456H340.667V26H336.123V9.456ZM344.245 9.456H348.565V11.76H348.661C349.237 10.8 349.983 10.1067 350.901 9.68C351.818 9.232 352.757 9.008 353.717 9.008C354.933 9.008 355.925 9.17867 356.693 9.52C357.482 9.84 358.101 10.2987 358.549 10.896C358.997 11.472 359.306 12.1867 359.477 13.04C359.669 13.872 359.765 14.8 359.765 15.824V26H355.221V16.656C355.221 15.2907 355.007 14.2773 354.581 13.616C354.154 12.9333 353.397 12.592 352.309 12.592C351.071 12.592 350.175 12.9653 349.621 13.712C349.066 14.4373 348.789 15.6427 348.789 17.328V26H344.245V9.456ZM378.36 17.168H384.28L381.4 8.784H381.336L378.36 17.168ZM378.84 3.152H383.992L392.536 26H387.32L385.592 20.912H377.048L375.256 26H370.2L378.84 3.152ZM394.154 9.456H398.442V11.696H398.506C399.103 10.8427 399.818 10.1813 400.65 9.712C401.503 9.24267 402.474 9.008 403.562 9.008C404.607 9.008 405.557 9.21067 406.41 9.616C407.285 10.0213 407.946 10.736 408.394 11.76C408.885 11.0347 409.546 10.3947 410.378 9.84C411.231 9.28533 412.234 9.008 413.386 9.008C414.261 9.008 415.071 9.11467 415.818 9.328C416.565 9.54133 417.205 9.88267 417.738 10.352C418.271 10.8213 418.687 11.44 418.986 12.208C419.285 12.9547 419.434 13.8613 419.434 14.928V26H414.89V16.624C414.89 16.0693 414.869 15.5467 414.826 15.056C414.783 14.5653 414.666 14.1387 414.474 13.776C414.282 13.4133 413.994 13.1253 413.61 12.912C413.247 12.6987 412.746 12.592 412.106 12.592C411.466 12.592 410.943 12.72 410.538 12.976C410.154 13.2107 409.845 13.5307 409.61 13.936C409.397 14.32 409.247 14.768 409.162 15.28C409.098 15.7707 409.066 16.272 409.066 16.784V26H404.522V16.72C404.522 16.2293 404.511 15.7493 404.49 15.28C404.469 14.7893 404.373 14.3413 404.202 13.936C404.053 13.5307 403.786 13.2107 403.402 12.976C403.039 12.72 402.495 12.592 401.77 12.592C401.557 12.592 401.269 12.6453 400.906 12.752C400.565 12.8373 400.223 13.0187 399.882 13.296C399.562 13.552 399.285 13.936 399.05 14.448C398.815 14.9387 398.698 15.5893 398.698 16.4V26H394.154V9.456ZM434.162 15.952C433.949 14.8 433.565 13.9253 433.01 13.328C432.477 12.7307 431.655 12.432 430.546 12.432C429.821 12.432 429.213 12.56 428.722 12.816C428.253 13.0507 427.869 13.3493 427.57 13.712C427.293 14.0747 427.09 14.4587 426.962 14.864C426.855 15.2693 426.791 15.632 426.77 15.952H434.162ZM426.77 18.832C426.834 20.304 427.207 21.3707 427.89 22.032C428.573 22.6933 429.554 23.024 430.834 23.024C431.751 23.024 432.541 22.8 433.202 22.352C433.863 21.8827 434.269 21.392 434.418 20.88H438.418C437.778 22.864 436.797 24.2827 435.474 25.136C434.151 25.9893 432.551 26.416 430.674 26.416C429.373 26.416 428.199 26.2133 427.154 25.808C426.109 25.3813 425.223 24.784 424.498 24.016C423.773 23.248 423.207 22.3307 422.802 21.264C422.418 20.1973 422.226 19.024 422.226 17.744C422.226 16.5067 422.429 15.3547 422.834 14.288C423.239 13.2213 423.815 12.304 424.562 11.536C425.309 10.7467 426.194 10.128 427.218 9.68C428.263 9.232 429.415 9.008 430.674 9.008C432.082 9.008 433.309 9.28533 434.354 9.84C435.399 10.3733 436.253 11.0987 436.914 12.016C437.597 12.9333 438.087 13.9787 438.386 15.152C438.685 16.3253 438.791 17.552 438.706 18.832H426.77ZM441.401 9.456H445.721V12.528H445.785C445.998 12.016 446.286 11.5467 446.649 11.12C447.012 10.672 447.428 10.2987 447.897 10C448.366 9.68 448.868 9.43467 449.401 9.264C449.934 9.09333 450.489 9.008 451.065 9.008C451.364 9.008 451.694 9.06133 452.057 9.168V13.392C451.844 13.3493 451.588 13.3173 451.289 13.296C450.99 13.2533 450.702 13.232 450.425 13.232C449.593 13.232 448.889 13.3707 448.313 13.648C447.737 13.9253 447.268 14.3093 446.905 14.8C446.564 15.2693 446.318 15.824 446.169 16.464C446.02 17.104 445.945 17.7973 445.945 18.544V26H441.401V9.456ZM458.51 6.896H453.966V3.152H458.51V6.896ZM453.966 9.456H458.51V26H453.966V9.456ZM473.352 15.28C473.054 13.3813 471.934 12.432 469.992 12.432C469.267 12.432 468.659 12.6027 468.168 12.944C467.678 13.264 467.272 13.6907 466.952 14.224C466.654 14.736 466.44 15.312 466.312 15.952C466.184 16.5707 466.12 17.1893 466.12 17.808C466.12 18.4053 466.184 19.0133 466.312 19.632C466.44 20.2507 466.643 20.816 466.92 21.328C467.219 21.8187 467.614 22.224 468.104 22.544C468.595 22.864 469.192 23.024 469.896 23.024C470.984 23.024 471.816 22.7253 472.392 22.128C472.99 21.5093 473.363 20.688 473.512 19.664H477.896C477.598 21.8613 476.744 23.536 475.336 24.688C473.928 25.84 472.126 26.416 469.928 26.416C468.691 26.416 467.55 26.2133 466.504 25.808C465.48 25.3813 464.606 24.7947 463.88 24.048C463.155 23.3013 462.59 22.416 462.184 21.392C461.779 20.3467 461.576 19.2053 461.576 17.968C461.576 16.688 461.758 15.504 462.12 14.416C462.504 13.3067 463.059 12.3573 463.784 11.568C464.51 10.7573 465.395 10.128 466.44 9.68C467.486 9.232 468.68 9.008 470.024 9.008C471.006 9.008 471.944 9.136 472.84 9.392C473.758 9.648 474.568 10.0427 475.272 10.576C475.998 11.088 476.584 11.7387 477.032 12.528C477.48 13.296 477.736 14.2133 477.8 15.28H473.352ZM480.271 14.544C480.335 13.4773 480.602 12.592 481.071 11.888C481.541 11.184 482.138 10.6187 482.863 10.192C483.589 9.76533 484.399 9.46667 485.295 9.296C486.213 9.104 487.13 9.008 488.047 9.008C488.879 9.008 489.722 9.072 490.575 9.2C491.429 9.30667 492.207 9.53067 492.911 9.872C493.615 10.2133 494.191 10.6933 494.639 11.312C495.087 11.9093 495.311 12.7093 495.311 13.712V22.32C495.311 23.0667 495.354 23.7813 495.439 24.464C495.525 25.1467 495.674 25.6587 495.887 26H491.279C491.194 25.744 491.119 25.488 491.055 25.232C491.013 24.9547 490.981 24.6773 490.959 24.4C490.234 25.1467 489.381 25.6693 488.399 25.968C487.418 26.2667 486.415 26.416 485.391 26.416C484.602 26.416 483.866 26.32 483.183 26.128C482.501 25.936 481.903 25.6373 481.391 25.232C480.879 24.8267 480.474 24.3147 480.175 23.696C479.898 23.0773 479.759 22.3413 479.759 21.488C479.759 20.5493 479.919 19.7813 480.239 19.184C480.581 18.5653 481.007 18.0747 481.519 17.712C482.053 17.3493 482.65 17.0827 483.311 16.912C483.994 16.72 484.677 16.5707 485.359 16.464C486.042 16.3573 486.714 16.272 487.375 16.208C488.037 16.144 488.623 16.048 489.135 15.92C489.647 15.792 490.053 15.6107 490.351 15.376C490.65 15.12 490.789 14.7573 490.767 14.288C490.767 13.7973 490.682 13.4133 490.511 13.136C490.362 12.8373 490.149 12.6133 489.871 12.464C489.615 12.2933 489.306 12.1867 488.943 12.144C488.602 12.08 488.229 12.048 487.823 12.048C486.927 12.048 486.223 12.24 485.711 12.624C485.199 13.008 484.901 13.648 484.815 14.544H480.271ZM490.767 17.904C490.575 18.0747 490.33 18.2133 490.031 18.32C489.754 18.4053 489.445 18.48 489.103 18.544C488.783 18.608 488.442 18.6613 488.079 18.704C487.717 18.7467 487.354 18.8 486.991 18.864C486.65 18.928 486.309 19.0133 485.967 19.12C485.647 19.2267 485.359 19.376 485.103 19.568C484.869 19.7387 484.677 19.9627 484.527 20.24C484.378 20.5173 484.303 20.8693 484.303 21.296C484.303 21.7013 484.378 22.0427 484.527 22.32C484.677 22.5973 484.879 22.8213 485.135 22.992C485.391 23.1413 485.69 23.248 486.031 23.312C486.373 23.376 486.725 23.408 487.087 23.408C487.983 23.408 488.677 23.2587 489.167 22.96C489.658 22.6613 490.021 22.3093 490.255 21.904C490.49 21.4773 490.629 21.0507 490.671 20.624C490.735 20.1973 490.767 19.856 490.767 19.6V17.904ZM507.873 0.848H511.297V32.816H507.873V0.848ZM527.68 18.416C527.68 19.184 527.819 19.8347 528.096 20.368C528.373 20.9013 528.736 21.3387 529.184 21.68C529.653 22 530.197 22.2453 530.816 22.416C531.435 22.5653 532.075 22.64 532.736 22.64C533.184 22.64 533.664 22.608 534.176 22.544C534.688 22.4587 535.168 22.3093 535.616 22.096C536.064 21.8827 536.437 21.5947 536.736 21.232C537.035 20.848 537.184 20.368 537.184 19.792C537.184 19.1733 536.981 18.672 536.576 18.288C536.192 17.904 535.68 17.584 535.04 17.328C534.4 17.072 533.675 16.848 532.864 16.656C532.053 16.464 531.232 16.2507 530.4 16.016C529.547 15.8027 528.715 15.5467 527.904 15.248C527.093 14.928 526.368 14.5227 525.728 14.032C525.088 13.5413 524.565 12.9333 524.16 12.208C523.776 11.4613 523.584 10.5653 523.584 9.52C523.584 8.34667 523.829 7.33333 524.32 6.48C524.832 5.60533 525.493 4.88 526.304 4.304C527.115 3.728 528.032 3.30133 529.056 3.024C530.08 2.74667 531.104 2.608 532.128 2.608C533.323 2.608 534.464 2.74667 535.552 3.024C536.661 3.28 537.643 3.70667 538.496 4.304C539.349 4.90133 540.021 5.66933 540.512 6.608C541.024 7.52533 541.28 8.64533 541.28 9.968H536.416C536.373 9.28533 536.224 8.72 535.968 8.272C535.733 7.824 535.413 7.472 535.008 7.216C534.603 6.96 534.133 6.77867 533.6 6.672C533.088 6.56533 532.523 6.512 531.904 6.512C531.499 6.512 531.093 6.55467 530.688 6.64C530.283 6.72533 529.909 6.87467 529.568 7.088C529.248 7.30133 528.981 7.568 528.768 7.888C528.555 8.208 528.448 8.61333 528.448 9.104C528.448 9.552 528.533 9.91467 528.704 10.192C528.875 10.4693 529.205 10.7253 529.696 10.96C530.208 11.1947 530.901 11.4293 531.776 11.664C532.672 11.8987 533.835 12.1973 535.264 12.56C535.691 12.6453 536.277 12.8053 537.024 13.04C537.792 13.2533 538.549 13.6053 539.296 14.096C540.043 14.5867 540.683 15.248 541.216 16.08C541.771 16.8907 542.048 17.936 542.048 19.216C542.048 20.2613 541.845 21.232 541.44 22.128C541.035 23.024 540.427 23.8027 539.616 24.464C538.827 25.104 537.835 25.6053 536.64 25.968C535.467 26.3307 534.101 26.512 532.544 26.512C531.285 26.512 530.059 26.352 528.864 26.032C527.691 25.7333 526.645 25.2533 525.728 24.592C524.832 23.9307 524.117 23.088 523.584 22.064C523.051 21.04 522.795 19.824 522.816 18.416H527.68ZM555.693 15.952C555.48 14.8 555.096 13.9253 554.541 13.328C554.008 12.7307 553.186 12.432 552.077 12.432C551.352 12.432 550.744 12.56 550.253 12.816C549.784 13.0507 549.4 13.3493 549.101 13.712C548.824 14.0747 548.621 14.4587 548.493 14.864C548.386 15.2693 548.322 15.632 548.301 15.952H555.693ZM548.301 18.832C548.365 20.304 548.738 21.3707 549.421 22.032C550.104 22.6933 551.085 23.024 552.365 23.024C553.282 23.024 554.072 22.8 554.733 22.352C555.394 21.8827 555.8 21.392 555.949 20.88H559.949C559.309 22.864 558.328 24.2827 557.005 25.136C555.682 25.9893 554.082 26.416 552.205 26.416C550.904 26.416 549.73 26.2133 548.685 25.808C547.64 25.3813 546.754 24.784 546.029 24.016C545.304 23.248 544.738 22.3307 544.333 21.264C543.949 20.1973 543.757 19.024 543.757 17.744C543.757 16.5067 543.96 15.3547 544.365 14.288C544.77 13.2213 545.346 12.304 546.093 11.536C546.84 10.7467 547.725 10.128 548.749 9.68C549.794 9.232 550.946 9.008 552.205 9.008C553.613 9.008 554.84 9.28533 555.885 9.84C556.93 10.3733 557.784 11.0987 558.445 12.016C559.128 12.9333 559.618 13.9787 559.917 15.152C560.216 16.3253 560.322 17.552 560.237 18.832H548.301ZM562.932 9.456H567.252V11.76H567.348C567.924 10.8 568.671 10.1067 569.588 9.68C570.505 9.232 571.444 9.008 572.404 9.008C573.62 9.008 574.612 9.17867 575.38 9.52C576.169 9.84 576.788 10.2987 577.236 10.896C577.684 11.472 577.993 12.1867 578.164 13.04C578.356 13.872 578.452 14.8 578.452 15.824V26H573.908V16.656C573.908 15.2907 573.695 14.2773 573.268 13.616C572.841 12.9333 572.084 12.592 570.996 12.592C569.759 12.592 568.863 12.9653 568.308 13.712C567.753 14.4373 567.476 15.6427 567.476 17.328V26H562.932V9.456ZM585.421 20.624C585.421 21.1147 585.517 21.5413 585.709 21.904C585.922 22.2453 586.189 22.5333 586.509 22.768C586.829 22.9813 587.192 23.1413 587.597 23.248C588.024 23.3547 588.461 23.408 588.909 23.408C589.229 23.408 589.56 23.376 589.901 23.312C590.264 23.2267 590.584 23.1093 590.861 22.96C591.16 22.7893 591.405 22.576 591.597 22.32C591.789 22.0427 591.885 21.7013 591.885 21.296C591.885 20.6133 591.426 20.1013 590.509 19.76C589.613 19.4187 588.354 19.0773 586.733 18.736C586.072 18.5867 585.421 18.416 584.781 18.224C584.162 18.0107 583.608 17.744 583.117 17.424C582.626 17.0827 582.232 16.6667 581.933 16.176C581.634 15.664 581.485 15.0453 581.485 14.32C581.485 13.2533 581.688 12.3787 582.093 11.696C582.52 11.0133 583.074 10.48 583.757 10.096C584.44 9.69067 585.208 9.41333 586.061 9.264C586.914 9.09333 587.789 9.008 588.685 9.008C589.581 9.008 590.445 9.09333 591.277 9.264C592.13 9.43467 592.888 9.72267 593.549 10.128C594.21 10.5333 594.754 11.0773 595.181 11.76C595.629 12.4213 595.896 13.264 595.981 14.288H591.661C591.597 13.4133 591.266 12.8267 590.669 12.528C590.072 12.208 589.368 12.048 588.557 12.048C588.301 12.048 588.024 12.0693 587.725 12.112C587.426 12.1333 587.149 12.1973 586.893 12.304C586.658 12.4107 586.456 12.5707 586.285 12.784C586.114 12.976 586.029 13.2427 586.029 13.584C586.029 13.9893 586.178 14.32 586.477 14.576C586.776 14.832 587.16 15.0453 587.629 15.216C588.12 15.3653 588.674 15.504 589.293 15.632C589.912 15.76 590.541 15.8987 591.181 16.048C591.842 16.1973 592.482 16.3787 593.101 16.592C593.741 16.8053 594.306 17.0933 594.797 17.456C595.288 17.7973 595.682 18.2347 595.981 18.768C596.28 19.28 596.429 19.92 596.429 20.688C596.429 21.776 596.205 22.6933 595.757 23.44C595.33 24.1653 594.765 24.752 594.061 25.2C593.357 25.648 592.546 25.9573 591.629 26.128C590.733 26.32 589.816 26.416 588.877 26.416C587.917 26.416 586.978 26.32 586.061 26.128C585.144 25.936 584.322 25.616 583.597 25.168C582.893 24.72 582.306 24.1333 581.837 23.408C581.389 22.6613 581.144 21.7333 581.101 20.624H585.421ZM607.248 28.048C606.758 29.392 606.075 30.352 605.2 30.928C604.326 31.504 603.11 31.792 601.552 31.792C601.083 31.792 600.614 31.7707 600.144 31.728C599.696 31.7067 599.238 31.6747 598.768 31.632V27.888C599.195 27.9307 599.632 27.9733 600.08 28.016C600.528 28.0587 600.976 28.0693 601.424 28.048C602.022 27.984 602.459 27.7493 602.736 27.344C603.035 26.9387 603.184 26.4907 603.184 26C603.184 25.6373 603.12 25.296 602.992 24.976L597.2 9.456H602.032L605.776 20.784H605.84L609.456 9.456H614.16L607.248 28.048ZM619.714 17.744C619.714 18.4053 619.778 19.056 619.906 19.696C620.034 20.3147 620.247 20.88 620.546 21.392C620.866 21.8827 621.282 22.2773 621.794 22.576C622.306 22.8747 622.946 23.024 623.714 23.024C624.482 23.024 625.122 22.8747 625.634 22.576C626.167 22.2773 626.583 21.8827 626.882 21.392C627.202 20.88 627.426 20.3147 627.554 19.696C627.682 19.056 627.746 18.4053 627.746 17.744C627.746 17.0827 627.682 16.432 627.554 15.792C627.426 15.152 627.202 14.5867 626.882 14.096C626.583 13.6053 626.167 13.2107 625.634 12.912C625.122 12.592 624.482 12.432 623.714 12.432C622.946 12.432 622.306 12.592 621.794 12.912C621.282 13.2107 620.866 13.6053 620.546 14.096C620.247 14.5867 620.034 15.152 619.906 15.792C619.778 16.432 619.714 17.0827 619.714 17.744ZM615.17 17.744C615.17 16.4213 615.373 15.2267 615.778 14.16C616.183 13.072 616.759 12.1547 617.506 11.408C618.253 10.64 619.149 10.0533 620.194 9.648C621.239 9.22133 622.413 9.008 623.714 9.008C625.015 9.008 626.189 9.22133 627.234 9.648C628.301 10.0533 629.207 10.64 629.954 11.408C630.701 12.1547 631.277 13.072 631.682 14.16C632.087 15.2267 632.29 16.4213 632.29 17.744C632.29 19.0667 632.087 20.2613 631.682 21.328C631.277 22.3947 630.701 23.312 629.954 24.08C629.207 24.8267 628.301 25.4027 627.234 25.808C626.189 26.2133 625.015 26.416 623.714 26.416C622.413 26.416 621.239 26.2133 620.194 25.808C619.149 25.4027 618.253 24.8267 617.506 24.08C616.759 23.312 616.183 22.3947 615.778 21.328C615.373 20.2613 615.17 19.0667 615.17 17.744ZM635.245 9.456H639.565V11.76H639.661C640.237 10.8 640.983 10.1067 641.901 9.68C642.818 9.232 643.757 9.008 644.717 9.008C645.933 9.008 646.925 9.17867 647.693 9.52C648.482 9.84 649.101 10.2987 649.549 10.896C649.997 11.472 650.306 12.1867 650.477 13.04C650.669 13.872 650.765 14.8 650.765 15.824V26H646.221V16.656C646.221 15.2907 646.007 14.2773 645.581 13.616C645.154 12.9333 644.397 12.592 643.309 12.592C642.071 12.592 641.175 12.9653 640.621 13.712C640.066 14.4373 639.789 15.6427 639.789 17.328V26H635.245V9.456ZM663.748 2.42H666.808V32.42H663.748V2.42ZM694.648 17.45C694.528 18.17 694.298 18.82 693.958 19.4C693.638 19.96 693.248 20.44 692.788 20.84C692.328 21.24 691.798 21.55 691.198 21.77C690.618 21.97 689.998 22.07 689.338 22.07C688.378 22.07 687.508 21.9 686.728 21.56C685.948 21.22 685.278 20.75 684.718 20.15C684.158 19.53 683.728 18.81 683.428 17.99C683.128 17.15 682.978 16.25 682.978 15.29C682.978 14.39 683.118 13.55 683.398 12.77C683.698 11.97 684.118 11.29 684.658 10.73C685.198 10.15 685.858 9.69 686.638 9.35C687.418 9.01 688.298 8.84 689.278 8.84C690.658 8.84 691.838 9.23 692.818 10.01C693.818 10.77 694.418 11.89 694.618 13.37H692.578C692.418 12.61 692.038 11.99 691.438 11.51C690.858 11.03 690.138 10.79 689.278 10.79C688.638 10.79 688.078 10.91 687.598 11.15C687.118 11.39 686.708 11.71 686.368 12.11C686.048 12.51 685.798 12.99 685.618 13.55C685.458 14.09 685.378 14.67 685.378 15.29C685.378 15.95 685.468 16.57 685.648 17.15C685.828 17.73 686.088 18.24 686.428 18.68C686.788 19.12 687.208 19.47 687.688 19.73C688.188 19.99 688.738 20.12 689.338 20.12C690.238 20.12 690.978 19.87 691.558 19.37C692.138 18.87 692.478 18.23 692.578 17.45H694.648ZM697.558 15.29C697.558 13.93 697.338 12.68 696.898 11.54C696.458 10.4 695.848 9.42 695.068 8.6C694.288 7.78 693.378 7.15 692.338 6.71C691.298 6.25 690.178 6.02 688.978 6.02C687.758 6.02 686.618 6.25 685.558 6.71C684.518 7.15 683.608 7.78 682.828 8.6C682.048 9.42 681.438 10.4 680.998 11.54C680.558 12.68 680.338 13.93 680.338 15.29C680.338 16.57 680.538 17.77 680.938 18.89C681.338 20.01 681.908 20.99 682.648 21.83C683.408 22.67 684.318 23.34 685.378 23.84C686.438 24.32 687.638 24.56 688.978 24.56C690.178 24.56 691.298 24.34 692.338 23.9C693.378 23.44 694.288 22.8 695.068 21.98C695.848 21.16 696.458 20.19 696.898 19.07C697.338 17.93 697.558 16.67 697.558 15.29ZM699.958 15.29C699.958 16.97 699.658 18.5 699.058 19.88C698.478 21.26 697.678 22.44 696.658 23.42C695.658 24.4 694.488 25.16 693.148 25.7C691.828 26.24 690.438 26.51 688.978 26.51C687.358 26.51 685.868 26.23 684.508 25.67C683.168 25.09 682.008 24.3 681.028 23.3C680.068 22.3 679.308 21.12 678.748 19.76C678.208 18.38 677.938 16.89 677.938 15.29C677.938 13.61 678.228 12.08 678.808 10.7C679.408 9.32 680.208 8.14 681.208 7.16C682.228 6.18 683.408 5.42 684.748 4.88C686.088 4.34 687.498 4.07 688.978 4.07C690.438 4.07 691.828 4.34 693.148 4.88C694.488 5.42 695.658 6.18 696.658 7.16C697.678 8.14 698.478 9.32 699.058 10.7C699.658 12.08 699.958 13.61 699.958 15.29ZM724.802 26H710.462C710.482 24.26 710.902 22.74 711.722 21.44C712.542 20.14 713.662 19.01 715.082 18.05C715.762 17.55 716.472 17.07 717.212 16.61C717.952 16.13 718.632 15.62 719.252 15.08C719.872 14.54 720.382 13.96 720.782 13.34C721.182 12.7 721.392 11.97 721.412 11.15C721.412 10.77 721.362 10.37 721.262 9.95C721.182 9.51 721.012 9.11 720.752 8.75C720.492 8.37 720.132 8.06 719.672 7.82C719.212 7.56 718.612 7.43 717.872 7.43C717.192 7.43 716.622 7.57 716.162 7.85C715.722 8.11 715.362 8.48 715.082 8.96C714.822 9.42 714.622 9.97 714.482 10.61C714.362 11.25 714.292 11.94 714.272 12.68H710.852C710.852 11.52 711.002 10.45 711.302 9.47C711.622 8.47 712.092 7.61 712.712 6.89C713.332 6.17 714.082 5.61 714.962 5.21C715.862 4.79 716.902 4.58 718.082 4.58C719.362 4.58 720.432 4.79 721.292 5.21C722.152 5.63 722.842 6.16 723.362 6.8C723.902 7.44 724.282 8.14 724.502 8.9C724.722 9.64 724.832 10.35 724.832 11.03C724.832 11.87 724.702 12.63 724.442 13.31C724.182 13.99 723.832 14.62 723.392 15.2C722.952 15.76 722.452 16.28 721.892 16.76C721.332 17.24 720.752 17.69 720.152 18.11C719.552 18.53 718.952 18.93 718.352 19.31C717.752 19.69 717.192 20.07 716.672 20.45C716.172 20.83 715.732 21.23 715.352 21.65C714.972 22.05 714.712 22.48 714.572 22.94H724.802V26ZM734.302 4.58C735.802 4.58 737.022 4.93 737.962 5.63C738.922 6.31 739.662 7.19 740.182 8.27C740.722 9.33 741.082 10.5 741.262 11.78C741.462 13.06 741.562 14.3 741.562 15.5C741.562 16.7 741.462 17.94 741.262 19.22C741.082 20.5 740.722 21.68 740.182 22.76C739.662 23.82 738.922 24.7 737.962 25.4C737.022 26.08 735.802 26.42 734.302 26.42C732.802 26.42 731.572 26.08 730.612 25.4C729.672 24.7 728.932 23.82 728.392 22.76C727.872 21.68 727.512 20.5 727.312 19.22C727.132 17.94 727.042 16.7 727.042 15.5C727.042 14.3 727.132 13.06 727.312 11.78C727.512 10.5 727.872 9.33 728.392 8.27C728.932 7.19 729.672 6.31 730.612 5.63C731.572 4.93 732.802 4.58 734.302 4.58ZM734.302 23.57C735.042 23.57 735.662 23.36 736.162 22.94C736.662 22.5 737.052 21.92 737.332 21.2C737.632 20.46 737.842 19.6 737.962 18.62C738.082 17.64 738.142 16.6 738.142 15.5C738.142 14.4 738.082 13.37 737.962 12.41C737.842 11.43 737.632 10.57 737.332 9.83C737.052 9.09 736.662 8.51 736.162 8.09C735.662 7.65 735.042 7.43 734.302 7.43C733.542 7.43 732.912 7.65 732.412 8.09C731.932 8.51 731.542 9.09 731.242 9.83C730.962 10.57 730.762 11.43 730.642 12.41C730.522 13.37 730.462 14.4 730.462 15.5C730.462 16.6 730.522 17.64 730.642 18.62C730.762 19.6 730.962 20.46 731.242 21.2C731.542 21.92 731.932 22.5 732.412 22.94C732.912 23.36 733.542 23.57 734.302 23.57ZM758.142 26H743.802C743.822 24.26 744.242 22.74 745.062 21.44C745.882 20.14 747.002 19.01 748.422 18.05C749.102 17.55 749.812 17.07 750.552 16.61C751.292 16.13 751.972 15.62 752.592 15.08C753.212 14.54 753.722 13.96 754.122 13.34C754.522 12.7 754.732 11.97 754.752 11.15C754.752 10.77 754.702 10.37 754.602 9.95C754.522 9.51 754.352 9.11 754.092 8.75C753.832 8.37 753.472 8.06 753.012 7.82C752.552 7.56 751.952 7.43 751.212 7.43C750.532 7.43 749.962 7.57 749.502 7.85C749.062 8.11 748.702 8.48 748.422 8.96C748.162 9.42 747.962 9.97 747.822 10.61C747.702 11.25 747.632 11.94 747.612 12.68H744.192C744.192 11.52 744.342 10.45 744.642 9.47C744.962 8.47 745.432 7.61 746.052 6.89C746.672 6.17 747.422 5.61 748.302 5.21C749.202 4.79 750.242 4.58 751.422 4.58C752.702 4.58 753.772 4.79 754.632 5.21C755.492 5.63 756.182 6.16 756.702 6.8C757.242 7.44 757.622 8.14 757.842 8.9C758.062 9.64 758.172 10.35 758.172 11.03C758.172 11.87 758.042 12.63 757.782 13.31C757.522 13.99 757.172 14.62 756.732 15.2C756.292 15.76 755.792 16.28 755.232 16.76C754.672 17.24 754.092 17.69 753.492 18.11C752.892 18.53 752.292 18.93 751.692 19.31C751.092 19.69 750.532 20.07 750.012 20.45C749.512 20.83 749.072 21.23 748.692 21.65C748.312 22.05 748.052 22.48 747.912 22.94H758.142V26ZM766.142 13.7C766.702 13.72 767.262 13.68 767.822 13.58C768.382 13.48 768.882 13.31 769.322 13.07C769.762 12.81 770.112 12.46 770.372 12.02C770.652 11.58 770.792 11.04 770.792 10.4C770.792 9.5 770.482 8.78 769.862 8.24C769.262 7.7 768.482 7.43 767.522 7.43C766.922 7.43 766.402 7.55 765.962 7.79C765.522 8.03 765.152 8.36 764.852 8.78C764.572 9.18 764.362 9.64 764.222 10.16C764.082 10.66 764.022 11.18 764.042 11.72H760.622C760.662 10.7 760.852 9.76 761.192 8.9C761.532 8.02 761.992 7.26 762.572 6.62C763.172 5.98 763.892 5.48 764.732 5.12C765.572 4.76 766.522 4.58 767.582 4.58C768.402 4.58 769.202 4.7 769.982 4.94C770.782 5.18 771.492 5.53 772.112 5.99C772.752 6.45 773.262 7.04 773.642 7.76C774.022 8.46 774.212 9.27 774.212 10.19C774.212 11.25 773.972 12.18 773.492 12.98C773.012 13.76 772.262 14.33 771.242 14.69V14.75C772.442 14.99 773.372 15.59 774.032 16.55C774.712 17.49 775.052 18.64 775.052 20C775.052 21 774.852 21.9 774.452 22.7C774.052 23.48 773.512 24.15 772.832 24.71C772.152 25.25 771.362 25.67 770.462 25.97C769.562 26.27 768.612 26.42 767.612 26.42C766.392 26.42 765.322 26.25 764.402 25.91C763.502 25.55 762.742 25.05 762.122 24.41C761.522 23.77 761.062 23 760.742 22.1C760.422 21.2 760.252 20.2 760.232 19.1H763.652C763.612 20.38 763.922 21.45 764.582 22.31C765.262 23.15 766.272 23.57 767.612 23.57C768.752 23.57 769.702 23.25 770.462 22.61C771.242 21.95 771.632 21.02 771.632 19.82C771.632 19 771.472 18.35 771.152 17.87C770.832 17.39 770.412 17.03 769.892 16.79C769.372 16.53 768.782 16.37 768.122 16.31C767.482 16.25 766.822 16.23 766.142 16.25V13.7ZM786.121 2.42H789.181V32.42H786.121V2.42ZM807.331 4.58H811.321L819.571 26H815.551L813.541 20.33H804.991L802.981 26H799.111L807.331 4.58ZM806.011 17.48H812.551L809.341 8.27H809.251L806.011 17.48ZM821.221 4.58H824.641V26H821.221V4.58ZM828.457 4.58H831.877V26H828.457V4.58ZM844.433 4.58H854.663C857.023 4.58 858.793 5.09 859.973 6.11C861.153 7.13 861.743 8.55 861.743 10.37C861.743 11.39 861.593 12.24 861.293 12.92C860.993 13.58 860.643 14.12 860.243 14.54C859.843 14.94 859.443 15.23 859.043 15.41C858.663 15.59 858.383 15.71 858.203 15.77V15.83C858.523 15.87 858.863 15.97 859.223 16.13C859.603 16.29 859.953 16.55 860.273 16.91C860.593 17.25 860.853 17.7 861.053 18.26C861.273 18.82 861.383 19.52 861.383 20.36C861.383 21.62 861.473 22.77 861.653 23.81C861.853 24.83 862.153 25.56 862.553 26H858.533C858.253 25.54 858.083 25.03 858.023 24.47C857.983 23.91 857.963 23.37 857.963 22.85C857.963 21.87 857.903 21.03 857.783 20.33C857.663 19.61 857.443 19.02 857.123 18.56C856.803 18.08 856.363 17.73 855.803 17.51C855.263 17.29 854.563 17.18 853.703 17.18H848.183V26H844.433V4.58ZM848.183 14.33H854.333C855.533 14.33 856.443 14.05 857.063 13.49C857.683 12.91 857.993 12.05 857.993 10.91C857.993 10.23 857.893 9.68 857.693 9.26C857.493 8.82 857.213 8.48 856.853 8.24C856.513 8 856.113 7.84 855.653 7.76C855.213 7.68 854.753 7.64 854.273 7.64H848.183V14.33ZM865.166 4.58H868.586V7.82H865.166V4.58ZM865.166 10.49H868.586V26H865.166V10.49ZM886.653 25.19C886.653 27.53 885.993 29.27 884.673 30.41C883.373 31.57 881.493 32.15 879.033 32.15C878.253 32.15 877.463 32.07 876.663 31.91C875.883 31.75 875.163 31.48 874.503 31.1C873.863 30.72 873.323 30.22 872.883 29.6C872.443 28.98 872.183 28.22 872.103 27.32H875.523C875.623 27.8 875.793 28.19 876.033 28.49C876.273 28.79 876.553 29.02 876.873 29.18C877.213 29.36 877.583 29.47 877.983 29.51C878.383 29.57 878.803 29.6 879.243 29.6C880.623 29.6 881.633 29.26 882.273 28.58C882.913 27.9 883.233 26.92 883.233 25.64V23.27H883.173C882.693 24.13 882.033 24.8 881.193 25.28C880.373 25.76 879.483 26 878.523 26C877.283 26 876.223 25.79 875.343 25.37C874.483 24.93 873.763 24.34 873.183 23.6C872.623 22.84 872.213 21.97 871.953 20.99C871.693 20.01 871.563 18.96 871.563 17.84C871.563 16.8 871.723 15.81 872.043 14.87C872.363 13.93 872.823 13.11 873.423 12.41C874.023 11.69 874.753 11.12 875.613 10.7C876.493 10.28 877.483 10.07 878.583 10.07C879.563 10.07 880.463 10.28 881.283 10.7C882.103 11.1 882.733 11.74 883.173 12.62H883.233V10.49H886.653V25.19ZM879.063 23.3C879.823 23.3 880.463 23.15 880.983 22.85C881.523 22.53 881.953 22.12 882.273 21.62C882.613 21.1 882.853 20.52 882.993 19.88C883.153 19.22 883.233 18.56 883.233 17.9C883.233 17.24 883.153 16.6 882.993 15.98C882.833 15.36 882.583 14.81 882.243 14.33C881.923 13.85 881.493 13.47 880.953 13.19C880.433 12.91 879.803 12.77 879.063 12.77C878.303 12.77 877.663 12.93 877.143 13.25C876.623 13.57 876.203 13.99 875.883 14.51C875.563 15.01 875.333 15.59 875.193 16.25C875.053 16.89 874.983 17.53 874.983 18.17C874.983 18.81 875.063 19.44 875.223 20.06C875.383 20.66 875.623 21.2 875.943 21.68C876.283 22.16 876.703 22.55 877.203 22.85C877.723 23.15 878.343 23.3 879.063 23.3ZM890.096 4.58H893.516V12.53H893.576C893.996 11.83 894.616 11.25 895.436 10.79C896.276 10.31 897.206 10.07 898.226 10.07C899.926 10.07 901.266 10.51 902.246 11.39C903.226 12.27 903.716 13.59 903.716 15.35V26H900.296V16.25C900.256 15.03 899.996 14.15 899.516 13.61C899.036 13.05 898.286 12.77 897.266 12.77C896.686 12.77 896.166 12.88 895.706 13.1C895.246 13.3 894.856 13.59 894.536 13.97C894.216 14.33 893.966 14.76 893.786 15.26C893.606 15.76 893.516 16.29 893.516 16.85V26H890.096V4.58ZM905.762 10.49H908.342V5.84H911.762V10.49H914.852V13.04H911.762V21.32C911.762 21.68 911.772 21.99 911.792 22.25C911.832 22.51 911.902 22.73 912.002 22.91C912.122 23.09 912.292 23.23 912.512 23.33C912.732 23.41 913.032 23.45 913.412 23.45C913.652 23.45 913.892 23.45 914.132 23.45C914.372 23.43 914.612 23.39 914.852 23.33V25.97C914.472 26.01 914.102 26.05 913.742 26.09C913.382 26.13 913.012 26.15 912.632 26.15C911.732 26.15 911.002 26.07 910.442 25.91C909.902 25.73 909.472 25.48 909.152 25.16C908.852 24.82 908.642 24.4 908.522 23.9C908.422 23.4 908.362 22.83 908.342 22.19V13.04H905.762V10.49ZM919.893 21.02C919.993 22.02 920.373 22.72 921.033 23.12C921.693 23.52 922.483 23.72 923.403 23.72C923.723 23.72 924.083 23.7 924.483 23.66C924.903 23.6 925.293 23.5 925.653 23.36C926.013 23.22 926.303 23.02 926.523 22.76C926.763 22.48 926.873 22.12 926.853 21.68C926.833 21.24 926.673 20.88 926.373 20.6C926.073 20.32 925.683 20.1 925.203 19.94C924.743 19.76 924.213 19.61 923.613 19.49C923.013 19.37 922.403 19.24 921.783 19.1C921.143 18.96 920.523 18.79 919.923 18.59C919.343 18.39 918.813 18.12 918.333 17.78C917.873 17.44 917.503 17.01 917.223 16.49C916.943 15.95 916.803 15.29 916.803 14.51C916.803 13.67 917.003 12.97 917.403 12.41C917.823 11.83 918.343 11.37 918.963 11.03C919.603 10.67 920.303 10.42 921.063 10.28C921.843 10.14 922.583 10.07 923.283 10.07C924.083 10.07 924.843 10.16 925.563 10.34C926.303 10.5 926.963 10.77 927.543 11.15C928.143 11.53 928.633 12.03 929.013 12.65C929.413 13.25 929.663 13.98 929.763 14.84H926.193C926.033 14.02 925.653 13.47 925.053 13.19C924.473 12.91 923.803 12.77 923.043 12.77C922.803 12.77 922.513 12.79 922.173 12.83C921.853 12.87 921.543 12.95 921.243 13.07C920.963 13.17 920.723 13.33 920.523 13.55C920.323 13.75 920.223 14.02 920.223 14.36C920.223 14.78 920.363 15.12 920.643 15.38C920.943 15.64 921.323 15.86 921.783 16.04C922.263 16.2 922.803 16.34 923.403 16.46C924.003 16.58 924.623 16.71 925.263 16.85C925.883 16.99 926.493 17.16 927.093 17.36C927.693 17.56 928.223 17.83 928.683 18.17C929.163 18.51 929.543 18.94 929.823 19.46C930.123 19.98 930.273 20.62 930.273 21.38C930.273 22.3 930.063 23.08 929.643 23.72C929.223 24.36 928.673 24.88 927.993 25.28C927.333 25.68 926.593 25.97 925.773 26.15C924.953 26.33 924.143 26.42 923.343 26.42C922.363 26.42 921.453 26.31 920.613 26.09C919.793 25.87 919.073 25.54 918.453 25.1C917.853 24.64 917.373 24.08 917.013 23.42C916.673 22.74 916.493 21.94 916.473 21.02H919.893ZM941.699 4.58H951.929C954.289 4.58 956.059 5.09 957.239 6.11C958.419 7.13 959.009 8.55 959.009 10.37C959.009 11.39 958.859 12.24 958.559 12.92C958.259 13.58 957.909 14.12 957.509 14.54C957.109 14.94 956.709 15.23 956.309 15.41C955.929 15.59 955.649 15.71 955.469 15.77V15.83C955.789 15.87 956.129 15.97 956.489 16.13C956.869 16.29 957.219 16.55 957.539 16.91C957.859 17.25 958.119 17.7 958.319 18.26C958.539 18.82 958.649 19.52 958.649 20.36C958.649 21.62 958.739 22.77 958.919 23.81C959.119 24.83 959.419 25.56 959.819 26H955.799C955.519 25.54 955.349 25.03 955.289 24.47C955.249 23.91 955.229 23.37 955.229 22.85C955.229 21.87 955.169 21.03 955.049 20.33C954.929 19.61 954.709 19.02 954.389 18.56C954.069 18.08 953.629 17.73 953.069 17.51C952.529 17.29 951.829 17.18 950.969 17.18H945.449V26H941.699V4.58ZM945.449 14.33H951.599C952.799 14.33 953.709 14.05 954.329 13.49C954.949 12.91 955.259 12.05 955.259 10.91C955.259 10.23 955.159 9.68 954.959 9.26C954.759 8.82 954.479 8.48 954.119 8.24C953.779 8 953.379 7.84 952.919 7.76C952.479 7.68 952.019 7.64 951.539 7.64H945.449V14.33ZM972.992 16.88C972.952 16.34 972.832 15.82 972.632 15.32C972.452 14.82 972.192 14.39 971.852 14.03C971.532 13.65 971.132 13.35 970.652 13.13C970.192 12.89 969.672 12.77 969.092 12.77C968.492 12.77 967.942 12.88 967.442 13.1C966.962 13.3 966.542 13.59 966.182 13.97C965.842 14.33 965.562 14.76 965.342 15.26C965.142 15.76 965.032 16.3 965.012 16.88H972.992ZM965.012 19.13C965.012 19.73 965.092 20.31 965.252 20.87C965.432 21.43 965.692 21.92 966.032 22.34C966.372 22.76 966.802 23.1 967.322 23.36C967.842 23.6 968.462 23.72 969.182 23.72C970.182 23.72 970.982 23.51 971.582 23.09C972.202 22.65 972.662 22 972.962 21.14H976.202C976.022 21.98 975.712 22.73 975.272 23.39C974.832 24.05 974.302 24.61 973.682 25.07C973.062 25.51 972.362 25.84 971.582 26.06C970.822 26.3 970.022 26.42 969.182 26.42C967.962 26.42 966.882 26.22 965.942 25.82C965.002 25.42 964.202 24.86 963.542 24.14C962.902 23.42 962.412 22.56 962.072 21.56C961.752 20.56 961.592 19.46 961.592 18.26C961.592 17.16 961.762 16.12 962.102 15.14C962.462 14.14 962.962 13.27 963.602 12.53C964.262 11.77 965.052 11.17 965.972 10.73C966.892 10.29 967.932 10.07 969.092 10.07C970.312 10.07 971.402 10.33 972.362 10.85C973.342 11.35 974.152 12.02 974.792 12.86C975.432 13.7 975.892 14.67 976.172 15.77C976.472 16.85 976.552 17.97 976.412 19.13H965.012ZM981.592 21.02C981.692 22.02 982.072 22.72 982.732 23.12C983.392 23.52 984.182 23.72 985.102 23.72C985.422 23.72 985.782 23.7 986.182 23.66C986.602 23.6 986.992 23.5 987.352 23.36C987.712 23.22 988.002 23.02 988.222 22.76C988.462 22.48 988.572 22.12 988.552 21.68C988.532 21.24 988.372 20.88 988.072 20.6C987.772 20.32 987.382 20.1 986.902 19.94C986.442 19.76 985.912 19.61 985.312 19.49C984.712 19.37 984.102 19.24 983.482 19.1C982.842 18.96 982.222 18.79 981.622 18.59C981.042 18.39 980.512 18.12 980.032 17.78C979.572 17.44 979.202 17.01 978.922 16.49C978.642 15.95 978.502 15.29 978.502 14.51C978.502 13.67 978.702 12.97 979.102 12.41C979.522 11.83 980.042 11.37 980.662 11.03C981.302 10.67 982.002 10.42 982.762 10.28C983.542 10.14 984.282 10.07 984.982 10.07C985.782 10.07 986.542 10.16 987.262 10.34C988.002 10.5 988.662 10.77 989.242 11.15C989.842 11.53 990.332 12.03 990.712 12.65C991.112 13.25 991.362 13.98 991.462 14.84H987.892C987.732 14.02 987.352 13.47 986.752 13.19C986.172 12.91 985.502 12.77 984.742 12.77C984.502 12.77 984.212 12.79 983.872 12.83C983.552 12.87 983.242 12.95 982.942 13.07C982.662 13.17 982.422 13.33 982.222 13.55C982.022 13.75 981.922 14.02 981.922 14.36C981.922 14.78 982.062 15.12 982.342 15.38C982.642 15.64 983.022 15.86 983.482 16.04C983.962 16.2 984.502 16.34 985.102 16.46C985.702 16.58 986.322 16.71 986.962 16.85C987.582 16.99 988.192 17.16 988.792 17.36C989.392 17.56 989.922 17.83 990.382 18.17C990.862 18.51 991.242 18.94 991.522 19.46C991.822 19.98 991.972 20.62 991.972 21.38C991.972 22.3 991.762 23.08 991.342 23.72C990.922 24.36 990.372 24.88 989.692 25.28C989.032 25.68 988.292 25.97 987.472 26.15C986.652 26.33 985.842 26.42 985.042 26.42C984.062 26.42 983.152 26.31 982.312 26.09C981.492 25.87 980.772 25.54 980.152 25.1C979.552 24.64 979.072 24.08 978.712 23.42C978.372 22.74 978.192 21.94 978.172 21.02H981.592ZM1005.22 16.88C1005.18 16.34 1005.06 15.82 1004.86 15.32C1004.68 14.82 1004.42 14.39 1004.08 14.03C1003.76 13.65 1003.36 13.35 1002.88 13.13C1002.42 12.89 1001.9 12.77 1001.32 12.77C1000.72 12.77 1000.17 12.88 999.669 13.1C999.189 13.3 998.769 13.59 998.409 13.97C998.069 14.33 997.789 14.76 997.569 15.26C997.369 15.76 997.259 16.3 997.239 16.88H1005.22ZM997.239 19.13C997.239 19.73 997.319 20.31 997.479 20.87C997.659 21.43 997.919 21.92 998.259 22.34C998.599 22.76 999.029 23.1 999.549 23.36C1000.07 23.6 1000.69 23.72 1001.41 23.72C1002.41 23.72 1003.21 23.51 1003.81 23.09C1004.43 22.65 1004.89 22 1005.19 21.14H1008.43C1008.25 21.98 1007.94 22.73 1007.5 23.39C1007.06 24.05 1006.53 24.61 1005.91 25.07C1005.29 25.51 1004.59 25.84 1003.81 26.06C1003.05 26.3 1002.25 26.42 1001.41 26.42C1000.19 26.42 999.109 26.22 998.169 25.82C997.229 25.42 996.429 24.86 995.769 24.14C995.129 23.42 994.639 22.56 994.299 21.56C993.979 20.56 993.819 19.46 993.819 18.26C993.819 17.16 993.989 16.12 994.329 15.14C994.689 14.14 995.189 13.27 995.829 12.53C996.489 11.77 997.279 11.17 998.199 10.73C999.119 10.29 1000.16 10.07 1001.32 10.07C1002.54 10.07 1003.63 10.33 1004.59 10.85C1005.57 11.35 1006.38 12.02 1007.02 12.86C1007.66 13.7 1008.12 14.67 1008.4 15.77C1008.7 16.85 1008.78 17.97 1008.64 19.13H997.239ZM1011.24 10.49H1014.45V13.49H1014.51C1014.61 13.07 1014.8 12.66 1015.08 12.26C1015.38 11.86 1015.73 11.5 1016.13 11.18C1016.55 10.84 1017.01 10.57 1017.51 10.37C1018.01 10.17 1018.52 10.07 1019.04 10.07C1019.44 10.07 1019.71 10.08 1019.85 10.1C1020.01 10.12 1020.17 10.14 1020.33 10.16V13.46C1020.09 13.42 1019.84 13.39 1019.58 13.37C1019.34 13.33 1019.1 13.31 1018.86 13.31C1018.28 13.31 1017.73 13.43 1017.21 13.67C1016.71 13.89 1016.27 14.23 1015.89 14.69C1015.51 15.13 1015.21 15.68 1014.99 16.34C1014.77 17 1014.66 17.76 1014.66 18.62V26H1011.24V10.49ZM1020.26 10.49H1023.98L1027.91 22.4H1027.97L1031.75 10.49H1035.29L1029.74 26H1025.9L1020.26 10.49ZM1047.99 16.88C1047.95 16.34 1047.83 15.82 1047.63 15.32C1047.45 14.82 1047.19 14.39 1046.85 14.03C1046.53 13.65 1046.13 13.35 1045.65 13.13C1045.19 12.89 1044.67 12.77 1044.09 12.77C1043.49 12.77 1042.94 12.88 1042.44 13.1C1041.96 13.3 1041.54 13.59 1041.18 13.97C1040.84 14.33 1040.56 14.76 1040.34 15.26C1040.14 15.76 1040.03 16.3 1040.01 16.88H1047.99ZM1040.01 19.13C1040.01 19.73 1040.09 20.31 1040.25 20.87C1040.43 21.43 1040.69 21.92 1041.03 22.34C1041.37 22.76 1041.8 23.1 1042.32 23.36C1042.84 23.6 1043.46 23.72 1044.18 23.72C1045.18 23.72 1045.98 23.51 1046.58 23.09C1047.2 22.65 1047.66 22 1047.96 21.14H1051.2C1051.02 21.98 1050.71 22.73 1050.27 23.39C1049.83 24.05 1049.3 24.61 1048.68 25.07C1048.06 25.51 1047.36 25.84 1046.58 26.06C1045.82 26.3 1045.02 26.42 1044.18 26.42C1042.96 26.42 1041.88 26.22 1040.94 25.82C1040 25.42 1039.2 24.86 1038.54 24.14C1037.9 23.42 1037.41 22.56 1037.07 21.56C1036.75 20.56 1036.59 19.46 1036.59 18.26C1036.59 17.16 1036.76 16.12 1037.1 15.14C1037.46 14.14 1037.96 13.27 1038.6 12.53C1039.26 11.77 1040.05 11.17 1040.97 10.73C1041.89 10.29 1042.93 10.07 1044.09 10.07C1045.31 10.07 1046.4 10.33 1047.36 10.85C1048.34 11.35 1049.15 12.02 1049.79 12.86C1050.43 13.7 1050.89 14.67 1051.17 15.77C1051.47 16.85 1051.55 17.97 1051.41 19.13H1040.01ZM1068.62 26H1065.38V23.9H1065.32C1064.86 24.8 1064.19 25.45 1063.31 25.85C1062.43 26.23 1061.5 26.42 1060.52 26.42C1059.3 26.42 1058.23 26.21 1057.31 25.79C1056.41 25.35 1055.66 24.76 1055.06 24.02C1054.46 23.28 1054.01 22.41 1053.71 21.41C1053.41 20.39 1053.26 19.3 1053.26 18.14C1053.26 16.74 1053.45 15.53 1053.83 14.51C1054.21 13.49 1054.71 12.65 1055.33 11.99C1055.97 11.33 1056.69 10.85 1057.49 10.55C1058.31 10.23 1059.14 10.07 1059.98 10.07C1060.46 10.07 1060.95 10.12 1061.45 10.22C1061.95 10.3 1062.43 10.44 1062.89 10.64C1063.35 10.84 1063.77 11.1 1064.15 11.42C1064.55 11.72 1064.88 12.08 1065.14 12.5H1065.2V4.58H1068.62V26ZM1056.68 18.41C1056.68 19.07 1056.76 19.72 1056.92 20.36C1057.1 21 1057.36 21.57 1057.7 22.07C1058.06 22.57 1058.51 22.97 1059.05 23.27C1059.59 23.57 1060.23 23.72 1060.97 23.72C1061.73 23.72 1062.38 23.56 1062.92 23.24C1063.48 22.92 1063.93 22.5 1064.27 21.98C1064.63 21.46 1064.89 20.88 1065.05 20.24C1065.23 19.58 1065.32 18.91 1065.32 18.23C1065.32 16.51 1064.93 15.17 1064.15 14.21C1063.39 13.25 1062.35 12.77 1061.03 12.77C1060.23 12.77 1059.55 12.94 1058.99 13.28C1058.45 13.6 1058 14.03 1057.64 14.57C1057.3 15.09 1057.05 15.69 1056.89 16.37C1056.75 17.03 1056.68 17.71 1056.68 18.41Z" fill="#BABABA"/>
</svg>
