<svg width="140" height="140" viewBox="0 0 140 140" fill="none" xmlns="http://www.w3.org/2000/svg">
<g filter="url(#filter0_d_1364_129)">
<rect x="9" y="9" width="122" height="122" rx="61" fill="#808080"/>
</g>
<path d="M70.1452 59.3597C73.9304 59.3597 77.0093 56.2808 77.0093 52.4955C77.0093 48.7102 73.9304 45.6313 70.1452 45.6313C66.3599 45.6313 63.281 48.7102 63.281 52.4955C63.281 56.2808 66.3599 59.3597 70.1452 59.3597ZM70.1452 48.377C72.4158 48.377 74.2637 50.2248 74.2637 52.4955C74.2637 54.7662 72.4158 56.614 70.1452 56.614C67.8745 56.614 66.0267 54.7662 66.0267 52.4955C66.0267 50.2248 67.8745 48.377 70.1452 48.377Z" fill="white" stroke="white"/>
<path d="M105.285 80.0332C105.252 79.7206 105.114 79.4213 104.89 79.1983L101.458 75.7657C100.921 75.2301 100.053 75.2301 99.5158 75.7657C98.9802 76.3012 98.9802 77.1712 99.5158 77.7068L100.605 78.7961H83.6913C83.0648 76.4684 80.8693 74.4982 77.7528 73.2744C78.326 72.5256 78.91 71.7465 79.494 70.9444C85.1344 63.1921 87.9939 57.1737 87.9939 53.0564C87.9939 43.1001 79.9872 35 70.1459 35C60.3047 35 52.2979 43.1001 52.2979 53.0564C52.2979 57.1737 55.1575 63.1921 60.7978 70.9444C61.3819 71.7453 61.9659 72.5244 62.539 73.2732C59.4214 74.497 57.227 76.4684 56.6006 78.7961H39.6868L40.7749 77.7068C41.3117 77.1712 41.3117 76.3024 40.7749 75.7657C40.2393 75.2301 39.3705 75.2301 38.8338 75.7657C38.7175 75.882 35.5332 79.0602 35.4035 79.1959C35.1551 79.4552 35.0025 79.7981 35 80.1616C34.9976 80.5239 35.1454 80.8838 35.4011 81.1394C35.4011 81.1394 38.8326 84.5709 38.8338 84.5721C39.356 85.0944 40.2514 85.0956 40.7749 84.5721C41.3117 84.0353 41.3117 83.1666 40.7749 82.6298L39.6868 81.5417H56.5994C57.5881 85.2204 62.5015 88.0097 68.7731 88.3671V100.605L67.6838 99.5169C67.1482 98.9802 66.2795 98.9802 65.7427 99.5169C65.2071 100.053 65.2071 100.922 65.7427 101.458L69.1754 104.891C69.179 104.896 69.1839 104.899 69.1887 104.903C69.4444 105.152 69.7994 105.295 70.1568 105.292C70.5131 105.289 70.8644 105.142 71.1165 104.891L74.5492 101.458C75.0847 100.922 75.0847 100.053 74.5492 99.5169C74.0124 98.9802 73.1436 98.9802 72.6068 99.5169L71.5188 100.605V88.3671C77.7904 88.0097 82.7037 85.2204 83.6925 81.5417H100.605L99.5158 82.6298C98.9802 83.1666 98.9802 84.0353 99.5158 84.5721C100.038 85.0931 100.932 85.098 101.458 84.5721L104.89 81.1394C104.896 81.1334 104.902 81.1273 104.907 81.1213C105.1 80.9213 105.237 80.6402 105.277 80.3603C105.28 80.3422 105.283 80.324 105.285 80.3046C105.294 80.2137 105.294 80.1228 105.285 80.0332ZM55.0436 53.0564C55.0436 44.6147 61.8181 37.7469 70.1459 37.7469C78.4738 37.7469 85.2483 44.6147 85.2483 53.0564C85.2483 59.6879 75.1514 72.5499 70.1459 78.2472C65.1405 72.5523 55.0436 59.6915 55.0436 53.0564ZM78.2157 83.8233C76.0831 85.0083 73.2175 85.6602 70.1459 85.6602C67.0743 85.6602 64.2087 85.0083 62.0749 83.8221C60.2247 82.7946 59.1633 81.463 59.1633 80.1689C59.1633 78.8748 60.2247 77.5432 62.0749 76.5145C62.7559 76.1376 63.512 75.8153 64.3238 75.55C67.0053 78.8954 69.1027 81.2 69.1318 81.2315C69.3923 81.5163 69.7606 81.6786 70.1459 81.6786C70.5312 81.6786 70.8996 81.5163 71.1601 81.2315C71.1892 81.2 73.2878 78.8954 75.9692 75.5488C76.7811 75.8141 77.5359 76.1376 78.2157 76.5145C80.0671 77.5432 81.1286 78.8748 81.1286 80.1689C81.1286 81.463 80.0671 82.7946 78.2157 83.8233Z" fill="white" stroke="white"/>
<defs>
<filter id="filter0_d_1364_129" x="0" y="0" width="140" height="140" filterUnits="userSpaceOnUse" color-interpolation-filters="sRGB">
<feFlood flood-opacity="0" result="BackgroundImageFix"/>
<feColorMatrix in="SourceAlpha" type="matrix" values="0 0 0 0 0 0 0 0 0 0 0 0 0 0 0 0 0 0 127 0" result="hardAlpha"/>
<feOffset/>
<feGaussianBlur stdDeviation="4.5"/>
<feComposite in2="hardAlpha" operator="out"/>
<feColorMatrix type="matrix" values="0 0 0 0 1 0 0 0 0 1 0 0 0 0 1 0 0 0 0.27 0"/>
<feBlend mode="normal" in2="BackgroundImageFix" result="effect1_dropShadow_1364_129"/>
<feBlend mode="normal" in="SourceGraphic" in2="effect1_dropShadow_1364_129" result="shape"/>
</filter>
</defs>
</svg>
