<svg width="136" height="136" viewBox="0 0 136 136" fill="none" xmlns="http://www.w3.org/2000/svg">
<g filter="url(#filter0_f_33_132)">
<rect x="10" y="10" width="116" height="116" rx="33" stroke="#E65A0B" stroke-width="4"/>
</g>
<rect x="10" y="10" width="116" height="116" rx="31" stroke="#E65A0B" stroke-width="4"/>
<g filter="url(#filter1_f_33_132)">
<path d="M88.9333 43C92.1734 43 94.8 45.5906 94.8 48.7863L94.8 58.6638C94.8 61.8595 92.1734 64.4501 88.9333 64.4501H80.1333C76.8933 64.4501 74.2667 61.8595 74.2667 58.6638L74.2667 48.7863C74.2667 45.5906 76.8933 43 80.1333 43L88.9333 43Z" fill="url(#paint0_linear_33_132)"/>
<path d="M47.8667 43C44.6266 43 42 45.5906 42 48.7863L42 58.6638C42 61.8595 44.6266 64.4501 47.8667 64.4501H56.6667C59.9068 64.4501 62.5333 61.8595 62.5333 58.6638L62.5333 48.7863C62.5333 45.5906 59.9067 43 56.6667 43L47.8667 43Z" fill="url(#paint1_linear_33_132)"/>
<path d="M88.9333 74.3501C92.1734 74.3501 94.8 76.9407 94.8 80.1364V90.0138C94.8 93.2095 92.1734 95.8001 88.9333 95.8001H80.1334C76.8933 95.8001 74.2667 93.2095 74.2667 90.0138L74.2667 80.1364C74.2667 76.9407 76.8933 74.3501 80.1333 74.3501H88.9333Z" fill="url(#paint2_linear_33_132)"/>
<path d="M47.8667 74.3501C44.6266 74.3501 42 76.9407 42 80.1364L42 90.0138C42 93.2095 44.6266 95.8001 47.8667 95.8001H56.6667C59.9068 95.8001 62.5334 93.2095 62.5334 90.0138L62.5333 80.1364C62.5333 76.9407 59.9068 74.3501 56.6667 74.3501H47.8667Z" fill="url(#paint3_linear_33_132)"/>
</g>
<path d="M88.9332 43C92.1733 43 94.7999 45.5906 94.7999 48.7863L94.7999 58.6638C94.7999 61.8595 92.1733 64.4501 88.9332 64.4501H80.1332C76.8932 64.4501 74.2666 61.8595 74.2666 58.6638L74.2665 48.7863C74.2665 45.5906 76.8931 43 80.1332 43L88.9332 43Z" fill="url(#paint4_linear_33_132)"/>
<path d="M47.8665 43C44.6265 43 41.9999 45.5906 41.9999 48.7863L41.9999 58.6638C41.9999 61.8595 44.6265 64.4501 47.8666 64.4501H56.6666C59.9066 64.4501 62.5332 61.8595 62.5332 58.6638L62.5332 48.7863C62.5332 45.5906 59.9066 43 56.6665 43L47.8665 43Z" fill="url(#paint5_linear_33_132)"/>
<path d="M88.9332 74.3501C92.1733 74.3501 94.7999 76.9407 94.7999 80.1364V90.0138C94.7999 93.2095 92.1733 95.8001 88.9332 95.8001H80.1332C76.8932 95.8001 74.2666 93.2095 74.2666 90.0138L74.2666 80.1364C74.2666 76.9407 76.8932 74.3501 80.1332 74.3501H88.9332Z" fill="url(#paint6_linear_33_132)"/>
<path d="M47.8666 74.3501C44.6265 74.3501 41.9999 76.9407 41.9999 80.1364L41.9999 90.0138C41.9999 93.2095 44.6265 95.8001 47.8666 95.8001H56.6666C59.9066 95.8001 62.5332 93.2095 62.5332 90.0138L62.5332 80.1364C62.5332 76.9407 59.9066 74.3501 56.6666 74.3501H47.8666Z" fill="url(#paint7_linear_33_132)"/>
<defs>
<filter id="filter0_f_33_132" x="0" y="0" width="136" height="136" filterUnits="userSpaceOnUse" color-interpolation-filters="sRGB">
<feFlood flood-opacity="0" result="BackgroundImageFix"/>
<feBlend mode="normal" in="SourceGraphic" in2="BackgroundImageFix" result="shape"/>
<feGaussianBlur stdDeviation="4" result="effect1_foregroundBlur_33_132"/>
</filter>
<filter id="filter1_f_33_132" x="35" y="36" width="66.8" height="66.8001" filterUnits="userSpaceOnUse" color-interpolation-filters="sRGB">
<feFlood flood-opacity="0" result="BackgroundImageFix"/>
<feBlend mode="normal" in="SourceGraphic" in2="BackgroundImageFix" result="shape"/>
<feGaussianBlur stdDeviation="3.5" result="effect1_foregroundBlur_33_132"/>
</filter>
<linearGradient id="paint0_linear_33_132" x1="68.4" y1="43" x2="79" y2="101.5" gradientUnits="userSpaceOnUse">
<stop stop-color="#E45A0B"/>
<stop offset="1" stop-color="#C14D08"/>
</linearGradient>
<linearGradient id="paint1_linear_33_132" x1="68.4" y1="43" x2="79" y2="101.5" gradientUnits="userSpaceOnUse">
<stop stop-color="#E45A0B"/>
<stop offset="1" stop-color="#C14D08"/>
</linearGradient>
<linearGradient id="paint2_linear_33_132" x1="68.4" y1="43" x2="79" y2="101.5" gradientUnits="userSpaceOnUse">
<stop stop-color="#E45A0B"/>
<stop offset="1" stop-color="#C14D08"/>
</linearGradient>
<linearGradient id="paint3_linear_33_132" x1="68.4" y1="43" x2="79" y2="101.5" gradientUnits="userSpaceOnUse">
<stop stop-color="#E45A0B"/>
<stop offset="1" stop-color="#C14D08"/>
</linearGradient>
<linearGradient id="paint4_linear_33_132" x1="66.9999" y1="57" x2="101.5" y2="148.5" gradientUnits="userSpaceOnUse">
<stop stop-color="#F26522"/>
<stop offset="1" stop-color="#C14D08"/>
</linearGradient>
<linearGradient id="paint5_linear_33_132" x1="66.9999" y1="57" x2="101.5" y2="148.5" gradientUnits="userSpaceOnUse">
<stop stop-color="#F26522"/>
<stop offset="1" stop-color="#C14D08"/>
</linearGradient>
<linearGradient id="paint6_linear_33_132" x1="66.9999" y1="57" x2="101.5" y2="148.5" gradientUnits="userSpaceOnUse">
<stop stop-color="#F26522"/>
<stop offset="1" stop-color="#C14D08"/>
</linearGradient>
<linearGradient id="paint7_linear_33_132" x1="66.9999" y1="57" x2="101.5" y2="148.5" gradientUnits="userSpaceOnUse">
<stop stop-color="#F26522"/>
<stop offset="1" stop-color="#C14D08"/>
</linearGradient>
</defs>
</svg>
