<svg width="68" height="68" viewBox="0 0 68 68" fill="none" xmlns="http://www.w3.org/2000/svg">
<path d="M55.1556 6.79993C58.4938 6.79993 61.2 9.46905 61.2 12.7616L61.2 22.9384C61.2 26.2309 58.4939 28.9 55.1556 28.9H46.0889C42.7507 28.9 40.0445 26.2309 40.0445 22.9384L40.0445 12.7616C40.0445 9.46905 42.7507 6.79993 46.0889 6.79993L55.1556 6.79993Z" fill="#8B5434"/>
<path d="M12.8445 6.79993C9.50624 6.79993 6.80005 9.46905 6.80005 12.7616L6.80008 22.9384C6.80008 26.2309 9.50627 28.9 12.8445 28.9H21.9112C25.2494 28.9 27.9556 26.2309 27.9556 22.9384L27.9556 12.7616C27.9556 9.46905 25.2494 6.79993 21.9112 6.79993L12.8445 6.79993Z" fill="#8B5434"/>
<path d="M55.1556 39.1C58.4939 39.1 61.2 41.7692 61.2 45.0617V55.2384C61.2 58.5309 58.4939 61.2 55.1556 61.2H46.089C42.7507 61.2 40.0445 58.5309 40.0445 55.2384L40.0445 45.0617C40.0445 41.7692 42.7507 39.1 46.0889 39.1H55.1556Z" fill="#8B5434"/>
<path d="M12.8445 39.1C9.50626 39.1 6.80007 41.7692 6.80007 45.0617L6.80008 55.2384C6.80008 58.5309 9.50627 61.2 12.8445 61.2H21.9112C25.2494 61.2 27.9556 58.5309 27.9556 55.2384L27.9556 45.0617C27.9556 41.7692 25.2494 39.1 21.9112 39.1H12.8445Z" fill="#8B5434"/>
</svg>
