<svg width="54" height="56" viewBox="0 0 54 56" fill="none" xmlns="http://www.w3.org/2000/svg">
<path d="M18.7152 51.9913V43.5528C18.7152 41.3987 20.4927 39.6524 22.6854 39.6524H30.7009C31.7539 39.6524 32.7638 40.0633 33.5083 40.7948C34.2529 41.5263 34.6712 42.5183 34.6712 43.5528V51.9913C34.6646 52.8869 35.022 53.748 35.6643 54.3836C36.3066 55.0191 37.1805 55.3766 38.0921 55.3766H43.5606C46.1146 55.3831 48.5663 54.3909 50.3746 52.6191C52.1829 50.8472 53.1992 48.4413 53.1992 45.9323V21.8923C53.1992 19.8655 52.2847 17.943 50.7021 16.6427L32.0993 2.04699C28.8632 -0.512142 24.2267 -0.429514 21.0873 2.24323L2.90895 16.6427C1.25165 17.9047 0.261108 19.8329 0.212158 21.8923V45.9077C0.212158 51.1372 4.52748 55.3766 9.8507 55.3766H15.1944C17.0878 55.3766 18.6265 53.8759 18.6403 52.0158L18.7152 51.9913Z" fill="#8B5434"/>
</svg>
