<svg width="200" height="200" viewBox="0 0 200 200" fill="none" xmlns="http://www.w3.org/2000/svg">
<rect x="0.5" y="0.5" width="199" height="199" rx="24.5" fill="#FAFAFA" stroke="#5485B2"/>
<path d="M55 36H199V174C199 190.455 188 197 178.562 199H35V56C35 44.9543 43.9543 36 55 36Z" fill="white"/>
<path d="M74.9085 89.946H64.3445L62.5965 95H57.0105L66.5485 68.438H72.7425L82.2805 95H76.6565L74.9085 89.946ZM73.4645 85.69L69.6265 74.594L65.7885 85.69H73.4645ZM84.4776 84.398C84.4776 82.27 84.8956 80.3827 85.7316 78.736C86.593 77.0893 87.7456 75.8227 89.1896 74.936C90.659 74.0493 92.293 73.606 94.0916 73.606C95.6623 73.606 97.0303 73.9227 98.1956 74.556C99.3863 75.1893 100.336 75.9873 101.046 76.95V73.948H106.404V95H101.046V91.922C100.362 92.91 99.4116 93.7333 98.1956 94.392C97.005 95.0253 95.6243 95.342 94.0536 95.342C92.2803 95.342 90.659 94.886 89.1896 93.974C87.7456 93.062 86.593 91.7827 85.7316 90.136C84.8956 88.464 84.4776 86.5513 84.4776 84.398ZM101.046 84.474C101.046 83.182 100.792 82.08 100.286 81.168C99.779 80.2307 99.095 79.5213 98.2336 79.04C97.3723 78.5333 96.4476 78.28 95.4596 78.28C94.4716 78.28 93.5596 78.5207 92.7236 79.002C91.8876 79.4833 91.2036 80.1927 90.6716 81.13C90.165 82.042 89.9116 83.1313 89.9116 84.398C89.9116 85.6647 90.165 86.7793 90.6716 87.742C91.2036 88.6793 91.8876 89.4013 92.7236 89.908C93.585 90.4147 94.497 90.668 95.4596 90.668C96.4476 90.668 97.3723 90.4273 98.2336 89.946C99.095 89.4393 99.779 88.73 100.286 87.818C100.792 86.8807 101.046 85.766 101.046 84.474Z" fill="#5B5B5B"/>
</svg>
