<svg width="120" height="120" viewBox="0 0 120 120" fill="none" xmlns="http://www.w3.org/2000/svg">
<g opacity="0.7" filter="url(#filter0_b_1848_13690)">
<rect width="120" height="120" rx="20" fill="#F04634"/>
</g>
<path d="M86 77.2023V80.279C86 80.6369 85.8558 80.9801 85.5992 81.2332C85.3426 81.4863 84.9945 81.6285 84.6316 81.6285H35.3684C35.0055 81.6285 34.6574 81.4863 34.4008 81.2332C34.1442 80.9801 34 80.6369 34 80.279V77.2023C33.9992 76.211 34.388 75.2581 35.0846 74.5435C35.7811 73.8289 36.7314 73.4082 37.7358 73.3698C37.93 73.023 38.0554 72.6429 38.1053 72.2498V56.1509C38.0973 52.9771 38.8256 49.8437 40.2344 46.9902C41.6433 44.1367 43.6954 41.6388 46.2337 39.6876C48.8079 37.7083 51.8074 36.3363 55.0024 35.6767C58.1974 35.0171 61.5031 35.0874 64.6663 35.8822C73.4105 37.9873 80.5263 47.1636 80.5263 56.3263V71.8989C80.9381 72.509 81.4917 73.0133 82.1411 73.3698C83.167 73.377 84.1485 73.7839 84.8714 74.5018C85.5943 75.2198 86 76.1905 86 77.2023ZM59.3432 33.885C60.944 33.8966 62.5396 34.0684 64.1053 34.3978V33.0483C64.1053 31.9747 63.6727 30.9449 62.9029 30.1857C62.133 29.4265 61.0888 29 60 29C58.9112 29 57.867 29.4265 57.0971 30.1857C56.3273 30.9449 55.8947 31.9747 55.8947 33.0483V34.1549C57.0358 33.9803 58.1885 33.89 59.3432 33.885ZM50.5305 82.9779C50.8758 85.2106 52.0208 87.2474 53.7581 88.7191C55.4953 90.1908 57.7097 91 60 91C62.2903 91 64.5047 90.1908 66.2419 88.7191C67.9792 87.2474 69.1242 85.2106 69.4695 82.9779H50.5305Z" fill="white"/>
<defs>
<filter id="filter0_b_1848_13690" x="-4" y="-4" width="128" height="128" filterUnits="userSpaceOnUse" color-interpolation-filters="sRGB">
<feFlood flood-opacity="0" result="BackgroundImageFix"/>
<feGaussianBlur in="BackgroundImageFix" stdDeviation="2"/>
<feComposite in2="SourceAlpha" operator="in" result="effect1_backgroundBlur_1848_13690"/>
<feBlend mode="normal" in="SourceGraphic" in2="effect1_backgroundBlur_1848_13690" result="shape"/>
</filter>
</defs>
</svg>
