<svg width="115" height="115" viewBox="0 0 115 115" fill="none" xmlns="http://www.w3.org/2000/svg">
<g filter="url(#filter0_d_1042_292)">
<rect x="9" y="9" width="96.7127" height="96.7127" rx="48.3564" fill="#F47C6B"/>
</g>
<path d="M57.5 32C52.4001 32 47.5091 34.0149 43.903 37.6016C40.2968 41.1882 38.2709 46.0527 38.2709 51.125V61.3293L34.1516 71.5887C34.0226 71.9109 33.9748 72.2597 34.0125 72.6044C34.0501 72.9492 34.1721 73.2796 34.3676 73.5667C34.5632 73.8539 34.8264 74.0891 35.1344 74.2517C35.4423 74.4144 35.7857 74.4996 36.1344 74.5H48.9537C48.9537 79.209 52.7654 83 57.5 83C62.2346 83 66.0463 79.209 66.0463 74.5H78.8656C79.2143 74.4996 79.5576 74.4144 79.8656 74.2517C80.1736 74.0891 80.4368 73.8539 80.6324 73.5667C80.8279 73.2796 80.9499 72.9492 80.9875 72.6044C81.0252 72.2597 80.9774 71.9109 80.8484 71.5887L76.7291 61.325V51.125C76.7291 46.0527 74.7032 41.1882 71.097 37.6016C67.4909 34.0149 62.5999 32 57.5 32ZM61.7731 74.5C61.7731 76.863 59.8759 78.75 57.5 78.75C55.1241 78.75 53.2269 76.863 53.2269 74.5H61.7731ZM42.5441 51.125C42.5441 47.1799 44.1198 43.3964 46.9245 40.6068C49.7293 37.8172 53.5334 36.25 57.5 36.25C61.4666 36.25 65.2707 37.8172 68.0755 40.6068C70.8802 43.3964 72.4559 47.1799 72.4559 51.125V61.7415C72.4566 62.0109 72.5089 62.2777 72.6098 62.5277L75.7121 70.25H39.2879L42.3902 62.5277C42.4911 62.2777 42.5434 62.0109 42.5441 61.7415V51.125Z" fill="white"/>
<defs>
<filter id="filter0_d_1042_292" x="0" y="0" width="114.713" height="114.713" filterUnits="userSpaceOnUse" color-interpolation-filters="sRGB">
<feFlood flood-opacity="0" result="BackgroundImageFix"/>
<feColorMatrix in="SourceAlpha" type="matrix" values="0 0 0 0 0 0 0 0 0 0 0 0 0 0 0 0 0 0 127 0" result="hardAlpha"/>
<feOffset/>
<feGaussianBlur stdDeviation="4.5"/>
<feComposite in2="hardAlpha" operator="out"/>
<feColorMatrix type="matrix" values="0 0 0 0 1 0 0 0 0 1 0 0 0 0 1 0 0 0 0.27 0"/>
<feBlend mode="normal" in2="BackgroundImageFix" result="effect1_dropShadow_1042_292"/>
<feBlend mode="normal" in="SourceGraphic" in2="effect1_dropShadow_1042_292" result="shape"/>
</filter>
</defs>
</svg>
