<svg width="151" height="110" viewBox="0 0 151 110" fill="none" xmlns="http://www.w3.org/2000/svg">
<path d="M7.79744 9.9552L105 23.0001C106.253 23.1646 107.373 23.8621 108.074 24.9135C108.29 25.2375 108.462 25.5889 108.585 25.9582L108.723 26.3704C108.982 27.148 109.114 27.9622 109.114 28.7818V71.9736C109.114 72.9907 108.784 73.9804 108.174 74.7941C107.406 75.8184 106.253 76.485 104.982 76.6399L7.53761 88.4893C6.4332 88.6239 5.31264 88.4902 4.2709 88.0995L4.11832 88.0423C3.01351 87.628 2.04607 86.9139 1.3246 85.9803C0.465782 84.8689 -0.0001297 83.504 -0.0001297 82.0994V17.3587C-0.0001297 16.4503 0.159889 15.5491 0.47258 14.6963L0.617081 14.3022C1.22815 12.6357 2.47412 11.2788 4.08266 10.5281C5.24115 9.98749 6.52989 9.78873 7.79744 9.9552Z" fill="#F26522"/>
<path d="M71.4238 93.4079V90.8367L68.2812 91.2652V93.9793L71.4238 93.4079Z" fill="white"/>
<path fill-rule="evenodd" clip-rule="evenodd" d="M84.0218 91.4728C83.7694 91.4066 83.5058 91.3944 83.2484 91.4369L50.9299 96.7765C49.5374 97.0066 48.9004 98.6446 49.7716 99.755L56.6504 108.522C57.0831 109.074 57.7894 109.334 58.4766 109.196L103.374 100.189C105.305 99.8019 105.385 97.0713 103.48 96.5721L84.0218 91.4728ZM83.4902 94.5822L97.3028 98.202L58.6343 105.96L53.5842 99.5232L83.4902 94.5822Z" fill="white"/>
<path fill-rule="evenodd" clip-rule="evenodd" d="M21.9522 3.3111C22.8596 3.11384 23.7961 3.08955 24.7125 3.2395L115.775 18.1406C116.505 18.26 117.19 18.5712 117.76 19.0423C118.72 19.8357 119.277 21.0164 119.277 22.2621V72.914C119.277 73.356 119.244 73.7974 119.179 74.2346L118.821 76.6531C118.511 78.746 116.992 80.4543 114.955 81.0098L24.2517 94.9533C23.6268 95.0494 22.9901 95.04 22.3683 94.9254C20.3295 94.5499 18.6598 93.0887 18.0171 91.1177L17.6401 89.9617C17.4017 89.2307 17.2742 88.4681 17.2618 87.6993L16.0257 11.0585C16.0108 10.1374 16.1581 9.22086 16.4607 8.35077L16.5481 8.09946C17.3927 5.67118 19.4399 3.85725 21.9522 3.3111ZM25.22 0.13814C23.9134 -0.075655 22.5783 -0.0410261 21.2846 0.24021C17.7028 1.01887 14.7841 3.60501 13.5799 7.06705L13.4925 7.31835C13.0688 8.53648 12.8626 9.81964 12.8835 11.1092L14.1196 87.7499C14.1371 88.8326 14.3166 89.9065 14.6523 90.9359L15.0293 92.092C16.0292 95.1584 18.627 97.4317 21.799 98.016C22.7664 98.1943 23.7569 98.2089 24.7292 98.0595L115.593 84.0912L115.67 84.0716C118.965 83.2211 121.431 80.4803 121.93 77.1137L122.288 74.6952C122.375 74.1055 122.419 73.5101 122.419 72.914V22.2621C122.419 20.079 121.445 18.0099 119.762 16.6195C118.762 15.7939 117.561 15.2486 116.282 15.0392L25.22 0.13814Z" fill="white"/>
<path d="M135.036 94.8995C135.036 93.574 133.992 92.4994 132.704 92.4994H121.332C120.044 92.4994 119 93.574 119 94.8995V106.6C119 107.925 120.044 109 121.332 109H132.704C133.992 109 135.036 107.925 135.036 106.6V94.8995Z" fill="url(#paint0_linear_2_3015)"/>
<path d="M151 81.9991C151 80.6736 149.955 79.599 148.667 79.599H140.795C139.506 79.599 138.462 80.6736 138.462 81.9991V90.0994C138.462 91.4249 139.506 92.4994 140.795 92.4994H148.667C149.955 92.4994 151 91.4249 151 90.0994V81.9991Z" fill="url(#paint1_linear_2_3015)"/>
<path d="M143.127 65.4001C143.127 64.0746 142.083 63 140.794 63H136.421C135.133 63 134.088 64.0746 134.088 65.4001V69.9002C134.088 71.2258 135.133 72.3003 136.421 72.3003H140.794C142.083 72.3003 143.127 71.2258 143.127 69.9002V65.4001Z" fill="url(#paint2_linear_2_3015)"/>
<defs>
<linearGradient id="paint0_linear_2_3015" x1="141.815" y1="63" x2="150.661" y2="116.933" gradientUnits="userSpaceOnUse">
<stop stop-color="#FF7A00"/>
<stop offset="1" stop-color="#CC520A"/>
</linearGradient>
<linearGradient id="paint1_linear_2_3015" x1="141.815" y1="63" x2="150.661" y2="116.933" gradientUnits="userSpaceOnUse">
<stop stop-color="#FF7A00"/>
<stop offset="1" stop-color="#CC520A"/>
</linearGradient>
<linearGradient id="paint2_linear_2_3015" x1="141.815" y1="63" x2="150.661" y2="116.933" gradientUnits="userSpaceOnUse">
<stop stop-color="#FF7A00"/>
<stop offset="1" stop-color="#CC520A"/>
</linearGradient>
</defs>
</svg>
