<svg width="155" height="112" viewBox="0 0 155 112" fill="none" xmlns="http://www.w3.org/2000/svg">
<path d="M8.45036 10.7483L107.586 24.0527C108.864 24.2205 110.007 24.9319 110.722 26.0042C110.942 26.3346 111.117 26.693 111.243 27.0697L111.383 27.4901C111.647 28.2831 111.782 29.1135 111.782 29.9494V74.0004C111.782 75.0377 111.446 76.0471 110.823 76.8769C110.04 77.9216 108.864 78.6015 107.568 78.7594L8.18536 90.8446C7.05899 90.9818 5.91613 90.8455 4.85368 90.447L4.69807 90.3887C3.57127 89.9661 2.58459 89.2379 1.84877 88.2856C0.97287 87.1521 0.497688 85.7601 0.497688 84.3276V18.299C0.497688 17.3727 0.660889 16.4535 0.979805 15.5838L1.12718 15.1818C1.7504 13.4821 3.02116 12.0982 4.66169 11.3326C5.84323 10.7813 7.1576 10.5785 8.45036 10.7483Z" fill="#F26522"/>
<path d="M73.3428 95.8603V93.2379L70.1377 93.675V96.443L73.3428 95.8603Z" fill="white"/>
<path fill-rule="evenodd" clip-rule="evenodd" d="M86.1912 93.8868C85.9337 93.8193 85.6649 93.8068 85.4023 93.8502L52.441 99.296C51.0208 99.5306 50.3711 101.201 51.2597 102.334L58.2753 111.275C58.7166 111.838 59.437 112.104 60.1379 111.963L105.929 102.777C107.898 102.382 107.979 99.5966 106.036 99.0876L86.1912 93.8868ZM85.649 97.058L99.7363 100.75L60.2987 108.662L55.1482 102.097L85.649 97.058Z" fill="white"/>
<path fill-rule="evenodd" clip-rule="evenodd" d="M22.8872 3.97168C23.8126 3.7705 24.7677 3.74573 25.7023 3.89867L118.576 19.0962C119.32 19.218 120.019 19.5354 120.601 20.0158C121.58 20.825 122.147 22.0292 122.147 23.2997V74.9591C122.147 75.4099 122.114 75.86 122.048 76.3059L121.683 78.7726C121.367 80.9071 119.817 82.6493 117.74 83.2159L25.2324 97.4368C24.595 97.5348 23.9457 97.5251 23.3115 97.4083C21.2322 97.0253 19.5292 95.535 18.8737 93.5249L18.4893 92.3458C18.2461 91.6003 18.1161 90.8225 18.1035 90.0384L16.8427 11.8732C16.8276 10.9338 16.9778 9.999 17.2864 9.1116L17.3756 8.8553C18.237 6.37871 20.3249 4.5287 22.8872 3.97168ZM26.2199 0.735614C24.8874 0.517567 23.5257 0.552884 22.2063 0.839714C18.5532 1.63386 15.5765 4.27145 14.3483 7.80235L14.2592 8.05865C13.8271 9.30101 13.6168 10.6097 13.638 11.9249L14.8988 90.0901C14.9166 91.1943 15.0997 92.2896 15.4421 93.3395L15.8265 94.5185C16.8463 97.646 19.4958 99.9645 22.7309 100.56C23.7176 100.742 24.7278 100.757 25.7194 100.605L118.391 86.3586L118.469 86.3386C121.83 85.4712 124.345 82.6759 124.853 79.2423L125.219 76.7757C125.308 76.1742 125.353 75.5671 125.353 74.9591V23.2997C125.353 21.0731 124.359 18.9628 122.642 17.5448C121.623 16.7028 120.398 16.1466 119.093 15.9331L26.2199 0.735614Z" fill="white"/>
<path d="M138.221 97.3821C138.221 96.0302 137.156 94.9343 135.842 94.9343H124.244C122.931 94.9343 121.865 96.0302 121.865 97.3821V109.315C121.865 110.667 122.931 111.763 124.244 111.763H135.842C137.156 111.763 138.221 110.667 138.221 109.315V97.3821Z" fill="url(#paint0_linear_152_127)"/>
<path d="M154.502 84.2251C154.502 82.8732 153.437 81.7773 152.123 81.7773H144.094C142.78 81.7773 141.715 82.8732 141.715 84.2251V92.4865C141.715 93.8384 142.78 94.9343 144.094 94.9343H152.123C153.437 94.9343 154.502 93.8384 154.502 92.4865V84.2251Z" fill="url(#paint1_linear_152_127)"/>
<path d="M146.473 67.2959C146.473 65.944 145.408 64.8481 144.094 64.8481H139.633C138.319 64.8481 137.254 65.944 137.254 67.2959V71.8856C137.254 73.2375 138.319 74.3334 139.633 74.3334H144.094C145.408 74.3334 146.473 73.2375 146.473 71.8856V67.2959Z" fill="url(#paint2_linear_152_127)"/>
<g filter="url(#filter0_i_152_127)">
<path d="M45.5154 41.4301C44.9339 40.487 44.1382 39.7993 43.1283 39.367C42.149 38.8955 41.2156 38.6597 40.3281 38.6597C39.8078 38.6597 39.2723 38.7383 38.7214 38.8955C38.1706 39.0527 37.6503 39.3081 37.1606 39.6618C36.671 39.9761 36.2732 40.4084 35.9671 40.9586C35.6611 41.5087 35.5081 42.1768 35.5081 42.9627C35.5081 44.2202 35.8753 45.183 36.6098 45.851C37.3443 46.5191 38.2624 47.0889 39.3641 47.5604C40.4964 48.032 41.7052 48.5036 42.9906 48.9751C44.2759 49.4467 45.4695 50.1147 46.5712 50.9793C47.7035 51.8438 48.6369 53.0031 49.3714 54.457C50.1059 55.911 50.4731 57.8562 50.4731 60.2926C50.4731 62.6111 50.1365 64.6349 49.4632 66.364C48.7899 68.0931 47.8718 69.5274 46.7089 70.667C45.5766 71.8066 44.2453 72.6515 42.7152 73.2016C41.2156 73.7518 39.6242 74.0269 37.941 74.0269C35.8294 74.0269 33.8708 73.6143 32.0652 72.789C30.2596 71.9638 28.5764 70.6277 27.0156 68.7808L32.1111 61.5894C32.8456 62.8469 33.7637 63.8293 34.8654 64.5367C35.9977 65.2047 37.1606 65.5388 38.3542 65.5388C38.9356 65.5388 39.5171 65.4602 40.0986 65.303C40.7106 65.1065 41.2462 64.8314 41.7052 64.4777C42.1949 64.1241 42.5774 63.6722 42.8529 63.122C43.1589 62.5718 43.3119 61.9234 43.3119 61.1768C43.3119 59.9193 42.9294 58.9369 42.1643 58.2295C41.4298 57.4829 40.4964 56.8541 39.3641 56.3433C38.2318 55.8324 37.0076 55.3216 35.6917 54.8107C34.3757 54.2999 33.1516 53.6122 32.0193 52.7476C30.887 51.8831 29.9382 50.7435 29.1732 49.3288C28.4387 47.9141 28.0714 46.0475 28.0714 43.729C28.0714 41.4891 28.4081 39.5242 29.0814 37.8345C29.7852 36.1447 30.7033 34.73 31.8357 33.5904C32.9986 32.4508 34.3298 31.6059 35.8294 31.0557C37.329 30.4663 38.8744 30.1716 40.4658 30.1716C42.302 30.1716 44.077 30.5056 45.7908 31.1736C47.5046 31.8417 49.0501 32.9616 50.4272 34.5335L45.5154 41.4301Z" fill="#773211"/>
</g>
<g filter="url(#filter1_i_152_127)">
<path d="M58.6318 32.2109L65.5658 32.8136V63.8967L79.0297 62.9467V70.1787L58.6318 71.9867V32.2109Z" fill="#773211"/>
</g>
<g filter="url(#filter2_i_152_127)">
<path d="M86.9649 40.9644L78.0098 40.1435V33.231L102.487 35.6105V42.1542L94.129 41.5593V68.3323L86.9649 68.9272V40.9644Z" fill="#773211"/>
</g>
<defs>
<filter id="filter0_i_152_127" x="27.0156" y="30.1716" width="23.457" height="47.8553" filterUnits="userSpaceOnUse" color-interpolation-filters="sRGB">
<feFlood flood-opacity="0" result="BackgroundImageFix"/>
<feBlend mode="normal" in="SourceGraphic" in2="BackgroundImageFix" result="shape"/>
<feColorMatrix in="SourceAlpha" type="matrix" values="0 0 0 0 0 0 0 0 0 0 0 0 0 0 0 0 0 0 127 0" result="hardAlpha"/>
<feOffset dy="4"/>
<feGaussianBlur stdDeviation="2"/>
<feComposite in2="hardAlpha" operator="arithmetic" k2="-1" k3="1"/>
<feColorMatrix type="matrix" values="0 0 0 0 0 0 0 0 0 0 0 0 0 0 0 0 0 0 0.25 0"/>
<feBlend mode="normal" in2="shape" result="effect1_innerShadow_152_127"/>
</filter>
<filter id="filter1_i_152_127" x="58.6318" y="32.2109" width="20.3975" height="43.7758" filterUnits="userSpaceOnUse" color-interpolation-filters="sRGB">
<feFlood flood-opacity="0" result="BackgroundImageFix"/>
<feBlend mode="normal" in="SourceGraphic" in2="BackgroundImageFix" result="shape"/>
<feColorMatrix in="SourceAlpha" type="matrix" values="0 0 0 0 0 0 0 0 0 0 0 0 0 0 0 0 0 0 127 0" result="hardAlpha"/>
<feOffset dy="4"/>
<feGaussianBlur stdDeviation="2"/>
<feComposite in2="hardAlpha" operator="arithmetic" k2="-1" k3="1"/>
<feColorMatrix type="matrix" values="0 0 0 0 0 0 0 0 0 0 0 0 0 0 0 0 0 0 0.25 0"/>
<feBlend mode="normal" in2="shape" result="effect1_innerShadow_152_127"/>
</filter>
<filter id="filter2_i_152_127" x="78.0098" y="33.231" width="24.4775" height="39.6962" filterUnits="userSpaceOnUse" color-interpolation-filters="sRGB">
<feFlood flood-opacity="0" result="BackgroundImageFix"/>
<feBlend mode="normal" in="SourceGraphic" in2="BackgroundImageFix" result="shape"/>
<feColorMatrix in="SourceAlpha" type="matrix" values="0 0 0 0 0 0 0 0 0 0 0 0 0 0 0 0 0 0 127 0" result="hardAlpha"/>
<feOffset dy="4"/>
<feGaussianBlur stdDeviation="2"/>
<feComposite in2="hardAlpha" operator="arithmetic" k2="-1" k3="1"/>
<feColorMatrix type="matrix" values="0 0 0 0 0 0 0 0 0 0 0 0 0 0 0 0 0 0 0.25 0"/>
<feBlend mode="normal" in2="shape" result="effect1_innerShadow_152_127"/>
</filter>
<linearGradient id="paint0_linear_152_127" x1="145.135" y1="64.8481" x2="154.156" y2="119.854" gradientUnits="userSpaceOnUse">
<stop stop-color="#FF7A00"/>
<stop offset="1" stop-color="#CC520A"/>
</linearGradient>
<linearGradient id="paint1_linear_152_127" x1="145.135" y1="64.8481" x2="154.156" y2="119.854" gradientUnits="userSpaceOnUse">
<stop stop-color="#FF7A00"/>
<stop offset="1" stop-color="#CC520A"/>
</linearGradient>
<linearGradient id="paint2_linear_152_127" x1="145.135" y1="64.8481" x2="154.156" y2="119.854" gradientUnits="userSpaceOnUse">
<stop stop-color="#FF7A00"/>
<stop offset="1" stop-color="#CC520A"/>
</linearGradient>
</defs>
</svg>
