<svg width="128" height="128" viewBox="0 0 128 128" fill="none" xmlns="http://www.w3.org/2000/svg">
<g opacity="0.7" filter="url(#filter0_b_2_1733)">
<rect x="4" y="4" width="120" height="120" rx="20" fill="#0E161F"/>
<rect x="4" y="4" width="120" height="120" rx="20" stroke="#CD5209" stroke-width="7"/>
</g>
<path d="M90 81.2023V84.279C90 84.6369 89.8558 84.9801 89.5992 85.2332C89.3426 85.4863 88.9945 85.6285 88.6316 85.6285H39.3684C39.0055 85.6285 38.6574 85.4863 38.4008 85.2332C38.1442 84.9801 38 84.6369 38 84.279V81.2023C37.9992 80.211 38.388 79.2581 39.0846 78.5435C39.7811 77.8289 40.7314 77.4082 41.7358 77.3698C41.93 77.023 42.0554 76.6429 42.1053 76.2498V60.1509C42.0973 56.9771 42.8256 53.8437 44.2344 50.9902C45.6433 48.1367 47.6954 45.6388 50.2337 43.6876C52.8079 41.7083 55.8074 40.3363 59.0024 39.6767C62.1974 39.0171 65.5031 39.0874 68.6663 39.8822C77.4105 41.9873 84.5263 51.1636 84.5263 60.3263V75.8989C84.9381 76.509 85.4917 77.0133 86.1411 77.3698C87.167 77.377 88.1485 77.7839 88.8714 78.5018C89.5943 79.2198 90 80.1905 90 81.2023ZM63.3432 37.885C64.944 37.8966 66.5396 38.0684 68.1053 38.3978V37.0483C68.1053 35.9747 67.6727 34.9449 66.9029 34.1857C66.133 33.4265 65.0888 33 64 33C62.9112 33 61.867 33.4265 61.0971 34.1857C60.3273 34.9449 59.8947 35.9747 59.8947 37.0483V38.1549C61.0358 37.9803 62.1885 37.89 63.3432 37.885ZM54.5305 86.9779C54.8758 89.2106 56.0208 91.2474 57.7581 92.7191C59.4953 94.1908 61.7097 95 64 95C66.2903 95 68.5047 94.1908 70.2419 92.7191C71.9792 91.2474 73.1242 89.2106 73.4695 86.9779H54.5305Z" fill="#CD5209" stroke="#CD5209" stroke-width="2"/>
<defs>
<filter id="filter0_b_2_1733" x="-3.5" y="-3.5" width="135" height="135" filterUnits="userSpaceOnUse" color-interpolation-filters="sRGB">
<feFlood flood-opacity="0" result="BackgroundImageFix"/>
<feGaussianBlur in="BackgroundImageFix" stdDeviation="2"/>
<feComposite in2="SourceAlpha" operator="in" result="effect1_backgroundBlur_2_1733"/>
<feBlend mode="normal" in="SourceGraphic" in2="effect1_backgroundBlur_2_1733" result="shape"/>
</filter>
</defs>
</svg>
