<svg width="93" height="92" viewBox="0 0 93 92" fill="none" xmlns="http://www.w3.org/2000/svg">
<rect x="0.492188" width="92" height="92" rx="20" fill="#202020"/>
<path d="M46.0737 45.676C44.1417 45.676 42.5703 47.248 42.5703 49.1778C42.5703 51.1097 44.1423 52.6811 46.0737 52.6811C48.0056 52.6811 49.577 51.1092 49.577 49.1778C49.5755 47.248 48.004 45.676 46.0737 45.676ZM46.0737 51.1066C45.008 51.1066 44.1417 50.2388 44.1417 49.1763C44.1417 48.1106 45.008 47.2444 46.0737 47.2444C47.1394 47.2444 48.0056 48.1106 48.0056 49.1763C48.004 50.2393 47.1378 51.1066 46.0737 51.1066Z" fill="#7C7B7B" stroke="#7C7B7B"/>
<path d="M77.1487 35.578C76.2714 35.578 75.4778 35.9127 74.8647 36.449L49.2954 17.8705C49.4727 17.4495 49.5769 16.9859 49.5769 16.5001C49.5769 14.5714 48.005 13 46.0736 13C44.1416 13 42.5702 14.572 42.5702 16.5017C42.5702 16.9875 42.6707 17.4511 42.8502 17.8722L17.2795 36.4493C16.6649 35.9151 15.8713 35.5783 14.9939 35.5783C13.062 35.5783 11.4922 37.1503 11.4922 39.0801C11.4922 41.0104 13.0641 42.5818 14.9939 42.5818C15.096 42.5818 15.1934 42.5597 15.2939 42.5502L25.0656 72.626C24.0504 73.2407 23.3616 74.3422 23.3616 75.6142C23.3616 77.5446 24.9336 79.116 26.8633 79.116C28.5231 79.116 29.9093 77.9545 30.2678 76.3999H61.8728C62.2296 77.9514 63.6158 79.116 65.2772 79.116C67.2092 79.116 68.7774 77.544 68.7774 75.6142C68.7774 74.3412 68.089 73.2376 67.0734 72.626L76.8467 42.5516C76.9456 42.5611 77.0461 42.5832 77.1451 42.5832C79.0786 42.5826 80.6506 41.0128 80.6506 39.0809C80.6506 37.1495 79.0802 35.5775 77.1483 35.5775L77.1487 35.578ZM46.0732 14.5705C47.1389 14.5705 48.0051 15.4367 48.0051 16.5008C48.0051 17.5649 47.1389 18.4312 46.0732 18.4312C45.0075 18.4312 44.1412 17.5649 44.1412 16.5008C44.1412 15.4367 45.0075 14.5705 46.0732 14.5705ZM13.0658 39.0795C13.0658 38.0154 13.932 37.1492 14.9961 37.1492C16.0602 37.1492 16.9264 38.0154 16.9264 39.0795C16.9264 40.1436 16.0602 41.0098 14.9961 41.0098C13.9304 41.0098 13.0658 40.1436 13.0658 39.0795ZM26.8656 77.5433C25.8015 77.5433 24.9352 76.677 24.9352 75.6113C24.9352 74.5472 25.8015 73.6794 26.8656 73.6794C27.9297 73.6794 28.7959 74.5472 28.7959 75.6113C28.7943 76.677 27.9297 77.5433 26.8656 77.5433ZM65.2795 77.5433C64.2138 77.5433 63.3475 76.677 63.3475 75.6113C63.3475 74.5472 64.2153 73.6794 65.2795 73.6794C66.3436 73.6794 67.2098 74.5472 67.2098 75.6113C67.2082 76.677 66.342 77.5433 65.2795 77.5433ZM65.581 72.1427C65.4805 72.1332 65.3816 72.1095 65.281 72.1095C63.6196 72.1095 62.2334 73.2726 61.8766 74.8272H30.2689C29.9105 73.2742 28.5244 72.1095 26.8645 72.1095C26.7608 72.1095 26.6634 72.1332 26.5629 72.1427L16.7907 42.0696C17.8059 41.4549 18.4947 40.3519 18.4947 39.0799C18.4947 38.5942 18.3942 38.1305 18.2147 37.7095L43.788 19.1311C44.4027 19.6652 45.1947 20.002 46.072 20.002C46.9493 20.002 47.7429 19.6673 48.3592 19.1311L73.9285 37.7095C73.748 38.1305 73.6485 38.5942 73.6485 39.0799C73.6485 40.3514 74.3369 41.4566 75.3525 42.0696L65.581 72.1427ZM77.1478 41.0107C76.0837 41.0107 75.2174 40.1444 75.2174 39.0803C75.2174 38.0162 76.0837 37.15 77.1478 37.15C78.2135 37.15 79.0797 38.0162 79.0797 39.0803C79.0797 40.1444 78.2135 41.0107 77.1478 41.0107Z" fill="#7C7B7B" stroke="#7C7B7B"/>
</svg>
