<svg width="47" height="57" viewBox="0 0 47 57" fill="none" xmlns="http://www.w3.org/2000/svg">
<path d="M39.4146 7.80887C35.1647 3.41467 29.5118 1 23.5041 1C17.4882 1 11.8436 3.41467 7.59362 7.80887C3.34366 12.2031 1 18.0478 1 24.2594C1 36.8276 12.4955 47.2884 18.6765 52.9027C19.5348 53.6877 20.2692 54.3618 20.8634 54.9249C21.6061 55.6416 22.5551 56 23.5041 56C24.4531 56 25.4022 55.6416 26.1366 54.9249C26.7308 54.3618 27.4735 53.6877 28.3317 52.9027C34.5045 47.2884 46 36.8276 46 24.2594C46 18.0478 43.6646 12.2031 39.4146 7.80887Z" fill="#50A028" stroke="white" stroke-miterlimit="22.9256"/>
</svg>
