<svg width="58" height="58" viewBox="0 0 58 58" fill="none" xmlns="http://www.w3.org/2000/svg">
<path fill-rule="evenodd" clip-rule="evenodd" d="M25.4764 4.83331C25.1491 4.83331 24.8425 4.99348 24.6555 5.26214L21.161 10.284C20.3228 11.4799 18.9295 12.0659 17.4506 11.9614L11.2914 11.5747C10.9706 11.5546 10.6596 11.6899 10.4557 11.9385L6.74785 16.4574C6.53165 16.7209 6.46455 17.0764 6.56981 17.4006L8.39409 23.0188C8.609 23.7156 8.63649 24.4621 8.4827 25.1672C8.32687 25.8638 7.9928 26.5217 7.49679 27.0544L3.38723 31.4743C3.15883 31.7199 3.0688 32.0637 3.14748 32.3898L4.47667 37.8979C4.5551 38.2229 4.79074 38.4872 5.10464 38.6023L10.7509 40.6717C11.4394 40.9381 12.0342 41.3712 12.4844 41.9167C12.9315 42.4639 13.2361 43.1242 13.3542 43.8392L14.315 49.7412C14.3683 50.0684 14.5803 50.348 14.8809 50.4876L20.1527 52.9352C20.4438 53.0703 20.782 53.0575 21.0621 52.9009L26.3187 49.9599C26.9594 49.6 27.6744 49.4196 28.3894 49.4187C28.7611 49.4195 29.1329 49.4687 29.4954 49.5658C29.8326 49.6561 30.1605 49.7877 30.4712 49.9599L35.9471 52.9243C36.2284 53.0766 36.5655 53.0851 36.8542 52.9473L42.099 50.4423C42.3986 50.2992 42.6077 50.0167 42.6569 49.6883L43.5213 43.9301C43.6343 43.2111 43.9348 42.5458 44.3809 41.9939C44.8239 41.4477 45.4116 41.0125 46.096 40.7434L51.779 38.5161C52.0869 38.3954 52.3153 38.1303 52.389 37.8078L53.6541 32.269C53.7276 31.9474 53.6377 31.6102 53.4138 31.3678L49.2941 26.9071C48.789 26.3725 48.4366 25.734 48.2655 25.0553C48.0974 24.3816 48.1076 23.6676 48.3205 22.9765L50.111 17.2371C50.2114 16.9153 50.1429 16.5645 49.9289 16.3042L46.2885 11.8765C46.0822 11.6256 45.7669 11.4905 45.443 11.5142L39.3383 11.9614C38.6029 12.0133 37.8798 11.8732 37.2361 11.5719C36.5883 11.2667 36.02 10.7974 35.5973 10.1991L32.1346 5.25931C31.9474 4.9923 31.6418 4.83331 31.3157 4.83331H25.4764ZM28.2356 37.1861C32.8433 37.1861 36.5791 33.5326 36.5791 29.0256C36.5791 24.5187 32.8433 20.8651 28.2356 20.8651C23.6278 20.8651 19.892 24.5187 19.892 29.0256C19.892 33.5326 23.6278 37.1861 28.2356 37.1861Z" fill="#8B5434"/>
<path d="M21.161 10.284L24.6555 5.26214C24.8425 4.99348 25.1491 4.83331 25.4764 4.83331H31.3157C31.6418 4.83331 31.9474 4.9923 32.1346 5.25931L35.5973 10.1991M21.161 10.284C20.3228 11.4799 18.9295 12.0659 17.4506 11.9614M21.161 10.284C20.3187 11.477 18.9295 12.0707 17.4506 11.9614M17.4506 11.9614L11.2914 11.5747C10.9706 11.5546 10.6596 11.6899 10.4557 11.9385L6.74785 16.4574C6.53165 16.7209 6.46455 17.0764 6.56981 17.4006L8.39409 23.0188M8.39409 23.0188C8.609 23.7156 8.63649 24.4621 8.4827 25.1672M8.39409 23.0188C8.61205 23.7144 8.63853 24.4594 8.48168 25.1744M8.4827 25.1672C8.32687 25.8638 7.9928 26.5217 7.49679 27.0544M8.4827 25.1672L8.48168 25.1744M7.49679 27.0544L3.38723 31.4743C3.15883 31.7199 3.0688 32.0637 3.14748 32.3898L4.47667 37.8979C4.5551 38.2229 4.79074 38.4872 5.10464 38.6023L10.7509 40.6717C11.4394 40.9381 12.0342 41.3712 12.4844 41.9167M7.49679 27.0544C7.99586 26.526 8.32687 25.8703 8.48168 25.1744M12.4844 41.9167C12.9315 42.4639 13.2361 43.1242 13.3542 43.8392M12.4844 41.9167C12.9356 42.4639 13.2412 43.1224 13.3542 43.8392M12.4844 41.9167L12.4773 41.9089C12.4477 41.8731 12.4162 41.8358 12.3856 41.801M13.3542 43.8392L14.315 49.7412C14.3683 50.0684 14.5803 50.348 14.8809 50.4876L20.1527 52.9352C20.4438 53.0703 20.782 53.0575 21.0621 52.9009L26.3187 49.9599M26.3187 49.9599C26.9594 49.6 27.6744 49.4196 28.3894 49.4187M26.3187 49.9599C26.5723 49.8156 26.8382 49.7004 27.1111 49.614C27.5257 49.4826 27.9575 49.4179 28.3894 49.4187M28.3894 49.4187C28.7611 49.4195 29.1329 49.4687 29.4954 49.5658C29.8326 49.6561 30.1605 49.7877 30.4712 49.9599M28.3894 49.4187C29.1074 49.4178 29.8265 49.5982 30.4712 49.9599M30.4712 49.9599L35.9471 52.9243C36.2284 53.0766 36.5655 53.0851 36.8542 52.9472L42.099 50.4423C42.3986 50.2992 42.6077 50.0167 42.6569 49.6883L43.5213 43.9301M43.5213 43.9301C43.6343 43.2111 43.9348 42.5458 44.3809 41.9939M43.5213 43.9301C43.6302 43.2095 43.9327 42.5452 44.3809 41.9939M44.3809 41.9939C44.8239 41.4477 45.4116 41.0125 46.096 40.7434M44.3809 41.9939C44.8229 41.4455 45.4086 41.0091 46.096 40.7434M46.096 40.7434L51.779 38.5161C52.0869 38.3954 52.3153 38.1303 52.389 37.8078L53.6541 32.269C53.7276 31.9474 53.6377 31.6102 53.4138 31.3678L49.2941 26.9071M49.2941 26.9071C48.789 26.3725 48.4366 25.734 48.2655 25.0553M49.2941 26.9071C49.0568 26.6574 48.8531 26.3845 48.6871 26.0951C48.4977 25.7665 48.3561 25.4167 48.2655 25.0553M48.2655 25.0553C48.0974 24.3816 48.1076 23.6676 48.3205 22.9765L50.111 17.2371C50.2114 16.9153 50.1429 16.5645 49.9289 16.3042L46.2885 11.8765C46.0822 11.6256 45.7669 11.4905 45.443 11.5142L39.3383 11.9614M39.3383 11.9614C38.6029 12.0133 37.8798 11.8732 37.2361 11.5719M39.3383 11.9614C38.6019 12.0163 37.8798 11.8751 37.2361 11.5719M37.2361 11.5719C36.5883 11.2667 36.02 10.7974 35.5973 10.1991M37.2361 11.5719C36.5873 11.2678 36.0179 10.7998 35.5973 10.1991M8.48168 25.1744L8.48372 25.1638M36.5791 29.0256C36.5791 33.5326 32.8433 37.1861 28.2356 37.1861C23.6279 37.1861 19.892 33.5326 19.892 29.0256C19.892 24.5187 23.6279 20.8651 28.2356 20.8651C32.8433 20.8651 36.5791 24.5187 36.5791 29.0256Z" stroke="#8B5434" stroke-width="2"/>
</svg>
