<svg width="56" height="56" viewBox="0 0 56 56" fill="none" xmlns="http://www.w3.org/2000/svg">
<circle opacity="0.1" cx="27.9924" cy="27.9924" r="27.9924" fill="#808080"/>
<path d="M40.4294 20.6142L34.9504 23.6422V19.4627C34.9504 19.0103 34.7672 18.5764 34.441 18.2564C34.1148 17.9365 33.6724 17.7568 33.2111 17.7568H17.5568C16.6342 17.7568 15.7494 18.1162 15.097 18.7561C14.4446 19.3959 14.0781 20.2637 14.0781 21.1686V34.8159C14.0781 35.7207 14.4446 36.5886 15.097 37.2284C15.7494 37.8682 16.6342 38.2277 17.5568 38.2277H33.2111C33.6724 38.2277 34.1148 38.048 34.441 37.728C34.7672 37.4081 34.9504 36.9742 34.9504 36.5218V32.3252L40.4294 35.3532C40.57 35.4433 40.7322 35.4955 40.8999 35.5046C41.0675 35.5137 41.2347 35.4793 41.3845 35.405C41.5343 35.3307 41.6616 35.219 41.7534 35.0811C41.8453 34.9433 41.8986 34.7841 41.9078 34.6197V21.3392C41.8971 21.1755 41.8428 21.0174 41.7504 20.8807C41.6579 20.744 41.5306 20.6335 41.381 20.5601C41.2314 20.4868 41.0648 20.4531 40.8978 20.4626C40.7309 20.4721 40.5693 20.5244 40.4294 20.6142Z" fill="#808080"/>
</svg>
