<svg width="124" height="146" viewBox="0 0 124 146" fill="none" xmlns="http://www.w3.org/2000/svg">
<path d="M106.441 57.5412C106.407 33.0225 86.4983 13.148 61.9796 13.1822C61.9455 13.1822 61.9113 13.1822 61.8772 13.1822C61.843 13.1822 61.8089 13.1822 61.7747 13.1822C37.256 13.2163 17.3815 33.0908 17.4157 57.6437C17.4157 62.9709 19.5671 75.8449 26.1236 86.1236C34.3534 99.066 58.394 127.58 61.9113 131.746H62.0001C61.966 131.78 62.0343 131.712 62.0001 131.746C61.966 131.712 62.0343 131.78 62.0001 131.746H62.1162C65.6335 127.58 89.6059 98.9977 97.8015 86.0553C104.324 75.7424 106.441 62.8684 106.441 57.5412Z" fill="url(#paint0_radial_94_117)"/>
<path d="M99.8101 57.8858C99.8101 78.8124 82.8573 95.8085 61.9051 95.8085C40.9883 95.8085 24.0001 78.8478 24.0001 57.8858C24.0001 36.9239 40.9883 19.9985 61.9051 19.9985C82.8219 19.9985 99.8101 36.9593 99.8101 57.8858Z" fill="url(#paint1_radial_94_117)"/>
<path fill-rule="evenodd" clip-rule="evenodd" d="M42 43.616C42 40.5144 44.5144 38 47.616 38H75.384C78.4856 38 81 40.5144 81 43.616V71.384C81 74.4856 78.4856 77 75.384 77H47.616C44.5144 77 42 74.4856 42 71.384V43.616ZM58.8559 49.4979C58.8559 53.1056 55.8964 56.0303 52.2457 56.0303C48.595 56.0303 45.6355 53.1056 45.6355 49.4979C45.6355 45.8901 48.595 42.9655 52.2457 42.9655C55.8964 42.9655 58.8559 45.8901 58.8559 49.4979ZM77.034 58.9698H64.4747V71.3813H77.034V58.9698Z" fill="#EEEEEE"/>
<defs>
<radialGradient id="paint0_radial_94_117" cx="0" cy="0" r="1" gradientUnits="userSpaceOnUse" gradientTransform="translate(61.9505 72.6011) rotate(-0.0630253) scale(52.5015 52.5014)">
<stop stop-color="#F7F8F8"/>
<stop offset="0.2239" stop-color="#F2F3F4"/>
<stop offset="0.5439" stop-color="#E3E4E8"/>
<stop offset="0.9199" stop-color="#C9CBD0"/>
<stop offset="1" stop-color="#C3C5CA"/>
</radialGradient>
<radialGradient id="paint1_radial_94_117" cx="0" cy="0" r="1" gradientUnits="userSpaceOnUse" gradientTransform="translate(61.9127 57.8974) scale(37.8917 37.9094)">
<stop stop-color="#9BF15C"/>
<stop offset="1" stop-color="#6BA044"/>
</radialGradient>
</defs>
</svg>
