<svg width="82" height="194" viewBox="0 0 82 194" fill="none" xmlns="http://www.w3.org/2000/svg">
<path style="mix-blend-mode:multiply" d="M12.0103 186.859L23.5803 186.859C30.0203 186.859 35.2404 183.389 35.2404 176.949L35.2404 12.4494C35.2404 6.00937 30.0203 0.789383 23.5803 0.789383L20.5003 1.17938C14.0603 1.17938 0.350342 0.789368 0.350342 12.4494L0.350342 176.949C0.350342 183.389 0.350315 186.859 12.0103 186.859Z" fill="url(#paint0_linear_33_239)"/>
<mask id="mask0_33_239" style="mask-type:luminance" maskUnits="userSpaceOnUse" x="7" y="163" width="14" height="28">
<path d="M20.2198 190.43C20.2198 190.43 11.0999 190.43 10.1599 185.56C9.26985 180.96 7.77985 163.17 7.77985 163.17L13.8198 163.77L20.2198 190.43Z" fill="white"/>
</mask>
<g mask="url(#mask0_33_239)">
<path d="M7.76984 190.43H20.2198L20.2198 163.17H7.76984L7.76984 190.43Z" fill="url(#paint1_linear_33_239)"/>
</g>
<mask id="mask1_33_239" style="mask-type:luminance" maskUnits="userSpaceOnUse" x="61" y="163" width="13" height="28">
<path d="M61.3101 190.43C61.3101 190.43 70.4301 190.43 71.3701 185.56C72.2601 180.96 73.7501 163.17 73.7501 163.17L67.7101 163.77L61.3101 190.43Z" fill="white"/>
</mask>
<g mask="url(#mask1_33_239)">
<path d="M61.3101 190.43H73.7601L73.7601 163.17H61.3101L61.3101 190.43Z" fill="url(#paint2_linear_33_239)"/>
</g>
<path style="mix-blend-mode:multiply" d="M67.7101 163.83L73.7501 163.17C73.7501 163.17 73.6101 166.12 73.2101 169.68H67.0901L67.7101 163.83Z" fill="url(#paint3_linear_33_239)"/>
<path style="mix-blend-mode:multiply" d="M13.8206 163.83L7.78058 163.17C7.78058 163.17 7.92056 166.12 8.32056 169.68H14.4406L13.8206 163.83Z" fill="url(#paint4_linear_33_239)"/>
<path d="M69.3898 163.17L62.4297 189.03C61.8097 191.32 59.3898 193.17 57.0198 193.17L24.5098 193.17C22.1398 193.17 19.7198 191.31 19.0998 189.03L12.1398 163.17L69.3798 163.17H69.3898Z" fill="#D26901"/>
<path d="M69.3897 163.67C69.3897 163.67 69.4397 163.671 69.4597 163.681L74.2997 165.2C74.4297 165.24 74.5097 165.38 74.4597 165.51C74.4197 165.64 74.2797 165.72 74.1497 165.67L69.3097 164.15C69.1797 164.11 69.1097 163.97 69.1497 163.84C69.1797 163.73 69.2797 163.66 69.3897 163.66V163.67Z" fill="#2F3332"/>
<path d="M68.8703 163.641C68.9603 163.641 69.0503 163.67 69.1403 163.72L73.2503 166.34C73.4803 166.49 73.5504 166.8 73.4004 167.03C73.2504 167.26 72.9404 167.331 72.7104 167.181L68.6004 164.56C68.3704 164.41 68.3003 164.1 68.4503 163.87C68.5503 163.72 68.7103 163.641 68.8703 163.641Z" fill="#2F3332"/>
<path d="M72.8005 167.279C72.8005 166.629 73.3205 164.939 73.9705 164.939H79.9805C80.6305 164.939 81.1505 166.629 81.1505 167.279H72.8005Z" fill="white"/>
<path d="M80.7902 165.84C80.5802 165.35 80.2902 164.94 79.9802 164.94H73.9702C73.6502 164.94 73.3702 165.35 73.1602 165.84H80.7902Z" fill="#2F3332"/>
<path d="M11.8602 163.67C11.9702 163.67 12.0602 163.74 12.1002 163.85C12.1402 163.98 12.0702 164.12 11.9402 164.16L7.10022 165.68C6.97022 165.72 6.83023 165.65 6.79023 165.52C6.75023 165.39 6.8202 165.25 6.9502 165.21L11.7902 163.69C11.7902 163.69 11.8402 163.68 11.8602 163.68V163.67Z" fill="#2F3332"/>
<path d="M12.3797 163.641C12.5397 163.641 12.7098 163.72 12.7998 163.87C12.9498 164.1 12.8797 164.41 12.6497 164.56L8.53976 167.181C8.30976 167.331 7.99976 167.26 7.84976 167.03C7.69976 166.8 7.76972 166.49 7.99972 166.34L12.1098 163.72C12.1898 163.67 12.2897 163.641 12.3797 163.641Z" fill="#2F3332"/>
<path d="M8.45032 167.279C8.45032 166.629 7.93033 164.939 7.28033 164.939H1.27032C0.620325 164.939 0.100342 166.629 0.100342 167.279H8.45032Z" fill="white"/>
<path d="M0.459961 165.84C0.669961 165.35 0.959959 164.94 1.26996 164.94H7.27997C7.59997 164.94 7.87997 165.35 8.08997 165.84H0.459961Z" fill="url(#paint5_linear_33_239)"/>
<g style="mix-blend-mode:multiply">
<path d="M65.47 164.509H65.49C65.61 164.519 65.6899 164.629 65.6799 164.749C64.1999 178.629 57.28 193.129 57.21 193.269C57.16 193.379 57.03 193.419 56.92 193.369C56.81 193.319 56.77 193.189 56.82 193.079C56.89 192.939 63.78 178.499 65.25 164.699C65.26 164.589 65.35 164.509 65.46 164.509H65.47Z" fill="#C7C2A9"/>
</g>
<path d="M12.0197 163.699C21.5497 164.319 31.9697 165.319 40.7697 165.319C49.5697 165.319 60.2597 163.939 69.5197 163.699C66.8197 164.459 66.6197 168.929 64.1497 169.679C51.5797 171.269 30.3697 171.269 17.7997 169.679C15.3297 168.919 14.7197 164.449 12.0197 163.699Z" fill="url(#paint6_linear_33_239)"/>
<path d="M72.8898 2.56898C72.1098 1.51898 70.8698 0.828979 69.4598 0.828979L12.0598 0.828979C10.8498 0.828979 9.76981 1.32898 8.98981 2.12898C12.9198 4.18898 25.9497 5.70898 41.4297 5.70898C55.7997 5.70898 68.0598 4.40899 72.8898 2.56898Z" fill="#D26901"/>
<path d="M7.77014 163.17C7.77014 164.83 22.5401 165.32 40.7601 165.32C58.9801 165.32 73.7501 164.83 73.7501 163.17L73.7501 5.12032C73.7501 4.16031 73.4201 3.2803 72.8901 2.5603C68.0601 4.4003 55.8001 5.7003 41.4301 5.7003C25.9501 5.7003 12.9202 4.19032 8.99017 2.12032C8.24017 2.89032 7.77014 3.9503 7.77014 5.11031L7.77014 163.17Z" fill="url(#paint7_linear_33_239)"/>
<path style="mix-blend-mode:multiply" d="M40.7601 165.32C58.9801 165.32 73.7501 164.83 73.7501 163.17V161.99C73.7501 163.65 58.9801 164.14 40.7601 164.14C22.5401 164.14 7.77014 163.65 7.77014 161.99V163.17C7.77014 164.83 22.5401 165.32 40.7601 165.32Z" fill="url(#paint8_linear_33_239)"/>
<path d="M35.5301 139.25H47.3501C49.4819 139.25 51.2101 137.522 51.2101 135.39L51.2101 118.39C51.2101 116.258 49.4819 114.53 47.3501 114.53L35.5301 114.53C33.3983 114.53 31.6701 116.258 31.6701 118.39L31.6701 135.39C31.6701 137.522 33.3983 139.25 35.5301 139.25Z" fill="#A55401"/>
<path d="M47.3403 137.961H35.5203C34.1003 137.961 32.9402 136.811 32.9402 135.381L32.9402 118.391C32.9402 116.971 34.0903 115.811 35.5203 115.811L47.3403 115.811C48.7603 115.811 49.9103 116.961 49.9103 118.381L49.9103 135.371C49.9103 136.791 48.7603 137.951 47.3303 137.951L47.3403 137.961Z" fill="url(#paint9_linear_33_239)"/>
<path d="M47.3403 137.959H35.5203C34.1003 137.959 32.9402 136.809 32.9402 135.379L32.9402 118.389C32.9402 116.969 34.0903 115.809 35.5203 115.809L47.3403 115.809C48.7603 115.809 49.9103 116.959 49.9103 118.379L49.9103 135.369C49.9103 136.789 48.7603 137.949 47.3303 137.949L47.3403 137.959Z" fill="white"/>
<path d="M47.3403 51.1699L35.5203 51.1699C33.3903 51.1699 31.6603 49.4399 31.6603 47.3099L31.6603 30.3199C31.6603 28.1899 33.3903 26.4599 35.5203 26.4599L47.3403 26.4599C49.4703 26.4599 51.2003 28.1899 51.2003 30.3199L51.2003 47.3099C51.2003 49.4399 49.4703 51.1699 47.3403 51.1699Z" fill="#A55401"/>
<path d="M47.3403 49.8789L35.5203 49.8789C34.1003 49.8789 32.9402 48.7289 32.9402 47.2989L32.9402 30.3089C32.9402 28.8889 34.0903 27.7289 35.5203 27.7289L47.3403 27.7289C48.7603 27.7289 49.9103 28.8789 49.9103 30.2989L49.9103 47.2889C49.9103 48.7089 48.7603 49.8689 47.3303 49.8689L47.3403 49.8789Z" fill="white"/>
<path d="M54.1798 2.48022C54.3098 3.39022 58.2098 3.50021 62.8798 2.74021L71.4298 1.34022C70.8398 1.03022 70.1698 0.840221 69.4498 0.840221L53.9298 0.840221C53.9298 0.840221 54.0299 1.58022 54.1599 2.48022H54.1798Z" fill="white"/>
<path d="M27.3099 2.48022C27.1799 3.39022 23.2799 3.50021 18.5999 2.74021L10.0499 1.34022C10.6399 1.03022 11.3099 0.840221 12.0299 0.840221L27.5499 0.840221C27.5499 0.840221 27.4499 1.58022 27.3199 2.48022H27.3099Z" fill="url(#paint10_linear_33_239)"/>
<g style="mix-blend-mode:multiply">
<path d="M9.13031 1.86977C13.1003 3.95977 26.3903 5.40976 41.4303 5.40976C55.2703 5.40976 67.8703 4.15976 72.7803 2.28976L72.9904 2.84976C67.9404 4.76976 55.5504 6.00977 41.4203 6.00977C26.2903 6.00977 12.8903 4.52977 8.84033 2.39977L9.1203 1.86977H9.13031Z" fill="#B3B3B3"/>
</g>
<path d="M30.4502 1.5293L51.0802 1.5293V0.8293L30.4502 0.8293V1.5293Z" fill="white"/>
<path d="M43.0399 165.32C43.7899 165.32 44.5299 165.32 45.2599 165.32V164.15H43.0399V165.33V165.32Z" fill="#A03C00"/>
<path d="M39.66 165.32H41.88V164.14H39.66V165.32Z" fill="#A03C00"/>
<path d="M38.4904 165.32V164.14H36.2703V165.31C37.0003 165.31 37.7404 165.31 38.4904 165.31V165.32Z" fill="#A03C00"/>
<path style="mix-blend-mode:screen" d="M40.23 170.81C45.33 170.69 50.43 170.32 55.5 169.68C57.97 168.92 60.44 165.45 62.92 164.7C58.65 164.83 54.23 164.98 49.78 165.11C46.88 167.41 43.6701 169.35 40.2401 170.82L40.23 170.81Z" fill="url(#paint11_linear_33_239)"/>
<path d="M22.9399 193.59C22.9399 193.37 23.09 193.18 23.28 193.18L58.2499 193.18C58.4399 193.18 58.59 193.36 58.59 193.59C58.59 193.81 58.4399 194 58.2499 194L23.28 194C23.09 194 22.9399 193.82 22.9399 193.59Z" fill="url(#paint12_linear_33_239)"/>
<g style="mix-blend-mode:multiply">
<path d="M68.8605 5.86993C68.9805 5.86993 69.0704 5.96992 69.0704 6.07993L69.0704 161.46C69.0704 161.58 68.9705 161.67 68.8605 161.67C68.7505 161.67 68.6505 161.57 68.6505 161.46L68.6505 6.08994C68.6505 5.96994 68.7505 5.87991 68.8605 5.87991V5.86993Z" fill="#C7C2A9"/>
</g>
<g style="mix-blend-mode:multiply">
<path d="M12.6603 5.86993C12.7803 5.86993 12.8702 5.96992 12.8702 6.07993L12.8702 161.46C12.8702 161.58 12.7703 161.67 12.6603 161.67C12.5503 161.67 12.4503 161.57 12.4503 161.46L12.4503 6.08994C12.4503 5.96994 12.5503 5.87991 12.6603 5.87991V5.86993Z" fill="#C7C2A9"/>
</g>
<defs>
<linearGradient id="paint0_linear_33_239" x1="21.6804" y1="93.8894" x2="-0.849659" y2="93.5494" gradientUnits="userSpaceOnUse">
<stop stop-color="#242424"/>
<stop offset="1" stop-color="white"/>
</linearGradient>
<linearGradient id="paint1_linear_33_239" x1="13.9948" y1="190.43" x2="13.9948" y2="163.17" gradientUnits="userSpaceOnUse">
<stop stop-color="white"/>
<stop offset="1" stop-color="white" stop-opacity="0"/>
</linearGradient>
<linearGradient id="paint2_linear_33_239" x1="67.5351" y1="190.43" x2="67.5351" y2="163.17" gradientUnits="userSpaceOnUse">
<stop stop-color="white"/>
<stop offset="1" stop-color="white" stop-opacity="0"/>
</linearGradient>
<linearGradient id="paint3_linear_33_239" x1="70.4301" y1="163.72" x2="70.4301" y2="167.99" gradientUnits="userSpaceOnUse">
<stop stop-color="#CCCCCC"/>
<stop offset="1" stop-color="white"/>
</linearGradient>
<linearGradient id="paint4_linear_33_239" x1="11.1006" y1="163.72" x2="11.1006" y2="167.99" gradientUnits="userSpaceOnUse">
<stop stop-color="#CCCCCC"/>
<stop offset="1" stop-color="white"/>
</linearGradient>
<linearGradient id="paint5_linear_33_239" x1="0.449961" y1="165.39" x2="8.08997" y2="165.39" gradientUnits="userSpaceOnUse">
<stop stop-color="#363B39"/>
<stop offset="1" stop-color="#1B1C1C"/>
</linearGradient>
<linearGradient id="paint6_linear_33_239" x1="40.7597" y1="165.479" x2="40.7597" y2="175.189" gradientUnits="userSpaceOnUse">
<stop stop-color="white"/>
<stop offset="1" stop-color="#1B1C1C"/>
</linearGradient>
<linearGradient id="paint7_linear_33_239" x1="73.7601" y1="83.7303" x2="7.77014" y2="83.7303" gradientUnits="userSpaceOnUse">
<stop stop-color="white"/>
<stop offset="0.06" stop-color="white"/>
<stop offset="0.11" stop-color="#D26901"/>
<stop offset="0.17" stop-color="#D26901"/>
<stop offset="0.28" stop-color="#D26901"/>
<stop offset="0.47" stop-color="#D26901"/>
<stop offset="0.76" stop-color="#D26901"/>
<stop offset="0.88" stop-color="#D26901"/>
<stop offset="0.91" stop-color="#D26901"/>
<stop offset="0.92" stop-color="#D26901"/>
<stop offset="0.96" stop-color="white"/>
<stop offset="1" stop-color="white"/>
</linearGradient>
<linearGradient id="paint8_linear_33_239" x1="40.7601" y1="165.37" x2="40.7601" y2="164.09" gradientUnits="userSpaceOnUse">
<stop stop-color="#CA722A"/>
<stop offset="0.27" stop-color="#DCA272"/>
<stop offset="0.52" stop-color="#EBCAAF"/>
<stop offset="0.73" stop-color="#F5E6DA"/>
<stop offset="0.9" stop-color="#FCF8F5"/>
<stop offset="1" stop-color="white"/>
</linearGradient>
<linearGradient id="paint9_linear_33_239" x1="49.9203" y1="126.891" x2="32.9502" y2="126.891" gradientUnits="userSpaceOnUse">
<stop stop-color="#F29D0A"/>
<stop offset="0.07" stop-color="#F7AF13"/>
<stop offset="0.16" stop-color="#FBBD1B"/>
<stop offset="0.27" stop-color="#FEC51F"/>
<stop offset="0.47" stop-color="#FFC821"/>
<stop offset="0.77" stop-color="#FDCA20"/>
<stop offset="0.9" stop-color="#F8D11D"/>
<stop offset="0.93" stop-color="#F7D41C"/>
<stop offset="1" stop-color="#F0D800"/>
</linearGradient>
<linearGradient id="paint10_linear_33_239" x1="10.0499" y1="2.04022" x2="27.5499" y2="2.04022" gradientUnits="userSpaceOnUse">
<stop stop-color="white"/>
<stop offset="1" stop-color="white"/>
</linearGradient>
<linearGradient id="paint11_linear_33_239" x1="45.71" y1="157.91" x2="52.34" y2="169.04" gradientUnits="userSpaceOnUse">
<stop stop-color="#3B3B3B"/>
<stop offset="1"/>
</linearGradient>
<linearGradient id="paint12_linear_33_239" x1="40.76" y1="193.38" x2="40.76" y2="194.48" gradientUnits="userSpaceOnUse">
<stop stop-color="#363B39"/>
<stop offset="1" stop-color="#1B1C1C"/>
</linearGradient>
</defs>
</svg>
