<svg width="73" height="99" viewBox="0 0 73 99" fill="none" xmlns="http://www.w3.org/2000/svg">
<path d="M36.4999 0C26.8234 0.0125182 17.5469 3.84396 10.7045 10.6541C3.86221 17.4642 0.0126621 26.6972 8.47364e-05 36.3281C-0.0140183 42.8013 1.73254 49.1576 5.0545 54.7226L33.6447 97.4639C33.9532 97.9375 34.3763 98.3265 34.8752 98.5949C35.3741 98.8633 35.9328 99.0026 36.4999 99C37.0662 98.9981 37.6232 98.8568 38.1214 98.5889C38.6196 98.3208 39.0435 97.9344 39.3553 97.4639L65.6305 58.2172L68.0227 54.569C71.3038 49.0466 73.0235 42.7439 72.9998 36.3281C72.9872 26.6972 69.1376 17.4643 62.2953 10.6541C55.453 3.84398 46.1764 0.0125385 36.4999 0ZM36.4999 49.5C33.8825 49.5 31.3238 48.7275 29.1475 47.2801C26.9711 45.8328 25.2749 43.7756 24.2732 41.3688C23.2716 38.9619 23.0095 36.3135 23.5201 33.7584C24.0308 31.2034 25.2912 28.8564 27.142 27.0143C28.9928 25.1721 31.3509 23.9176 33.9181 23.4094C36.4852 22.9012 39.1462 23.162 41.5644 24.159C43.9826 25.1559 46.0495 26.8442 47.5037 29.0103C48.9578 31.1764 49.734 33.723 49.734 36.3281C49.7344 38.058 49.3924 39.771 48.7275 41.3693C48.0625 42.9675 47.0877 44.4198 45.8588 45.643C44.6298 46.8662 43.1707 47.8364 41.5649 48.4982C39.9591 49.16 38.238 49.5004 36.4999 49.5Z" fill="#50A028"/>
</svg>
