<svg width="82" height="194" viewBox="0 0 82 194" fill="none" xmlns="http://www.w3.org/2000/svg">
<path style="mix-blend-mode:multiply" d="M11.9601 186.859H23.5302C29.9702 186.859 35.1902 183.389 35.1902 176.949L35.1902 12.4494C35.1902 6.00937 29.9702 0.789383 23.5302 0.789383L20.4501 1.17938C14.0101 1.17938 0.300171 0.789368 0.300171 12.4494L0.300171 176.949C0.300171 183.389 0.300144 186.859 11.9601 186.859Z" fill="url(#paint0_linear_33_190)"/>
<mask id="mask0_33_190" style="mask-type:luminance" maskUnits="userSpaceOnUse" x="7" y="163" width="14" height="28">
<path d="M20.1697 190.43C20.1697 190.43 11.0497 190.43 10.1097 185.56C9.21968 180.96 7.72968 163.17 7.72968 163.17L13.7697 163.77L20.1697 190.43Z" fill="white"/>
</mask>
<g mask="url(#mask0_33_190)">
<path d="M7.71967 190.43H20.1697V163.17H7.71967L7.71967 190.43Z" fill="url(#paint1_linear_33_190)"/>
</g>
<mask id="mask1_33_190" style="mask-type:luminance" maskUnits="userSpaceOnUse" x="61" y="163" width="13" height="28">
<path d="M61.2599 190.43C61.2599 190.43 70.3799 190.43 71.3199 185.56C72.2099 180.96 73.7 163.17 73.7 163.17L67.66 163.77L61.2599 190.43Z" fill="white"/>
</mask>
<g mask="url(#mask1_33_190)">
<path d="M61.2599 190.43H73.71V163.17H61.2599V190.43Z" fill="url(#paint2_linear_33_190)"/>
</g>
<path style="mix-blend-mode:multiply" d="M67.66 163.83L73.7 163.17C73.7 163.17 73.56 166.12 73.16 169.68H67.04L67.66 163.83Z" fill="url(#paint3_linear_33_190)"/>
<path style="mix-blend-mode:multiply" d="M13.7704 163.83L7.73041 163.17C7.73041 163.17 7.87039 166.12 8.27039 169.68H14.3904L13.7704 163.83Z" fill="url(#paint4_linear_33_190)"/>
<path d="M69.3396 163.17L62.3796 189.03C61.7596 191.32 59.3396 193.17 56.9696 193.17H24.4596C22.0896 193.17 19.6696 191.31 19.0496 189.03L12.0896 163.17H69.3296H69.3396Z" fill="#AB322C"/>
<path d="M69.3395 163.67C69.3395 163.67 69.3895 163.671 69.4095 163.681L74.2495 165.2C74.3795 165.24 74.4595 165.38 74.4095 165.51C74.3695 165.64 74.2295 165.72 74.0995 165.67L69.2595 164.15C69.1295 164.11 69.0595 163.97 69.0995 163.84C69.1295 163.73 69.2295 163.66 69.3395 163.66V163.67Z" fill="#2F3332"/>
<path d="M68.8202 163.641C68.9102 163.641 69.0002 163.67 69.0902 163.72L73.2002 166.34C73.4302 166.49 73.5002 166.8 73.3502 167.03C73.2002 167.26 72.8902 167.331 72.6602 167.181L68.5502 164.56C68.3202 164.41 68.2502 164.1 68.4002 163.87C68.5002 163.72 68.6602 163.641 68.8202 163.641Z" fill="#2F3332"/>
<path d="M72.7504 167.279C72.7504 166.629 73.2703 164.939 73.9203 164.939H79.9304C80.5804 164.939 81.1003 166.629 81.1003 167.279H72.7504Z" fill="white"/>
<path d="M80.74 165.84C80.53 165.35 80.24 164.94 79.93 164.94H73.92C73.6 164.94 73.32 165.35 73.11 165.84H80.74Z" fill="#2F3332"/>
<path d="M11.8101 163.67C11.9201 163.67 12.0101 163.74 12.0501 163.85C12.0901 163.98 12.02 164.12 11.89 164.16L7.05005 165.68C6.92005 165.72 6.78006 165.65 6.74006 165.52C6.70006 165.39 6.77003 165.25 6.90003 165.21L11.7401 163.69C11.7401 163.69 11.7901 163.68 11.8101 163.68V163.67Z" fill="#2F3332"/>
<path d="M12.3296 163.641C12.4896 163.641 12.6596 163.72 12.7496 163.87C12.8996 164.1 12.8296 164.41 12.5996 164.56L8.48959 167.181C8.25959 167.331 7.94959 167.26 7.79959 167.03C7.64959 166.8 7.71955 166.49 7.94955 166.34L12.0596 163.72C12.1396 163.67 12.2396 163.641 12.3296 163.641Z" fill="#2F3332"/>
<path d="M8.40015 167.279C8.40015 166.629 7.88016 164.939 7.23016 164.939H1.22015C0.570154 164.939 0.0501709 166.629 0.0501709 167.279H8.40015Z" fill="white"/>
<path d="M0.40979 165.84C0.61979 165.35 0.909788 164.94 1.21979 164.94H7.2298C7.5498 164.94 7.82979 165.35 8.03979 165.84H0.40979Z" fill="url(#paint5_linear_33_190)"/>
<g style="mix-blend-mode:multiply">
<path d="M65.4198 164.509H65.4398C65.5598 164.519 65.6398 164.629 65.6298 164.749C64.1498 178.629 57.2298 193.129 57.1598 193.269C57.1098 193.379 56.9798 193.419 56.8698 193.369C56.7598 193.319 56.7198 193.189 56.7698 193.079C56.8398 192.939 63.7298 178.499 65.1998 164.699C65.2098 164.589 65.2998 164.509 65.4098 164.509H65.4198Z" fill="#C7C2A9"/>
</g>
<path d="M11.9695 163.699C21.4995 164.319 31.9195 165.319 40.7195 165.319C49.5195 165.319 60.2095 163.939 69.4695 163.699C66.7695 164.459 66.5695 168.929 64.0995 169.679C51.5295 171.269 30.3195 171.269 17.7495 169.679C15.2795 168.919 14.6695 164.449 11.9695 163.699Z" fill="url(#paint6_linear_33_190)"/>
<path d="M72.8396 2.56898C72.0596 1.51898 70.8196 0.828979 69.4096 0.828979L12.0096 0.828979C10.7996 0.828979 9.71964 1.32898 8.93964 2.12898C12.8696 4.18898 25.8996 5.70898 41.3796 5.70898C55.7496 5.70898 68.0096 4.40899 72.8396 2.56898Z" fill="#AE2D2B"/>
<path d="M7.71997 163.17C7.71997 164.83 22.49 165.32 40.71 165.32C58.93 165.32 73.7 164.83 73.7 163.17L73.7 5.12032C73.7 4.16031 73.37 3.2803 72.84 2.5603C68.01 4.4003 55.7499 5.7003 41.3799 5.7003C25.8999 5.7003 12.87 4.19032 8.94 2.12032C8.19 2.89032 7.71997 3.9503 7.71997 5.11031L7.71997 163.17Z" fill="url(#paint7_linear_33_190)"/>
<path style="mix-blend-mode:multiply" d="M40.71 165.32C58.93 165.32 73.7 164.83 73.7 163.17V161.99C73.7 163.65 58.93 164.14 40.71 164.14C22.49 164.14 7.71997 163.65 7.71997 161.99V163.17C7.71997 164.83 22.49 165.32 40.71 165.32Z" fill="url(#paint8_linear_33_190)"/>
<path d="M35.4799 139.25H47.2999C49.4317 139.25 51.1599 137.522 51.1599 135.39V118.39C51.1599 116.258 49.4317 114.53 47.2999 114.53H35.4799C33.3481 114.53 31.6199 116.258 31.6199 118.39V135.39C31.6199 137.522 33.3481 139.25 35.4799 139.25Z" fill="#DE6E69"/>
<path d="M47.2901 137.961H35.4701C34.0501 137.961 32.8901 136.811 32.8901 135.381V118.391C32.8901 116.971 34.0401 115.811 35.4701 115.811H47.2901C48.7101 115.811 49.8601 116.961 49.8601 118.381V135.371C49.8601 136.791 48.7101 137.951 47.2801 137.951L47.2901 137.961Z" fill="url(#paint9_linear_33_190)"/>
<path d="M47.2901 137.959H35.4701C34.0501 137.959 32.8901 136.809 32.8901 135.379V118.389C32.8901 116.969 34.0401 115.809 35.4701 115.809H47.2901C48.7101 115.809 49.8601 116.959 49.8601 118.379V135.369C49.8601 136.789 48.7101 137.949 47.2801 137.949L47.2901 137.959Z" fill="white"/>
<path d="M47.2902 51.1699H35.4702C33.3402 51.1699 31.6102 49.4399 31.6102 47.3099V30.3199C31.6102 28.1899 33.3402 26.4599 35.4702 26.4599H47.2902C49.4202 26.4599 51.1501 28.1899 51.1501 30.3199V47.3099C51.1501 49.4399 49.4202 51.1699 47.2902 51.1699Z" fill="#DE6E69"/>
<path d="M47.2901 49.8789H35.4701C34.0501 49.8789 32.8901 48.7289 32.8901 47.2989V30.3089C32.8901 28.8889 34.0401 27.7289 35.4701 27.7289H47.2901C48.7101 27.7289 49.8601 28.8789 49.8601 30.2989V47.2889C49.8601 48.7089 48.7101 49.8689 47.2801 49.8689L47.2901 49.8789Z" fill="white"/>
<path d="M54.1296 2.48022C54.2596 3.39022 58.1597 3.50021 62.8297 2.74021L71.3796 1.34022C70.7896 1.03022 70.1197 0.840221 69.3997 0.840221L53.8796 0.840221C53.8796 0.840221 53.9797 1.58022 54.1097 2.48022H54.1296Z" fill="white"/>
<path d="M27.2597 2.48022C27.1297 3.39022 23.2297 3.50021 18.5497 2.74021L9.99976 1.34022C10.5898 1.03022 11.2597 0.840221 11.9797 0.840221L27.4998 0.840221C27.4998 0.840221 27.3997 1.58022 27.2697 2.48022H27.2597Z" fill="url(#paint10_linear_33_190)"/>
<g style="mix-blend-mode:multiply">
<path d="M9.08014 1.86977C13.0501 3.95977 26.3401 5.40976 41.3801 5.40976C55.2201 5.40976 67.8202 4.15976 72.7302 2.28976L72.9402 2.84976C67.8902 4.76976 55.5002 6.00977 41.3702 6.00977C26.2402 6.00977 12.8402 4.52977 8.79016 2.39977L9.07013 1.86977H9.08014Z" fill="#B3B3B3"/>
</g>
<path d="M30.4 1.5293L51.03 1.5293V0.8293L30.4 0.8293V1.5293Z" fill="white"/>
<path d="M42.9897 165.32C43.7397 165.32 44.4797 165.32 45.2097 165.32V164.15H42.9897V165.33V165.32Z" fill="white"/>
<path d="M39.6099 165.32H41.8298V164.14H39.6099V165.32Z" fill="white"/>
<path d="M38.4402 165.32V164.14H36.2202V165.31C36.9502 165.31 37.6902 165.31 38.4402 165.31V165.32Z" fill="white"/>
<path style="mix-blend-mode:screen" d="M40.1799 170.81C45.2799 170.69 50.3798 170.32 55.4498 169.68C57.9198 168.92 60.3899 165.45 62.8699 164.7C58.5999 164.83 54.1799 164.98 49.7299 165.11C46.8299 167.41 43.6199 169.35 40.1899 170.82L40.1799 170.81Z" fill="url(#paint11_linear_33_190)"/>
<path d="M22.8898 193.59C22.8898 193.37 23.0398 193.18 23.2298 193.18H58.1998C58.3898 193.18 58.5398 193.36 58.5398 193.59C58.5398 193.81 58.3898 194 58.1998 194H23.2298C23.0398 194 22.8898 193.82 22.8898 193.59Z" fill="url(#paint12_linear_33_190)"/>
<g style="mix-blend-mode:multiply">
<path d="M68.8103 5.86993C68.9303 5.86993 69.0203 5.96992 69.0203 6.07993L69.0203 161.46C69.0203 161.58 68.9203 161.67 68.8103 161.67C68.7003 161.67 68.6003 161.57 68.6003 161.46L68.6003 6.08994C68.6003 5.96994 68.7003 5.87991 68.8103 5.87991V5.86993Z" fill="#C7C2A9"/>
</g>
<g style="mix-blend-mode:multiply">
<path d="M12.6101 5.86993C12.7301 5.86993 12.8201 5.96992 12.8201 6.07993L12.8201 161.46C12.8201 161.58 12.7201 161.67 12.6101 161.67C12.5001 161.67 12.4001 161.57 12.4001 161.46L12.4001 6.08994C12.4001 5.96994 12.5001 5.87991 12.6101 5.87991V5.86993Z" fill="#C7C2A9"/>
</g>
<defs>
<linearGradient id="paint0_linear_33_190" x1="21.6302" y1="93.8894" x2="-0.89983" y2="93.5494" gradientUnits="userSpaceOnUse">
<stop stop-color="#242424"/>
<stop offset="1" stop-color="white"/>
</linearGradient>
<linearGradient id="paint1_linear_33_190" x1="13.9447" y1="190.43" x2="13.9447" y2="163.17" gradientUnits="userSpaceOnUse">
<stop stop-color="white"/>
<stop offset="1" stop-color="white" stop-opacity="0"/>
</linearGradient>
<linearGradient id="paint2_linear_33_190" x1="67.485" y1="190.43" x2="67.485" y2="163.17" gradientUnits="userSpaceOnUse">
<stop stop-color="white"/>
<stop offset="1" stop-color="white" stop-opacity="0"/>
</linearGradient>
<linearGradient id="paint3_linear_33_190" x1="70.38" y1="163.72" x2="70.38" y2="167.99" gradientUnits="userSpaceOnUse">
<stop stop-color="#CCCCCC"/>
<stop offset="1" stop-color="white"/>
</linearGradient>
<linearGradient id="paint4_linear_33_190" x1="11.0504" y1="163.72" x2="11.0504" y2="167.99" gradientUnits="userSpaceOnUse">
<stop stop-color="#CCCCCC"/>
<stop offset="1" stop-color="white"/>
</linearGradient>
<linearGradient id="paint5_linear_33_190" x1="0.39979" y1="165.39" x2="8.03979" y2="165.39" gradientUnits="userSpaceOnUse">
<stop stop-color="#363B39"/>
<stop offset="1" stop-color="#1B1C1C"/>
</linearGradient>
<linearGradient id="paint6_linear_33_190" x1="40.7095" y1="165.479" x2="40.7095" y2="175.189" gradientUnits="userSpaceOnUse">
<stop stop-color="white"/>
<stop offset="1" stop-color="#1B1C1C"/>
</linearGradient>
<linearGradient id="paint7_linear_33_190" x1="73.71" y1="83.7303" x2="7.71997" y2="83.7303" gradientUnits="userSpaceOnUse">
<stop stop-color="white"/>
<stop offset="0.06" stop-color="white"/>
<stop offset="0.11" stop-color="#AC332D"/>
<stop offset="0.17" stop-color="#AB322C"/>
<stop offset="0.28" stop-color="#AC322C"/>
<stop offset="0.47" stop-color="#AE2B2A"/>
<stop offset="0.76" stop-color="#AB322C"/>
<stop offset="0.88" stop-color="#AC312C"/>
<stop offset="0.91" stop-color="#AC312C"/>
<stop offset="0.92" stop-color="#AC322C"/>
<stop offset="0.96" stop-color="white"/>
<stop offset="1" stop-color="white"/>
</linearGradient>
<linearGradient id="paint8_linear_33_190" x1="40.71" y1="165.37" x2="40.71" y2="164.09" gradientUnits="userSpaceOnUse">
<stop stop-color="#CA722A"/>
<stop offset="0.27" stop-color="#DCA272"/>
<stop offset="0.52" stop-color="#EBCAAF"/>
<stop offset="0.73" stop-color="#F5E6DA"/>
<stop offset="0.9" stop-color="#FCF8F5"/>
<stop offset="1" stop-color="white"/>
</linearGradient>
<linearGradient id="paint9_linear_33_190" x1="49.8701" y1="126.891" x2="32.9001" y2="126.891" gradientUnits="userSpaceOnUse">
<stop stop-color="#F29D0A"/>
<stop offset="0.07" stop-color="#F7AF13"/>
<stop offset="0.16" stop-color="#FBBD1B"/>
<stop offset="0.27" stop-color="#FEC51F"/>
<stop offset="0.47" stop-color="#FFC821"/>
<stop offset="0.77" stop-color="#FDCA20"/>
<stop offset="0.9" stop-color="#F8D11D"/>
<stop offset="0.93" stop-color="#F7D41C"/>
<stop offset="1" stop-color="#F0D800"/>
</linearGradient>
<linearGradient id="paint10_linear_33_190" x1="9.99976" y1="2.04022" x2="27.4998" y2="2.04022" gradientUnits="userSpaceOnUse">
<stop stop-color="white"/>
<stop offset="1" stop-color="white"/>
</linearGradient>
<linearGradient id="paint11_linear_33_190" x1="45.6599" y1="157.91" x2="52.2899" y2="169.04" gradientUnits="userSpaceOnUse">
<stop stop-color="#3B3B3B"/>
<stop offset="1"/>
</linearGradient>
<linearGradient id="paint12_linear_33_190" x1="40.7098" y1="193.38" x2="40.7098" y2="194.48" gradientUnits="userSpaceOnUse">
<stop stop-color="#363B39"/>
<stop offset="1" stop-color="#1B1C1C"/>
</linearGradient>
</defs>
</svg>
