<svg width="198" height="195" viewBox="0 0 198 195" fill="none" xmlns="http://www.w3.org/2000/svg">
<mask id="mask0_839_757" style="mask-type:luminance" maskUnits="userSpaceOnUse" x="165" y="46" width="21" height="30">
<path d="M180.906 46.9189C180.906 46.9189 187.29 53.5685 184.397 57.6624C181.666 61.531 169.738 75.0689 169.738 75.0689L165.948 70.2451L180.906 46.9189Z" fill="white"/>
</mask>
<g mask="url(#mask0_839_757)">
<path d="M189.62 55.9964L180.906 46.9189L161.031 65.9987L169.745 75.0762L189.62 55.9964Z" fill="url(#paint0_linear_839_757)"/>
</g>
<mask id="mask1_839_757" style="mask-type:luminance" maskUnits="userSpaceOnUse" x="123" y="12" width="30" height="19">
<path d="M152.152 16.9569C152.152 16.9569 145.769 10.3074 141.56 13.0306C137.583 15.6013 123.57 26.9665 123.57 26.9665L128.235 30.9504L152.152 16.9569Z" fill="white"/>
</mask>
<g mask="url(#mask1_839_757)">
<path d="M152.144 16.9564L143.43 7.87891L123.554 26.9587L132.268 36.0362L152.144 16.9564Z" fill="url(#paint1_linear_839_757)"/>
</g>
<path style="mix-blend-mode:multiply" d="M128.282 30.9105L123.574 26.9686C123.574 26.9686 125.823 25.0059 128.698 22.8058L132.982 27.268L128.282 30.9105Z" fill="url(#paint2_linear_839_757)"/>
<path style="mix-blend-mode:multiply" d="M166.005 70.2018L169.751 75.0676C169.751 75.0676 171.804 72.9008 174.119 70.1174L169.836 65.6553L166.005 70.2018Z" fill="url(#paint3_linear_839_757)"/>
<path d="M126.619 30.147L150.345 17.1217C152.449 15.971 155.491 16.4405 157.15 18.1685L179.905 41.872C181.563 43.6 181.901 46.6663 180.673 48.7142L166.689 71.8887L126.626 30.1543L126.619 30.147Z" fill="#D26901"/>
<path d="M126.981 29.7976C126.981 29.7976 126.946 29.7612 126.939 29.7396L124.659 25.1468C124.598 25.024 124.644 24.8677 124.774 24.8132C124.896 24.7514 125.053 24.7974 125.107 24.9272L127.387 29.52C127.448 29.6428 127.395 29.7918 127.272 29.8536C127.171 29.9088 127.05 29.8848 126.973 29.8046L126.981 29.7976Z" fill="#2F3332"/>
<path d="M127.329 30.1986C127.266 30.1329 127.225 30.0463 127.199 29.9457L126.232 25.1153C126.181 24.8426 126.358 24.5746 126.631 24.5229C126.903 24.4713 127.171 24.6484 127.223 24.921L128.189 29.7515C128.241 30.0242 128.064 30.2922 127.791 30.3438C127.612 30.3759 127.441 30.3152 127.329 30.1986Z" fill="#2F3332"/>
<path d="M127.235 24.7844C126.761 25.2393 125.165 26.0431 124.71 25.5691L120.503 21.1872C120.048 20.7132 120.917 19.1512 121.391 18.6963L127.235 24.7844Z" fill="white"/>
<path d="M120.594 19.9678C120.383 20.4638 120.288 20.9623 120.504 21.1883L124.711 25.5703C124.935 25.8036 125.43 25.7208 125.934 25.5309L120.594 19.9678Z" fill="#2F3332"/>
<path d="M167.249 71.7434C167.172 71.6632 167.16 71.5486 167.212 71.4424C167.279 71.3223 167.43 71.2753 167.55 71.3421L172.046 73.8071C172.166 73.8739 172.213 74.025 172.146 74.1451C172.08 74.2653 171.929 74.3123 171.808 74.2455L167.313 71.7804C167.313 71.7804 167.27 71.751 167.256 71.7364L167.249 71.7434Z" fill="#2F3332"/>
<path d="M166.867 71.3855C166.755 71.2689 166.694 71.0889 166.741 70.9183C166.803 70.6479 167.078 70.482 167.349 70.5447L172.136 71.7076C172.406 71.7703 172.572 72.0453 172.509 72.3157C172.446 72.586 172.171 72.752 171.901 72.6893L167.114 71.5264C167.022 71.503 166.93 71.4511 166.867 71.3855Z" fill="#2F3332"/>
<path d="M172.273 71.7031C171.8 72.1581 170.931 73.7201 171.386 74.194L175.593 78.576C176.048 79.0499 177.644 78.2461 178.118 77.7912L172.273 71.7031Z" fill="white"/>
<path d="M176.809 78.5368C176.305 78.7266 175.803 78.8021 175.586 78.5761L171.379 74.1941C171.156 73.9608 171.258 73.4697 171.469 72.9736L176.809 78.5368Z" fill="url(#paint4_linear_839_757)"/>
<g style="mix-blend-mode:multiply">
<path d="M130.34 32.0684L130.326 32.0538C130.249 31.9594 130.273 31.8241 130.368 31.7474C141.524 23.1116 156.939 18.0082 157.09 17.9613C157.206 17.9207 157.326 17.9875 157.366 18.1027C157.407 18.2179 157.34 18.3381 157.225 18.3786C157.074 18.4256 141.723 23.5088 130.632 32.0959C130.545 32.1656 130.424 32.1559 130.347 32.0757L130.34 32.0684Z" fill="#C7C2A9"/>
</g>
<path d="M167.156 71.6073C160.938 64.2249 154.374 55.9276 148.215 49.5114C142.056 43.0952 133.567 36.2669 126.911 29.6833C129.355 31.1199 132.754 28.1371 135.03 29.4131C144.987 37.4652 159.832 52.9296 167.471 63.2075C168.646 65.5403 165.813 69.1137 167.156 71.6073Z" fill="url(#paint5_linear_839_757)"/>
<path d="M7.07777 140.002C6.85814 141.306 7.22294 142.693 8.20983 143.721L48.3852 185.572C49.2321 186.454 50.3525 186.892 51.4817 186.901C50.233 182.593 42.2214 172.029 31.3866 160.743C21.3288 150.265 11.7999 142.236 7.07777 140.002Z" fill="#D26901"/>
<path d="M169.738 75.0756C170.948 73.9137 160.968 62.8017 148.215 49.5173C135.463 36.2329 124.768 25.8068 123.557 26.9687L8.32109 137.591C7.62114 138.263 7.21047 139.119 7.05647 140.01C11.7786 142.243 21.3075 150.272 31.3653 160.75C42.2001 172.036 50.219 182.594 51.4604 186.908C52.5468 186.916 53.6486 186.517 54.4944 185.705L169.738 75.0756Z" fill="url(#paint6_linear_839_757)"/>
<path style="mix-blend-mode:multiply" d="M148.215 49.5173C135.463 36.2329 124.768 25.8068 123.557 26.9687L122.697 27.7946C123.907 26.6327 134.602 37.0588 147.355 50.3432C160.107 63.6276 170.088 74.7396 168.878 75.9015L169.738 75.0756C170.948 73.9137 160.968 62.8017 148.215 49.5173Z" fill="url(#paint7_linear_839_757)"/>
<path d="M132.881 71.578L124.608 62.9599C123.116 61.4055 120.646 61.3551 119.092 62.8472L106.697 74.7458C105.143 76.2379 105.092 78.7075 106.584 80.2619L114.857 88.88C116.349 90.4343 118.819 90.4848 120.373 88.9927L132.768 77.094C134.323 75.6019 134.373 73.1323 132.881 71.578Z" fill="#A55401"/>
<path d="M123.674 63.8699L131.947 72.488C132.941 73.5234 132.914 75.1741 131.872 76.175L119.484 88.0666C118.449 89.0605 116.798 89.0339 115.797 87.9912L107.524 79.3731C106.53 78.3378 106.564 76.6944 107.599 75.7005L119.987 63.8089C121.022 62.815 122.673 62.8416 123.674 63.8842L123.674 63.8699Z" fill="url(#paint8_linear_839_757)"/>
<path d="M123.674 63.8699L131.947 72.488C132.941 73.5234 132.914 75.1741 131.872 76.175L119.484 88.0666C118.449 89.0605 116.798 89.0339 115.797 87.9912L107.524 79.3731C106.53 78.3378 106.564 76.6944 107.599 75.7005L119.987 63.8089C121.022 62.815 122.673 62.8416 123.674 63.8842L123.674 63.8699Z" fill="white"/>
<path d="M60.397 124.616L68.67 133.234C70.1609 134.787 70.1103 137.259 68.5573 138.75L56.1697 150.642C54.6167 152.133 52.1445 152.082 50.6537 150.529L42.3806 141.911C40.8898 140.358 40.9403 137.886 42.4933 136.395L54.8809 124.503C56.4339 123.013 58.9062 123.063 60.397 124.616Z" fill="#A55401"/>
<path d="M59.4472 125.52L67.7203 134.138C68.7142 135.174 68.6876 136.824 67.645 137.825L55.2573 149.717C54.222 150.711 52.5713 150.684 51.5704 149.642L43.2974 141.024C42.3035 139.988 42.3371 138.345 43.3724 137.351L55.76 125.459C56.7954 124.465 58.4461 124.492 59.447 125.535L59.4472 125.52Z" fill="white"/>
<path d="M20.1025 153.708C20.6751 152.976 18.0256 150.055 14.2028 147.182L7.19776 141.928C7.38469 142.575 7.71509 143.197 8.21903 143.722L19.0818 155.038C19.0818 155.038 19.5513 154.447 20.1165 153.722L20.1025 153.708Z" fill="white"/>
<path d="M38.9157 173.3C39.6702 172.757 42.4801 175.524 45.2015 179.468L50.1651 186.682C49.5261 186.469 48.9186 186.113 48.4147 185.588L37.552 174.272C37.552 174.272 38.1615 173.827 38.9087 173.292L38.9157 173.3Z" fill="url(#paint9_linear_839_757)"/>
<g style="mix-blend-mode:multiply">
<path d="M51.1861 186.98C49.9313 182.623 41.6866 171.918 31.1598 160.952C21.4729 150.861 11.7426 142.549 6.94251 140.278L7.20381 139.733C12.1383 142.071 21.7144 150.237 31.6042 160.54C42.194 171.571 50.4939 182.377 51.7755 186.821L51.1931 186.988L51.1861 186.98Z" fill="#B3B3B3"/>
</g>
<path d="M36.0174 171.675L21.5781 156.634L21.0677 157.124L35.5071 172.165L36.0174 171.675Z" fill="white"/>
<path d="M146.625 47.8541C146.1 47.3073 145.582 46.7678 145.071 46.2355L144.218 47.0544L145.772 48.673L146.632 47.8471L146.625 47.8541Z" fill="#A03C00"/>
<path d="M148.991 50.3198L147.438 48.7012L146.577 49.5271L148.131 51.1457L148.991 50.3198Z" fill="#A03C00"/>
<path d="M149.82 51.1729L148.96 51.9988L150.514 53.6174L151.367 52.7985C150.856 52.2663 150.338 51.7267 149.813 51.1799L149.82 51.1729Z" fill="#A03C00"/>
<path style="mix-blend-mode:screen" d="M152.593 46.0613C148.936 42.4268 145.096 38.9674 141.081 35.7187C138.798 34.4497 134.539 35.0775 132.257 33.7942C135.34 36.8166 138.543 39.9343 141.752 43.0878C145.459 43.5925 149.12 44.575 152.593 46.047L152.593 46.0613Z" fill="url(#paint10_linear_839_757)"/>
<path d="M181.309 42.7242C181.149 42.8782 180.905 42.9018 180.773 42.7633L156.296 17.2662C156.163 17.1277 156.19 16.8923 156.357 16.7313C156.518 16.5773 156.761 16.5537 156.894 16.6923L181.37 42.1893C181.503 42.3279 181.477 42.5632 181.309 42.7242Z" fill="url(#paint11_linear_839_757)"/>
<g style="mix-blend-mode:multiply">
<path d="M12.3011 140.633C12.2172 140.546 12.2271 140.41 12.3073 140.333L125.597 31.5796C125.684 31.4956 125.82 31.5055 125.897 31.5857C125.974 31.6659 125.971 31.8088 125.891 31.8858L12.6086 140.632C12.5211 140.716 12.3854 140.706 12.3084 140.626L12.3011 140.633Z" fill="#C7C2A9"/>
</g>
<g style="mix-blend-mode:multiply">
<path d="M51.6371 181.609C51.5531 181.521 51.563 181.386 51.6432 181.309L164.933 72.5552C165.02 72.4712 165.156 72.4811 165.233 72.5613C165.31 72.6415 165.307 72.7844 165.227 72.8614L51.9445 181.608C51.857 181.692 51.7214 181.682 51.6444 181.602L51.6371 181.609Z" fill="#C7C2A9"/>
</g>
<defs>
<linearGradient id="paint0_linear_839_757" x1="185.263" y1="51.4577" x2="165.388" y2="70.5375" gradientUnits="userSpaceOnUse">
<stop stop-color="white"/>
<stop offset="1" stop-color="white" stop-opacity="0"/>
</linearGradient>
<linearGradient id="paint1_linear_839_757" x1="147.787" y1="12.4176" x2="127.911" y2="31.4974" gradientUnits="userSpaceOnUse">
<stop stop-color="white"/>
<stop offset="1" stop-color="white" stop-opacity="0"/>
</linearGradient>
<linearGradient id="paint2_linear_839_757" x1="126.299" y1="29.0043" x2="129.412" y2="26.0156" gradientUnits="userSpaceOnUse">
<stop stop-color="#CCCCCC"/>
<stop offset="1" stop-color="white"/>
</linearGradient>
<linearGradient id="paint3_linear_839_757" x1="167.828" y1="72.262" x2="170.941" y2="69.2734" gradientUnits="userSpaceOnUse">
<stop stop-color="#CCCCCC"/>
<stop offset="1" stop-color="white"/>
</linearGradient>
<linearGradient id="paint4_linear_839_757" x1="176.488" y1="78.859" x2="171.141" y2="73.2886" gradientUnits="userSpaceOnUse">
<stop stop-color="#363B39"/>
<stop offset="1" stop-color="#1B1C1C"/>
</linearGradient>
<linearGradient id="paint5_linear_839_757" x1="148.339" y1="49.4067" x2="155.418" y2="42.6105" gradientUnits="userSpaceOnUse">
<stop stop-color="white"/>
<stop offset="1" stop-color="#1B1C1C"/>
</linearGradient>
<linearGradient id="paint6_linear_839_757" x1="65.6297" y1="82.5629" x2="111.817" y2="130.677" gradientUnits="userSpaceOnUse">
<stop stop-color="white"/>
<stop offset="0.06" stop-color="white"/>
<stop offset="0.11" stop-color="#D26901"/>
<stop offset="0.17" stop-color="#D26901"/>
<stop offset="0.28" stop-color="#D26901"/>
<stop offset="0.47" stop-color="#D26901"/>
<stop offset="0.76" stop-color="#D26901"/>
<stop offset="0.88" stop-color="#D26901"/>
<stop offset="0.91" stop-color="#D26901"/>
<stop offset="0.92" stop-color="#D26901"/>
<stop offset="0.96" stop-color="white"/>
<stop offset="1" stop-color="white"/>
</linearGradient>
<linearGradient id="paint7_linear_839_757" x1="148.252" y1="49.4823" x2="147.318" y2="50.3782" gradientUnits="userSpaceOnUse">
<stop stop-color="#CA722A"/>
<stop offset="0.27" stop-color="#DCA272"/>
<stop offset="0.52" stop-color="#EBCAAF"/>
<stop offset="0.73" stop-color="#F5E6DA"/>
<stop offset="0.9" stop-color="#FCF8F5"/>
<stop offset="1" stop-color="white"/>
</linearGradient>
<linearGradient id="paint8_linear_839_757" x1="113.797" y1="69.7369" x2="125.674" y2="82.11" gradientUnits="userSpaceOnUse">
<stop stop-color="#F29D0A"/>
<stop offset="0.07" stop-color="#F7AF13"/>
<stop offset="0.16" stop-color="#FBBD1B"/>
<stop offset="0.27" stop-color="#FEC51F"/>
<stop offset="0.47" stop-color="#FFC821"/>
<stop offset="0.77" stop-color="#FDCA20"/>
<stop offset="0.9" stop-color="#F8D11D"/>
<stop offset="0.93" stop-color="#F7D41C"/>
<stop offset="1" stop-color="#F0D800"/>
</linearGradient>
<linearGradient id="paint9_linear_839_757" x1="50.6755" y1="186.192" x2="38.4269" y2="173.432" gradientUnits="userSpaceOnUse">
<stop stop-color="white"/>
<stop offset="1" stop-color="white"/>
</linearGradient>
<linearGradient id="paint10_linear_839_757" x1="139.351" y1="51.0947" x2="142.826" y2="38.4706" gradientUnits="userSpaceOnUse">
<stop stop-color="#3B3B3B"/>
<stop offset="1"/>
</linearGradient>
<linearGradient id="paint11_linear_839_757" x1="168.684" y1="29.8784" x2="169.486" y2="29.1085" gradientUnits="userSpaceOnUse">
<stop stop-color="#363B39"/>
<stop offset="1" stop-color="#1B1C1C"/>
</linearGradient>
</defs>
</svg>
