<svg width="82" height="194" viewBox="0 0 82 194" fill="none" xmlns="http://www.w3.org/2000/svg">
<path style="mix-blend-mode:multiply" d="M11.91 186.859L23.48 186.859C29.92 186.859 35.14 183.389 35.14 176.949L35.14 12.4494C35.14 6.00937 29.92 0.789383 23.48 0.789383L20.4 1.17938C13.96 1.17938 0.25 0.789368 0.25 12.4494L0.25 176.949C0.25 183.389 0.249973 186.859 11.91 186.859Z" fill="url(#paint0_linear_33_141)"/>
<mask id="mask0_33_141" style="mask-type:luminance" maskUnits="userSpaceOnUse" x="7" y="163" width="14" height="28">
<path d="M20.1195 190.43C20.1195 190.43 10.9995 190.43 10.0595 185.56C9.16951 180.96 7.6795 163.17 7.6795 163.17L13.7195 163.77L20.1195 190.43Z" fill="white"/>
</mask>
<g mask="url(#mask0_33_141)">
<path d="M7.66949 190.43H20.1195L20.1195 163.17H7.66949L7.66949 190.43Z" fill="url(#paint1_linear_33_141)"/>
</g>
<mask id="mask1_33_141" style="mask-type:luminance" maskUnits="userSpaceOnUse" x="61" y="163" width="13" height="28">
<path d="M61.2098 190.43C61.2098 190.43 70.3298 190.43 71.2698 185.56C72.1598 180.96 73.6498 163.17 73.6498 163.17L67.6098 163.77L61.2098 190.43Z" fill="white"/>
</mask>
<g mask="url(#mask1_33_141)">
<path d="M61.2098 190.43H73.6598L73.6598 163.17H61.2098L61.2098 190.43Z" fill="url(#paint2_linear_33_141)"/>
</g>
<path style="mix-blend-mode:multiply" d="M67.6098 163.83L73.6498 163.17C73.6498 163.17 73.5098 166.12 73.1098 169.68H66.9898L67.6098 163.83Z" fill="url(#paint3_linear_33_141)"/>
<path style="mix-blend-mode:multiply" d="M13.7202 163.83L7.68024 163.17C7.68024 163.17 7.82021 166.12 8.22021 169.68H14.3402L13.7202 163.83Z" fill="url(#paint4_linear_33_141)"/>
<path d="M69.2894 163.17L62.3294 189.03C61.7094 191.32 59.2894 193.17 56.9194 193.17L24.4094 193.17C22.0394 193.17 19.6194 191.31 18.9995 189.03L12.0394 163.17L69.2794 163.17H69.2894Z" fill="#6CA145"/>
<path d="M69.2893 163.67C69.2893 163.67 69.3393 163.671 69.3593 163.681L74.1994 165.2C74.3294 165.24 74.4093 165.38 74.3593 165.51C74.3193 165.64 74.1793 165.72 74.0493 165.67L69.2093 164.15C69.0793 164.11 69.0093 163.97 69.0493 163.84C69.0793 163.73 69.1793 163.66 69.2893 163.66V163.67Z" fill="#2F3332"/>
<path d="M68.77 163.641C68.86 163.641 68.95 163.67 69.04 163.72L73.15 166.34C73.38 166.49 73.45 166.8 73.3 167.03C73.15 167.26 72.84 167.331 72.61 167.181L68.5 164.56C68.27 164.41 68.2 164.1 68.35 163.87C68.45 163.72 68.61 163.641 68.77 163.641Z" fill="#2F3332"/>
<path d="M72.7002 167.279C72.7002 166.629 73.2202 164.939 73.8702 164.939H79.8802C80.5302 164.939 81.0502 166.629 81.0502 167.279H72.7002Z" fill="white"/>
<path d="M80.6898 165.84C80.4798 165.35 80.1898 164.94 79.8798 164.94H73.8698C73.5498 164.94 73.2698 165.35 73.0598 165.84H80.6898Z" fill="#2F3332"/>
<path d="M11.7599 163.67C11.8699 163.67 11.9599 163.74 11.9999 163.85C12.0399 163.98 11.9698 164.12 11.8398 164.16L6.99988 165.68C6.86988 165.72 6.72988 165.65 6.68988 165.52C6.64988 165.39 6.71986 165.25 6.84986 165.21L11.6899 163.69C11.6899 163.69 11.7399 163.68 11.7599 163.68V163.67Z" fill="#2F3332"/>
<path d="M12.2794 163.641C12.4394 163.641 12.6094 163.72 12.6994 163.87C12.8494 164.1 12.7794 164.41 12.5494 164.56L8.43942 167.181C8.20942 167.331 7.89942 167.26 7.74942 167.03C7.59942 166.8 7.66938 166.49 7.89938 166.34L12.0094 163.72C12.0894 163.67 12.1894 163.641 12.2794 163.641Z" fill="#2F3332"/>
<path d="M8.34998 167.279C8.34998 166.629 7.82999 164.939 7.17999 164.939H1.16998C0.519983 164.939 0 166.629 0 167.279H8.34998Z" fill="white"/>
<path d="M0.359619 165.84C0.569619 165.35 0.859617 164.94 1.16962 164.94H7.17963C7.49963 164.94 7.77962 165.35 7.98962 165.84H0.359619Z" fill="url(#paint5_linear_33_141)"/>
<g style="mix-blend-mode:multiply">
<path d="M65.3696 164.509H65.3897C65.5097 164.519 65.5896 164.629 65.5796 164.749C64.0996 178.629 57.1796 193.129 57.1096 193.269C57.0596 193.379 56.9297 193.419 56.8197 193.369C56.7097 193.319 56.6696 193.189 56.7196 193.079C56.7896 192.939 63.6796 178.499 65.1496 164.699C65.1596 164.589 65.2496 164.509 65.3596 164.509H65.3696Z" fill="#C7C2A9"/>
</g>
<path d="M11.9193 163.699C21.4493 164.319 31.8693 165.319 40.6693 165.319C49.4693 165.319 60.1593 163.939 69.4193 163.699C66.7193 164.459 66.5193 168.929 64.0493 169.679C51.4793 171.269 30.2693 171.269 17.6993 169.679C15.2293 168.919 14.6193 164.449 11.9193 163.699Z" fill="url(#paint6_linear_33_141)"/>
<path d="M72.7894 2.56898C72.0094 1.51898 70.7694 0.828979 69.3594 0.828979L11.9594 0.828979C10.7494 0.828979 9.66946 1.32898 8.88947 2.12898C12.8195 4.18898 25.8494 5.70898 41.3294 5.70898C55.6994 5.70898 67.9594 4.40899 72.7894 2.56898Z" fill="#6CA145"/>
<path d="M7.6698 163.17C7.6698 164.83 22.4398 165.32 40.6598 165.32C58.8798 165.32 73.6498 164.83 73.6498 163.17L73.6498 5.12032C73.6498 4.16031 73.3198 3.2803 72.7898 2.5603C67.9598 4.4003 55.6998 5.7003 41.3298 5.7003C25.8498 5.7003 12.8198 4.19032 8.88983 2.12032C8.13983 2.89032 7.6698 3.9503 7.6698 5.11031L7.6698 163.17Z" fill="url(#paint7_linear_33_141)"/>
<path style="mix-blend-mode:multiply" d="M40.6598 165.32C58.8798 165.32 73.6498 164.83 73.6498 163.17V161.99C73.6498 163.65 58.8798 164.14 40.6598 164.14C22.4398 164.14 7.6698 163.65 7.6698 161.99V163.17C7.6698 164.83 22.4398 165.32 40.6598 165.32Z" fill="url(#paint8_linear_33_141)"/>
<path d="M35.4297 139.25H47.2498C49.3816 139.25 51.1097 137.522 51.1097 135.39L51.1097 118.39C51.1097 116.258 49.3816 114.53 47.2498 114.53L35.4297 114.53C33.2979 114.53 31.5698 116.258 31.5698 118.39L31.5698 135.39C31.5698 137.522 33.2979 139.25 35.4297 139.25Z" fill="#668800"/>
<path d="M47.2399 137.961H35.4199C33.9999 137.961 32.8399 136.811 32.8399 135.381L32.8399 118.391C32.8399 116.971 33.9899 115.811 35.4199 115.811L47.2399 115.811C48.6599 115.811 49.8099 116.961 49.8099 118.381L49.8099 135.371C49.8099 136.791 48.6599 137.951 47.2299 137.951L47.2399 137.961Z" fill="url(#paint9_linear_33_141)"/>
<path d="M47.2399 137.959H35.4199C33.9999 137.959 32.8399 136.809 32.8399 135.379L32.8399 118.389C32.8399 116.969 33.9899 115.809 35.4199 115.809L47.2399 115.809C48.6599 115.809 49.8099 116.959 49.8099 118.379L49.8099 135.369C49.8099 136.789 48.6599 137.949 47.2299 137.949L47.2399 137.959Z" fill="white"/>
<path d="M47.24 51.1699L35.42 51.1699C33.29 51.1699 31.56 49.4399 31.56 47.3099L31.56 30.3199C31.56 28.1899 33.29 26.4599 35.42 26.4599L47.24 26.4599C49.37 26.4599 51.1 28.1899 51.1 30.3199L51.1 47.3099C51.1 49.4399 49.37 51.1699 47.24 51.1699Z" fill="#668800"/>
<path d="M47.2399 49.8789L35.4199 49.8789C33.9999 49.8789 32.8399 48.7289 32.8399 47.2989L32.8399 30.3089C32.8399 28.8889 33.9899 27.7289 35.4199 27.7289L47.2399 27.7289C48.6599 27.7289 49.8099 28.8789 49.8099 30.2989L49.8099 47.2889C49.8099 48.7089 48.6599 49.8689 47.2299 49.8689L47.2399 49.8789Z" fill="white"/>
<path d="M54.0795 2.48022C54.2095 3.39022 58.1095 3.50021 62.7795 2.74021L71.3295 1.34022C70.7395 1.03022 70.0695 0.840221 69.3495 0.840221L53.8295 0.840221C53.8295 0.840221 53.9295 1.58022 54.0595 2.48022H54.0795Z" fill="white"/>
<path d="M27.2095 2.48022C27.0795 3.39022 23.1796 3.50021 18.4996 2.74021L9.94958 1.34022C10.5396 1.03022 11.2096 0.840221 11.9296 0.840221L27.4496 0.840221C27.4496 0.840221 27.3495 1.58022 27.2195 2.48022H27.2095Z" fill="url(#paint10_linear_33_141)"/>
<g style="mix-blend-mode:multiply">
<path d="M9.02997 1.86977C13 3.95977 26.29 5.40976 41.33 5.40976C55.17 5.40976 67.77 4.15976 72.68 2.28976L72.89 2.84976C67.84 4.76976 55.45 6.00977 41.32 6.00977C26.19 6.00977 12.79 4.52977 8.73999 2.39977L9.01996 1.86977H9.02997Z" fill="#B3B3B3"/>
</g>
<path d="M30.3499 1.5293L50.9799 1.5293V0.8293L30.3499 0.8293V1.5293Z" fill="white"/>
<path d="M42.9396 165.32C43.6896 165.32 44.4295 165.32 45.1595 165.32V164.15H42.9396V165.33V165.32Z" fill="#A03C00"/>
<path d="M39.5597 165.32H41.7797V164.14H39.5597V165.32Z" fill="#A03C00"/>
<path d="M38.39 165.32V164.14H36.17V165.31C36.9 165.31 37.64 165.31 38.39 165.31V165.32Z" fill="#A03C00"/>
<path style="mix-blend-mode:screen" d="M40.1297 170.81C45.2297 170.69 50.3297 170.32 55.3997 169.68C57.8697 168.92 60.3397 165.45 62.8197 164.7C58.5497 164.83 54.1297 164.98 49.6797 165.11C46.7797 167.41 43.5697 169.35 40.1397 170.82L40.1297 170.81Z" fill="url(#paint11_linear_33_141)"/>
<path d="M22.8396 193.59C22.8396 193.37 22.9896 193.18 23.1796 193.18L58.1496 193.18C58.3396 193.18 58.4896 193.36 58.4896 193.59C58.4896 193.81 58.3396 194 58.1496 194L23.1796 194C22.9896 194 22.8396 193.82 22.8396 193.59Z" fill="url(#paint12_linear_33_141)"/>
<g style="mix-blend-mode:multiply">
<path d="M68.7601 5.86993C68.8801 5.86993 68.9701 5.96992 68.9701 6.07993L68.9701 161.46C68.9701 161.58 68.8701 161.67 68.7601 161.67C68.6501 161.67 68.5501 161.57 68.5501 161.46L68.5501 6.08994C68.5501 5.96994 68.6501 5.87991 68.7601 5.87991V5.86993Z" fill="#C7C2A9"/>
</g>
<g style="mix-blend-mode:multiply">
<path d="M12.5599 5.86993C12.6799 5.86993 12.7699 5.96992 12.7699 6.07993L12.7699 161.46C12.7699 161.58 12.6699 161.67 12.5599 161.67C12.4499 161.67 12.3499 161.57 12.3499 161.46L12.3499 6.08994C12.3499 5.96994 12.4499 5.87991 12.5599 5.87991V5.86993Z" fill="#C7C2A9"/>
</g>
<defs>
<linearGradient id="paint0_linear_33_141" x1="21.58" y1="93.8894" x2="-0.950001" y2="93.5494" gradientUnits="userSpaceOnUse">
<stop stop-color="#242424"/>
<stop offset="1" stop-color="white"/>
</linearGradient>
<linearGradient id="paint1_linear_33_141" x1="13.8945" y1="190.43" x2="13.8945" y2="163.17" gradientUnits="userSpaceOnUse">
<stop stop-color="white"/>
<stop offset="1" stop-color="white" stop-opacity="0"/>
</linearGradient>
<linearGradient id="paint2_linear_33_141" x1="67.4348" y1="190.43" x2="67.4348" y2="163.17" gradientUnits="userSpaceOnUse">
<stop stop-color="white"/>
<stop offset="1" stop-color="white" stop-opacity="0"/>
</linearGradient>
<linearGradient id="paint3_linear_33_141" x1="70.3298" y1="163.72" x2="70.3298" y2="167.99" gradientUnits="userSpaceOnUse">
<stop stop-color="#CCCCCC"/>
<stop offset="1" stop-color="white"/>
</linearGradient>
<linearGradient id="paint4_linear_33_141" x1="11.0002" y1="163.72" x2="11.0002" y2="167.99" gradientUnits="userSpaceOnUse">
<stop stop-color="#CCCCCC"/>
<stop offset="1" stop-color="white"/>
</linearGradient>
<linearGradient id="paint5_linear_33_141" x1="0.349619" y1="165.39" x2="7.98962" y2="165.39" gradientUnits="userSpaceOnUse">
<stop stop-color="#363B39"/>
<stop offset="1" stop-color="#1B1C1C"/>
</linearGradient>
<linearGradient id="paint6_linear_33_141" x1="40.6593" y1="165.479" x2="40.6593" y2="175.189" gradientUnits="userSpaceOnUse">
<stop stop-color="white"/>
<stop offset="1" stop-color="#1B1C1C"/>
</linearGradient>
<linearGradient id="paint7_linear_33_141" x1="73.6598" y1="83.7303" x2="7.6698" y2="83.7303" gradientUnits="userSpaceOnUse">
<stop stop-color="white"/>
<stop offset="0.06" stop-color="white"/>
<stop offset="0.11" stop-color="#6CA145"/>
<stop offset="0.17" stop-color="#6CA145"/>
<stop offset="0.28" stop-color="#6CA145"/>
<stop offset="0.47" stop-color="#6BA044"/>
<stop offset="0.76" stop-color="#6CA145"/>
<stop offset="0.88" stop-color="#6CA145"/>
<stop offset="0.91" stop-color="#6CA145"/>
<stop offset="0.92" stop-color="#6CA145"/>
<stop offset="0.96" stop-color="white"/>
<stop offset="1" stop-color="white"/>
</linearGradient>
<linearGradient id="paint8_linear_33_141" x1="40.6598" y1="165.37" x2="40.6598" y2="164.09" gradientUnits="userSpaceOnUse">
<stop stop-color="#CA722A"/>
<stop offset="0.27" stop-color="#DCA272"/>
<stop offset="0.52" stop-color="#EBCAAF"/>
<stop offset="0.73" stop-color="#F5E6DA"/>
<stop offset="0.9" stop-color="#FCF8F5"/>
<stop offset="1" stop-color="white"/>
</linearGradient>
<linearGradient id="paint9_linear_33_141" x1="49.8199" y1="126.891" x2="32.8499" y2="126.891" gradientUnits="userSpaceOnUse">
<stop stop-color="#F29D0A"/>
<stop offset="0.07" stop-color="#F7AF13"/>
<stop offset="0.16" stop-color="#FBBD1B"/>
<stop offset="0.27" stop-color="#FEC51F"/>
<stop offset="0.47" stop-color="#FFC821"/>
<stop offset="0.77" stop-color="#FDCA20"/>
<stop offset="0.9" stop-color="#F8D11D"/>
<stop offset="0.93" stop-color="#F7D41C"/>
<stop offset="1" stop-color="#F0D800"/>
</linearGradient>
<linearGradient id="paint10_linear_33_141" x1="9.94958" y1="2.04022" x2="27.4496" y2="2.04022" gradientUnits="userSpaceOnUse">
<stop stop-color="white"/>
<stop offset="1" stop-color="white"/>
</linearGradient>
<linearGradient id="paint11_linear_33_141" x1="45.6097" y1="157.91" x2="52.2397" y2="169.04" gradientUnits="userSpaceOnUse">
<stop stop-color="#3B3B3B"/>
<stop offset="1"/>
</linearGradient>
<linearGradient id="paint12_linear_33_141" x1="40.6596" y1="193.38" x2="40.6596" y2="194.48" gradientUnits="userSpaceOnUse">
<stop stop-color="#363B39"/>
<stop offset="1" stop-color="#1B1C1C"/>
</linearGradient>
</defs>
</svg>
