<svg width="201" height="186" viewBox="0 0 201 186" fill="none" xmlns="http://www.w3.org/2000/svg">
<path style="mix-blend-mode:multiply" d="M49.3846 13.7364L42.0441 22.6797C37.9583 27.6576 37.3287 33.8941 42.3066 37.9799L169.46 142.346C174.438 146.432 181.785 145.708 185.871 140.731L187.523 138.102C191.609 133.124 200.609 122.774 191.596 115.377L64.4423 11.011C59.4644 6.92516 56.7822 4.72362 49.3846 13.7364Z" fill="url(#paint0_linear_2_785)"/>
<mask id="mask0_2_785" style="mask-type:luminance" maskUnits="userSpaceOnUse" x="41" y="12" width="30" height="18">
<path d="M41.416 17.817C41.416 17.817 47.2021 10.7675 51.5629 13.1307C55.6832 15.3612 70.3796 25.4962 70.3796 25.4962L66.0838 29.7842L41.416 17.817Z" fill="white"/>
</mask>
<g mask="url(#mask0_2_785)">
<path d="M49.3148 8.19353L41.416 17.817L62.4872 35.1119L70.386 25.4885L49.3148 8.19353Z" fill="url(#paint1_linear_2_785)"/>
</g>
<mask id="mask1_2_785" style="mask-type:luminance" maskUnits="userSpaceOnUse" x="11" y="49" width="21" height="28">
<path d="M15.3476 49.5786C15.3476 49.5786 9.56143 56.628 12.7294 60.4444C15.7204 64.0508 28.5262 76.4892 28.5262 76.4892L31.8945 71.4398L15.3476 49.5786Z" fill="white"/>
</mask>
<g mask="url(#mask1_2_785)">
<path d="M15.348 49.5786L7.44922 59.2021L28.5204 76.497L36.4192 66.8735L15.348 49.5786Z" fill="url(#paint2_linear_2_785)"/>
</g>
<path style="mix-blend-mode:multiply" d="M31.848 71.4018L28.5262 76.4892C28.5262 76.4892 26.3347 74.5094 23.8367 71.9416L27.7195 67.211L31.848 71.4018Z" fill="url(#paint3_linear_2_785)"/>
<path style="mix-blend-mode:multiply" d="M66.0383 29.7468L70.3805 25.4968C70.3805 25.4968 68.0114 23.7334 65.0058 21.7839L61.123 26.5145L66.0383 29.7468Z" fill="url(#paint4_linear_2_785)"/>
<path d="M31.2926 73.1186L15.7194 51.3321C14.3426 49.4 14.4479 46.3557 15.9516 44.5237L36.5773 19.3945C38.081 17.5625 41.054 16.872 43.2097 17.8393L67.6145 28.8661L31.299 73.1109L31.2926 73.1186Z" fill="#6CA145"/>
<path d="M30.9048 72.801C30.9048 72.801 30.8731 72.8396 30.8527 72.8488L26.6071 75.6256C26.4937 75.7007 26.3347 75.6737 26.266 75.5526C26.1908 75.4392 26.2178 75.2802 26.339 75.2114L30.5846 72.4346C30.698 72.3595 30.8506 72.3942 30.9257 72.5076C30.9917 72.6006 30.9824 72.7223 30.9126 72.8073L30.9048 72.801Z" fill="#2F3332"/>
<path d="M31.259 72.4186C31.2019 72.4882 31.1216 72.5387 31.0259 72.5766L26.3931 74.0912C26.1313 74.1738 25.8472 74.0313 25.7646 73.7694C25.682 73.5075 25.8246 73.2235 26.0864 73.1409L30.7192 71.6262C30.981 71.5436 31.2651 71.6862 31.3477 71.948C31.4002 72.1205 31.3605 72.2949 31.259 72.4186Z" fill="#2F3332"/>
<path d="M25.9519 73.1479C26.4543 73.5603 27.4307 75.0344 27.0183 75.5369L23.2053 80.1824C22.7929 80.6848 21.1567 80.0146 20.6543 79.6022L25.9519 73.1479Z" fill="white"/>
<path d="M21.9961 80.2369C22.5081 80.3854 23.009 80.4214 23.2057 80.1818L27.0187 75.5362C27.2217 75.2889 27.0824 74.8123 26.8369 74.3391L21.9961 80.2369Z" fill="#2F3332"/>
<path d="M67.4053 28.3327C67.3355 28.4177 67.2243 28.4429 67.1139 28.404C66.9881 28.3524 66.9243 28.2095 66.9758 28.0836L68.8716 23.3781C68.9232 23.2522 69.0661 23.1884 69.192 23.24C69.3178 23.2916 69.3816 23.4345 69.3301 23.5603L67.4343 28.2659C67.4343 28.2659 67.4103 28.3109 67.3976 28.3263L67.4053 28.3327Z" fill="#2F3332"/>
<path d="M67.0987 28.753C66.9972 28.8767 66.8275 28.9574 66.6545 28.9318C66.3815 28.9018 66.1863 28.651 66.2163 28.3781L66.7987 23.5389C66.8286 23.266 67.0794 23.0708 67.3524 23.1008C67.6253 23.1307 67.8206 23.3815 67.7906 23.6544L67.2082 28.4936C67.1961 28.5872 67.1558 28.6835 67.0987 28.753Z" fill="#2F3332"/>
<path d="M66.7793 23.4071C67.2817 23.8195 68.9179 24.4898 69.3303 23.9874L73.1433 19.3418C73.5557 18.8394 72.5793 17.3652 72.0769 16.9529L66.7793 23.4071Z" fill="white"/>
<path d="M72.9599 18.1441C73.2055 18.6173 73.3384 19.1016 73.1417 19.3412L69.3287 23.9867C69.1257 24.2341 68.6311 24.1904 68.1191 24.0418L72.9599 18.1441Z" fill="url(#paint5_linear_2_785)"/>
<g style="mix-blend-mode:multiply">
<path d="M32.7433 69.239L32.7306 69.2545C32.6467 69.3409 32.5109 69.3329 32.4245 69.249C22.6347 59.2989 15.817 44.7506 15.7532 44.6077C15.6998 44.4992 15.7514 44.3734 15.8598 44.3201C15.9683 44.2668 16.0942 44.3183 16.1475 44.4267C16.2113 44.5697 23.0016 59.0568 32.736 68.9484C32.8147 69.0259 32.8194 69.1462 32.7496 69.2312L32.7433 69.239Z" fill="#C7C2A9"/>
</g>
<path d="M67.2824 28.4379C60.7569 35.4109 53.3731 42.8308 47.79 49.633C42.2069 56.4351 36.4914 65.5737 30.8019 72.8836C31.9275 70.3144 28.5992 67.3239 29.5865 64.9388C36.3325 54.2138 49.789 37.8192 58.993 29.1117C61.1475 27.6846 64.9897 30.0491 67.2824 28.4379Z" fill="url(#paint6_linear_2_785)"/>
<path d="M153.212 177.716C154.519 177.779 155.839 177.259 156.733 176.169L193.15 131.8C193.918 130.865 194.217 129.713 194.093 128.603C190.008 130.333 180.566 139.441 170.745 151.406C161.628 162.514 154.854 172.815 153.212 177.716Z" fill="#6CA145"/>
<path d="M70.3857 25.4883C69.1026 24.4351 59.3531 35.541 47.7936 49.6245C36.234 63.708 27.242 75.4356 28.5252 76.4888L150.693 176.763C151.435 177.372 152.325 177.675 153.217 177.722C154.86 172.821 161.633 162.52 170.75 151.412C180.571 139.447 190.005 130.333 194.098 128.608C193.979 127.54 193.458 126.504 192.561 125.768L70.3857 25.4883Z" fill="url(#paint7_linear_2_785)"/>
<path style="mix-blend-mode:multiply" d="M47.7936 49.6245C36.234 63.708 27.242 75.4356 28.5252 76.4888L29.4373 77.2375C28.1541 76.1843 37.1461 64.4566 48.7057 50.3731C60.2652 36.2896 70.0147 25.1838 71.2978 26.2369L70.3857 25.4883C69.1026 24.4351 59.3531 35.541 47.7936 49.6245Z" fill="url(#paint8_linear_2_785)"/>
<path d="M71.2645 62.122L63.7653 71.2585C62.4128 72.9063 62.6522 75.3386 64.3001 76.6911L77.4406 87.4766C79.0884 88.8291 81.5206 88.5897 82.8732 86.9419L90.3723 77.8054C91.7248 76.1576 91.4854 73.7253 89.8376 72.3728L76.6971 61.5873C75.0492 60.2347 72.617 60.4741 71.2645 62.122Z" fill="#668800"/>
<path d="M64.7672 72.0687L72.2664 62.9322C73.1673 61.8346 74.7922 61.6676 75.8975 62.5748L89.0303 73.354C90.1279 74.2549 90.2949 75.8798 89.3876 76.9851L81.8885 86.1216C80.9876 87.2193 79.3691 87.3786 78.2715 86.4777L65.1387 75.6985C64.0411 74.7976 63.8741 73.1727 64.7813 72.0673L64.7672 72.0687Z" fill="url(#paint9_linear_2_785)"/>
<path d="M64.7692 72.07L72.2683 62.9334C73.1692 61.8358 74.7941 61.6688 75.8995 62.576L89.0322 73.3552C90.1298 74.2561 90.2968 75.881 89.3896 76.9864L81.8905 86.1229C80.9896 87.2205 79.371 87.3798 78.2734 86.4789L65.1407 75.6997C64.043 74.7988 63.876 73.1739 64.7833 72.0686L64.7692 72.07Z" fill="white"/>
<path d="M131.853 127.133L139.352 117.996C140.704 116.35 143.139 116.11 144.785 117.462L157.918 128.241C159.564 129.592 159.804 132.027 158.452 133.673L150.953 142.81C149.602 144.456 147.167 144.696 145.521 143.344L132.388 132.565C130.742 131.214 130.502 128.779 131.853 127.133Z" fill="#668800"/>
<path d="M132.851 127.952L140.35 118.815C141.251 117.718 142.876 117.551 143.981 118.458L157.114 129.237C158.212 130.138 158.379 131.763 157.472 132.868L149.972 142.005C149.072 143.102 147.453 143.262 146.355 142.361L133.223 131.581C132.125 130.681 131.958 129.056 132.865 127.95L132.851 127.952Z" fill="white"/>
<path d="M165.15 163.31C164.364 162.833 161.805 165.778 159.429 169.87L155.087 177.367C155.701 177.108 156.273 176.711 156.73 176.154L166.576 164.158C166.576 164.158 165.941 163.765 165.163 163.295L165.15 163.31Z" fill="white"/>
<path d="M182.198 142.541C181.577 141.863 183.966 138.778 187.523 135.643L194.03 129.922C193.895 130.575 193.617 131.214 193.16 131.77L183.313 143.767C183.313 143.767 182.805 143.22 182.192 142.548L182.198 142.541Z" fill="url(#paint10_linear_2_785)"/>
<g style="mix-blend-mode:multiply">
<path d="M194.204 128.876C190.07 130.618 180.517 139.971 170.975 151.597C162.194 162.295 155.167 172.827 153.497 177.809L152.931 177.616C154.651 172.494 161.553 162.13 170.518 151.208C180.117 139.513 189.762 130.094 193.978 128.315L194.21 128.868L194.204 128.876Z" fill="#B3B3B3"/>
</g>
<path d="M180.94 145.571L167.852 161.518L168.393 161.962L181.481 146.015L180.94 145.571Z" fill="white"/>
<path d="M46.3478 51.3869C45.872 51.9666 45.4025 52.5386 44.9394 53.1028L45.8437 53.8451L47.2522 52.1292L46.3401 51.3805L46.3478 51.3869Z" fill="#A03C00"/>
<path d="M48.4924 48.7742L47.084 50.4901L47.9961 51.2388L49.4045 49.5228L48.4924 48.7742Z" fill="#A03C00"/>
<path d="M49.2344 47.87L50.1465 48.6187L51.555 46.9027L50.6506 46.1604C50.1874 46.7246 49.7179 47.2966 49.2421 47.8764L49.2344 47.87Z" fill="#A03C00"/>
<path style="mix-blend-mode:screen" d="M43.8857 45.7317C40.7428 49.7499 37.7931 53.9268 35.0712 58.2518C34.0916 60.6432 35.2067 64.754 34.213 67.1468C36.8216 63.7637 39.5099 60.252 42.2327 56.7298C42.2947 53.029 42.8317 49.317 43.8716 45.7331L43.8857 45.7317Z" fill="url(#paint11_linear_2_785)"/>
<path d="M37.2473 17.9145C37.4174 18.0541 37.4691 18.2906 37.3485 18.4375L15.1621 45.4682C15.0415 45.6151 14.8072 45.6168 14.6294 45.4709C14.4594 45.3313 14.4077 45.0948 14.5282 44.948L36.7147 17.9172C36.8352 17.7704 37.0695 17.7686 37.2473 17.9145Z" fill="url(#paint12_linear_2_785)"/>
<g style="mix-blend-mode:multiply">
<path d="M153.216 172.507C153.14 172.6 153.006 172.606 152.921 172.536L32.8166 73.9567C32.7239 73.8806 32.7177 73.7462 32.7875 73.6612C32.8573 73.5762 32.998 73.5623 33.0831 73.6321L153.179 172.205C153.272 172.282 153.278 172.416 153.208 172.501L153.216 172.507Z" fill="#C7C2A9"/>
</g>
<g style="mix-blend-mode:multiply">
<path d="M188.872 129.066C188.796 129.159 188.662 129.165 188.577 129.095L68.4729 30.5156C68.3801 30.4395 68.374 30.3051 68.4438 30.2201C68.5135 30.1351 68.6543 30.1212 68.7393 30.191L188.836 128.764C188.928 128.841 188.934 128.975 188.865 129.06L188.872 129.066Z" fill="#C7C2A9"/>
</g>
<defs>
<linearGradient id="paint0_linear_2_785" x1="115.113" y1="80.1953" x2="129.669" y2="62.996" gradientUnits="userSpaceOnUse">
<stop stop-color="#242424"/>
<stop offset="1" stop-color="white"/>
</linearGradient>
<linearGradient id="paint1_linear_2_785" x1="45.3654" y1="13.0053" x2="66.4366" y2="30.3002" gradientUnits="userSpaceOnUse">
<stop stop-color="white"/>
<stop offset="1" stop-color="white" stop-opacity="0"/>
</linearGradient>
<linearGradient id="paint2_linear_2_785" x1="11.3986" y1="54.3903" x2="32.4698" y2="71.6852" gradientUnits="userSpaceOnUse">
<stop stop-color="white"/>
<stop offset="1" stop-color="white" stop-opacity="0"/>
</linearGradient>
<linearGradient id="paint3_linear_2_785" x1="30.2074" y1="73.574" x2="26.9068" y2="70.8649" gradientUnits="userSpaceOnUse">
<stop stop-color="#CCCCCC"/>
<stop offset="1" stop-color="white"/>
</linearGradient>
<linearGradient id="paint4_linear_2_785" x1="67.849" y1="27.7141" x2="64.5484" y2="25.005" gradientUnits="userSpaceOnUse">
<stop stop-color="#CCCCCC"/>
<stop offset="1" stop-color="white"/>
</linearGradient>
<linearGradient id="paint5_linear_2_785" x1="73.3141" y1="18.4218" x2="68.467" y2="24.3273" gradientUnits="userSpaceOnUse">
<stop stop-color="#363B39"/>
<stop offset="1" stop-color="#1B1C1C"/>
</linearGradient>
<linearGradient id="paint6_linear_2_785" x1="47.6726" y1="49.5237" x2="40.1671" y2="43.3633" gradientUnits="userSpaceOnUse">
<stop stop-color="white"/>
<stop offset="1" stop-color="#1B1C1C"/>
</linearGradient>
<linearGradient id="paint7_linear_2_785" x1="89.9235" y1="126.897" x2="131.79" y2="75.8884" gradientUnits="userSpaceOnUse">
<stop stop-color="white"/>
<stop offset="0.06" stop-color="white"/>
<stop offset="0.11" stop-color="#6CA145"/>
<stop offset="0.17" stop-color="#6CA145"/>
<stop offset="0.28" stop-color="#6CA145"/>
<stop offset="0.47" stop-color="#6BA044"/>
<stop offset="0.76" stop-color="#6CA145"/>
<stop offset="0.88" stop-color="#6CA145"/>
<stop offset="0.91" stop-color="#6CA145"/>
<stop offset="0.92" stop-color="#6CA145"/>
<stop offset="0.96" stop-color="white"/>
<stop offset="1" stop-color="white"/>
</linearGradient>
<linearGradient id="paint8_linear_2_785" x1="47.7549" y1="49.5928" x2="48.7443" y2="50.4049" gradientUnits="userSpaceOnUse">
<stop stop-color="#CA722A"/>
<stop offset="0.27" stop-color="#DCA272"/>
<stop offset="0.52" stop-color="#EBCAAF"/>
<stop offset="0.73" stop-color="#F5E6DA"/>
<stop offset="0.9" stop-color="#FCF8F5"/>
<stop offset="1" stop-color="white"/>
</linearGradient>
<linearGradient id="paint9_linear_2_785" x1="71.6871" y1="81.0863" x2="82.4537" y2="67.969" gradientUnits="userSpaceOnUse">
<stop stop-color="#F29D0A"/>
<stop offset="0.07" stop-color="#F7AF13"/>
<stop offset="0.16" stop-color="#FBBD1B"/>
<stop offset="0.27" stop-color="#FEC51F"/>
<stop offset="0.47" stop-color="#FFC821"/>
<stop offset="0.77" stop-color="#FDCA20"/>
<stop offset="0.9" stop-color="#F8D11D"/>
<stop offset="0.93" stop-color="#F7D41C"/>
<stop offset="1" stop-color="#F0D800"/>
</linearGradient>
<linearGradient id="paint10_linear_2_785" x1="193.488" y1="129.478" x2="182.386" y2="143.005" gradientUnits="userSpaceOnUse">
<stop stop-color="white"/>
<stop offset="1" stop-color="white"/>
</linearGradient>
<linearGradient id="paint11_linear_2_785" x1="50.3802" y1="58.1519" x2="37.5707" y2="56.2153" gradientUnits="userSpaceOnUse">
<stop stop-color="#3B3B3B"/>
<stop offset="1"/>
</linearGradient>
<linearGradient id="paint12_linear_2_785" x1="26.1039" y1="31.8221" x2="25.2536" y2="31.1242" gradientUnits="userSpaceOnUse">
<stop stop-color="#363B39"/>
<stop offset="1" stop-color="#1B1C1C"/>
</linearGradient>
</defs>
</svg>
