<svg width="201" height="187" viewBox="0 0 201 187" fill="none" xmlns="http://www.w3.org/2000/svg">
<mask id="mask0_644_7615" style="mask-type:luminance" maskUnits="userSpaceOnUse" x="168" y="49" width="21" height="28">
<path d="M184.602 49.0635C184.602 49.0635 190.446 56.0648 187.31 59.9072C184.349 63.5383 171.646 76.0823 171.646 76.0823L168.236 71.061L184.602 49.0635Z" fill="white"/>
</mask>
<g mask="url(#mask0_644_7615)">
<path d="M192.58 58.6212L184.602 49.0635L163.674 66.5323L171.653 76.09L192.58 58.6212Z" fill="url(#paint0_linear_644_7615)"/>
</g>
<mask id="mask1_644_7615" style="mask-type:luminance" maskUnits="userSpaceOnUse" x="129" y="12" width="30" height="18">
<path d="M158.269 17.5188C158.269 17.5188 152.424 10.5175 148.083 12.9167C143.982 15.1812 129.37 25.4376 129.37 25.4376L133.701 29.6899L158.269 17.5188Z" fill="white"/>
</mask>
<g mask="url(#mask1_644_7615)">
<path d="M158.267 17.5187L150.289 7.96094L129.362 25.4297L137.34 34.9875L158.267 17.5187Z" fill="url(#paint1_linear_644_7615)"/>
</g>
<path style="mix-blend-mode:multiply" d="M133.747 29.6522L129.37 25.4384C129.37 25.4384 131.724 23.6554 134.713 21.6811L138.635 26.3794L133.747 29.6522Z" fill="url(#paint2_linear_644_7615)"/>
<path style="mix-blend-mode:multiply" d="M168.281 71.0226L171.645 76.0824C171.645 76.0824 173.82 74.0845 176.297 71.4961L172.375 66.7979L168.281 71.0226Z" fill="url(#paint3_linear_644_7615)"/>
<path d="M132.165 28.7852L156.477 17.5567C158.633 16.5652 161.604 17.2374 163.122 19.0569L183.955 44.0145C185.474 45.8339 185.597 48.8836 184.244 50.8206L168.852 72.7354L132.171 28.7929L132.165 28.7852Z" fill="#6CA145"/>
<path d="M132.548 28.4646C132.548 28.4646 132.516 28.4262 132.51 28.4044L130.576 23.7147C130.523 23.5893 130.579 23.4382 130.711 23.3933C130.837 23.3407 130.988 23.3969 131.033 23.5287L132.967 28.2184C133.02 28.3438 132.957 28.4873 132.832 28.5399C132.728 28.5873 132.61 28.5554 132.54 28.471L132.548 28.4646Z" fill="#2F3332"/>
<path d="M132.863 28.8822C132.805 28.8131 132.77 28.7248 132.751 28.6237L132.129 23.7895C132.096 23.5168 132.29 23.2644 132.562 23.2322C132.835 23.1999 133.087 23.3931 133.12 23.6658L133.742 28.4999C133.774 28.7726 133.581 29.025 133.308 29.0573C133.129 29.0766 132.965 29.0051 132.863 28.8822Z" fill="#2F3332"/>
<path d="M133.132 23.5332C132.633 23.9498 131.002 24.6336 130.586 24.1346L126.735 19.5208C126.318 19.0218 127.282 17.5396 127.781 17.123L133.132 23.5332Z" fill="white"/>
<path d="M126.906 18.3223C126.665 18.7975 126.536 19.2828 126.734 19.5208L130.586 24.1347C130.791 24.3803 131.285 24.3325 131.796 24.1797L126.906 18.3223Z" fill="#2F3332"/>
<path d="M169.414 72.6297C169.344 72.5453 169.34 72.4313 169.398 72.3301C169.473 72.2161 169.625 72.1802 169.739 72.2543L174.007 74.9959C174.121 75.07 174.157 75.2224 174.083 75.3364C174.009 75.4504 173.857 75.4864 173.743 75.4122L169.474 72.6706C169.474 72.6706 169.434 72.6387 169.422 72.6233L169.414 72.6297Z" fill="#2F3332"/>
<path d="M169.057 72.2495C168.955 72.1267 168.907 71.9449 168.965 71.7796C169.045 71.5171 169.328 71.3722 169.59 71.4526L174.235 72.9289C174.498 73.0093 174.643 73.2922 174.562 73.5547C174.482 73.8173 174.199 73.9622 173.937 73.8818L169.292 72.4055C169.202 72.3761 169.115 72.3186 169.057 72.2495Z" fill="#2F3332"/>
<path d="M174.375 72.9346C173.876 73.3511 172.912 74.8333 173.328 75.3323L177.18 79.9461C177.596 80.4451 179.227 79.7613 179.726 79.3448L174.375 72.9346Z" fill="white"/>
<path d="M178.389 79.9913C177.879 80.1441 177.378 80.1842 177.179 79.9462L173.328 75.3324C173.123 75.0867 173.258 74.609 173.5 74.1338L178.389 79.9913Z" fill="url(#paint4_linear_644_7615)"/>
<g style="mix-blend-mode:multiply">
<path d="M135.705 30.9362L135.693 30.9208C135.623 30.8223 135.657 30.6904 135.755 30.6212C147.359 22.8628 162.925 18.8833 163.077 18.8473C163.194 18.8152 163.308 18.8893 163.34 19.0058C163.372 19.1223 163.298 19.2363 163.181 19.2684C163.029 19.3044 147.528 23.2685 135.992 30.9833C135.901 31.0462 135.782 31.0283 135.712 30.9439L135.705 30.9362Z" fill="#C7C2A9"/>
</g>
<path d="M169.333 72.4885C163.702 64.7751 157.792 56.1349 152.153 49.3792C146.514 42.6236 138.604 35.3013 132.486 28.3463C134.8 29.932 138.359 27.2211 140.518 28.6367C149.794 37.2676 163.385 53.5503 170.22 64.2191C171.219 66.6023 168.179 69.9351 169.333 72.4885Z" fill="url(#paint5_linear_644_7615)"/>
<path d="M6.62852 129.015C6.32228 130.287 6.58719 131.681 7.49075 132.763L44.2739 176.829C45.0493 177.758 46.1252 178.266 47.2392 178.352C46.3022 174.015 39.1193 163.038 29.1993 151.154C19.9907 140.123 11.1362 131.544 6.62852 129.015Z" fill="#6CA145"/>
<path d="M171.654 76.0895C172.929 75.0257 163.84 63.373 152.164 49.3856C140.488 35.3983 130.647 24.3736 129.373 25.4373L8.03956 126.719C7.30257 127.334 6.83846 128.152 6.62536 129.02C11.1331 131.549 19.9876 140.128 29.1962 151.159C39.1161 163.043 46.3068 174.014 47.2361 178.357C48.3078 178.44 49.4228 178.121 50.3133 177.378L171.654 76.0895Z" fill="url(#paint6_linear_644_7615)"/>
<path style="mix-blend-mode:multiply" d="M152.164 49.3856C140.488 35.3983 130.647 24.3736 129.373 25.4373L128.467 26.1935C129.741 25.1297 139.582 36.1545 151.258 50.1418C162.934 64.1291 172.023 75.7819 170.748 76.8457L171.654 76.0895C172.929 75.0257 163.84 63.373 152.164 49.3856Z" fill="url(#paint7_linear_644_7615)"/>
<path d="M135.501 70.1077L127.927 61.0336C126.561 59.397 124.126 59.1778 122.49 60.5439L109.439 71.4379C107.803 72.804 107.583 75.2381 108.949 76.8747L116.524 85.9488C117.89 87.5854 120.324 87.8046 121.961 86.4385L135.011 75.5445C136.648 74.1784 136.867 71.7443 135.501 70.1077Z" fill="#668800"/>
<path d="M126.944 61.8665L134.518 70.9406C135.428 72.0307 135.289 73.6582 134.191 74.5746L121.148 85.4622C120.058 86.3721 118.43 86.2326 117.514 85.1348L109.939 76.0607C109.029 74.9706 109.175 73.3508 110.266 72.4408L123.309 61.5533C124.399 60.6433 126.026 60.7828 126.943 61.8806L126.944 61.8665Z" fill="url(#paint8_linear_644_7615)"/>
<path d="M126.944 61.8685L134.518 70.9426C135.428 72.0327 135.289 73.6602 134.191 74.5765L121.148 85.4641C120.058 86.3741 118.43 86.2346 117.514 85.1368L109.939 76.0627C109.029 74.9726 109.175 73.3528 110.266 72.4428L123.309 61.5552C124.399 60.6453 126.026 60.7848 126.943 61.8826L126.944 61.8685Z" fill="white"/>
<path d="M60.3173 117.485L67.8918 126.559C69.2568 128.194 69.0373 130.631 67.4021 131.996L54.3591 142.883C52.7239 144.248 50.2872 144.029 48.9222 142.394L41.3477 133.319C39.9828 131.684 40.2022 129.248 41.8374 127.883L54.8805 116.995C56.5156 115.63 58.9524 115.85 60.3173 117.485Z" fill="#668800"/>
<path d="M59.3266 118.312L66.9011 127.386C67.8111 128.476 67.6716 130.104 66.5738 131.02L53.5308 141.907C52.4406 142.817 50.8132 142.678 49.8968 141.58L42.3223 132.506C41.4123 131.416 41.5582 129.796 42.6483 128.886L55.6914 117.999C56.7815 117.089 58.409 117.228 59.3253 118.326L59.3266 118.312Z" fill="white"/>
<path d="M18.5537 143.435C19.169 142.752 16.7542 139.688 13.1781 136.59L6.62432 130.923C6.76442 131.575 7.0479 132.211 7.50929 132.764L17.4549 144.678C17.4549 144.678 17.9588 144.127 18.5665 143.451L18.5537 143.435Z" fill="white"/>
<path d="M35.7705 164.062C36.5524 163.579 39.136 166.503 41.5516 170.582L45.9559 178.043C45.3398 177.789 44.7646 177.396 44.3032 176.844L34.3577 164.929C34.3577 164.929 34.9899 164.532 35.7641 164.055L35.7705 164.062Z" fill="url(#paint9_linear_644_7615)"/>
<g style="mix-blend-mode:multiply">
<path d="M46.9556 178.41C46.016 174.023 38.6127 162.891 28.9747 151.345C20.1057 140.72 11.0717 131.849 6.48972 129.278L6.78504 128.757C11.4951 131.404 20.3869 140.121 29.4417 150.968C39.1373 162.584 46.5882 173.819 47.5483 178.293L46.962 178.418L46.9556 178.41Z" fill="#B3B3B3"/>
</g>
<path d="M33.0327 162.261L19.8125 146.424L19.2751 146.872L32.4953 162.71L33.0327 162.261Z" fill="white"/>
<path d="M150.704 47.6355C150.223 47.0597 149.749 46.4916 149.281 45.9312L148.383 46.681L149.806 48.3852L150.712 47.6291L150.704 47.6355Z" fill="#A03C00"/>
<path d="M152.868 50.2306L151.445 48.5264L150.539 49.2825L151.962 50.9868L152.868 50.2306Z" fill="#A03C00"/>
<path d="M153.617 51.1279L152.711 51.8841L154.134 53.5884L155.032 52.8386C154.564 52.2782 154.09 51.7101 153.61 51.1343L153.617 51.1279Z" fill="#A03C00"/>
<path style="mix-blend-mode:screen" d="M156.72 46.2749C153.36 42.4366 149.808 38.7585 146.067 35.2764C143.901 33.8673 139.654 34.1947 137.489 32.7714C140.325 35.9662 143.273 39.2632 146.224 42.5962C149.848 43.3486 153.395 44.5696 156.721 46.2608L156.72 46.2749Z" fill="url(#paint10_linear_644_7615)"/>
<path d="M185.288 44.9502C185.119 45.0912 184.877 45.0978 184.756 44.9519L162.346 18.1058C162.224 17.96 162.266 17.7295 162.443 17.5821C162.612 17.4411 162.854 17.4345 162.976 17.5804L185.385 44.4265C185.507 44.5723 185.465 44.8028 185.288 44.9502Z" fill="url(#paint11_linear_644_7615)"/>
<g style="mix-blend-mode:multiply">
<path d="M11.7473 129.992C11.6704 129.9 11.6895 129.767 11.7739 129.697L131.058 30.1258C131.15 30.0489 131.283 30.0679 131.353 30.1524C131.424 30.2368 131.411 30.3777 131.327 30.4482L12.0507 130.013C11.9586 130.09 11.8254 130.07 11.7549 129.986L11.7473 129.992Z" fill="#C7C2A9"/>
</g>
<g style="mix-blend-mode:multiply">
<path d="M47.7629 173.137C47.686 173.045 47.7051 172.912 47.7895 172.841L167.073 73.2703C167.165 73.1934 167.298 73.2125 167.369 73.2969C167.439 73.3814 167.427 73.5222 167.342 73.5927L48.0664 173.157C47.9742 173.234 47.841 173.215 47.7705 173.131L47.7629 173.137Z" fill="#C7C2A9"/>
</g>
<defs>
<linearGradient id="paint0_linear_644_7615" x1="188.591" y1="53.8423" x2="167.663" y2="71.3112" gradientUnits="userSpaceOnUse">
<stop stop-color="white"/>
<stop offset="1" stop-color="white" stop-opacity="0"/>
</linearGradient>
<linearGradient id="paint1_linear_644_7615" x1="154.278" y1="12.7398" x2="133.351" y2="30.2086" gradientUnits="userSpaceOnUse">
<stop stop-color="white"/>
<stop offset="1" stop-color="white" stop-opacity="0"/>
</linearGradient>
<linearGradient id="paint2_linear_644_7615" x1="131.919" y1="27.6346" x2="135.197" y2="24.8983" gradientUnits="userSpaceOnUse">
<stop stop-color="#CCCCCC"/>
<stop offset="1" stop-color="white"/>
</linearGradient>
<linearGradient id="paint3_linear_644_7615" x1="169.94" y1="73.1812" x2="173.218" y2="70.4449" gradientUnits="userSpaceOnUse">
<stop stop-color="#CCCCCC"/>
<stop offset="1" stop-color="white"/>
</linearGradient>
<linearGradient id="paint4_linear_644_7615" x1="178.05" y1="80.2873" x2="173.155" y2="74.4222" gradientUnits="userSpaceOnUse">
<stop stop-color="#363B39"/>
<stop offset="1" stop-color="#1B1C1C"/>
</linearGradient>
<linearGradient id="paint5_linear_644_7615" x1="152.282" y1="49.2844" x2="159.737" y2="43.062" gradientUnits="userSpaceOnUse">
<stop stop-color="white"/>
<stop offset="1" stop-color="#1B1C1C"/>
</linearGradient>
<linearGradient id="paint6_linear_644_7615" x1="68.3812" y1="76.3365" x2="110.669" y2="126.996" gradientUnits="userSpaceOnUse">
<stop stop-color="white"/>
<stop offset="0.06" stop-color="white"/>
<stop offset="0.11" stop-color="#6CA145"/>
<stop offset="0.17" stop-color="#6CA145"/>
<stop offset="0.28" stop-color="#6CA145"/>
<stop offset="0.47" stop-color="#6BA044"/>
<stop offset="0.76" stop-color="#6CA145"/>
<stop offset="0.88" stop-color="#6CA145"/>
<stop offset="0.91" stop-color="#6CA145"/>
<stop offset="0.92" stop-color="#6CA145"/>
<stop offset="0.96" stop-color="white"/>
<stop offset="1" stop-color="white"/>
</linearGradient>
<linearGradient id="paint7_linear_644_7615" x1="152.203" y1="49.3536" x2="151.22" y2="50.1739" gradientUnits="userSpaceOnUse">
<stop stop-color="#CA722A"/>
<stop offset="0.27" stop-color="#DCA272"/>
<stop offset="0.52" stop-color="#EBCAAF"/>
<stop offset="0.73" stop-color="#F5E6DA"/>
<stop offset="0.9" stop-color="#FCF8F5"/>
<stop offset="1" stop-color="white"/>
</linearGradient>
<linearGradient id="paint8_linear_644_7615" x1="116.792" y1="66.9798" x2="127.667" y2="80.0075" gradientUnits="userSpaceOnUse">
<stop stop-color="#F29D0A"/>
<stop offset="0.07" stop-color="#F7AF13"/>
<stop offset="0.16" stop-color="#FBBD1B"/>
<stop offset="0.27" stop-color="#FEC51F"/>
<stop offset="0.47" stop-color="#FFC821"/>
<stop offset="0.77" stop-color="#FDCA20"/>
<stop offset="0.9" stop-color="#F8D11D"/>
<stop offset="0.93" stop-color="#F7D41C"/>
<stop offset="1" stop-color="#F0D800"/>
</linearGradient>
<linearGradient id="paint9_linear_644_7615" x1="46.4933" y1="177.595" x2="35.2789" y2="164.16" gradientUnits="userSpaceOnUse">
<stop stop-color="white"/>
<stop offset="1" stop-color="white"/>
</linearGradient>
<linearGradient id="paint10_linear_644_7615" x1="143.305" y1="50.3346" x2="147.601" y2="38.1124" gradientUnits="userSpaceOnUse">
<stop stop-color="#3B3B3B"/>
<stop offset="1"/>
</linearGradient>
<linearGradient id="paint11_linear_644_7615" x1="173.708" y1="31.4046" x2="174.552" y2="30.6997" gradientUnits="userSpaceOnUse">
<stop stop-color="#363B39"/>
<stop offset="1" stop-color="#1B1C1C"/>
</linearGradient>
</defs>
</svg>
