<svg width="126" height="146" viewBox="0 0 126 146" fill="none" xmlns="http://www.w3.org/2000/svg">
<path d="M107.987 57.5407C107.952 33.022 87.7545 13.1475 62.8795 13.1817C62.8449 13.1817 62.8102 13.1817 62.7756 13.1817C62.7409 13.1817 62.7063 13.1817 62.6716 13.1817C37.7966 13.2158 17.6334 33.0903 17.668 57.6432C17.668 62.9704 19.8506 75.8444 26.5024 86.1231C34.8518 99.0655 59.2418 127.58 62.8102 131.746V132.019C62.8449 131.985 62.8795 131.916 62.9141 131.882C62.9488 131.916 62.9834 131.985 63.0181 132.019V131.746C66.5865 127.58 90.9072 98.9972 99.2219 86.0548C105.839 75.742 107.987 62.8679 107.987 57.5407Z" fill="url(#paint0_radial_1106_430)"/>
<path d="M85.2591 29.6406C94.0936 36.2655 99.7753 46.7491 99.81 58.5304C99.8446 78.6439 83.319 94.9328 62.9132 94.967C55.1182 94.967 47.912 92.6107 41.9531 88.5812C48.1892 93.2595 55.9496 96.0256 64.3683 96.0256C84.7741 95.9914 101.265 79.7025 101.265 59.589C101.23 47.193 94.8904 36.1972 85.2591 29.6406Z" fill="white"/>
<path d="M99.724 57.1607C99.724 78.0873 82.5249 95.0834 61.2683 95.0834C40.0476 95.0834 22.8125 78.1227 22.8125 57.1607C22.8125 36.1988 40.0476 19.2734 61.2683 19.2734C82.489 19.2734 99.724 36.2342 99.724 57.1607Z" fill="url(#paint1_radial_1106_430)"/>
<path d="M51 39H75.65V44.4H57.25V53.75H73.4V58.85H57.25V74.7H51V39Z" fill="white"/>
<defs>
<radialGradient id="paint0_radial_1106_430" cx="0" cy="0" r="1" gradientUnits="userSpaceOnUse" gradientTransform="translate(62.8499 72.6006) rotate(-0.0621227) scale(53.2643 52.5015)">
<stop stop-color="#F7F8F8"/>
<stop offset="0.2239" stop-color="#F2F3F4"/>
<stop offset="0.5439" stop-color="#E3E4E8"/>
<stop offset="0.9199" stop-color="#C9CBD0"/>
<stop offset="1" stop-color="#C3C5CA"/>
</radialGradient>
<radialGradient id="paint1_radial_1106_430" cx="0" cy="0" r="1" gradientUnits="userSpaceOnUse" gradientTransform="translate(61.276 57.1723) scale(38.4423 37.9094)">
<stop stop-color="#EEAB26"/>
<stop offset="1" stop-color="#D26901"/>
</radialGradient>
</defs>
</svg>
