<svg width="126" height="146" viewBox="0 0 126 146" fill="none" xmlns="http://www.w3.org/2000/svg">
<path d="M107.987 57.5407C107.952 33.022 87.7545 13.1475 62.8795 13.1817C62.8449 13.1817 62.8102 13.1817 62.7756 13.1817C62.7409 13.1817 62.7063 13.1817 62.6716 13.1817C37.7966 13.2158 17.6334 33.0903 17.668 57.6432C17.668 62.9704 19.8506 75.8444 26.5024 86.1231C34.8518 99.0655 59.2418 127.58 62.8102 131.746V132.019C62.8449 131.985 62.8795 131.916 62.9141 131.882C62.9488 131.916 62.9834 131.985 63.0181 132.019V131.746C66.5865 127.58 90.9072 98.9972 99.2219 86.0548C105.839 75.742 107.987 62.8679 107.987 57.5407Z" fill="url(#paint0_radial_1106_437)"/>
<path d="M99.724 57.1607C99.724 78.0873 82.5249 95.0834 61.2683 95.0834C40.0476 95.0834 22.8125 78.1227 22.8125 57.1607C22.8125 36.1988 40.0476 19.2734 61.2683 19.2734C82.489 19.2734 99.724 36.2342 99.724 57.1607Z" fill="url(#paint1_radial_1106_437)"/>
<path d="M51 39H75.65V44.4H57.25V53.75H73.4V58.85H57.25V74.7H51V39Z" fill="white"/>
<defs>
<radialGradient id="paint0_radial_1106_437" cx="0" cy="0" r="1" gradientUnits="userSpaceOnUse" gradientTransform="translate(62.8499 72.6006) rotate(-0.0621227) scale(53.2643 52.5015)">
<stop stop-color="#F7F8F8"/>
<stop offset="0.2239" stop-color="#F2F3F4"/>
<stop offset="0.5439" stop-color="#E3E4E8"/>
<stop offset="0.9199" stop-color="#C9CBD0"/>
<stop offset="1" stop-color="#C3C5CA"/>
</radialGradient>
<radialGradient id="paint1_radial_1106_437" cx="0" cy="0" r="1" gradientUnits="userSpaceOnUse" gradientTransform="translate(61.276 57.1723) scale(38.4423 37.9094)">
<stop stop-color="#9BF15C"/>
<stop offset="1" stop-color="#6BA044"/>
</radialGradient>
</defs>
</svg>
