<svg width="195" height="194" viewBox="0 0 195 194" fill="none" xmlns="http://www.w3.org/2000/svg">
<mask id="mask0_839_708" style="mask-type:luminance" maskUnits="userSpaceOnUse" x="163" y="45" width="20" height="29">
<path d="M177.961 45.959C177.961 45.959 184.354 52.4635 181.539 56.5475C178.882 60.4066 167.239 73.9392 167.239 73.9392L163.433 69.2108L177.961 45.959Z" fill="white"/>
</mask>
<g mask="url(#mask0_839_708)">
<path d="M186.688 54.8385L177.961 45.959L158.519 65.0668L167.246 73.9463L186.688 54.8385Z" fill="url(#paint0_linear_839_708)"/>
</g>
<mask id="mask1_839_708" style="mask-type:luminance" maskUnits="userSpaceOnUse" x="120" y="12" width="30" height="19">
<path d="M149.157 16.6526C149.157 16.6526 142.765 10.1481 138.632 12.8913C134.728 15.4809 120.995 26.8881 120.995 26.8881L125.657 30.7753L149.157 16.6526Z" fill="white"/>
</mask>
<g mask="url(#mask1_839_708)">
<path d="M149.156 16.6529L140.43 7.77344L120.988 26.8813L129.714 35.7608L149.156 16.6529Z" fill="url(#paint1_linear_839_708)"/>
</g>
<path style="mix-blend-mode:multiply" d="M125.702 30.7335L120.998 26.8884C120.998 26.8884 123.2 24.9204 126.019 22.7103L130.309 27.0752L125.702 30.7335Z" fill="url(#paint2_linear_839_708)"/>
<path style="mix-blend-mode:multiply" d="M163.473 69.1687L167.236 73.9391C167.236 73.9391 169.242 71.7715 171.501 68.9908L167.211 64.626L163.473 69.1687Z" fill="url(#paint3_linear_839_708)"/>
<path d="M124.049 29.9981L147.371 16.8356C149.439 15.6727 152.455 16.1019 154.116 17.7922L176.904 40.9787C178.565 42.669 178.935 45.6988 177.743 47.7391L164.178 70.8296L124.056 30.0053L124.049 29.9981Z" fill="#AB322C"/>
<path d="M124.408 29.6476C124.408 29.6476 124.373 29.6119 124.367 29.5906L122.058 25.0732C121.995 24.9525 122.039 24.7973 122.167 24.7418C122.288 24.6792 122.443 24.723 122.498 24.8508L124.807 29.3682C124.869 29.4889 124.819 29.637 124.698 29.6996C124.598 29.7553 124.478 29.733 124.401 29.6546L124.408 29.6476Z" fill="#2F3332"/>
<path d="M124.751 30.0392C124.688 29.975 124.646 29.8897 124.619 29.7905L123.607 25.0227C123.552 24.7535 123.724 24.4863 123.994 24.4321C124.263 24.3778 124.53 24.5499 124.584 24.8191L125.597 29.5868C125.651 29.856 125.479 30.1232 125.21 30.1775C125.032 30.2113 124.863 30.1533 124.751 30.0392Z" fill="#2F3332"/>
<path d="M124.595 24.6848C124.131 25.1404 122.562 25.9542 122.106 25.4906L117.893 21.2042C117.438 20.7406 118.279 19.1851 118.742 18.7295L124.595 24.6848Z" fill="white"/>
<path d="M117.969 19.9961C117.766 20.4893 117.677 20.9836 117.895 21.2046L122.107 25.4911C122.332 25.7193 122.82 25.6316 123.317 25.4379L117.969 19.9961Z" fill="#2F3332"/>
<path d="M164.735 70.678C164.657 70.5995 164.644 70.4863 164.695 70.3806C164.759 70.261 164.908 70.2128 165.028 70.2775L169.505 72.664C169.624 72.7287 169.672 72.8776 169.608 72.9972C169.543 73.1169 169.394 73.1651 169.275 73.1004L164.798 70.7139C164.798 70.7139 164.756 70.6852 164.742 70.671L164.735 70.678Z" fill="#2F3332"/>
<path d="M164.347 70.3286C164.235 70.2145 164.173 70.0371 164.216 69.8678C164.275 69.5996 164.545 69.4322 164.814 69.4911L169.563 70.5859C169.831 70.6448 169.999 70.915 169.94 71.1832C169.881 71.4514 169.611 71.6188 169.343 71.5599L164.593 70.465C164.501 70.443 164.41 70.3928 164.347 70.3286Z" fill="#2F3332"/>
<path d="M169.695 70.5801C169.232 71.0357 168.391 72.5912 168.846 73.0547L173.059 77.3412C173.515 77.8048 175.085 76.991 175.548 76.5354L169.695 70.5801Z" fill="white"/>
<path d="M174.27 77.2885C173.773 77.4822 173.278 77.5627 173.06 77.3417L168.848 73.0552C168.623 72.827 168.72 72.3399 168.922 71.8467L174.27 77.2885Z" fill="url(#paint4_linear_839_708)"/>
<g style="mix-blend-mode:multiply">
<path d="M127.752 31.8546L127.738 31.8403C127.661 31.7477 127.684 31.6136 127.776 31.5366C138.713 22.863 153.905 17.6347 154.054 17.5865C154.168 17.545 154.287 17.6097 154.329 17.7232C154.37 17.8367 154.306 17.9564 154.192 17.9978C154.043 18.046 138.915 23.2537 128.042 31.8783C127.957 31.9483 127.837 31.9402 127.759 31.8617L127.752 31.8546Z" fill="#C7C2A9"/>
</g>
<path d="M164.642 70.5451C158.404 63.3136 151.814 55.181 145.645 48.9047C139.477 42.6284 131 35.9715 124.338 29.5354C126.772 30.9283 130.1 27.9377 132.367 29.1736C142.312 37.0242 157.179 52.1515 164.856 62.231C166.045 64.5254 163.284 68.0937 164.642 70.5451Z" fill="url(#paint5_linear_839_708)"/>
<path d="M7.05739 140.075C6.85525 141.367 7.2323 142.735 8.22064 143.741L48.455 184.679C49.3032 185.542 50.4168 185.962 51.5341 185.958C50.2486 181.711 42.1994 171.352 31.3487 160.312C21.2761 150.063 11.7553 142.23 7.05739 140.075Z" fill="#AE2D2B"/>
<path d="M167.246 73.9457C168.43 72.7821 158.427 61.9045 145.655 48.9097C132.884 35.915 122.182 25.7243 120.998 26.8879L8.27453 137.673C7.58985 138.346 7.19352 139.198 7.05151 140.08C11.7494 142.235 21.2702 150.068 31.3428 160.317C42.1935 171.358 50.2498 181.709 51.5282 185.963C52.6031 185.958 53.6886 185.551 54.5159 184.737L167.246 73.9457Z" fill="url(#paint6_linear_839_708)"/>
<path style="mix-blend-mode:multiply" d="M145.655 48.9097C132.884 35.915 122.182 25.7243 120.998 26.8879L120.156 27.715C121.34 26.5514 132.043 36.7421 144.814 49.7369C157.585 62.7316 167.589 73.6092 166.405 74.7728L167.246 73.9457C168.43 72.7821 158.427 61.9045 145.655 48.9097Z" fill="url(#paint7_linear_839_708)"/>
<path d="M130.725 70.9136L122.44 62.4835C120.946 60.963 118.502 60.9418 116.981 62.4361L104.857 74.3522C103.336 75.8465 103.315 78.2904 104.809 79.8109L113.095 88.2411C114.589 89.7615 117.033 89.7827 118.553 88.2884L130.678 76.3723C132.198 74.878 132.22 72.4341 130.725 70.9136Z" fill="#DE6E69"/>
<path d="M121.528 63.3945L129.813 71.8247C130.809 72.8374 130.801 74.4709 129.782 75.4732L117.664 87.3823C116.651 88.3777 115.018 88.3705 114.016 87.3507L105.73 78.9205C104.735 77.9077 104.749 76.2814 105.762 75.2861L117.879 63.377C118.892 62.3816 120.526 62.3887 121.528 63.4086L121.528 63.3945Z" fill="url(#paint8_linear_839_708)"/>
<path d="M121.528 63.3955L129.813 71.8256C130.809 72.8384 130.801 74.4718 129.782 75.4742L117.664 87.3833C116.651 88.3786 115.018 88.3715 114.016 87.3516L105.73 78.9214C104.735 77.9087 104.749 76.2824 105.762 75.2871L117.879 63.378C118.892 62.3826 120.526 62.3897 121.528 63.4096L121.528 63.3955Z" fill="white"/>
<path d="M59.6275 124.231L67.9127 132.661C69.4057 134.18 69.3845 136.626 67.8654 138.119L55.7479 150.028C54.2287 151.521 51.7823 151.5 50.2892 149.981L42.004 141.551C40.511 140.032 40.5322 137.585 42.0514 136.092L54.1689 124.183C55.688 122.69 58.1345 122.711 59.6275 124.231Z" fill="#DE6E69"/>
<path d="M58.7077 125.136L66.9929 133.566C67.9882 134.579 67.9812 136.212 66.9613 137.214L54.8438 149.124C53.831 150.119 52.1976 150.112 51.1952 149.092L42.91 140.662C41.9147 139.649 41.9288 138.023 42.9415 137.027L55.059 125.118C56.0718 124.123 57.7052 124.13 58.7076 125.15L58.7077 125.136Z" fill="white"/>
<path d="M20.109 153.481C20.6669 152.75 18.0117 149.892 14.1962 147.094L7.2046 141.977C7.39706 142.615 7.73117 143.226 8.23586 143.74L19.1146 154.809C19.1146 154.809 19.5722 154.219 20.123 153.495L20.109 153.481Z" fill="white"/>
<path d="M38.9437 172.645C39.6839 172.1 42.496 174.804 45.2344 178.675L50.229 185.754C49.5943 185.551 48.9892 185.206 48.4845 184.693L37.6058 173.623C37.6058 173.623 38.2037 173.176 38.9367 172.638L38.9437 172.645Z" fill="url(#paint9_linear_839_708)"/>
<g style="mix-blend-mode:multiply">
<path d="M51.2473 186.039C49.9552 181.742 41.6738 171.247 31.1315 160.52C21.4304 150.65 11.7069 142.539 6.93156 140.348L7.18374 139.806C12.0929 142.062 21.662 150.029 31.5664 160.107C42.1717 170.898 50.5089 181.492 51.8286 185.874L51.2543 186.046L51.2473 186.039Z" fill="#B3B3B3"/>
</g>
<path d="M36.0621 171.072L21.6016 156.358L21.1023 156.849L35.5629 171.563L36.0621 171.072Z" fill="white"/>
<path style="mix-blend-mode:screen" d="M149.944 45.4398C146.284 41.8865 142.445 38.5085 138.435 35.3412C136.161 34.1122 131.955 34.7829 129.682 33.5398C132.768 36.4941 135.973 39.5414 139.185 42.624C142.858 43.0802 146.492 44.0097 149.944 45.4257L149.944 45.4398Z" fill="url(#paint10_linear_839_708)"/>
<path d="M178.306 41.8043C178.149 41.9585 177.908 41.9847 177.775 41.8491L153.263 16.9081C153.13 16.7726 153.153 16.5394 153.317 16.3782C153.474 16.224 153.715 16.1978 153.848 16.3333L178.36 41.2744C178.493 41.4099 178.47 41.6431 178.306 41.8043Z" fill="url(#paint11_linear_839_708)"/>
<g style="mix-blend-mode:multiply">
<path d="M12.2317 140.635C12.1476 140.549 12.1559 140.415 12.2343 140.338L123.053 31.4245C123.139 31.3404 123.273 31.3486 123.35 31.4271C123.427 31.5055 123.426 31.647 123.348 31.7241L12.5358 140.63C12.4503 140.714 12.3159 140.706 12.2388 140.628L12.2317 140.635Z" fill="#C7C2A9"/>
</g>
<g style="mix-blend-mode:multiply">
<path d="M51.6302 180.718C51.546 180.632 51.5543 180.498 51.6328 180.421L162.452 71.5075C162.537 71.4234 162.672 71.4316 162.749 71.5101C162.826 71.5886 162.825 71.73 162.746 71.8071L51.9343 180.713C51.8487 180.797 51.7144 180.789 51.6373 180.711L51.6302 180.718Z" fill="#C7C2A9"/>
</g>
<defs>
<linearGradient id="paint0_linear_839_708" x1="182.324" y1="50.3987" x2="162.882" y2="69.5066" gradientUnits="userSpaceOnUse">
<stop stop-color="white"/>
<stop offset="1" stop-color="white" stop-opacity="0"/>
</linearGradient>
<linearGradient id="paint1_linear_839_708" x1="144.793" y1="12.2132" x2="125.351" y2="31.321" gradientUnits="userSpaceOnUse">
<stop stop-color="white"/>
<stop offset="1" stop-color="white" stop-opacity="0"/>
</linearGradient>
<linearGradient id="paint2_linear_839_708" x1="123.717" y1="28.8707" x2="126.762" y2="25.8777" gradientUnits="userSpaceOnUse">
<stop stop-color="#CCCCCC"/>
<stop offset="1" stop-color="white"/>
</linearGradient>
<linearGradient id="paint3_linear_839_708" x1="165.301" y1="71.1857" x2="168.347" y2="68.1927" gradientUnits="userSpaceOnUse">
<stop stop-color="#CCCCCC"/>
<stop offset="1" stop-color="white"/>
</linearGradient>
<linearGradient id="paint4_linear_839_708" x1="173.956" y1="77.6111" x2="168.601" y2="72.1621" gradientUnits="userSpaceOnUse">
<stop stop-color="#363B39"/>
<stop offset="1" stop-color="#1B1C1C"/>
</linearGradient>
<linearGradient id="paint5_linear_839_708" x1="145.766" y1="48.7997" x2="152.692" y2="41.9935" gradientUnits="userSpaceOnUse">
<stop stop-color="white"/>
<stop offset="1" stop-color="#1B1C1C"/>
</linearGradient>
<linearGradient id="paint6_linear_839_708" x1="64.3332" y1="82.564" x2="110.589" y2="129.629" gradientUnits="userSpaceOnUse">
<stop stop-color="white"/>
<stop offset="0.06" stop-color="white"/>
<stop offset="0.11" stop-color="#AC332D"/>
<stop offset="0.17" stop-color="#AB322C"/>
<stop offset="0.28" stop-color="#AC322C"/>
<stop offset="0.47" stop-color="#AE2B2A"/>
<stop offset="0.76" stop-color="#AB322C"/>
<stop offset="0.88" stop-color="#AC312C"/>
<stop offset="0.91" stop-color="#AC312C"/>
<stop offset="0.92" stop-color="#AC322C"/>
<stop offset="0.96" stop-color="white"/>
<stop offset="1" stop-color="white"/>
</linearGradient>
<linearGradient id="paint7_linear_839_708" x1="145.691" y1="48.8747" x2="144.778" y2="49.7719" gradientUnits="userSpaceOnUse">
<stop stop-color="#CA722A"/>
<stop offset="0.27" stop-color="#DCA272"/>
<stop offset="0.52" stop-color="#EBCAAF"/>
<stop offset="0.73" stop-color="#F5E6DA"/>
<stop offset="0.9" stop-color="#FCF8F5"/>
<stop offset="1" stop-color="white"/>
</linearGradient>
<linearGradient id="paint8_linear_839_708" x1="111.824" y1="69.3139" x2="123.719" y2="81.4171" gradientUnits="userSpaceOnUse">
<stop stop-color="#F29D0A"/>
<stop offset="0.07" stop-color="#F7AF13"/>
<stop offset="0.16" stop-color="#FBBD1B"/>
<stop offset="0.27" stop-color="#FEC51F"/>
<stop offset="0.47" stop-color="#FFC821"/>
<stop offset="0.77" stop-color="#FDCA20"/>
<stop offset="0.9" stop-color="#F8D11D"/>
<stop offset="0.93" stop-color="#F7D41C"/>
<stop offset="1" stop-color="#F0D800"/>
</linearGradient>
<linearGradient id="paint9_linear_839_708" x1="50.7282" y1="185.264" x2="38.4617" y2="172.782" gradientUnits="userSpaceOnUse">
<stop stop-color="white"/>
<stop offset="1" stop-color="white"/>
</linearGradient>
<linearGradient id="paint10_linear_839_708" x1="136.903" y1="50.5736" x2="140.193" y2="38.0435" gradientUnits="userSpaceOnUse">
<stop stop-color="#3B3B3B"/>
<stop offset="1"/>
</linearGradient>
<linearGradient id="paint11_linear_839_708" x1="165.665" y1="29.242" x2="166.45" y2="28.471" gradientUnits="userSpaceOnUse">
<stop stop-color="#363B39"/>
<stop offset="1" stop-color="#1B1C1C"/>
</linearGradient>
</defs>
</svg>
