<svg width="126" height="146" viewBox="0 0 126 146" fill="none" xmlns="http://www.w3.org/2000/svg">
<path d="M108.099 57.5407C108.064 33.022 87.8456 13.1475 62.9452 13.1817C62.9105 13.1817 62.8759 13.1817 62.8412 13.1817C62.8065 13.1817 62.7718 13.1817 62.7371 13.1817C37.8367 13.2158 17.6529 33.0903 17.6875 57.6432C17.6875 62.9704 19.8724 75.8444 26.531 86.1231C34.8889 99.0655 59.3038 127.58 62.8759 131.746V132.019C62.9105 131.985 62.9452 131.916 62.9799 131.882C63.0146 131.916 63.0493 131.985 63.0839 132.019V131.746C66.656 127.58 91.0015 98.9972 99.3248 86.0548C105.949 75.742 108.099 62.8679 108.099 57.5407Z" fill="url(#paint0_radial_1106_443)"/>
<path d="M85.3503 29.6406C94.1937 36.2655 99.8813 46.7491 99.9159 58.5304C99.9506 78.6439 83.4082 94.9328 62.9815 94.967C55.1785 94.967 47.965 92.6107 42 88.5812C48.2424 93.2595 56.0108 96.0256 64.4381 96.0256C84.8647 95.9914 101.372 79.7025 101.372 59.589C101.338 47.193 94.9913 36.1972 85.3503 29.6406Z" fill="white"/>
<path d="M99.826 57.1607C99.826 78.0873 82.6093 95.0834 61.331 95.0834C40.0886 95.0834 22.8359 78.1227 22.8359 57.1607C22.8359 36.1988 40.0886 19.2734 61.331 19.2734C82.5733 19.2734 99.826 36.2342 99.826 57.1607Z" fill="url(#paint1_radial_1106_443)"/>
<path d="M51 39H75.65V44.4H57.25V53.75H73.4V58.85H57.25V74.7H51V39Z" fill="white"/>
<defs>
<radialGradient id="paint0_radial_1106_443" cx="0" cy="0" r="1" gradientUnits="userSpaceOnUse" gradientTransform="translate(62.9156 72.6006) rotate(-0.0620593) scale(53.3187 52.5015)">
<stop stop-color="#F7F8F8"/>
<stop offset="0.2239" stop-color="#F2F3F4"/>
<stop offset="0.5439" stop-color="#E3E4E8"/>
<stop offset="0.9199" stop-color="#C9CBD0"/>
<stop offset="1" stop-color="#C3C5CA"/>
</radialGradient>
<radialGradient id="paint1_radial_1106_443" cx="0" cy="0" r="1" gradientUnits="userSpaceOnUse" gradientTransform="translate(61.3387 57.1723) scale(38.4816 37.9094)">
<stop stop-color="#F04A49"/>
<stop offset="1" stop-color="#AE2B2A"/>
</radialGradient>
</defs>
</svg>
