<svg width="195" height="194" viewBox="0 0 195 194" fill="none" xmlns="http://www.w3.org/2000/svg">
<path style="mix-blend-mode:multiply" d="M181.172 54.3179L173.062 46.066C168.548 41.4729 162.414 40.1822 157.821 44.6963L40.4972 160.002C35.9041 164.516 35.8401 171.898 40.3542 176.491L42.7913 178.415C47.3054 183.008 56.6372 193.059 64.9533 184.886L182.277 69.5803C186.87 65.0662 189.345 62.6339 181.172 54.3179Z" fill="url(#paint0_linear_2_836)"/>
<mask id="mask0_2_836" style="mask-type:luminance" maskUnits="userSpaceOnUse" x="163" y="45" width="20" height="29">
<path d="M177.963 45.9601C177.963 45.9601 184.356 52.4646 181.541 56.5487C178.884 60.4078 167.24 73.9403 167.24 73.9403L163.435 69.212L177.963 45.9601Z" fill="white"/>
</mask>
<g mask="url(#mask0_2_836)">
<path d="M186.69 54.8396L177.963 45.9601L158.521 65.0679L167.248 73.9475L186.69 54.8396Z" fill="url(#paint1_linear_2_836)"/>
</g>
<mask id="mask1_2_836" style="mask-type:luminance" maskUnits="userSpaceOnUse" x="121" y="12" width="29" height="19">
<path d="M149.161 16.654C149.161 16.654 142.769 10.1495 138.636 12.8927C134.732 15.4823 120.999 26.8895 120.999 26.8895L125.661 30.7767L149.161 16.654Z" fill="white"/>
</mask>
<g mask="url(#mask1_2_836)">
<path d="M149.16 16.654L140.434 7.77449L120.991 26.8823L129.718 35.7618L149.16 16.654Z" fill="url(#paint2_linear_2_836)"/>
</g>
<path style="mix-blend-mode:multiply" d="M125.704 30.7346L121 26.8895C121 26.8895 123.202 24.9215 126.021 22.7114L130.311 27.0763L125.704 30.7346Z" fill="url(#paint3_linear_2_836)"/>
<path style="mix-blend-mode:multiply" d="M163.477 69.1694L167.24 73.9398C167.24 73.9398 169.246 71.7722 171.505 68.9915L167.215 64.6266L163.477 69.1694Z" fill="url(#paint4_linear_2_836)"/>
<path d="M124.057 29.9992L147.379 16.8366C149.447 15.6737 152.463 16.1029 154.124 17.7932L176.912 40.9797C178.573 42.67 178.943 45.6998 177.751 47.7401L164.186 70.8306L124.064 30.0063L124.057 29.9992Z" fill="#AB322C"/>
<path d="M124.412 29.6483C124.412 29.6483 124.377 29.6127 124.37 29.5914L122.062 25.074C121.999 24.9532 122.043 24.7981 122.171 24.7426C122.292 24.68 122.447 24.7238 122.502 24.8515L124.811 29.369C124.873 29.4897 124.823 29.6378 124.702 29.7003C124.602 29.7561 124.482 29.7338 124.405 29.6554L124.412 29.6483Z" fill="#2F3332"/>
<path d="M124.755 30.0398C124.692 29.9756 124.65 29.8904 124.623 29.7911L123.611 25.0233C123.556 24.7542 123.728 24.4869 123.998 24.4327C124.267 24.3785 124.534 24.5505 124.588 24.8197L125.6 29.5874C125.655 29.8566 125.483 30.1239 125.213 30.1781C125.036 30.2119 124.867 30.1539 124.755 30.0398Z" fill="#2F3332"/>
<path d="M124.597 24.6861C124.133 25.1417 122.564 25.9555 122.108 25.4919L117.895 21.2054C117.44 20.7419 118.281 19.1864 118.744 18.7308L124.597 24.6861Z" fill="white"/>
<path d="M117.969 19.9968C117.766 20.49 117.677 20.9842 117.895 21.2053L122.107 25.4917C122.332 25.72 122.82 25.6323 123.317 25.4386L117.969 19.9968Z" fill="#2F3332"/>
<path d="M164.738 70.6793C164.661 70.6009 164.648 70.4876 164.699 70.382C164.763 70.2623 164.912 70.2142 165.032 70.2788L169.509 72.6653C169.628 72.73 169.676 72.8789 169.612 72.9986C169.547 73.1182 169.398 73.1664 169.278 73.1018L164.802 70.7152C164.802 70.7152 164.76 70.6866 164.746 70.6723L164.738 70.6793Z" fill="#2F3332"/>
<path d="M164.353 70.3296C164.241 70.2155 164.178 70.0381 164.222 69.8688C164.281 69.6006 164.551 69.4333 164.82 69.4922L169.569 70.587C169.837 70.6459 170.005 70.916 169.946 71.1842C169.887 71.4524 169.617 71.6198 169.348 71.5609L164.599 70.4661C164.507 70.4441 164.416 70.3938 164.353 70.3296Z" fill="#2F3332"/>
<path d="M169.703 70.5815C169.24 71.0371 168.399 72.5926 168.854 73.0562L173.067 77.3426C173.523 77.8062 175.092 76.9924 175.556 76.5368L169.703 70.5815Z" fill="white"/>
<path d="M174.276 77.2893C173.779 77.483 173.284 77.5636 173.066 77.3425L168.854 73.056C168.629 72.8278 168.725 72.3407 168.928 71.8475L174.276 77.2893Z" fill="url(#paint5_linear_2_836)"/>
<g style="mix-blend-mode:multiply">
<path d="M127.758 31.8559L127.744 31.8417C127.667 31.7491 127.69 31.6149 127.782 31.538C138.719 22.8644 153.911 17.636 154.06 17.5878C154.174 17.5464 154.293 17.6111 154.335 17.7246C154.376 17.8381 154.311 17.9577 154.198 17.9992C154.049 18.0474 138.921 23.255 128.048 31.8797C127.963 31.9497 127.842 31.9415 127.765 31.8631L127.758 31.8559Z" fill="#C7C2A9"/>
</g>
<path d="M164.646 70.5457C158.408 63.3142 151.817 55.1816 145.649 48.9053C139.481 42.629 131.003 35.9721 124.342 29.5359C126.776 30.9289 130.104 27.9383 132.371 29.1742C142.316 37.0248 157.183 52.152 164.86 62.2316C166.049 64.526 163.288 68.0943 164.646 70.5457Z" fill="url(#paint6_linear_2_836)"/>
<path d="M7.05934 140.076C6.85721 141.368 7.23425 142.736 8.22259 143.742L48.457 184.68C49.3051 185.543 50.4187 185.963 51.536 185.958C50.2505 181.712 42.2013 171.353 31.3506 160.312C21.278 150.064 11.7572 142.231 7.05934 140.076Z" fill="#AE2D2B"/>
<path d="M167.248 73.9468C168.432 72.7832 158.429 61.9056 145.657 48.9109C132.886 35.9161 122.184 25.7254 121 26.889L8.27649 137.674C7.5918 138.347 7.19547 139.199 7.05346 140.082C11.7513 142.237 21.2722 150.069 31.3448 160.318C42.1954 171.359 50.2518 181.71 51.5302 185.964C52.6051 185.959 53.6905 185.552 54.5178 184.739L167.248 73.9468Z" fill="url(#paint7_linear_2_836)"/>
<path style="mix-blend-mode:multiply" d="M145.657 48.9109C132.886 35.9161 122.184 25.7254 121 26.889L120.158 27.7161C121.342 26.5526 132.045 36.7432 144.816 49.738C157.587 62.7327 167.591 73.6103 166.407 74.7739L167.248 73.9468C168.432 72.7832 158.429 61.9056 145.657 48.9109Z" fill="url(#paint8_linear_2_836)"/>
<path d="M130.729 70.9149L122.444 62.4847C120.95 60.9643 118.506 60.9431 116.985 62.4374L104.861 74.3535C103.34 75.8478 103.319 78.2917 104.813 79.8122L113.099 88.2424C114.593 89.7628 117.037 89.784 118.557 88.2897L130.682 76.3736C132.202 74.8793 132.223 72.4354 130.729 70.9149Z" fill="#DE6E69"/>
<path d="M121.532 63.3953L129.817 71.8255C130.812 72.8383 130.805 74.4717 129.785 75.474L117.668 87.3831C116.655 88.3785 115.022 88.3714 114.019 87.3515L105.734 78.9213C104.739 77.9085 104.753 76.2822 105.766 75.2869L117.883 63.3778C118.896 62.3825 120.529 62.3896 121.532 63.4095L121.532 63.3953Z" fill="url(#paint9_linear_2_836)"/>
<path d="M121.53 63.3967L129.815 71.8269C130.811 72.8396 130.803 74.4731 129.784 75.4754L117.666 87.3845C116.653 88.3799 115.02 88.3727 114.017 87.3529L105.732 78.9227C104.737 77.9099 104.751 76.2836 105.764 75.2883L117.881 63.3792C118.894 62.3838 120.527 62.3909 121.53 63.4108L121.53 63.3967Z" fill="white"/>
<path d="M59.6314 124.231L67.9166 132.661C69.4097 134.181 69.3884 136.627 67.8693 138.12L55.7518 150.029C54.2326 151.522 51.7862 151.501 50.2931 149.982L42.0079 141.552C40.5149 140.032 40.5362 137.586 42.0553 136.093L54.1728 124.184C55.6919 122.691 58.1384 122.712 59.6314 124.231Z" fill="#DE6E69"/>
<path d="M58.7116 125.136L66.9968 133.566C67.9921 134.579 67.9851 136.213 66.9652 137.215L54.8477 149.124C53.8349 150.119 52.2015 150.112 51.1991 149.092L42.9139 140.662C41.9186 139.649 41.9327 138.023 42.9454 137.028L55.0629 125.119C56.0757 124.123 57.7091 124.13 58.7115 125.15L58.7116 125.136Z" fill="white"/>
<path d="M20.111 153.482C20.6689 152.752 18.0136 149.893 14.1981 147.095L7.20655 141.978C7.39902 142.616 7.73313 143.227 8.23781 143.741L19.1165 154.81C19.1165 154.81 19.5742 154.22 20.1249 153.496L20.111 153.482Z" fill="white"/>
<path d="M38.9457 172.646C39.6858 172.101 42.498 174.805 45.2363 178.676L50.2309 185.755C49.5963 185.552 48.9912 185.207 48.4865 184.694L37.6078 173.624C37.6078 173.624 38.2057 173.177 38.9387 172.639L38.9457 172.646Z" fill="url(#paint10_linear_2_836)"/>
<g style="mix-blend-mode:multiply">
<path d="M51.2532 186.04C49.961 181.743 41.6796 171.249 31.1374 160.522C21.4363 150.651 11.7128 142.541 6.93742 140.349L7.1896 139.807C12.0988 142.063 21.6679 150.031 31.5723 160.108C42.1776 170.899 50.5148 181.494 51.8345 185.875L51.2602 186.047L51.2532 186.04Z" fill="#B3B3B3"/>
</g>
<path d="M36.066 171.073L21.6055 156.359L21.1062 156.85L35.5668 171.564L36.066 171.073Z" fill="white"/>
<path d="M144.059 47.2851C143.533 46.7501 143.014 46.2224 142.503 45.7017L141.668 46.5219L143.224 48.1052L144.066 47.2781L144.059 47.2851Z" fill="white"/>
<path d="M146.429 49.6955L144.873 48.1122L144.031 48.9393L145.588 50.5226L146.429 49.6955Z" fill="white"/>
<path d="M147.248 50.5297L146.406 51.3568L147.963 52.9402L148.797 52.1201C148.285 51.5994 147.767 51.0716 147.241 50.5367L147.248 50.5297Z" fill="white"/>
<path style="mix-blend-mode:screen" d="M149.944 45.4407C146.284 41.8875 142.445 38.5095 138.435 35.3421C136.161 34.1132 131.955 34.7838 129.682 33.5407C132.768 36.495 135.973 39.5423 139.185 42.625C142.858 43.0811 146.492 44.0107 149.944 45.4266L149.944 45.4407Z" fill="url(#paint11_linear_2_836)"/>
<path d="M178.312 41.8049C178.155 41.9591 177.914 41.9853 177.781 41.8498L153.269 16.9087C153.136 16.7732 153.159 16.5401 153.323 16.3788C153.48 16.2246 153.72 16.1985 153.854 16.334L178.366 41.275C178.499 41.4105 178.476 41.6437 178.312 41.8049Z" fill="url(#paint12_linear_2_836)"/>
<g style="mix-blend-mode:multiply">
<path d="M12.2395 140.636C12.1554 140.55 12.1637 140.416 12.2421 140.339L123.061 31.4255C123.147 31.3414 123.281 31.3496 123.358 31.4281C123.435 31.5065 123.434 31.648 123.356 31.7251L12.5437 140.631C12.4581 140.715 12.3238 140.707 12.2467 140.629L12.2395 140.636Z" fill="#C7C2A9"/>
</g>
<g style="mix-blend-mode:multiply">
<path d="M51.6321 180.718C51.548 180.633 51.5563 180.499 51.6347 180.421L162.454 71.5082C162.539 71.4241 162.674 71.4323 162.751 71.5108C162.828 71.5892 162.827 71.7307 162.748 71.8078L51.9362 180.714C51.8507 180.798 51.7163 180.79 51.6392 180.711L51.6321 180.718Z" fill="#C7C2A9"/>
</g>
<defs>
<linearGradient id="paint0_linear_2_836" x1="108.086" y1="112.588" x2="123.636" y2="128.895" gradientUnits="userSpaceOnUse">
<stop stop-color="#242424"/>
<stop offset="1" stop-color="white"/>
</linearGradient>
<linearGradient id="paint1_linear_2_836" x1="182.326" y1="50.3999" x2="162.884" y2="69.5077" gradientUnits="userSpaceOnUse">
<stop stop-color="white"/>
<stop offset="1" stop-color="white" stop-opacity="0"/>
</linearGradient>
<linearGradient id="paint2_linear_2_836" x1="144.797" y1="12.2142" x2="125.355" y2="31.3221" gradientUnits="userSpaceOnUse">
<stop stop-color="white"/>
<stop offset="1" stop-color="white" stop-opacity="0"/>
</linearGradient>
<linearGradient id="paint3_linear_2_836" x1="123.719" y1="28.8718" x2="126.764" y2="25.8788" gradientUnits="userSpaceOnUse">
<stop stop-color="#CCCCCC"/>
<stop offset="1" stop-color="white"/>
</linearGradient>
<linearGradient id="paint4_linear_2_836" x1="165.305" y1="71.1864" x2="168.351" y2="68.1934" gradientUnits="userSpaceOnUse">
<stop stop-color="#CCCCCC"/>
<stop offset="1" stop-color="white"/>
</linearGradient>
<linearGradient id="paint5_linear_2_836" x1="173.962" y1="77.6119" x2="168.607" y2="72.1629" gradientUnits="userSpaceOnUse">
<stop stop-color="#363B39"/>
<stop offset="1" stop-color="#1B1C1C"/>
</linearGradient>
<linearGradient id="paint6_linear_2_836" x1="145.77" y1="48.8003" x2="152.696" y2="41.9941" gradientUnits="userSpaceOnUse">
<stop stop-color="white"/>
<stop offset="1" stop-color="#1B1C1C"/>
</linearGradient>
<linearGradient id="paint7_linear_2_836" x1="64.3352" y1="82.5651" x2="110.591" y2="129.63" gradientUnits="userSpaceOnUse">
<stop stop-color="white"/>
<stop offset="0.06" stop-color="white"/>
<stop offset="0.11" stop-color="#AC332D"/>
<stop offset="0.17" stop-color="#AB322C"/>
<stop offset="0.28" stop-color="#AC322C"/>
<stop offset="0.47" stop-color="#AE2B2A"/>
<stop offset="0.76" stop-color="#AB322C"/>
<stop offset="0.88" stop-color="#AC312C"/>
<stop offset="0.91" stop-color="#AC312C"/>
<stop offset="0.92" stop-color="#AC322C"/>
<stop offset="0.96" stop-color="white"/>
<stop offset="1" stop-color="white"/>
</linearGradient>
<linearGradient id="paint8_linear_2_836" x1="145.693" y1="48.8758" x2="144.78" y2="49.773" gradientUnits="userSpaceOnUse">
<stop stop-color="#CA722A"/>
<stop offset="0.27" stop-color="#DCA272"/>
<stop offset="0.52" stop-color="#EBCAAF"/>
<stop offset="0.73" stop-color="#F5E6DA"/>
<stop offset="0.9" stop-color="#FCF8F5"/>
<stop offset="1" stop-color="white"/>
</linearGradient>
<linearGradient id="paint9_linear_2_836" x1="111.828" y1="69.3147" x2="123.723" y2="81.418" gradientUnits="userSpaceOnUse">
<stop stop-color="#F29D0A"/>
<stop offset="0.07" stop-color="#F7AF13"/>
<stop offset="0.16" stop-color="#FBBD1B"/>
<stop offset="0.27" stop-color="#FEC51F"/>
<stop offset="0.47" stop-color="#FFC821"/>
<stop offset="0.77" stop-color="#FDCA20"/>
<stop offset="0.9" stop-color="#F8D11D"/>
<stop offset="0.93" stop-color="#F7D41C"/>
<stop offset="1" stop-color="#F0D800"/>
</linearGradient>
<linearGradient id="paint10_linear_2_836" x1="50.7302" y1="185.265" x2="38.4636" y2="172.783" gradientUnits="userSpaceOnUse">
<stop stop-color="white"/>
<stop offset="1" stop-color="white"/>
</linearGradient>
<linearGradient id="paint11_linear_2_836" x1="136.903" y1="50.5746" x2="140.193" y2="38.0444" gradientUnits="userSpaceOnUse">
<stop stop-color="#3B3B3B"/>
<stop offset="1"/>
</linearGradient>
<linearGradient id="paint12_linear_2_836" x1="165.671" y1="29.2426" x2="166.455" y2="28.4716" gradientUnits="userSpaceOnUse">
<stop stop-color="#363B39"/>
<stop offset="1" stop-color="#1B1C1C"/>
</linearGradient>
</defs>
</svg>
