<svg width="124" height="146" viewBox="0 0 124 146" fill="none" xmlns="http://www.w3.org/2000/svg">
<path d="M106.441 57.5412C106.407 33.0225 86.4983 13.148 61.9796 13.1822C61.9455 13.1822 61.9113 13.1822 61.8772 13.1822C61.843 13.1822 61.8089 13.1822 61.7747 13.1822C37.256 13.2163 17.3815 33.0908 17.4157 57.6437C17.4157 62.9709 19.5671 75.8449 26.1236 86.1236C34.3534 99.066 58.394 127.58 61.9113 131.746H62.0001C61.966 131.78 62.0343 131.712 62.0001 131.746C61.966 131.712 62.0343 131.78 62.0001 131.746H62.1162C65.6335 127.58 89.6059 98.9977 97.8015 86.0553C104.324 75.7424 106.441 62.8684 106.441 57.5412Z" fill="url(#paint0_radial_94_70)"/>
<path d="M99.81 57.8873C99.81 78.8138 82.8571 95.81 61.905 95.81C40.9882 95.81 24 78.8492 24 57.8873C24 36.9253 40.9882 20 61.905 20C82.8217 20 99.81 36.9608 99.81 57.8873Z" fill="url(#paint1_radial_94_70)"/>
<path d="M80.2995 37H72.294H71.5662V37.0218C67.5199 37.2766 64.0266 39.6054 62.1417 42.9531C60.2276 39.3361 56.6688 37 53.3721 37H52.6443H43.9111C42.3027 37 41 38.3027 41 39.9111V41.3666C41 43.7755 42.9577 45.7332 45.3666 45.7332H48.2777C50.6866 45.7332 52.6443 43.7755 52.6443 41.3666V39.9111H53.3721C56.6688 39.9111 60.6497 43.8046 60.6497 48.6443V71.9328H59.922C57.1128 71.9328 54.8276 74.218 54.8276 77.0272V79.2105H69.3829V77.0272C69.3829 74.218 67.0977 71.9328 64.2886 71.9328H63.5608V48.6443C63.5608 44.0739 67.0905 40.3113 71.5662 39.9402V41.3666C71.5662 43.7755 73.5239 45.7332 75.9328 45.7332H78.8439C81.2528 45.7332 83.2105 43.7755 83.2105 41.3666V39.9111C83.2105 38.3027 81.9078 37 80.2995 37Z" fill="#EEEEEE"/>
<defs>
<radialGradient id="paint0_radial_94_70" cx="0" cy="0" r="1" gradientUnits="userSpaceOnUse" gradientTransform="translate(61.9505 72.6011) rotate(-0.0630253) scale(52.5015 52.5014)">
<stop stop-color="#F7F8F8"/>
<stop offset="0.2239" stop-color="#F2F3F4"/>
<stop offset="0.5439" stop-color="#E3E4E8"/>
<stop offset="0.9199" stop-color="#C9CBD0"/>
<stop offset="1" stop-color="#C3C5CA"/>
</radialGradient>
<radialGradient id="paint1_radial_94_70" cx="0" cy="0" r="1" gradientUnits="userSpaceOnUse" gradientTransform="translate(61.9126 57.8989) scale(37.8917 37.9094)">
<stop stop-color="#F04A49"/>
<stop offset="1" stop-color="#AE2B2A"/>
</radialGradient>
</defs>
</svg>
