<svg width="124" height="146" viewBox="0 0 124 146" fill="none" xmlns="http://www.w3.org/2000/svg">
<path d="M106.441 57.5412C106.407 33.0225 86.4983 13.148 61.9796 13.1822C61.9455 13.1822 61.9113 13.1822 61.8772 13.1822C61.843 13.1822 61.8089 13.1822 61.7747 13.1822C37.256 13.2163 17.3815 33.0908 17.4157 57.6437C17.4157 62.9709 19.5671 75.8449 26.1236 86.1236C34.3534 99.066 58.394 127.58 61.9113 131.746H62.0001C61.966 131.78 62.0343 131.712 62.0001 131.746C61.966 131.712 62.0343 131.78 62.0001 131.746H62.1162C65.6335 127.58 89.6059 98.9977 97.8015 86.0553C104.324 75.7424 106.441 62.8684 106.441 57.5412Z" fill="url(#paint0_radial_94_112)"/>
<path d="M99.8101 57.8858C99.8101 78.8124 82.8573 95.8085 61.9051 95.8085C40.9883 95.8085 24.0001 78.8478 24.0001 57.8858C24.0001 36.9239 40.9883 19.9985 61.9051 19.9985C82.8219 19.9985 99.8101 36.9593 99.8101 57.8858Z" fill="url(#paint1_radial_94_112)"/>
<path d="M64.5283 39H54.6099C53.1743 39 52 40.2344 52 41.7434V75.765C52 76.7257 52.7829 77.5487 53.6969 77.5487H58.2651C59.1791 77.5487 59.962 76.7257 59.962 75.765V65.7508H65.0518C72.6212 65.7508 78.6241 58.7547 77.581 50.6601C76.6652 43.9379 70.9228 39 64.5283 39H64.5283ZM64.9197 57.3824H59.8299V47.3682H64.9197C67.5296 47.3682 69.7483 49.5634 69.7483 52.4438C69.7483 55.3241 67.5297 57.3824 64.9197 57.3824Z" fill="white"/>
<defs>
<radialGradient id="paint0_radial_94_112" cx="0" cy="0" r="1" gradientUnits="userSpaceOnUse" gradientTransform="translate(61.9505 72.6011) rotate(-0.0630253) scale(52.5015 52.5014)">
<stop stop-color="#F7F8F8"/>
<stop offset="0.2239" stop-color="#F2F3F4"/>
<stop offset="0.5439" stop-color="#E3E4E8"/>
<stop offset="0.9199" stop-color="#C9CBD0"/>
<stop offset="1" stop-color="#C3C5CA"/>
</radialGradient>
<radialGradient id="paint1_radial_94_112" cx="0" cy="0" r="1" gradientUnits="userSpaceOnUse" gradientTransform="translate(61.9127 57.8974) scale(37.8917 37.9094)">
<stop stop-color="#9BF15C"/>
<stop offset="1" stop-color="#6BA044"/>
</radialGradient>
</defs>
</svg>
