<svg width="124" height="146" viewBox="0 0 124 146" fill="none" xmlns="http://www.w3.org/2000/svg">
<path d="M106.441 57.5412C106.407 33.0225 86.4983 13.148 61.9796 13.1822C61.9455 13.1822 61.9113 13.1822 61.8772 13.1822C61.843 13.1822 61.8089 13.1822 61.7747 13.1822C37.256 13.2163 17.3815 33.0908 17.4157 57.6437C17.4157 62.9709 19.5671 75.8449 26.1236 86.1236C34.3534 99.066 58.394 127.58 61.9113 131.746H62.0001C61.966 131.78 62.0343 131.712 62.0001 131.746C61.966 131.712 62.0343 131.78 62.0001 131.746H62.1162C65.6335 127.58 89.6059 98.9977 97.8015 86.0553C104.324 75.7424 106.441 62.8684 106.441 57.5412Z" fill="url(#paint0_radial_94_86)"/>
<path d="M99.81 57.8873C99.81 78.8138 82.8571 95.81 61.905 95.81C40.9882 95.81 24 78.8492 24 57.8873C24 36.9254 40.9882 20 61.905 20C82.8217 20 99.81 36.9608 99.81 57.8873Z" fill="url(#paint1_radial_94_86)"/>
<path d="M63.5283 39H53.6099C52.1743 39 51 40.2344 51 41.7434V75.765C51 76.7257 51.7829 77.5487 52.6969 77.5487H57.2651C58.1791 77.5487 58.962 76.7257 58.962 75.765V65.7508H64.0518C71.6212 65.7508 77.6241 58.7547 76.581 50.6601C75.6652 43.9379 69.9227 39 63.5283 39ZM63.9197 57.3824H58.8299V47.3682H63.9197C66.5296 47.3682 68.7483 49.5634 68.7483 52.4438C68.7483 55.3241 66.5297 57.3824 63.9197 57.3824Z" fill="white"/>
<defs>
<radialGradient id="paint0_radial_94_86" cx="0" cy="0" r="1" gradientUnits="userSpaceOnUse" gradientTransform="translate(61.9505 72.6011) rotate(-0.0630253) scale(52.5015 52.5014)">
<stop stop-color="#F7F8F8"/>
<stop offset="0.2239" stop-color="#F2F3F4"/>
<stop offset="0.5439" stop-color="#E3E4E8"/>
<stop offset="0.9199" stop-color="#C9CBD0"/>
<stop offset="1" stop-color="#C3C5CA"/>
</radialGradient>
<radialGradient id="paint1_radial_94_86" cx="0" cy="0" r="1" gradientUnits="userSpaceOnUse" gradientTransform="translate(61.9126 57.8989) scale(37.8917 37.9094)">
<stop stop-color="#EEAB26"/>
<stop offset="1" stop-color="#D26901"/>
</radialGradient>
</defs>
</svg>
