<svg width="124" height="146" viewBox="0 0 124 146" fill="none" xmlns="http://www.w3.org/2000/svg">
<path d="M106.441 57.5412C106.407 33.0225 86.4983 13.148 61.9796 13.1822C61.9455 13.1822 61.9113 13.1822 61.8772 13.1822C61.843 13.1822 61.8089 13.1822 61.7747 13.1822C37.256 13.2163 17.3815 33.0908 17.4157 57.6437C17.4157 62.9709 19.5671 75.8449 26.1236 86.1236C34.3534 99.066 58.394 127.58 61.9113 131.746H62.0001C61.966 131.78 62.0343 131.712 62.0001 131.746C61.966 131.712 62.0343 131.78 62.0001 131.746H62.1162C65.6335 127.58 89.6059 98.9977 97.8015 86.0553C104.324 75.7424 106.441 62.8684 106.441 57.5412Z" fill="url(#paint0_radial_94_104)"/>
<path d="M99.81 57.8873C99.81 78.8138 82.8571 95.81 61.905 95.81C40.9882 95.81 24 78.8492 24 57.8873C24 36.9254 40.9882 20 61.905 20C82.8217 20 99.81 36.9608 99.81 57.8873Z" fill="url(#paint1_radial_94_104)"/>
<path d="M62.9816 43.9993H58.987C58.4088 43.9993 57.9359 44.4722 57.9359 45.0504V58.0855C57.9359 58.4536 58.2512 58.7689 58.6193 58.7689H60.4591C60.8272 58.7689 61.1425 58.4536 61.1425 58.0855V54.2487H63.1924C66.241 54.2487 68.6586 51.5681 68.2385 48.4668C67.8696 45.8912 65.5569 43.9993 62.9816 43.9993H62.9816ZM63.1392 51.0423H61.0894V47.2055H63.1392C64.1904 47.2055 65.0839 48.0465 65.0839 49.1501C65.0839 50.2537 64.1904 51.0423 63.1392 51.0423Z" fill="#EEEEEE"/>
<path d="M65.3541 39.7844C63.2426 38.7385 60.7574 38.7385 58.6459 39.7844L47 45.5531V62.1221C47 66.6049 52.3383 71.7052 62 77.75C71.6617 71.7052 77 67.8433 77 62.1221C77 56.401 77 45.5531 77 45.5531L65.3541 39.7844Z" fill="#EEEEEE" stroke="#EEEEEE" stroke-width="12" stroke-linecap="round" stroke-linejoin="round"/>
<path d="M57 56.9167L60.75 60.6667L68.25 53.1667" stroke="#DA7B0B" stroke-width="3" stroke-linecap="round" stroke-linejoin="round"/>
<defs>
<radialGradient id="paint0_radial_94_104" cx="0" cy="0" r="1" gradientUnits="userSpaceOnUse" gradientTransform="translate(61.9505 72.6011) rotate(-0.0630253) scale(52.5015 52.5014)">
<stop stop-color="#F7F8F8"/>
<stop offset="0.2239" stop-color="#F2F3F4"/>
<stop offset="0.5439" stop-color="#E3E4E8"/>
<stop offset="0.9199" stop-color="#C9CBD0"/>
<stop offset="1" stop-color="#C3C5CA"/>
</radialGradient>
<radialGradient id="paint1_radial_94_104" cx="0" cy="0" r="1" gradientUnits="userSpaceOnUse" gradientTransform="translate(61.9126 57.8989) scale(37.8917 37.9094)">
<stop stop-color="#EEAB26"/>
<stop offset="1" stop-color="#D26901"/>
</radialGradient>
</defs>
</svg>
